<?xml version="1.0" encoding="utf-8"?>
<!DOCTYPE svg PUBLIC "-//W3C//DTD SVG 1.1//EN" "http://www.w3.org/Graphics/SVG/1.1/DTD/svg11.dtd">
<svg version="1.1" id="" xmlns="http://www.w3.org/2000/svg" viewBox="0 0 577 119">
<path fill="#F34235" d="M577,107c0,6.6269531-5.3730469,12-12,12H12c-6.6274414,0-12-5.3730469-12-12V12
	C0,5.3725586,5.3725586,0,12,0h553c6.6269531,0,12,5.3725586,12,12V107z"/>
<g>
	<path fill="#FFFFFF" d="M23.9624023,91.7626953V80.3984375c1.0205078,0.9277344,2.2338867,1.7626953,3.6411133,2.5048828
		s2.8994141,1.3681641,4.4765625,1.8789063c1.5771484,0.5097656,3.1542969,0.9042969,4.7314453,1.1826172
		s3.0302734,0.4169922,4.3603516,0.4169922c4.6386719,0,8.0947266-0.7724609,10.3671875-2.3183594
		c2.2734375-1.546875,3.409668-3.7880859,3.409668-6.7265625c0-1.5771484-0.3789063-2.9453125-1.1362305-4.1054688
		c-0.7583008-1.1591797-1.8173828-2.2182617-3.1777344-3.1772461c-1.3613281-0.9580078-2.9614258-1.878418-4.8007813-2.7602539
		c-1.840332-0.8808594-3.8120117-1.8007813-5.9145508-2.7597656c-2.2578125-1.2060547-4.3603516-2.4272461-6.3085938-3.6645508
		c-1.9482422-1.2363281-3.6411133-2.6049805-5.0795898-4.1049805c-1.4375-1.5-2.5668945-3.1928711-3.3857422-5.0795898
		c-0.8198242-1.8857422-1.2294922-4.097168-1.2294922-6.6333008c0-3.1230469,0.703125-5.8369141,2.1103516-8.140625
		s3.2626953-4.2055664,5.5664063-5.7060547c2.3037109-1.4995117,4.9243164-2.612793,7.862793-3.3398438
		c2.9375-0.7260742,5.9375-1.0898438,8.9990234-1.0898438c6.9580078,0,12.0292969,0.7885742,15.2148438,2.3657227v10.9008789
		c-3.7734375-2.7207031-8.6279297-4.0820313-14.5654297-4.0820313c-1.6396484,0-3.2700195,0.1552734-4.894043,0.4638672
		c-1.6230469,0.3095703-3.0771484,0.8198242-4.3603516,1.5307617c-1.2832031,0.7119141-2.3271484,1.6235352-3.1308594,2.7368164
		c-0.8046875,1.1132813-1.2060547,2.4584961-1.2060547,4.0356445c0,1.484375,0.3085938,2.7680664,0.9277344,3.8500977
		c0.6181641,1.0830078,1.5229492,2.0722656,2.7138672,2.96875c1.1899414,0.8974609,2.6435547,1.7705078,4.3603516,2.6210938
		c1.7158203,0.8505859,3.7026367,1.7705078,5.9604492,2.7597656c2.3193359,1.2060547,4.5068359,2.4746094,6.5639648,3.8037109
		c2.0561523,1.3300781,3.8652344,2.7993164,5.4267578,4.4067383c1.5615234,1.6083984,2.7988281,3.394043,3.7109375,5.3579102
		s1.3686523,4.1977539,1.3686523,6.703125c0,3.3701172-0.6806641,6.2148438-2.0410156,8.5351563
		c-1.3613281,2.3183594-3.1933594,4.2050781-5.496582,5.6582031c-2.3041992,1.4541016-4.956543,2.5058594-7.9555664,3.1542969
		c-3,0.6503906-6.1694336,0.9746094-9.5092773,0.9746094c-1.1132813,0-2.4814453-0.0859375-4.1054688-0.2548828
		c-1.6230469-0.1708984-3.2861328-0.4179688-4.9863281-0.7421875c-1.7011719-0.3251953-3.3095703-0.7197266-4.8242188-1.1826172
		C26.1113281,92.8759766,24.8901367,92.3505859,23.9624023,91.7626953z"/>
	<path fill="#FFFFFF" d="M129.909668,67.5029297c0,18.6787109-8.8447266,28.0175781-26.5332031,28.0175781
		c-16.9472656,0-25.4199219-8.9833984-25.4199219-26.9506836V27.8886719H88.996582V66.296875
		c0,13.0507813,5.0712891,19.5751953,15.2148438,19.5751953c9.7714844,0,14.6582031-6.2929688,14.6582031-18.8793945V27.8886719
		h11.0400391V67.5029297z"/>
	<path fill="#FFFFFF" d="M145.5419922,94.4072266V27.8886719h21.105957c6.4316406,0,11.5273438,1.4077148,15.2841797,4.2211914
		c3.7578125,2.8144531,5.6362305,6.4790039,5.6362305,10.9936523c0,3.7734375-1.0668945,7.0507813-3.2006836,9.8339844
		s-5.0874023,4.7626953-8.8598633,5.9375v0.1855469c4.5761719,0.5263672,8.2338867,2.2192383,10.9702148,5.0791016
		c2.7373047,2.8608398,4.1054688,6.5800781,4.1054688,11.15625c0,5.6904297-2.2426758,10.2978516-6.7260742,13.8232422
		c-4.484375,3.5253906-10.1435547,5.2880859-16.9775391,5.2880859H145.5419922z M156.5356445,36.7485352v18.9257813h7.1435547
		c3.8339844,0,6.8417969-0.9047852,9.0224609-2.7133789c2.1796875-1.8095703,3.2700195-4.3676758,3.2700195-7.6772461
		c0-5.6894531-3.8037109-8.5351563-11.4111328-8.5351563H156.5356445z M156.5356445,64.5341797V85.59375h9.4165039
		c4.1123047,0,7.2900391-0.9511719,9.5327148-2.8525391c2.2416992-1.9023438,3.362793-4.5234375,3.362793-7.8623047
		c0-6.8959961-4.777832-10.3447266-14.3334961-10.3447266H156.5356445z"/>
	<path fill="#FFFFFF" d="M199.8608398,91.7626953V80.3984375c1.0205078,0.9277344,2.2338867,1.7626953,3.6411133,2.5048828
		s2.8994141,1.3681641,4.4765625,1.8789063c1.5771484,0.5097656,3.1542969,0.9042969,4.7314453,1.1826172
		s3.0302734,0.4169922,4.3603516,0.4169922c4.6386719,0,8.0947266-0.7724609,10.3671875-2.3183594
		c2.2734375-1.546875,3.409668-3.7880859,3.409668-6.7265625c0-1.5771484-0.3789063-2.9453125-1.1362305-4.1054688
		c-0.7583008-1.1591797-1.8173828-2.2182617-3.1777344-3.1772461c-1.3613281-0.9580078-2.9614258-1.878418-4.8007813-2.7602539
		c-1.840332-0.8808594-3.8120117-1.8007813-5.9145508-2.7597656c-2.2578125-1.2060547-4.3603516-2.4272461-6.3085938-3.6645508
		c-1.9482422-1.2363281-3.6411133-2.6049805-5.0795898-4.1049805c-1.4375-1.5-2.5668945-3.1928711-3.3857422-5.0795898
		c-0.8198242-1.8857422-1.2294922-4.097168-1.2294922-6.6333008c0-3.1230469,0.703125-5.8369141,2.1103516-8.140625
		s3.2626953-4.2055664,5.5664063-5.7060547c2.3037109-1.4995117,4.9243164-2.612793,7.862793-3.3398438
		c2.9375-0.7260742,5.9375-1.0898438,8.9990234-1.0898438c6.9580078,0,12.0292969,0.7885742,15.2148438,2.3657227v10.9008789
		c-3.7734375-2.7207031-8.6279297-4.0820313-14.5654297-4.0820313c-1.6396484,0-3.2700195,0.1552734-4.894043,0.4638672
		c-1.6230469,0.3095703-3.0771484,0.8198242-4.3603516,1.5307617c-1.2832031,0.7119141-2.3271484,1.6235352-3.1308594,2.7368164
		c-0.8046875,1.1132813-1.2060547,2.4584961-1.2060547,4.0356445c0,1.484375,0.3085938,2.7680664,0.9277344,3.8500977
		c0.6181641,1.0830078,1.5229492,2.0722656,2.7138672,2.96875c1.1899414,0.8974609,2.6435547,1.7705078,4.3603516,2.6210938
		c1.7158203,0.8505859,3.7026367,1.7705078,5.9604492,2.7597656c2.3193359,1.2060547,4.5068359,2.4746094,6.5639648,3.8037109
		c2.0561523,1.3300781,3.8652344,2.7993164,5.4267578,4.4067383c1.5615234,1.6083984,2.7988281,3.394043,3.7109375,5.3579102
		s1.3686523,4.1977539,1.3686523,6.703125c0,3.3701172-0.6806641,6.2148438-2.0410156,8.5351563
		c-1.3613281,2.3183594-3.1933594,4.2050781-5.496582,5.6582031c-2.3041992,1.4541016-4.956543,2.5058594-7.9555664,3.1542969
		c-3,0.6503906-6.1694336,0.9746094-9.5092773,0.9746094c-1.1132813,0-2.4814453-0.0859375-4.1054688-0.2548828
		c-1.6230469-0.1708984-3.2861328-0.4179688-4.9863281-0.7421875c-1.7011719-0.3251953-3.3095703-0.7197266-4.8242188-1.1826172
		C202.0097656,92.8759766,200.7885742,92.3505859,199.8608398,91.7626953z"/>
	<path fill="#FFFFFF" d="M301.0302734,91.6240234c-5.0097656,2.5976563-11.2416992,3.8964844-18.6938477,3.8964844
		c-9.6484375,0-17.3798828-3.0458984-23.1933594-9.1386719c-5.8144531-6.0917969-8.7207031-14.0849609-8.7207031-23.9814453
		c0-10.6376953,3.2705078-19.234375,9.8105469-25.7910156c6.5410156-6.5556641,14.8046875-9.8339844,24.7939453-9.8339844
		c6.4316406,0,11.7661133,0.9125977,16.003418,2.7368164v10.9472656c-4.484375-2.6591797-9.4326172-3.9892578-14.84375-3.9892578
		c-7.2060547,0-13.0424805,2.3041992-17.5112305,6.9116211c-4.46875,4.6083984-6.7026367,10.7617188-6.7026367,18.4619141
		c0,7.3291016,2.0874023,13.1660156,6.262207,17.5107422c4.1748047,4.3457031,9.6635742,6.5175781,16.4672852,6.5175781
		c6.2773438,0,11.7197266-1.484375,16.328125-4.453125V91.6240234z"/>
	<path fill="#FFFFFF" d="M365.0449219,94.4072266h-12.8964844l-10.6230469-17.8125
		c-0.9589844-1.6386719-1.8945313-3.0380859-2.8066406-4.1982422c-0.9121094-1.1591797-1.8398438-2.1103516-2.7832031-2.8525391
		s-1.9707031-1.2827148-3.0839844-1.6235352c-1.1132813-0.3398438-2.3652344-0.5102539-3.7578125-0.5102539h-4.453125v26.9970703
		h-10.9931641V27.8886719h21.8945313c3.1230469,0,5.9990234,0.3710938,8.6279297,1.1132813
		c2.6279297,0.7421875,4.9179688,1.8632813,6.8652344,3.3632813c1.9492188,1.5,3.4707031,3.3706055,4.5683594,5.6123047
		c1.0976563,2.2426758,1.6484375,4.8637695,1.6484375,7.862793c0,2.3505859-0.3496094,4.5073242-1.0449219,6.4711914
		s-1.6855469,3.7109375-2.96875,5.2412109c-1.2832031,1.53125-2.8300781,2.8378906-4.6386719,3.9199219
		c-1.8085938,1.0830078-3.8427734,1.9179688-6.0996094,2.5048828v0.1855469c1.2060547,0.6806641,2.2568359,1.4306641,3.1542969,2.25
		c0.8964844,0.8193359,1.7460938,1.6625977,2.5507813,2.527832c0.8046875,0.8662109,1.6015625,1.8481445,2.3886719,2.9458008
		c0.7890625,1.0976563,1.6621094,2.3735352,2.6210938,3.8271484L365.0449219,94.4072266z M324.640625,36.8413086v21.6162109
		h9.1855469c1.6992188,0,3.2695313-0.262207,4.7070313-0.7885742c1.4394531-0.5253906,2.6835938-1.2827148,3.734375-2.2729492
		c1.0507813-0.9892578,1.8710938-2.1953125,2.4589844-3.6181641c0.5869141-1.421875,0.8808594-3.0151367,0.8808594-4.777832
		c0-3.1845703-1.0048828-5.6743164-3.0146484-7.4682617c-2.0107422-1.7929688-4.9013672-2.6904297-8.6748047-2.6904297H324.640625z"
		/>
	<path fill="#FFFFFF" d="M384.109375,94.4072266h-11.3652344V27.8886719h11.3652344V94.4072266z"/>
	<path fill="#FFFFFF" d="M400.484375,94.4072266V27.8886719h21.1054688c6.4316406,0,11.5273438,1.4077148,15.2841797,4.2211914
		c3.7578125,2.8144531,5.6357422,6.4790039,5.6357422,10.9936523c0,3.7734375-1.0664063,7.0507813-3.2001953,9.8339844
		s-5.0869141,4.7626953-8.8603516,5.9375v0.1855469c4.5771484,0.5263672,8.234375,2.2192383,10.9707031,5.0791016
		c2.7373047,2.8608398,4.1054688,6.5800781,4.1054688,11.15625c0,5.6904297-2.2421875,10.2978516-6.7265625,13.8232422
		c-4.4833984,3.5253906-10.1425781,5.2880859-16.9765625,5.2880859H400.484375z M411.4775391,36.7485352v18.9257813h7.1435547
		c3.8339844,0,6.8417969-0.9047852,9.0224609-2.7133789c2.1796875-1.8095703,3.2705078-4.3676758,3.2705078-7.6772461
		c0-5.6894531-3.8046875-8.5351563-11.4121094-8.5351563H411.4775391z M411.4775391,64.5341797V85.59375h9.4169922
		c4.1123047,0,7.2890625-0.9511719,9.5322266-2.8525391c2.2412109-1.9023438,3.3623047-4.5234375,3.3623047-7.8623047
		c0-6.8959961-4.7773438-10.3447266-14.3330078-10.3447266H411.4775391z"/>
	<path fill="#FFFFFF" d="M495.2050781,94.4072266h-37.3408203V27.8886719h35.8564453v9.3701172h-24.8173828v18.8330078h22.8691406
		v9.3237305h-22.8691406v19.6674805h26.3017578V94.4072266z"/>
	<path fill="#FFFFFF" d="M507.0341797,94.4072266V27.8886719h19.203125c24.5234375,0,36.7851563,10.8081055,36.7851563,32.4243164
		c0,10.2675781-3.4023438,18.5161133-10.2050781,24.7475586c-6.8037109,6.2314453-15.9267578,9.3466797-27.3681641,9.3466797
		H507.0341797z M518.0273438,37.2587891v47.8242188h8.8134766c7.7617188,0,13.7998047-2.1328125,18.1142578-6.4003906
		c4.3134766-4.2680664,6.4707031-10.2983398,6.4707031-18.0913086c0-15.5546875-8.0556641-23.3325195-24.1669922-23.3325195
		H518.0273438z"/>
</g>
</svg>
