<?xml version="1.0" encoding="utf-8"?>
<!DOCTYPE svg PUBLIC "-//W3C//DTD SVG 1.1//EN" "http://www.w3.org/Graphics/SVG/1.1/DTD/svg11.dtd">
<svg version="1.1" id="" xmlns="http://www.w3.org/2000/svg" viewBox="0 0 288.5029297 289.137207">
<g>
	<path fill="#DF485E" d="M124.4960938,44.1958008c-68.6191406,0-124.2475586,51.6542969-124.2475586,115.3730469
		c0,23.4824219,7.5737305,45.3125,20.550293,63.5351563c-1.7045898,21.0527344-6.6098633,50.7070313-20.550293,65.1503906
		c0,0,42.597168-6.1914063,71.4521484-24.2382813c16.0283203,6.9941406,33.9150391,10.9277344,52.7954102,10.9277344
		c68.6201172,0,124.2470703-51.6542969,124.2470703-115.375C248.7431641,95.8500977,193.1162109,44.1958008,124.4960938,44.1958008z
		"/>
	<path fill="#A42D4E" d="M288.5029297,115.3735352C288.5029297,51.6542969,232.8759766,0,164.2548828,0
		C114.7055664,0,71.9394531,26.9414063,51.9902344,65.9072266c20.4116211-13.6455078,45.4350586-21.7114258,72.5058594-21.7114258
		c68.6201172,0,124.2470703,51.6542969,124.2470703,115.3730469c0,24.3730469-8.1601563,46.9648438-22.0507813,65.59375
		c27.8261719,13.9238281,61.8105469,18.8964844,61.8105469,18.8964844
		c-13.9394531-14.4375-18.8457031-44.09375-20.5507813-65.1503906
		C280.9287109,160.6860352,288.5029297,138.855957,288.5029297,115.3735352z"/>
</g>
</svg>
