<?xml version="1.0" encoding="utf-8"?>
<!DOCTYPE svg PUBLIC "-//W3C//DTD SVG 1.1//EN" "http://www.w3.org/Graphics/SVG/1.1/DTD/svg11.dtd">
<svg version="1.1" id="Layer_1" xmlns="http://www.w3.org/2000/svg" viewBox="0 0 47 39">
<style type="text/css">
<![CDATA[
	.st0{fill:#262626;}
	.st1{opacity:0.46;fill:#424242;}
	.st2{fill:none;stroke:#666666;stroke-miterlimit:10;}
	.st3{fill:#424242;}
]]>
</style>
<rect class="st0" width="47" height="39"/>
<g>
	<rect x="2.0834961" y="2.0834961" class="st0" width="42.9165039" height="34.9165039"/>
	<rect x="2.0834961" y="2.0834961" class="st2" width="42.9165039" height="34.9165039"/>
</g>
<g>
	<g>
		<path class="st3" d="M26.8652344,34.3535156c-0.0683594,0-0.1337891-0.0400391-0.1582031-0.1054688
			c-0.9082031-2.3320313-2.7832031-3.546875-3.8212891-3.7949219C11.0209961,27.6162109,9.4111328,19.6660156,9.2001953,17.2973633
			c-0.1821289-2.0517578-0.1972656-5.9599609,1.75-9.0908203c0.046875-0.0771484,0.1518555-0.1020508,0.2324219-0.0571289
			c0.0810547,0.0458984,0.1083984,0.144043,0.0610352,0.2211914c-1.8984375,3.0532227-1.8818359,6.8867188-1.7041016,8.8994141
			c0.206543,2.315918,1.7836914,10.0864258,13.4306641,12.8696289c1.1069336,0.2646484,3.1020508,1.5478516,4.0551758,3.9970703
			c0.03125,0.0839844-0.0126953,0.1757813-0.1005859,0.2070313C26.90625,34.3505859,26.8847656,34.3535156,26.8652344,34.3535156z"
			/>
		<path class="st3" d="M11.9311523,11.8144531c-0.5478516,0.4233398-2.0581055,0.769043-2.2885742,0.2709961
			c-0.2304688-0.4975586,0.5200195-1.4960938,1.1206055-1.8144531c0.9814453-0.519043,2.4365234-0.3574219,2.4365234-0.3574219
			S12.9804688,11.0058594,11.9311523,11.8144531z M12.5786133,12.890625c0,0-1.4575195,0.137207-2.340332,0.8481445
			c-0.5405273,0.4355469-1.1201172,1.5688477-0.8144531,2.012207c0.3041992,0.4438477,1.7368164-0.2036133,2.2084961-0.7324219
			C12.5361328,14.0107422,12.5786133,12.890625,12.5786133,12.890625z M12.0454102,15.7626953
			c0,0-1.3251953,0.7006836-1.9350586,1.715332c-0.3735352,0.6210938-0.5708008,1.9116211-0.1489258,2.2075195
			s1.5664063-0.8740234,1.8476563-1.5551758C12.347168,16.8286133,12.0454102,15.7626953,12.0454102,15.7626953z
			 M12.5800781,18.8115234c0,0-1.0737305,1.1269531-1.3828125,2.3017578
			c-0.1889648,0.7207031-0.0297852,2.0195313,0.4511719,2.15625c0.480957,0.1347656,1.2568359-1.3740234,1.3422852-2.1201172
			C13.1547852,19.7236328,12.5800781,18.8115234,12.5800781,18.8115234z M14.0537109,21.3095703
			c0,0-0.8374023,1.2744141-0.9448242,2.4443359c-0.0668945,0.7167969,0.2856445,1.9082031,0.7602539,1.9404297
			s0.9711914-1.5458984,0.9350586-2.2646484C14.7368164,22.0537109,14.0537109,21.3095703,14.0537109,21.3095703z
			 M15.8691406,23.65625c0,0-0.5205078,1.3828125-0.3881836,2.4824219c0.0820313,0.6728516,0.6435547,1.6738281,1.0883789,1.5820313
			c0.4453125-0.0927734,0.590332-1.6650391,0.4140625-2.3144531C16.6494141,24.1630859,15.8691406,23.65625,15.8691406,23.65625z
			 M18.2675781,24.7685547c0,0-0.5224609,1.4111328-0.3867188,2.5341797c0.0839844,0.6875,0.6533203,1.7119141,1.1020508,1.6191406
			c0.4492188-0.09375,0.5932617-1.6982422,0.4130859-2.3652344C19.0556641,25.2871094,18.2675781,24.7685547,18.2675781,24.7685547z
			 M20.7167969,24.9648438c0,0-0.5380859,1.6113281-0.3774414,2.9042969c0.0986328,0.7910156,0.71875,1.9765625,1.1972656,1.8779297
			c0.4785156-0.0996094,0.609375-1.9404297,0.4086914-2.7060547C21.5639648,25.5761719,20.7167969,24.9648438,20.7167969,24.9648438
			z"/>
		<path class="st3" d="M12.4550781,6.8564453c-0.2553711,0.7861328-1.3193359,2.2861328-1.7250977,2.0668945
			c-0.4047852-0.2197266-0.2407227-1.6362305,0.1035156-2.3798828c0.5605469-1.2138672,1.8041992-2.2578125,1.8041992-2.2578125
			S12.9438477,5.3530273,12.4550781,6.8564453z M8.6494141,6.7949219c0,0-0.4902344,1.5620117-0.2822266,2.7661133
			c0.1274414,0.737793,0.8007813,1.8032227,1.2822266,1.6708984c0.4829102-0.1328125,0.5512695-1.878418,0.3212891-2.5844727
			C9.5317383,7.300293,8.6494141,6.7949219,8.6494141,6.7949219z M7.6079102,10.7475586
			c0,0-0.2348633,1.6376953,0.1616211,2.7797852c0.2421875,0.699707,1.0732422,1.6113281,1.5263672,1.3837891
			c0.4526367-0.2294922,0.2431641-1.9614258-0.0947266-2.6074219C8.5561523,11.0664063,7.6079102,10.7475586,7.6079102,10.7475586z
			 M6.5307617,15.2246094c0,0,0.2807617,1.6279297,1.0014648,2.543457c0.4414063,0.5610352,1.5004883,1.0888672,1.8549805,0.6967773
			c0.3540039-0.3930664-0.3710938-1.934082-0.8862305-2.4077148C7.5175781,15.1489258,6.5307617,15.2246094,6.5307617,15.2246094z
			 M6.7099609,19.5703125c0,0,0.7504883,1.4238281,1.7026367,2.0078125c0.5830078,0.359375,1.7358398,0.4501953,1.9526367-0.0546875
			c0.2167969-0.5068359-0.9267578-1.6782227-1.5522461-1.9272461C7.6166992,19.1210938,6.7099609,19.5703125,6.7099609,19.5703125z
			 M8.6689453,24.296875c0,0,1.1337891,1.0488281,2.2050781,1.2275391c0.6557617,0.1123047,1.7675781-0.2490234,1.8178711-0.8076172
			c0.0507813-0.5595703-1.3764648-1.21875-2.0400391-1.2089844C9.3842773,23.5234375,8.6689453,24.296875,8.6689453,24.296875z
			 M11.0527344,28.1816406c0,0,1.4067383,0.4580078,2.4536133,0.1474609
			c0.6425781-0.1904297,1.5385742-1.0175781,1.3920898-1.5546875c-0.1474609-0.5371094-1.6879883-0.5068359-2.2958984-0.203125
			C11.4428711,27.1523438,11.0527344,28.1816406,11.0527344,28.1816406z M13.6743164,30.0390625
			c0,0,1.40625,0.4570313,2.453125,0.1474609c0.6425781-0.1904297,1.5390625-1.0185547,1.3920898-1.5556641
			c-0.1479492-0.5371094-1.6875-0.5058594-2.2944336-0.2021484C14.0644531,29.0097656,13.6743164,30.0390625,13.6743164,30.0390625z
			 M17.2646484,32.1367188c0,0,1.3339844-0.1347656,2.1425781-0.7890625c0.4956055-0.4003906,1.0292969-1.4394531,0.7504883-1.84375
			c-0.2792969-0.4023438-1.5898438,0.1982422-2.0229492,0.6826172
			C17.3051758,31.1132813,17.2646484,32.1367188,17.2646484,32.1367188z"/>
		<path class="st1" d="M12.5498047,6.8564453c-0.2553711,0.7861328-1.3193359,2.2861328-1.7250977,2.0668945
			c-0.4047852-0.2197266-0.2407227-1.6362305,0.1030273-2.3798828c0.5615234-1.2138672,1.8051758-2.2578125,1.8051758-2.2578125
			S13.0385742,5.3530273,12.5498047,6.8564453z M8.7436523,6.7949219c0,0-0.4897461,1.5620117-0.2817383,2.7661133
			c0.1279297,0.737793,0.8007813,1.8032227,1.2822266,1.6708984c0.4824219-0.1328125,0.5507813-1.878418,0.3212891-2.5844727
			C9.6269531,7.300293,8.7436523,6.7949219,8.7436523,6.7949219z M7.7021484,10.7475586
			c0,0-0.2338867,1.6376953,0.1625977,2.7797852c0.2416992,0.699707,1.0722656,1.6113281,1.5253906,1.3837891
			c0.4526367-0.2294922,0.2441406-1.9614258-0.0942383-2.6074219C8.6508789,11.0664063,7.7021484,10.7475586,7.7021484,10.7475586z
			 M6.6254883,15.2246094c0,0,0.28125,1.6279297,1.0019531,2.543457c0.440918,0.5610352,1.5,1.0888672,1.8544922,0.6967773
			c0.3544922-0.3930664-0.3710938-1.934082-0.8867188-2.4077148C7.6123047,15.1489258,6.6254883,15.2246094,6.6254883,15.2246094z
			 M6.8046875,19.5703125c0,0,0.7504883,1.4238281,1.7021484,2.0078125c0.5830078,0.359375,1.7363281,0.4501953,1.953125-0.0546875
			c0.2163086-0.5068359-0.9267578-1.6782227-1.5522461-1.9272461C7.7109375,19.1210938,6.8046875,19.5703125,6.8046875,19.5703125z
			 M8.7631836,24.296875c0,0,1.1342773,1.0488281,2.2050781,1.2275391c0.6557617,0.1123047,1.7675781-0.2490234,1.8183594-0.8076172
			c0.0507813-0.5595703-1.3759766-1.21875-2.0400391-1.2089844C9.4790039,23.5234375,8.7631836,24.296875,8.7631836,24.296875z
			 M11.1474609,28.1816406c0,0,1.4067383,0.4580078,2.4536133,0.1474609
			c0.6425781-0.1904297,1.5380859-1.0175781,1.3920898-1.5546875c-0.1474609-0.5371094-1.6879883-0.5068359-2.2954102-0.203125
			C11.5375977,27.1523438,11.1474609,28.1816406,11.1474609,28.1816406z M13.769043,30.0390625
			c0,0,1.40625,0.4570313,2.453125,0.1474609c0.6425781-0.1904297,1.5390625-1.0185547,1.3920898-1.5556641
			C17.4667969,28.09375,15.9262695,28.125,15.3193359,28.4287109C14.1591797,29.0097656,13.769043,30.0390625,13.769043,30.0390625z
			 M17.3583984,32.1367188c0,0,1.3349609-0.1347656,2.1435547-0.7890625c0.4960938-0.4003906,1.0292969-1.4394531,0.7509766-1.84375
			c-0.2797852-0.4023438-1.5908203,0.1982422-2.0239258,0.6826172
			C17.4003906,31.1132813,17.3583984,32.1367188,17.3583984,32.1367188z"/>
		<path class="st3" d="M20.2177734,34.3535156c-0.0195313,0-0.0395508-0.0029297-0.059082-0.0097656
			c-0.0878906-0.03125-0.1342773-0.1230469-0.1010742-0.2070313c0.9526367-2.4492188,2.9482422-3.7324219,4.0546875-3.9970703
			c11.6474609-2.7832031,13.2236328-10.5537109,13.4316406-12.8696289c0.1767578-2.0126953,0.1943359-5.8461914-1.7041016-8.8994141
			c-0.0488281-0.0771484-0.0205078-0.175293,0.0605469-0.2211914c0.0800781-0.0449219,0.1845703-0.0200195,0.2324219,0.0571289
			c1.9472656,3.1308594,1.9316406,7.0390625,1.75,9.0908203c-0.2109375,2.3686523-1.8222656,10.3188477-13.6855469,13.1557617
			c-1.0390625,0.2480469-2.9125977,1.4628906-3.8203125,3.7949219
			C20.3520508,34.3134766,20.2861328,34.3535156,20.2177734,34.3535156z"/>
		<path class="st3" d="M33.8828125,9.9135742c0,0,1.4550781-0.1616211,2.4355469,0.3574219
			c0.6015625,0.3183594,1.3515625,1.3168945,1.1210938,1.8144531c-0.2294922,0.4980469-1.7402344,0.1523438-2.2880859-0.2709961
			C34.1015625,11.0058594,33.8828125,9.9135742,33.8828125,9.9135742z M35.4501953,15.0185547
			c0.4736328,0.5288086,1.9033203,1.1762695,2.2099609,0.7324219c0.3037109-0.4433594-0.2763672-1.5766602-0.8164063-2.012207
			c-0.8818359-0.7109375-2.3398438-0.8481445-2.3398438-0.8481445S34.546875,14.0107422,35.4501953,15.0185547z
			 M35.2734375,18.1303711c0.28125,0.6811523,1.4267578,1.8510742,1.8486328,1.5551758s0.2236328-1.5864258-0.1494141-2.2075195
			c-0.609375-1.0146484-1.9355469-1.715332-1.9355469-1.715332S34.734375,16.8286133,35.2734375,18.1303711z M34.0917969,21.1494141
			c0.0859375,0.7460938,0.8613281,2.2548828,1.3427734,2.1201172c0.4794922-0.1367188,0.6396484-1.4355469,0.4501953-2.15625
			c-0.3085938-1.1748047-1.3818359-2.3017578-1.3818359-2.3017578S33.9277344,19.7236328,34.0917969,21.1494141z
			 M32.2773438,23.4296875c-0.0351563,0.71875,0.4609375,2.296875,0.9375,2.2646484
			c0.4746094-0.0322266,0.8261719-1.2236328,0.7587891-1.9404297c-0.1064453-1.1699219-0.9443359-2.4443359-0.9443359-2.4443359
			S32.34375,22.0537109,32.2773438,23.4296875z M30.0996094,25.40625c-0.1777344,0.6494141-0.03125,2.2216797,0.4130859,2.3144531
			c0.4443359,0.0917969,1.0068359-0.9091797,1.0878906-1.5820313c0.1337891-1.0996094-0.3867188-2.4824219-0.3867188-2.4824219
			S30.4335938,24.1630859,30.0996094,25.40625z M27.6855469,26.5566406
			c-0.1787109,0.6669922-0.0351563,2.2714844,0.4160156,2.3652344c0.4472656,0.0927734,1.0175781-0.9316406,1.0996094-1.6191406
			c0.1367188-1.1230469-0.3867188-2.5341797-0.3867188-2.5341797S28.0273438,25.2871094,27.6855469,26.5566406z
			 M25.1367188,27.0410156c-0.1992188,0.765625-0.0683594,2.6064453,0.4101563,2.7060547
			c0.4785156,0.0986328,1.0986328-1.0869141,1.1972656-1.8779297c0.1601563-1.2929688-0.3789063-2.9042969-0.3789063-2.9042969
			S25.5185547,25.5761719,25.1367188,27.0410156z"/>
		<path class="st3" d="M34.4453125,4.2856445c0,0,1.2421875,1.0439453,1.8046875,2.2578125
			c0.3427734,0.7436523,0.5078125,2.1601563,0.1035156,2.3798828c-0.40625,0.2192383-1.4707031-1.2807617-1.7265625-2.0668945
			C34.1386719,5.3530273,34.4453125,4.2856445,34.4453125,4.2856445z M37.1132813,8.6474609
			c-0.2304688,0.7060547-0.1621094,2.4516602,0.3203125,2.5844727c0.4804688,0.1323242,1.1542969-0.9331055,1.28125-1.6708984
			c0.2089844-1.2041016-0.28125-2.7661133-0.28125-2.7661133S37.5507813,7.300293,37.1132813,8.6474609z M37.8808594,12.3037109
			c-0.3369141,0.6459961-0.546875,2.3779297-0.09375,2.6074219c0.453125,0.2275391,1.2841797-0.684082,1.5273438-1.3837891
			c0.3945313-1.1420898,0.1601563-2.7797852,0.1601563-2.7797852S38.5263672,11.0664063,37.8808594,12.3037109z
			 M38.5820313,16.0571289c-0.515625,0.4736328-1.2402344,2.0146484-0.8867188,2.4077148
			c0.3554688,0.3920898,1.4130859-0.1357422,1.8535156-0.6967773c0.7226563-0.9155273,1.0019531-2.543457,1.0019531-2.543457
			S39.5654297,15.1489258,38.5820313,16.0571289z M38.2695313,19.5961914c-0.625,0.2490234-1.7675781,1.4204102-1.5517578,1.9272461
			c0.2158203,0.5048828,1.3691406,0.4140625,1.9521484,0.0546875c0.953125-0.5839844,1.7021484-2.0078125,1.7021484-2.0078125
			S39.4667969,19.1210938,38.2695313,19.5961914z M36.4316406,23.5078125
			c-0.6650391-0.0097656-2.0917969,0.6494141-2.0410156,1.2089844c0.0507813,0.5585938,1.1640625,0.9199219,1.8173828,0.8076172
			c1.0722656-0.1787109,2.2060547-1.2275391,2.2060547-1.2275391S37.6992188,23.5234375,36.4316406,23.5078125z
			 M34.4804688,26.5712891c-0.609375-0.3037109-2.1484375-0.3339844-2.296875,0.203125
			c-0.1445313,0.5371094,0.7519531,1.3642578,1.3925781,1.5546875c1.0478516,0.3105469,2.4541016-0.1474609,2.4541016-0.1474609
			S35.640625,27.1523438,34.4804688,26.5712891z M31.859375,28.4287109
			C31.2509766,28.125,29.7109375,28.09375,29.5634766,28.6308594s0.7490234,1.3652344,1.3916016,1.5556641
			c1.046875,0.3095703,2.453125-0.1474609,2.453125-0.1474609S33.0195313,29.0097656,31.859375,28.4287109z M28.9482422,30.1865234
			c-0.4326172-0.484375-1.7431641-1.0849609-2.0234375-0.6826172c-0.2783203,0.4042969,0.2548828,1.4433594,0.7509766,1.84375
			c0.8085938,0.6542969,2.1425781,0.7890625,2.1425781,0.7890625S29.7773438,31.1132813,28.9482422,30.1865234z"/>
		<path class="st1" d="M34.4453125,4.2856445c0,0,1.2421875,1.0439453,1.8046875,2.2578125
			c0.3427734,0.7436523,0.5078125,2.1601563,0.1035156,2.3798828c-0.40625,0.2192383-1.4707031-1.2807617-1.7265625-2.0668945
			C34.1386719,5.3530273,34.4453125,4.2856445,34.4453125,4.2856445z M37.1132813,8.6474609
			c-0.2304688,0.7060547-0.1621094,2.4516602,0.3203125,2.5844727c0.4804688,0.1323242,1.1542969-0.9331055,1.28125-1.6708984
			c0.2089844-1.2041016-0.28125-2.7661133-0.28125-2.7661133S37.5507813,7.300293,37.1132813,8.6474609z M37.8808594,12.3037109
			c-0.3369141,0.6459961-0.546875,2.3779297-0.09375,2.6074219c0.453125,0.2275391,1.2841797-0.684082,1.5273438-1.3837891
			c0.3945313-1.1420898,0.1601563-2.7797852,0.1601563-2.7797852S38.5263672,11.0664063,37.8808594,12.3037109z
			 M38.5820313,16.0571289c-0.515625,0.4736328-1.2402344,2.0146484-0.8867188,2.4077148
			c0.3554688,0.3920898,1.4130859-0.1357422,1.8535156-0.6967773c0.7226563-0.9155273,1.0019531-2.543457,1.0019531-2.543457
			S39.5654297,15.1489258,38.5820313,16.0571289z M38.2695313,19.5961914c-0.625,0.2490234-1.7675781,1.4204102-1.5517578,1.9272461
			c0.2158203,0.5048828,1.3691406,0.4140625,1.9521484,0.0546875c0.953125-0.5839844,1.7021484-2.0078125,1.7021484-2.0078125
			S39.4667969,19.1210938,38.2695313,19.5961914z M36.4316406,23.5078125
			c-0.6650391-0.0097656-2.0917969,0.6494141-2.0410156,1.2089844c0.0507813,0.5585938,1.1640625,0.9199219,1.8173828,0.8076172
			c1.0722656-0.1787109,2.2060547-1.2275391,2.2060547-1.2275391S37.6992188,23.5234375,36.4316406,23.5078125z
			 M34.4804688,26.5712891c-0.609375-0.3037109-2.1484375-0.3339844-2.296875,0.203125
			c-0.1445313,0.5371094,0.7519531,1.3642578,1.3925781,1.5546875c1.0478516,0.3105469,2.4541016-0.1474609,2.4541016-0.1474609
			S35.640625,27.1523438,34.4804688,26.5712891z M31.859375,28.4287109
			C31.2509766,28.125,29.7109375,28.09375,29.5634766,28.6308594s0.7490234,1.3652344,1.3916016,1.5556641
			c1.046875,0.3095703,2.453125-0.1474609,2.453125-0.1474609S33.0195313,29.0097656,31.859375,28.4287109z M28.9482422,30.1865234
			c-0.4326172-0.484375-1.7431641-1.0849609-2.0234375-0.6826172c-0.2783203,0.4042969,0.2548828,1.4433594,0.7509766,1.84375
			c0.8085938,0.6542969,2.1425781,0.7890625,2.1425781,0.7890625S29.7773438,31.1132813,28.9482422,30.1865234z"/>
		<path class="st1" d="M34.4453125,4.2856445c0,0,1.2421875,1.0439453,1.8046875,2.2578125
			c0.3427734,0.7436523,0.5078125,2.1601563,0.1035156,2.3798828c-0.40625,0.2192383-1.4707031-1.2807617-1.7265625-2.0668945
			C34.1386719,5.3530273,34.4453125,4.2856445,34.4453125,4.2856445z M37.1132813,8.6474609
			c-0.2304688,0.7060547-0.1621094,2.4516602,0.3203125,2.5844727c0.4804688,0.1323242,1.1542969-0.9331055,1.28125-1.6708984
			c0.2089844-1.2041016-0.28125-2.7661133-0.28125-2.7661133S37.5507813,7.300293,37.1132813,8.6474609z M37.8808594,12.3037109
			c-0.3369141,0.6459961-0.546875,2.3779297-0.09375,2.6074219c0.453125,0.2275391,1.2841797-0.684082,1.5273438-1.3837891
			c0.3945313-1.1420898,0.1601563-2.7797852,0.1601563-2.7797852S38.5263672,11.0664063,37.8808594,12.3037109z
			 M38.5820313,16.0571289c-0.515625,0.4736328-1.2402344,2.0146484-0.8867188,2.4077148
			c0.3554688,0.3920898,1.4130859-0.1357422,1.8535156-0.6967773c0.7226563-0.9155273,1.0019531-2.543457,1.0019531-2.543457
			S39.5654297,15.1489258,38.5820313,16.0571289z M38.2695313,19.5961914c-0.625,0.2490234-1.7675781,1.4204102-1.5517578,1.9272461
			c0.2158203,0.5048828,1.3691406,0.4140625,1.9521484,0.0546875c0.953125-0.5839844,1.7021484-2.0078125,1.7021484-2.0078125
			S39.4667969,19.1210938,38.2695313,19.5961914z M36.4316406,23.5078125
			c-0.6650391-0.0097656-2.0917969,0.6494141-2.0410156,1.2089844c0.0507813,0.5585938,1.1640625,0.9199219,1.8173828,0.8076172
			c1.0722656-0.1787109,2.2060547-1.2275391,2.2060547-1.2275391S37.6992188,23.5234375,36.4316406,23.5078125z
			 M34.4804688,26.5712891c-0.609375-0.3037109-2.1484375-0.3339844-2.296875,0.203125
			c-0.1445313,0.5371094,0.7519531,1.3642578,1.3925781,1.5546875c1.0478516,0.3105469,2.4541016-0.1474609,2.4541016-0.1474609
			S35.640625,27.1523438,34.4804688,26.5712891z M31.859375,28.4287109
			C31.2509766,28.125,29.7109375,28.09375,29.5634766,28.6308594s0.7490234,1.3652344,1.3916016,1.5556641
			c1.046875,0.3095703,2.453125-0.1474609,2.453125-0.1474609S33.0195313,29.0097656,31.859375,28.4287109z M28.9482422,30.1865234
			c-0.4326172-0.484375-1.7431641-1.0849609-2.0234375-0.6826172c-0.2783203,0.4042969,0.2548828,1.4433594,0.7509766,1.84375
			c0.8085938,0.6542969,2.1425781,0.7890625,2.1425781,0.7890625S29.7773438,31.1132813,28.9482422,30.1865234z"/>
	</g>
</g>
<g>
	<path class="st3" d="M29.9570313,21.9277344h-5.8212891v-0.2041016c0.5263672-0.046875,0.8925781-0.1357422,1.0986328-0.265625
		c0.3662109-0.2304688,0.5498047-0.5498047,0.5498047-0.9560547c0-0.2421875-0.0830078-0.5673828-0.2480469-0.9750977
		l-0.1503906-0.3720703l-0.8505859-2.0908203h-3.8984375l-0.4604492,1.2226563l-0.2216797,0.5493164
		c-0.265625,0.6494141-0.3989258,1.1606445-0.3989258,1.5332031c0,0.2177734,0.0488281,0.421875,0.1464844,0.6103516
		c0.097168,0.1894531,0.2285156,0.3427734,0.394043,0.4609375c0.2304688,0.1591797,0.5258789,0.2539063,0.8862305,0.2832031
		v0.2041016h-3.9692383v-0.2041016c0.3129883-0.0175781,0.5878906-0.09375,0.8242188-0.2304688
		c0.2358398-0.1357422,0.4663086-0.3535156,0.690918-0.6552734c0.1889648-0.2421875,0.3735352-0.5537109,0.5537109-0.9345703
		s0.4174805-0.9521484,0.7128906-1.7143555l3.2421875-8.3544922h0.5058594l3.8535156,9.3115234
		c0.2890625,0.7026367,0.5195313,1.2045898,0.6914063,1.5063477c0.1708984,0.3007813,0.3564453,0.5283203,0.5576172,0.6816406
		c0.1416016,0.1064453,0.3046875,0.1875,0.4873047,0.2441406c0.1826172,0.0556641,0.4580078,0.1044922,0.8242188,0.1455078
		V21.9277344z M24.3935547,16.7006836l-1.8608398-4.5893555l-1.7543945,4.5893555H24.3935547z"/>
</g>
<g>
	<path class="st3" d="M21.7783203,16.0097656v3.1362305c0,0.6025391,0.0336914,1.0493164,0.1015625,1.3422852
		c0.0678711,0.2919922,0.1938477,0.5332031,0.3769531,0.7216797c0.1591797,0.1660156,0.34375,0.2880859,0.5537109,0.3681641
		c0.2089844,0.0791016,0.4853516,0.1279297,0.828125,0.1455078v0.2041016h-5.6611328v-0.2041016
		c0.3422852-0.0175781,0.6186523-0.0664063,0.8286133-0.1455078c0.2094727-0.0800781,0.394043-0.2021484,0.5537109-0.3681641
		c0.1884766-0.1884766,0.3154297-0.4287109,0.3808594-0.7177734c0.0649414-0.2890625,0.097168-0.737793,0.097168-1.3461914
		v-6.5292969c0-0.6083984-0.0322266-1.0571289-0.097168-1.3466797c-0.0654297-0.2895508-0.1923828-0.5288086-0.3808594-0.7177734
		c-0.159668-0.1713867-0.3457031-0.2954102-0.5585938-0.3720703c-0.2124023-0.0766602-0.4868164-0.1240234-0.8237305-0.1416016
		V9.8344727h4.2700195c0.7148438,0,1.184082,0.003418,1.4086914,0.0092773
		c0.9160156,0.0410156,1.6328125,0.1650391,2.1523438,0.3720703c0.5859375,0.2363281,1.0390625,0.5888672,1.3613281,1.0585938
		c0.3203125,0.4692383,0.4824219,1.0141602,0.4824219,1.6342773c0,0.9213867-0.3496094,1.6601563-1.0449219,2.2148438
		c-0.2128906,0.1655273-0.4472656,0.3012695-0.7050781,0.4077148s-0.6015625,0.2070313-1.03125,0.3012695
		c0.3535156,0.1474609,0.6152344,0.3012695,0.7871094,0.4604492c0.1367188,0.1240234,0.2597656,0.2792969,0.3730469,0.465332
		c0.1113281,0.1860352,0.2792969,0.5151367,0.5039063,0.987793c0.5253906,1.0810547,0.9238281,1.8710938,1.1914063,2.3701172
		c0.2695313,0.4990234,0.4960938,0.8603516,0.6777344,1.0849609c0.1484375,0.1835938,0.2910156,0.3105469,0.4296875,0.3808594
		c0.1386719,0.0712891,0.3300781,0.1181641,0.5722656,0.1416016v0.2041016h-2.9414063
		c-0.1484375-0.3251953-0.2421875-0.53125-0.2832031-0.6201172l-0.6210938-1.4086914
		c-0.3710938-0.8447266-0.7460938-1.5917969-1.125-2.2412109c-0.3769531-0.644043-0.7226563-1.0839844-1.0361328-1.3203125
		c-0.1591797-0.1181641-0.3310547-0.2021484-0.5136719-0.2524414c-0.1831055-0.050293-0.4077148-0.0751953-0.6733398-0.0751953
		H21.7783203z M21.7783203,15.8149414h0.3364258c0.7324219,0,1.2563477-0.0415039,1.5727539-0.1240234
		c0.3164063-0.0830078,0.6132813-0.2539063,0.890625-0.5141602c0.6191406-0.590332,0.9296875-1.3227539,0.9296875-2.1967773
		c0-0.4667969-0.0898438-0.9052734-0.2695313-1.315918c-0.1816406-0.4101563-0.4296875-0.7485352-0.75-1.0141602
		c-0.2480469-0.2006836-0.5429688-0.3413086-0.8847656-0.4208984c-0.3427734-0.0795898-0.8300781-0.1196289-1.4619141-0.1196289
		h-0.3632813V15.8149414z"/>
</g>
</svg>
