<?xml version="1.0" encoding="utf-8"?>
<!DOCTYPE svg PUBLIC "-//W3C//DTD SVG 1.1//EN" "http://www.w3.org/Graphics/SVG/1.1/DTD/svg11.dtd">
<svg version="1.1" id="Layer_1" xmlns="http://www.w3.org/2000/svg" viewBox="0 0 512 512">
<style type="text/css">
<![CDATA[
	.st0{fill:#353C48;stroke:#353C48;stroke-width:2;stroke-miterlimit:10;}
	.st1{fill:#FFFFFF;}
	.st2{fill:#3C4452;}
]]>
</style>
<path class="st2" d="M0,0v512h512V0H0z M461.9248047,179.2285156c-3.1669922,9.1108398-13.9882813,20.9814453-19.8886719,18.0185547
	c-5.9003906-2.9882813-3.1660156-25.5400391,1.2207031-33.9521484
	c8.4052734-16.1113281,20.7529297-20.2626953,20.7529297-20.2626953S467.0615234,164.3569336,461.9248047,179.2285156z
	 M409.3046875,239.1655273c-7.0185547-16.9506836-3.0771484-30.8300781-3.0771484-30.8300781
	s17.2685547,9.1240234,25.2041016,22.3359375c4.8574219,8.0874023,7.4384766,24.8916016,1.9453125,28.7446289
	C427.8837891,263.2685547,412.9677734,248.0351563,409.3046875,239.1655273z M411.4033203,306.0839844
	c-6.2685547,1.7548828-16.3652344-17.8916016-17.484375-27.6064453
	c-2.1367188-18.5654297,5.3535156-30.4423828,5.3535156-30.4423828s13.9746094,14.6748047,17.9931641,29.9716797
	C419.7324219,287.3916016,417.6464844,304.3037109,411.4033203,306.0839844z M411.6064453,198.6459961
	C399.8447266,185.5229492,399.2851563,170.9375,399.2851563,170.9375s18.984375,1.7866211,30.4677734,11.0439453
	c7.0322266,5.6713867,14.5849609,20.4282227,10.6298828,26.2016602
	C436.390625,213.9624023,417.7744141,205.5317383,411.6064453,198.6459961z M433.2626953,115.6860352
	c5.6962891-17.5419922,17.1914063-24.1225586,17.1914063-24.1225586s6.3837891,20.3393555,3.6630859,36.0185547
	c-1.6533203,9.6069336-10.4277344,23.4799805-16.6835938,21.7573242
	C431.1513672,147.6098633,430.2617188,124.8798828,433.2626953,115.6860352z M398.5214844,58.8896484
	c0,0,16.1757813,13.59375,23.5,29.3994141c4.4628906,9.6835938,6.6123047,28.1279297,1.3476563,30.9892578
	c-5.2900391,2.8549805-19.1503906-16.6772461-22.4824219-26.9135742
	C394.5292969,72.7880859,398.5214844,58.8896484,398.5214844,58.8896484z M422.9111328,136.8266602
	c7.8330078,4.1455078,17.5996094,17.1474609,14.5986328,23.6264648c-2.9882813,6.4853516-22.6601563,1.9833984-29.7939453-3.5288086
	c-13.6699219-10.5288086-16.5185547-24.7519531-16.5185547-24.7519531S410.1445313,130.0678711,422.9111328,136.8266602z
	 M370.2919922,308.1699219c0.8652344-17.9169922,9.7919922-27.6074219,9.7919922-27.6074219
	s10.9101563,16.5947266,12.2958984,31.8291016c0.8779297,9.3330078-3.7001953,24.8466797-9.8798828,25.2666016
	C376.2939453,338.078125,369.8339844,317.5283203,370.2919922,308.1699219z M341.9355469,333.9072266
	c4.3486328-16.1875,14.5087891-22.7871094,14.5087891-22.7871094s6.7773438,18.0058594,5.0361328,32.3242188
	c-1.0556641,8.7607422-8.3808594,21.7949219-14.1660156,20.5996094
	C341.5283203,362.8359375,339.6210938,342.3632813,341.9355469,333.9072266z M310.5009766,348.8867188
	c4.4511719-16.53125,14.7001953-23.2832031,14.7001953-23.2832031s6.8154297,18.375,5.0351563,32.9980469
	c-1.0683594,8.9521484-8.4941406,22.2910156-14.3183594,21.0830078
	C310.0429688,378.4638672,308.1738281,357.5712891,310.5009766,348.8867188z M187.8671875,325.6035156
	c0,0,10.2617188,6.7519531,14.6933594,23.2832031c2.3461914,8.6845703,0.4707031,29.5771484-5.3789063,30.7978516
	c-5.8427734,1.2080078-13.2563477-12.1308594-14.3500977-21.0830078
	C181.0639648,343.9785156,187.8671875,325.6035156,187.8671875,325.6035156z M156.6367188,311.1201172
	c0,0,10.1601563,6.5996094,14.5087891,22.7871094c2.2954102,8.4560547,0.4067383,28.9287109-5.3916016,30.1367188
	c-5.7919922,1.1953125-13.1040039-11.8388672-14.171875-20.5996094
	C149.8588867,329.1259766,156.6367188,311.1201172,156.6367188,311.1201172z M142.7695313,308.1699219
	c0.4707031,9.3583984-5.9956055,29.9082031-12.1757813,29.4882813c-6.1796875-0.4199219-10.7705078-15.9335938-9.8994141-25.2666016
	c1.3989258-15.234375,12.3027344-31.8291016,12.3027344-31.8291016S141.8920898,290.2529297,142.7695313,308.1699219z
	 M91.065918,88.2890625c7.2993164-15.8056641,23.4931641-29.3994141,23.4931641-29.3994141
	s3.9863281,13.8984375-2.3779297,33.4750977c-3.3251953,10.2363281-17.1796875,29.7685547-22.4628906,26.9135742
	C84.4472656,116.4169922,86.5834961,97.9726563,91.065918,88.2890625z M90.1503906,136.8266602
	c12.7797852-6.7587891,31.7265625-4.6542969,31.7265625-4.6542969s-2.8544922,14.2231445-16.5180664,24.7519531
	c-7.1337891,5.512207-26.7993164,10.0141602-29.800293,3.5288086
	C72.5576172,153.9741211,82.3300781,140.972168,90.1503906,136.8266602z M81.6499023,230.6713867
	c7.940918-13.2119141,25.1967773-22.3359375,25.1967773-22.3359375s3.9291992,13.8793945-3.0771484,30.8300781
	c-3.6625977,8.8696289-18.565918,24.1030273-24.059082,20.2504883
	C74.2172852,255.5629883,76.7856445,238.7587891,81.6499023,230.6713867z M72.7104492,208.1831055
	c-3.9804688-5.7734375,3.5668945-20.5302734,10.6049805-26.2016602
	c11.4956055-9.2573242,30.4741211-11.0439453,30.4741211-11.0439453s-0.5532227,14.5854492-12.3217773,27.7084961
	C95.3256836,205.5317383,76.6713867,213.9624023,72.7104492,208.1831055z M95.8027344,278.0068359
	c4.0244141-15.296875,18.0058594-29.9716797,18.0058594-29.9716797s7.4833984,11.8769531,5.347168,30.4423828
	c-1.112793,9.7148438-11.215332,29.3613281-17.4780273,27.6064453
	C95.4150391,304.3037109,93.3422852,287.3916016,95.8027344,278.0068359z M62.6264648,91.5634766
	c0,0,11.4887695,6.5805664,17.2045898,24.1225586c2.9951172,9.1938477,2.1044922,31.9238281-4.1835938,33.6533203
	c-6.269043,1.7226563-15.0366211-12.1503906-16.6958008-21.7573242
	C56.2431641,111.902832,62.6264648,91.5634766,62.6264648,91.5634766z M49.0649414,143.0322266
	c0,0,12.347168,4.1513672,20.7460938,20.2626953c4.3999023,8.4121094,7.1274414,30.9638672,1.2333984,33.9521484
	c-5.9003906,2.9628906-16.7216797-8.9077148-19.875-18.0185547
	C46.0063477,164.3569336,49.0649414,143.0322266,49.0649414,143.0322266z M60.6933594,212.1694336
	c6.7080078,6.1674805,16.1494141,26.2333984,11.5400391,31.3515625c-4.6157227,5.1054688-18.4067383-1.7675781-24.1542969-9.0727539
	c-9.3842773-11.9213867-13.0400391-33.1191406-13.0400391-33.1191406S47.8886719,200.3432617,60.6933594,212.1694336z
	 M37.3720703,257.9160156c0,0,11.8071289-5.8500977,27.3842773,0.3369141
	c8.1445313,3.2421875,23.0351563,18.4951172,20.2124023,25.0947266c-2.8232422,6.5742188-17.8344727,5.3916016-25.4257813,0.7119141
	C47.1445313,276.4560547,37.3720703,257.9160156,37.3720703,257.9160156z M62.8808594,319.4609375
	c0,0,9.3144531-10.0703125,25.8198242-10.2744141c8.640625-0.1269531,27.2250977,8.4560547,26.5639648,15.7431641
	c-0.6547852,7.2734375-15.1323242,11.9785156-23.6708984,10.515625
	C77.644043,333.1181641,62.8808594,319.4609375,62.8808594,319.4609375z M93.9208984,370.0458984
	c0,0,5.0800781-13.4023438,20.1801758-20.96875c7.9160156-3.9550781,27.9755859-4.3486328,29.8955078,2.6445313
	c1.9077148,6.9941406-9.7592773,17.7646484-18.1264648,20.2441406
	C112.2382813,376.0097656,93.9208984,370.0458984,93.9208984,370.0458984z M160,396.1523438
	c-13.6318359,4.03125-31.9428711-1.9199219-31.9428711-1.9199219s5.0800781-13.4033203,20.1928711-20.96875
	c7.9033203-3.9550781,27.9501953-4.3623047,29.8764648,2.6318359C180.0405273,382.8896484,168.3671875,393.6728516,160,396.1523438z
	 M202.7070313,411.2714844c-10.5292969,8.5195313-27.8994141,10.2744141-27.8994141,10.2744141
	s0.527832-13.3261719,11.3300781-25.3935547c5.6396484-6.3076172,22.7045898-14.1279297,26.3413086-8.8886719
	C216.109375,392.5283203,209.1601563,406.0576172,202.7070313,411.2714844z M230.434082,390.4296875
	c-6.2304688,1.2841797-14.3051758-14.1523438-15.5898438-24.453125
	c-2.0917969-16.8359375,4.9150391-37.8173828,4.9150391-37.8173828s11.03125,7.9599609,15.996582,27.0341797
	C238.3691406,365.1630859,236.6650391,389.1328125,230.434082,390.4296875z M298.2431641,365.9765625
	c-1.2841797,10.3007813-9.359375,25.7373047-15.5898438,24.453125c-6.2314453-1.296875-7.9355469-25.2666016-5.3408203-35.2363281
	c4.9716797-19.0742188,15.9960938-27.0341797,15.9960938-27.0341797S300.328125,349.140625,298.2431641,365.9765625z
	 M310.3740234,411.2714844c-6.4599609-5.2138672-13.4023438-18.7431641-9.7783203-24.0078125
	c3.6494141-5.2392578,20.7138672,2.5810547,26.3476563,8.8886719
	c10.7958984,12.0673828,11.3300781,25.3935547,11.3300781,25.3935547S320.9033203,419.7910156,310.3740234,411.2714844z
	 M353.0742188,396.1523438c-8.3671875-2.4794922-20.0400391-13.2626953-18.1201172-20.2568359
	s21.9736328-6.5869141,29.8955078-2.6318359c15.1064453,7.5654297,20.1679688,20.96875,20.1679688,20.96875
	S366.7060547,400.1835938,353.0742188,396.1523438z M387.2050781,371.9658203
	c-8.3417969-2.4794922-20.015625-13.25-18.1337891-20.2441406c1.9326172-6.9931641,21.9736328-6.5996094,29.9082031-2.6445313
	c15.1064453,7.5664063,20.1806641,20.96875,20.1806641,20.96875S400.8486328,376.0097656,387.2050781,371.9658203z
	 M421.4746094,335.4453125c-8.5068359,1.4628906-23.0039063-3.2421875-23.6650391-10.515625
	c-0.6611328-7.2871094,17.9169922-15.8701172,26.5771484-15.7431641
	c16.5048828,0.2041016,25.8134766,10.2744141,25.8134766,10.2744141S435.4365234,333.1181641,421.4746094,335.4453125z
	 M453.53125,284.0595703c-7.5908203,4.6796875-22.6083984,5.8623047-25.4189453-0.7119141
	c-2.8105469-6.5996094,12.0673828-21.8525391,20.2060547-25.0947266
	c15.5898438-6.1870117,27.3779297-0.3369141,27.3779297-0.3369141S465.9423828,276.4560547,453.53125,284.0595703z
	 M464.9765625,234.4482422c-5.7353516,7.3051758-19.5068359,14.1782227-24.1357422,9.0727539
	c-4.6025391-5.1181641,4.8320313-25.184082,11.546875-31.3515625c12.8046875-11.8261719,25.6357422-10.840332,25.6357422-10.840332
	S474.3857422,222.5268555,464.9765625,234.4482422z"/>
<g id="Layer_2">
	<path class="st0" d="M299.8193359,450.4121094c-0.8896484,0-1.7421875-0.5214844-2.0595703-1.3740234
		c-11.8261719-30.3662109-36.2412109-46.1845703-49.7583008-49.4140625
		C93.5073242,362.6835938,72.5449219,259.1621094,69.7983398,228.3188477
		c-2.371582-26.7163086-2.5688477-77.6064453,22.7871094-118.3740234c0.6103516-1.0043945,1.9775391-1.3291016,3.0263672-0.7441406
		c1.0556641,0.5976563,1.4116211,1.8759766,0.7949219,2.8803711
		c-24.7202148,39.7568359-24.5039063,89.6738281-22.1894531,115.8818359
		c2.6894531,30.15625,23.2255859,131.3378906,174.8842773,167.5791016
		c14.4140625,3.4462891,40.3925781,20.1552734,52.8037109,52.046875c0.4072266,1.09375-0.1650391,2.2890625-1.3095703,2.6953125
		C300.3535156,450.3740234,300.0742188,450.4121094,299.8193359,450.4121094z"/>
	<path class="st0" d="M213.2612305,450.4121094c-0.2543945,0-0.5151367-0.0380859-0.7695313-0.1279297
		c-1.144043-0.40625-1.7480469-1.6015625-1.315918-2.6953125c12.4042969-31.8916016,38.3896484-48.6005859,52.796875-52.046875
		c151.6650391-36.2412109,172.1884766-137.4228516,174.8974609-167.5791016
		c2.3017578-26.2080078,2.5302734-76.125-22.1894531-115.8818359c-0.6357422-1.0043945-0.2675781-2.2827148,0.7880859-2.8803711
		c1.0429688-0.5849609,2.4033203-0.2602539,3.0263672,0.7441406
		c25.3564453,40.7675781,25.1523438,91.6577148,22.7871094,118.3740234
		c-2.7460938,30.8432617-23.7275391,134.3647461-178.203125,171.3051758
		c-13.5297852,3.2294922-37.9257813,19.0478516-49.7451172,49.4140625
		C215.0097656,449.890625,214.1513672,450.4121094,213.2612305,450.4121094z"/>
</g>
<g>
	<path class="st1" d="M219.9189453,228.4267578h-63.3222656l-16.71875,46.1855469h-15.1513672l56.4257813-150.7822266h14.2109375
		l56.3212891,150.7822266h-15.046875L219.9189453,228.4267578z M160.8808594,216.0966797h54.7539063l-26.75-73.5625h-1.3583984
		L160.8808594,216.0966797z"/>
	<path class="st1" d="M293.0634766,274.6123047h-14.3154297V123.8300781h54.0224609
		c29.3623047,0,48.1708984,17.2412109,48.1708984,44.0957031c0,21.3164063-12.1210938,37.3037109-32.2880859,42.6328125
		l36.5722656,64.0537109h-16.71875l-34.6914063-61.7548828c-0.7314453,0-1.4628906,0-2.1943359,0h-38.5576172V274.6123047z
		 M293.0634766,200.109375h38.5576172c21.8388672,0,34.6914063-11.5986328,34.6914063-31.765625
		c0-19.7490234-13.375-31.765625-35.3183594-31.765625h-37.9306641V200.109375z"/>
</g>
<g>
	<path class="st1" d="M150.1552734,484.2265625h-15.2109375L130.7490234,495.5h-2.015625l12.890625-33.8203125h1.875
		L156.3662109,495.5h-1.9921875L150.1552734,484.2265625z M135.5537109,482.5625h14.015625l-6.9609375-18.46875h-0.1171875
		L135.5537109,482.5625z"/>
	<path class="st1" d="M179.4521484,495.5h-19.59375v-33.8203125h1.8515625v32.109375h17.7421875V495.5z"/>
	<path class="st1" d="M194.6630859,461.6796875c6.5625,0,10.8515625,3.984375,10.8515625,10.1015625
		s-4.2890625,10.078125-10.875,10.078125h-8.9296875V495.5h-1.8515625v-33.8203125H194.6630859z M185.7099609,480.171875h8.6484375
		c5.6953125,0,9.28125-3.1875,9.28125-8.390625c0-5.2265625-3.5625-8.4140625-9.28125-8.4140625h-8.6484375V480.171875z"/>
	<path class="st1" d="M233.0537109,495.5v-16.5234375h-21.3984375V495.5h-1.8515625v-33.8203125h1.8515625v15.609375h21.3984375
		v-15.609375h1.8515625V495.5H233.0537109z"/>
	<path class="st1" d="M259.8193359,484.2265625h-15.2109375L240.4130859,495.5h-2.015625l12.890625-33.8203125h1.875
		L266.0302734,495.5h-1.9921875L259.8193359,484.2265625z M245.2177734,482.5625h14.015625l-6.9609375-18.46875h-0.1171875
		L245.2177734,482.5625z"/>
	<path class="st1" d="M271.3740234,495.5h-1.8515625v-33.8203125h10.96875c6.703125,0,10.8515625,3.703125,10.8515625,9.65625
		c0,4.875-2.90625,8.390625-7.828125,9.375L292.2099609,495.5h-2.15625l-8.4609375-14.5078125
		c-0.328125,0.046875-0.84375,0.0703125-1.1953125,0.0703125h-9.0234375V495.5z M271.3740234,479.375h9.0234375
		c5.6484375,0,9.046875-3.0234375,9.046875-7.9921875c0-5.0390625-3.4453125-8.015625-9.1171875-8.015625h-8.953125V479.375z"/>
	<path class="st1" d="M315.3193359,484.2265625h-15.2109375L295.9130859,495.5h-2.015625l12.890625-33.8203125h1.875
		L321.5302734,495.5h-1.9921875L315.3193359,484.2265625z M300.7177734,482.5625h14.015625l-6.9609375-18.46875h-0.1171875
		L300.7177734,482.5625z"/>
	<path class="st1" d="M329.5224609,495.5v-32.109375h-11.859375v-1.7109375h25.546875v1.7109375h-11.8359375V495.5H329.5224609z"/>
	<path class="st1" d="M346.7021484,495.5v-33.8203125h1.8515625V495.5H346.7021484z"/>
	<path class="st1" d="M383.2646484,478.578125c0,10.6875-5.8359375,17.4140625-15.0703125,17.4140625
		s-15.0703125-6.7265625-15.0703125-17.4140625c0-10.640625,5.859375-17.390625,15.0703125-17.390625
		S383.2646484,467.9375,383.2646484,478.578125z M355.0224609,478.578125c0,9.5859375,5.1328125,15.6796875,13.171875,15.6796875
		s13.171875-6.09375,13.171875-15.6796875c0-9.5625-5.1328125-15.65625-13.171875-15.65625
		C360.1318359,462.921875,355.0224609,469.015625,355.0224609,478.578125z"/>
</g>
</svg>
