<?xml version="1.0" encoding="utf-8"?>

<!DOCTYPE svg PUBLIC "-//W3C//DTD SVG 1.1//EN" "http://www.w3.org/Graphics/SVG/1.1/DTD/svg11.dtd">
<svg version="1.1" id="Layer_1" xmlns="http://www.w3.org/2000/svg" viewBox="400 90 612 612">
<style type="text/css">
<![CDATA[
	.st0{fill:#FFFFFF;}
]]>
</style>
<g>
	<g>
		<path class="st0" d="M676.9160156,269.5410156v111.8056641h32.609375v31.0537109h-32.609375v22.9042969h-66.7773438v-26.0068359
			h-166.15625c-27.9560547,0-15.5292969-27.953125-15.5292969-27.953125s152.1865234-110.2529297,156.8417969-111.8061523
			L676.9160156,269.5410156L676.9160156,269.5410156z M610.9169922,306.027832l-96.2783203,67.1621094h96.2783203V306.027832z"/>
		<polygon class="st0" points="720.0078125,269.5410156 720.0078125,435.3095703 788.7246094,435.3095703 788.7246094,366.590332 
			898.2021484,435.3095703 989.0498047,435.3095703 843.0761719,345.6269531 978.9589844,269.5410156 891.9921875,269.5410156 
			787.9472656,330.4873047 787.9472656,269.5410156 		"/>
	</g>
	<g>
		<path class="st0" d="M668.1103516,495.1005859c0,18.2402344-8.0117188,27.3564453-24.0361328,27.3564453
			c-15.2675781,0-22.8974609-8.78125-22.8974609-26.359375v-40.0566406h6.0517578v39.515625
			c0,7.1582031,1.4404297,12.5195313,4.3251953,16.0683594c2.8808594,3.5527344,7.3466797,5.328125,13.3828125,5.328125
			c11.4111328,0,17.1171875-6.9169922,17.1171875-20.7558594v-40.1542969h6.0537109L668.1103516,495.1005859
			L668.1103516,495.1005859z"/>
		<path class="st0" d="M725.8808594,521.3232422v-30.546875H690.28125v30.546875h-6.0517578v-65.2822266h6.0517578v29.2675781
			h35.5996094v-29.2675781h6.0507813v65.2822266H725.8808594L725.8808594,521.3232422z"/>
		<path class="st0" d="M748.8720703,521.3232422v-65.2822266h17.1621094c11.1689453,0,19.6015625,2.6796875,25.3125,8.0371094
			c5.7050781,5.3496094,8.5576172,13.2685547,8.5576172,23.734375c0,5.0380859-0.7958984,9.6162109-2.3886719,13.7529297
			c-1.5878906,4.1240234-3.8925781,7.6572266-6.8984375,10.5830078c-3.0078125,2.9296875-6.6464844,5.1914063-10.9257813,6.7861328
			c-4.2802734,1.5927734-9.1025391,2.3857422-14.4726563,2.3857422L748.8720703,521.3232422L748.8720703,521.3232422z
			 M754.9267578,461.5947266v54.2236328h10.0146484c4.4921875,0,8.5078125-0.6113281,12.0429688-1.8203125
			c3.5332031-1.2148438,6.53125-2.9990234,8.9892578-5.3476563c2.4609375-2.3466797,4.3330078-5.2597656,5.6220703-8.7158203
			c1.2910156-3.4560547,1.9355469-7.4326172,1.9355469-11.9287109c0-17.6015625-9.3037109-26.4033203-27.9082031-26.4033203
			h-10.6972656L754.9267578,461.5947266L754.9267578,461.5947266z"/>
	</g>
</g>
<g>
	<path class="st0" d="M683.8427734,585.5v-23.8007813h-29.671875V585.5h-4.78125v-50.7304688h4.78125v22.5703125h29.671875
		v-22.5703125h4.8164063V585.5H683.8427734z"/>
	<path class="st0" d="M714.6044922,534.7695313c15.1875,0,24.046875,9.3164063,24.046875,25.3476563
		c0,16.0664063-8.8242188,25.3828125-24.046875,25.3828125h-16.453125v-50.7304688H714.6044922z M702.9677734,581.140625h11.3554688
		c12.4804688,0,19.4414063-7.5234375,19.4414063-20.9882813c0-13.5-6.9609375-21.0234375-19.4414063-21.0234375h-11.3554688
		V581.140625z"/>
	<path class="st0" d="M750.8505859,585.5h-4.78125v-50.7304688h17.8945313c9.9140625,0,16.2421875,5.8007813,16.2421875,14.8359375
		c0,7.171875-4.078125,12.5859375-10.8632813,14.34375L781.6474609,585.5h-5.625l-11.671875-20.7773438
		c-0.1757813,0-0.5273438,0-0.7734375,0h-12.7265625V585.5z M750.8505859,560.46875h12.7265625
		c7.3828125,0,11.671875-3.9375,11.671875-10.7226563c0-6.7148438-4.4648438-10.6875-11.8476563-10.6875h-12.5507813V560.46875z"/>
</g>
</svg>
