<?xml version="1.0" encoding="utf-8"?>

<!DOCTYPE svg PUBLIC "-//W3C//DTD SVG 1.1//EN" "http://www.w3.org/Graphics/SVG/1.1/DTD/svg11.dtd">
<svg version="1.1" id="Layer_1" xmlns="http://www.w3.org/2000/svg" viewBox="0 0 612 792">
<style type="text/css">
<![CDATA[
	.st0{fill:#FFFFFF;}
]]>
</style>
<g>
	<g>
		<path class="st0" d="M103.8286133,413.9316406V359.078125c0-5.0239258,4.1274414-9.1333008,9.1835938-9.1333008h96.9287109
			l-42.2001953,73.1313477H113.012207C107.9560547,423.078125,103.8286133,418.9765625,103.8286133,413.9316406z
			 M172.8745117,526.2519531l-30.9335938,20.9589844c-4.1621094,2.828125-7.105957,1.0361328-6.5288086-3.9580078
			l4.1274414-35.8554688c0.5737305-4.9951172,4.6245117-7.0371094,9.0053711-4.5400391l23.9399414,13.6748047
			C176.8574219,519.0410156,177.0366211,523.4326172,172.8745117,526.2519531z M180.3032227,506.0410156l-23.9394531-13.6806641
			c-4.3774414-2.5009766-5.9194336-8.1064453-3.3735352-12.4658203l110.8544922-192.1611328
			c2.5136719-4.3662109,8.1831055-5.8974609,12.5571289-3.3632813l23.9394531,13.644043
			c4.3798828,2.5332031,5.8813477,8.144043,3.3730469,12.4946289L192.8623047,502.6816406
			C190.3510742,507.0419922,184.6767578,508.5371094,180.3032227,506.0410156z M264.668457,423.078125l42.2006836-73.1323242
			h24.2998047l34.2675781,73.1323242H264.668457z M402.1152344,444.9013672
			c-9.5830078-4.7841797-57.3115234-114.4223633-69.5429688-143.0283203
			c-12.2402344-28.6064453-49.2055664-104.7524414-37.2475586-110.6767578
			c8.503418-4.2490234,39.0415039,55.7114258,61.9350586,91.7094727
			c22.859375,35.9990234,70.6611328,128.8168945,76.5439453,139.3862305
			c5.8525391,10.5966797-5.6308594,19.4306641-12.0175781,22.0761719
			C415.3964844,447.0126953,411.6943359,449.6494141,402.1152344,444.9013672z M433.4804688,495.2949219l-14.4208984-22.6816406
			c-2.9833984-4.7177734-1.4345703-10.5439453,3.4023438-13.0292969l13.7470703-7.0400391
			c4.8486328-2.4658203,10.9130859-0.4658203,13.4912109,4.4697266l11.3769531,21.7871094
			c2.5878906,4.9257813,0.8251953,11.2490234-3.8398438,14.0341797l-9.8320313,5.8515625
			C442.7392578,501.5078125,436.4619141,499.9707031,433.4804688,495.2949219z M486.5566406,554.7880859
			c-3.0136719-9.609375-26.0185547-10.2451172-36.3173828-24.7167969
			c-10.3339844-14.4208984-1.7939453-21.8505859,1.7929688-25.28125
			C493.8076172,481.3652344,486.5566406,554.7880859,486.5566406,554.7880859z M508.0517578,413.9316406
			c0,5.0429688-4.125,9.1445313-9.1835938,9.1445313h-48.5185547c-0.5341797-2.8203125-1.4042969-5.640625-2.8691406-8.2851563
			c-1.2646484-2.25-4.4560547-8.3212891-8.9033203-16.7802734c-6.4228516-12.2114258-15.6445313-29.6748047-25.5185547-48.065918
			h85.8037109c5.0585938,0,9.1865234,4.109375,9.1865234,9.1333008v54.8535156H508.0517578L508.0517578,413.9316406z"/>
	</g>
</g>
</svg>
