<?xml version="1.0" encoding="utf-8"?>

<!DOCTYPE svg PUBLIC "-//W3C//DTD SVG 1.1//EN" "http://www.w3.org/Graphics/SVG/1.1/DTD/svg11.dtd">
<svg version="1.1" id="Layer_1" xmlns="http://www.w3.org/2000/svg" viewBox="200 360 612 612">
<style type="text/css">
<![CDATA[
	.st0{fill:#FFFFFF;}
]]>
</style>
<g>
	<path class="st0" d="M489.0742188,634.2939453c63.9658203-26.0703125,127.2695313-51.8701172,191.0683594-77.8701172
		c10.4980469,26.9033203,20.8710938,53.4882813,31.4003906,80.46875c-2.3652344,1.0722656-4.4785156,2.0957031-6.640625,3.0029297
		c-51.3066406,21.5126953-102.6308594,42.9853516-153.9003906,64.5898438
		c-2.9453125,1.2412109-4.5048828,1.1005859-6.6113281-1.5332031
		c-17.234375-21.5517578-34.6542969-42.9570313-52.0117188-64.4101563
		C491.3867188,637.3173828,490.4414063,636.0537109,489.0742188,634.2939453z"/>
	<path class="st0" d="M484.7705078,645.1132813c5.6875,7.0097656,10.6982422,13.1582031,15.6787109,19.3300781
		c13.4746094,16.6962891,27.0048828,33.3496094,40.3320313,50.1640625c2.0244141,2.5517578,3.6621094,2.15625,6.09375,1.1328125
		c40.3476563-16.9785156,80.7167969-33.8984375,121.0869141-50.8232422
		c1.4404297-0.6035156,2.9208984-1.1123047,4.7666016-1.8105469c0.0732422,1.6835938,0.1777344,2.9648438,0.1787109,4.2470703
		c0.0107422,17.4628906-0.046875,34.9267578,0.0615234,52.3896484c0.0175781,2.7529297-0.6894531,4.1894531-3.4238281,5.328125
		c-42.375,17.6445313-84.6757813,35.46875-127.0292969,53.1650391
		c-18.0410156,7.5390625-36.1640625,14.8828125-54.2558594,22.3017578
		c-1.0742188,0.4404297-2.1953125,0.7685547-3.4892578,1.2158203
		C484.7705078,749.6875,484.7705078,697.9580078,484.7705078,645.1132813z"/>
	<path class="st0" d="M475.0166016,642.2539063c0,51.96875,0,103.4628906,0,155.6972656
		c-6.828125-5.4257813-13.1474609-10.4423828-19.4619141-15.4667969
		c-33.0546875-26.3076172-66.0898438-52.6396484-99.2021484-78.875c-2.2099609-1.7509766-3.0908203-3.4941406-3.0693359-6.3222656
		c0.1328125-17.5947266,0.0664063-35.1914063,0.0664063-52.7890625c0-1.3017578,0-2.6035156,0-4.6650391
		c1.71875,1.2080078,2.8896484,1.9580078,3.9804688,2.8076172c11.453125,8.9345703,22.9433594,17.8232422,34.2949219,26.8847656
		c2.1689453,1.7324219,3.9257813,1.9257813,6.4804688,0.9755859c24.1855469-8.9951172,48.421875-17.8544922,72.6445313-26.7490234
		C472.0859375,643.2607422,473.4355469,642.8076172,475.0166016,642.2539063z"/>
	<path class="st0" d="M288.6464844,574.6640625c5.4199219-3.9091797,9.9355469-7.1767578,14.4609375-10.4296875
		c11.5683594-8.3193359,23.1542969-16.6162109,34.6992188-24.9697266c1.7167969-1.2421875,2.9804688-2.0498047,5.1875-0.4228516
		c41.9101563,30.9023438,83.8964844,61.7060547,125.8613281,92.5351563c0.4179688,0.3085938,0.7744141,0.703125,1.6699219,1.5292969
		c-1.4453125,0.6445313-2.5390625,1.1914063-3.6757813,1.6298828
		c-22.0839844,8.5126953-44.1796875,16.9960938-66.2509766,25.5439453
		c-2.0087891,0.7783203-3.4892578,0.9433594-5.4111328-0.6015625
		c-34.7832031-27.9453125-69.6425781-55.7939453-104.4941406-83.6542969
		C290.28125,575.4941406,289.7675781,575.2919922,288.6464844,574.6640625z"/>
	<path class="st0" d="M572.2421875,565.8828125c-12.859375,4.7441406-25.0644531,9.2363281-37.2646484,13.7470703
		c-16.2158203,5.9951172-32.4072266,12.0634766-48.6767578,17.9160156
		c-1.5761719,0.5664063-4.1044922,0.4980469-5.3789063-0.4121094c-18.4248047-13.1679688-36.7109375-26.5292969-55.03125-39.8447266
		c-0.3222656-0.2333984-0.6523438-0.4560547-1.6621094-1.1621094c1.7421875-0.7509766,2.8359375-1.2929688,3.9765625-1.7050781
		c27.3984375-9.8818359,54.7910156-19.7802734,82.2304688-29.5410156c1.5-0.5332031,3.8691406-0.5507813,5.0654297,0.2871094
		c18.4287109,12.9296875,36.7314453,26.0390625,55.0576172,39.1162109
		C570.9726563,564.5800781,571.3066406,564.9873047,572.2421875,565.8828125z"/>
	<path class="st0" d="M525.1113281,491.8779297c9.2285156-3.0195313,17.6464844-5.7978516,26.0800781-8.5283203
		c17.5751953-5.6894531,35.1445313-11.4042969,52.765625-16.9453125c1.6894531-0.53125,4.078125-0.5517578,5.5644531,0.2539063
		c18.8242188,10.2167969,37.5449219,20.6259766,56.2851563,30.9990234c0.6591797,0.3642578,1.2480469,0.8554688,2.2539063,1.5556641
		c-1.2734375,0.6777344-2.1269531,1.2285156-3.0507813,1.6074219
		c-25.953125,10.6484375-51.9003906,21.3164063-77.9140625,31.8203125c-1.5292969,0.6181641-4.0820313,0.5761719-5.3515625-0.3125
		c-18.2109375-12.7558594-36.2851563-25.7089844-54.3867188-38.6201172
		C526.828125,493.3300781,526.3457031,492.8876953,525.1113281,491.8779297z"/>
	<path class="st0" d="M361.9394531,482.7675781c12.7226563-4.2285156,25.4453125-8.4550781,38.1660156-12.6904297
		c12.6181641-4.2001953,25.2119141-8.4794922,37.8759766-12.5341797c1.5341797-0.4912109,3.7802734-0.3769531,5.1318359,0.4179688
		c17.9042969,10.5263672,35.7109375,21.2246094,53.5361328,31.8867188c0.4482422,0.2675781,0.8427734,0.6191406,1.8779297,1.3886719
		c-1.5107422,0.6777344-2.5849609,1.234375-3.7109375,1.6533203c-25.8046875,9.5996094-51.6015625,19.2158203-77.453125,28.6884766
		c-1.4716797,0.5390625-3.8574219,0.5214844-5.0214844-0.328125c-16.5722656-12.09375-33.0078125-24.3769531-49.4853516-36.6025391
		c-0.4257813-0.3164063-0.9501953-0.5009766-1.4287109-0.7460938
		C361.5986328,483.5234375,361.7695313,483.1464844,361.9394531,482.7675781z"/>
	<path class="st0" d="M597.8984375,425.8417969c-14.6777344,5.2636719-28.5615234,10.2353516-42.4404297,15.2226563
		c-12.3945313,4.4550781-24.7587891,9.0019531-37.2080078,13.2988281c-1.6240234,0.5605469-4.0742188,0.5195313-5.4746094-0.3349609
		c-18.3017578-11.1787109-36.484375-22.5507813-54.6875-33.8876953c-0.6425781-0.3994141-1.2070313-0.9267578-2.4667969-1.9101563
		c6.1894531-1.7773438,11.7460938-3.3779297,17.3066406-4.9658203
		c21.3613281-6.1015625,42.7177734-12.2275391,64.1054688-18.2338867c1.5097656-0.4243164,3.5683594-0.5180664,4.8671875,0.1757813
		c18.0917969,9.6508789,36.09375,19.465332,54.1123047,29.2495117
		C596.4423828,424.6894531,596.8095703,425.0361328,597.8984375,425.8417969z"/>
	<path class="st0" d="M586.2089844,582.6269531c0-12.34375-0.0878906-24.1875,0.1386719-36.0234375
		c0.0214844-1.1464844,1.7783203-2.7666016,3.0839844-3.3056641c21.0136719-8.6708984,42.0820313-17.2041016,63.140625-25.765625
		c7.8583984-3.1953125,15.7207031-6.3847656,24.34375-9.8857422c0,2.4570313,0,4.3671875,0,6.2773438
		c0,9.5898438-0.0351563,19.1796875,0.0273438,28.7695313c0.0136719,2.0205078-0.2441406,3.4023438-2.484375,4.3046875
		c-28.7265625,11.5800781-57.4072266,23.2685547-86.1025391,34.9238281
		C587.8828125,582.1152344,587.3828125,582.2451172,586.2089844,582.6269531z"/>
	<path class="st0" d="M615.0097656,427.5859375c37.0839844,21.2021484,73.5019531,42.0234375,110.3222656,63.0742188
		c-13.5273438,15.0283203-26.6601563,29.6201172-40.3730469,44.8564453
		c-0.1679688-1.7275391-0.3222656-2.5800781-0.3222656-3.4326172c0.0009766-10.5234375-0.0859375-21.0498047,0.1181641-31.5703125
		c0.0517578-2.6679688-0.8486328-3.9941406-3.0927734-5.2675781c-21.0634766-11.9472656-42.03125-24.0634766-63.109375-35.9863281
		c-2.6582031-1.5039063-3.71875-3.1152344-3.6259766-6.2275391
		C615.171875,444.828125,615.0097656,436.6123047,615.0097656,427.5859375z"/>
	<path class="st0" d="M409.6542969,573.3398438c-12.2363281-8.5058594-23.5957031-16.3994141-34.9541016-24.2958984
		c-6.0166016-4.1826172-12.0673828-8.3203125-18.0126953-12.6015625c-1.0654297-0.7675781-2.4023438-2.1318359-2.4169922-3.2363281
		c-0.1650391-13.2919922-0.1083984-26.5859375-0.1083984-40.4414063c1.2753906,0.7001953,2.0878906,1.0478516,2.7929688,1.546875
		c16.5234375,11.7148438,33.0058594,23.4863281,49.5820313,35.1240234c2.3183594,1.6279297,3.2285156,3.3496094,3.1894531,6.2148438
		C409.5585938,547.8808594,409.6542969,560.1152344,409.6542969,573.3398438z"/>
	<path class="st0" d="M607.2949219,433.2929688c0,6.3466797-0.1347656,11.9394531,0.0585938,17.5214844
		c0.0927734,2.7158203-1.8125,2.9287109-3.4921875,3.5195313c-25.3535156,8.9121094-50.7148438,17.8007813-76.0761719,26.6923828
		c-2.9863281,1.0458984-5.9785156,2.0751953-9.5761719,3.3222656c0-6.4453125-0.1503906-12.3896484,0.1542969-18.3095703
		c0.0488281-0.9658203,1.9804688-2.2197266,3.2753906-2.6787109c25.3300781-8.9707031,50.6933594-17.8457031,76.0507813-26.7353516
		C600.6757813,435.5771484,603.6699219,434.5498047,607.2949219,433.2929688z"/>
	<path class="st0" d="M327.5800781,472.9365234c37.0546875-12.7236328,73.7089844-25.3105469,110.8671875-38.0693359
		c0,4.0419922,0.2519531,7.5117188-0.1464844,10.9052734c-0.125,1.0634766-1.8398438,2.3701172-3.0917969,2.8076172
		c-18.2050781,6.3603516-36.4570313,12.5859375-54.6933594,18.8554688
		c-10.3144531,3.5449219-20.5878906,7.2080078-30.9492188,10.6015625c-2.5058594,0.8203125-3.2070313,2.0175781-3.1816406,4.5429688
		c0.1230469,12.3808594,0.0566406,24.7636719-0.7587891,37.3701172
		C339.6328125,504.3369141,333.6386719,488.7226563,327.5800781,472.9365234z"/>
	<path class="st0" d="M508.8730469,498.8554688c0,5.0585938,0.2607422,9.3349609-0.15625,13.5458984
		c-0.1269531,1.296875-1.8798828,3-3.2636719,3.5224609c-22.3857422,8.4492188-44.8320313,16.7373047-67.2636719,25.0625
		c-6.453125,2.3955078-12.9042969,4.7929688-20.0019531,7.4296875c0-5.1621094-0.1982422-9.7724609,0.1533203-14.3408203
		c0.0771484-1.0126953,1.9453125-2.2666016,3.2353516-2.7509766c22.4042969-8.4052734,44.84375-16.7080078,67.2773438-25.0332031
		C495.3066406,503.8964844,501.7578125,501.4980469,508.8730469,498.8554688z"/>
	<path class="st0" d="M509.6777344,485.9990234c-3.4882813-2.0664063-6.3242188-3.7119141-9.1269531-5.4150391
		C483.4765625,470.2138672,466.4375,459.7880859,449.3125,449.5029297
		c-2.3359375-1.4033203-3.3105469-2.9267578-3.2070313-5.6933594c0.2167969-5.9306641,0.0664063-11.8759766,0.0664063-18.5625
		c3.4863281,2.0664063,6.3242188,3.7119141,9.1269531,5.4150391c17.0722656,10.3701172,34.1123047,20.7958984,51.2363281,31.0810547
		c2.3359375,1.4033203,3.3105469,2.9257813,3.2089844,5.6933594
		C509.5253906,473.3671875,509.6777344,479.3125,509.6777344,485.9990234z"/>
	<path class="st0" d="M483.7910156,625.6679688c0-4.2177734-0.1191406-8.1806641,0.0898438-12.125
		c0.046875-0.8886719,1.0546875-2.1582031,1.921875-2.5126953c30.5371094-12.4755859,61.1113281-24.8623047,91.6826172-37.2519531
		c0.1005859-0.0410156,0.2529297,0.0498047,0.9736328,0.2158203c0,4.0234375,0.0996094,8.203125-0.0957031,12.3681641
		c-0.0351563,0.7158203-1.2128906,1.6660156-2.0644531,2.0126953
		c-30.1738281,12.3203125-60.3730469,24.5830078-90.5722656,36.8417969
		C485.2617188,625.4052734,484.7392578,625.4511719,483.7910156,625.6679688z"/>
	<path class="st0" d="M475.2695313,622.6738281c-1.6171875-1.0263672-2.6171875-1.5908203-3.5449219-2.2578125
		c-16.8574219-12.1494141-33.6660156-24.3671875-50.5976563-36.4140625
		c-2.7695313-1.9707031-4.2167969-3.9941406-3.8339844-7.5136719c0.3417969-3.1376953,0.0712891-6.3417969,0.0712891-10.0644531
		c1.3310547,0.7421875,2.2568359,1.1416016,3.0556641,1.7167969c17.2871094,12.4638672,34.5351563,24.9814453,51.8652344,37.3857422
		c2.1601563,1.5458984,3.2382813,3.1425781,3.0449219,5.8857422
		C475.0820313,614.9345703,475.2695313,618.4863281,475.2695313,622.6738281z"/>
	<path class="st0" d="M578.4931641,555.7441406c-11.6455078-7.9667969-22.4052734-15.3261719-33.1630859-22.6855469
		c-8.1376953-5.5654297-16.2089844-11.2333984-24.4541016-16.6376953c-2.6357422-1.7275391-3.8837891-3.6191406-3.5419922-6.7958984
		c0.265625-2.4726563,0.0527344-4.9980469,0.0527344-8.1542969c1.6337891,0.96875,2.7597656,1.5556641,3.8007813,2.2675781
		c17.8183594,12.1806641,35.5800781,24.4472656,53.4863281,36.4970703c2.8808594,1.9384766,4.3125,3.9238281,3.875,7.4199219
		C578.2558594,549.9853516,578.4931641,552.3808594,578.4931641,555.7441406z"/>
</g>
<g>
	<path class="st0" d="M465.4335938,962v-45.1191406h-41.0761719V962h-34.2851563V845.3203125h34.2851563v44.3105469h41.0761719
		v-44.3105469H499.71875V962H465.4335938z"/>
	<path class="st0" d="M565.78125,845.3203125c35.4160156,0,56.1972656,20.1347656,56.1972656,57.4921875
		c0,37.3554688-20.8632813,59.1875-56.1972656,59.1875h-49.890625V845.3203125H565.78125z M550.1738281,934.7519531h10.7558594
		c17.140625,0,26.1171875-10.4316406,26.1171875-31.9394531c0-19.6503906-9.703125-30.2421875-26.1171875-30.2421875h-10.7558594
		V934.7519531z"/>
</g>
</svg>
