<?xml version="1.0" encoding="utf-8"?>

<!DOCTYPE svg PUBLIC "-//W3C//DTD SVG 1.1//EN" "http://www.w3.org/Graphics/SVG/1.1/DTD/svg11.dtd">
<svg version="1.1" id="Layer_1" xmlns="http://www.w3.org/2000/svg" viewBox="200 90 612 612">
<style type="text/css">
<![CDATA[
	.st0{fill:#FFFFFF;}
]]>
</style>
<g>
	<path class="st0" d="M461.4003906,518.3613281h-55.0087891l20.6503906-98.1689453h-99.6933594l-20.8193359,98.1689453h-55.1782227
		l51.6240234-242.715332h55.1782227l-20.8193359,96.8154297h99.8632813l20.8173828-96.8154297h55.0097656L461.4003906,518.3613281z"
		/>
	<path class="st0" d="M761.6640625,373.815918c0,12.7524414-1.296875,25.1938477-3.8916016,37.3217773
		c-2.5976563,12.1298828-6.5166016,23.5566406-11.7646484,34.2734375
		c-5.2451172,10.7226563-11.8759766,20.5390625-19.8867188,29.4521484
		c-8.0136719,8.9150391-17.4628906,16.5869141-28.3505859,23.0175781
		c-10.890625,6.4326172-23.2734375,11.4541016-37.1523438,15.0644531
		c-13.8798828,3.6123047-29.2822266,5.4160156-46.2080078,5.4160156h-98.1689453l51.6240234-242.715332h85.3056641
		c17.828125,0,33.4833984,2.4277344,46.96875,7.277832c13.4833984,4.8530273,24.796875,11.5942383,33.9365234,20.2265625
		c9.1396484,8.6318359,16.0205078,18.9570313,20.6494141,30.9741211
		C759.3515625,346.1416016,761.6640625,359.3730469,761.6640625,373.815918z M703.7783203,378.046875
		c0-9.0263672-1.2685547-17.1210938-3.8085938-24.2885742c-2.5371094-7.1640625-6.4316406-13.2280273-11.6767578-18.1953125
		c-5.2490234-4.9638672-11.8779297-8.7719727-19.8896484-11.4248047
		c-8.0126953-2.6499023-17.4921875-3.9775391-28.4345703-3.9775391h-26.5742188l-32.6660156,153.855957h33.34375
		c13.765625,0,26.1757813-2.2851563,37.2363281-6.8564453c11.0576172-4.5683594,20.4804688-11.0566406,28.265625-19.4628906
		c7.7871094-8.4042969,13.7666016-18.5048828,17.9414063-30.2988281
		C701.6894531,405.609375,703.7783203,392.4926758,703.7783203,378.046875z"/>
</g>
</svg>
