<?xml version="1.0" encoding="utf-8"?>

<!DOCTYPE svg PUBLIC "-//W3C//DTD SVG 1.1//EN" "http://www.w3.org/Graphics/SVG/1.1/DTD/svg11.dtd">
<svg version="1.1" id="Layer_1" xmlns="http://www.w3.org/2000/svg" viewBox="200 180 612 612">
<style type="text/css">
<![CDATA[
	.st0{fill:#FFFFFF;}
]]>
</style>
<path class="st0" d="M499.6142578,384.3461914c0,1.3178711-1.3183594,1.3178711-1.3183594,1.3178711h-1.3183594
	c-1.3173828,0-1.3173828-1.3178711-2.6357422-2.6367188c0,0-1.3173828-1.3173828-1.3173828-2.6357422
	c0-1.3188477,0-1.3173828,1.3173828-1.3173828l2.6357422,1.3173828
	C498.2958984,381.7099609,499.6142578,383.0273438,499.6142578,384.3461914 M475.890625,371.1660156
	c0-6.5893555-2.6367188-10.543457-6.5888672-10.543457c0,0,0,1.3173828-1.3183594,1.3173828v2.6367188H471.9375
	c0,2.6367188,1.3183594,3.953125,1.3183594,6.5893555H475.890625 M522.0185547,364.5766602
	c2.6367188,0,3.9541016,2.6367188,5.2714844,6.5893555h2.6367188c-1.3173828-1.3168945-1.3173828-2.6362305-1.3173828-3.9526367
	c0-1.3178711,0-2.6367188-1.3164063-3.9545898c-1.3183594-1.3173828-2.6376953-2.6362305-3.9541016-2.6362305
	c0,0-1.3173828,1.3173828-2.6367188,1.3173828C520.7021484,363.2587891,522.0185547,363.2587891,522.0185547,364.5766602
	 M482.4824219,385.6640625c-1.3183594,0-1.3183594,0-1.3183594-1.3178711c0-1.3188477,0-2.6367188,1.3183594-3.9541016
	c2.6337891,0,3.9521484-1.3178711,3.9521484-1.3178711c1.3164063,0,1.3164063,1.3178711,1.3164063,1.3178711
	c0,1.3173828-1.3164063,2.6352539-3.9501953,5.2719727H482.4824219 M467.9833984,384.3461914
	c-5.2705078-2.6367188-6.5908203-6.590332-6.5908203-13.1801758c0-3.9526367,0-6.5893555,2.6367188-9.2260742
	c1.3173828-2.6367188,3.9541016-3.9536133,6.5908203-3.9536133c2.6337891,0,3.953125,1.3183594,6.5898438,3.9536133
	c1.3183594,3.9545898,2.6357422,7.9077148,2.6357422,11.8613281v1.3183594v1.3183594h1.3183594v-1.3183594
	c1.3183594,0,1.3183594-2.6362305,1.3183594-7.9082031c0-3.9536133,0-7.9067383-2.6367188-11.8613281
	c-2.6367188-3.9541016-5.2724609-6.590332-10.5449219-6.590332c-3.9541016,0-7.9082031,2.6362305-9.2255859,6.590332
	c-2.6367188,5.2719727-3.1630859,9.2265625-3.1630859,15.8144531c0,5.2734375,1.8457031,10.5449219,7.1171875,15.8168945
	C465.3486328,385.6640625,466.6650391,385.6640625,467.9833984,384.3461914 M632.7275391,570.1777344
	c1.3183594,0,1.3183594-0.5273438,1.3183594-1.7128906c0-2.8984375-1.3183594-6.3251953-5.2705078-10.1484375
	c-3.9541016-3.953125-10.5458984-6.4570313-18.4511719-7.5117188c-1.3193359-0.1318359-2.6376953-0.1318359-2.6376953-0.1318359
	c-1.3173828-0.2626953-1.3173828-0.2626953-2.6357422-0.2626953c-1.3164063-0.1318359-3.9541016-0.3964844-5.2734375-0.6591797
	c3.9570313-12.2587891,5.2734375-23.0654297,5.2734375-32.5556641c0-13.1777344-2.6357422-22.4033203-7.9091797-30.3125
	c-5.2685547-7.9072266-10.5419922-11.8613281-17.1328125-13.1787109c-1.3173828,1.3173828-1.3173828,1.3173828-1.3173828,2.6357422
	c6.5908203,2.6367188,13.1816406,7.9082031,17.1328125,15.8154297c3.953125,9.2246094,5.2724609,17.1328125,5.2724609,26.359375
	c0,7.3798828-1.3193359,18.3183594-6.5908203,32.2900391c-5.2695313,2.109375-10.5429688,6.984375-14.4970703,14.6279297
	c0,1.1884766,0,1.8457031,1.3183594,1.8457031c0,0,1.3193359-1.1855469,2.6357422-3.4267578
	c2.6367188-2.2412109,3.9541016-4.4814453,6.5908203-6.7216797c3.953125-2.2412109,6.5888672-3.4287109,10.5429688-3.4287109
	c6.5898438,0,13.1806641,0.9248047,17.1337891,2.7685547c5.2714844,1.7138672,7.9082031,3.5585938,9.2275391,5.6669922
	c1.3173828,1.9794922,2.6337891,3.8222656,3.9541016,5.5371094
	C631.4121094,569.3886719,632.7275391,570.1777344,632.7275391,570.1777344 M511.4746094,379.0742188
	c-1.3164063-1.3173828-1.3164063-3.9536133-1.3164063-6.590332c0-5.2705078,0-7.9072266,2.6367188-11.8613281
	c2.6367188-2.6362305,5.2714844-3.953125,7.9072266-3.953125c3.9541016,0,6.5917969,2.6362305,9.2265625,5.2705078
	c1.3173828,3.9545898,2.6357422,6.5898438,2.6357422,10.5439453c0,6.590332-2.6357422,10.543457-7.9082031,11.8623047
	c0,0,1.3183594,1.3178711,2.6376953,1.3178711c2.6347656,0,3.953125,1.3183594,6.5898438,2.6367188
	c1.3173828-7.9077148,2.6376953-13.1801758,2.6376953-19.7695313c0-7.9067383-1.3203125-13.1801758-3.9570313-17.1342773
	c-3.9541016-3.9536133-7.9082031-5.2714844-13.1777344-5.2714844c-3.9541016,0-7.9091797,1.3178711-11.8632813,3.9541016
	c-2.6357422,3.9536133-3.9511719,6.590332-3.9511719,10.5449219c0,6.5888672,1.3154297,11.8603516,3.9511719,17.1328125
	C508.8388672,377.7568359,510.1582031,379.0742188,511.4746094,379.0742188 M527.2900391,400.1621094
	c-17.1318359,11.8623047-30.3125,17.1337891-40.8554688,17.1337891c-9.2255859,0-18.4511719-3.953125-26.359375-10.5439453
	c1.3173828,2.6357422,2.6376953,5.2724609,3.9541016,6.5908203l7.9072266,7.9082031
	c5.2724609,5.2705078,11.8642578,7.9072266,18.4521484,7.9072266c9.2255859,0,19.7695313-5.2714844,32.9472656-14.4970703
	l11.8642578-7.9072266c2.6367188-2.6367188,5.2695313-5.2724609,5.2695313-9.2265625c0-1.3173828,0-2.6367188-1.3173828-2.6367188
	c-1.3154297-2.6357422-7.90625-6.5888672-21.0859375-10.5439453c-11.8632813-5.2709961-21.0888672-7.9072266-26.3603516-7.9072266
	c-3.9550781,0-10.5429688,2.6362305-19.7695313,7.9072266c-7.9072266,5.2734375-13.1777344,10.5439453-13.1777344,15.8173828
	c0,0,1.3164063,1.3164063,2.6357422,3.953125c7.9072266,6.5898438,15.8154297,10.5439453,23.7216797,10.5439453
	c10.5458984,0,23.7226563-5.2734375,40.8564453-18.4521484v2.6357422
	C527.2900391,398.8447266,527.2900391,400.1621094,527.2900391,400.1621094 M557.6035156,666.3896484
	c5.2724609,9.9111328,14.4980469,14.8935547,25.0429688,14.8935547c2.6357422,0,5.2705078-0.3964844,7.9072266-1.1865234
	c2.6367188-0.5263672,5.2705078-1.4492188,6.5888672-2.5039063c1.3183594-0.9228516,2.6367188-1.8447266,3.9541016-2.8994141
	c2.6376953-0.9228516,2.6376953-1.5820313,3.9541016-2.2402344l22.40625-19.3740234
	c5.2705078-4.2050781,10.5439453-7.8828125,17.1328125-11.0712891c5.2724609-3.1621094,10.5449219-5.2714844,13.1796875-6.4580078
	c3.9541016-1.0546875,6.5898438-2.6367188,9.2275391-4.7441406c1.3154297-1.9775391,2.6337891-4.4824219,2.6337891-7.6455078
	c0-3.8212891-2.6337891-6.7216797-5.2714844-8.8300781c-2.6357422-2.109375-5.2705078-3.5585938-7.9072266-4.4804688
	c-2.6367188-0.9248047-5.2724609-3.0322266-9.2255859-6.5908203c-2.6367188-3.4277344-5.2714844-8.1728516-6.5908203-14.3662109
	l-1.3164063-7.6445313c-1.3183594-3.5576172-1.3183594-6.1933594-2.6376953-7.6435547c0-0.3955078,0-0.5283203-1.3164063-0.5283203
	c-1.3183594,0-3.953125,1.1884766-5.2734375,3.4267578c-2.6347656,2.2412109-5.2705078,4.7451172-7.9072266,7.3828125
	c-1.3173828,2.6347656-5.2714844,5.0068359-7.9072266,7.2470703c-3.953125,2.2412109-7.9082031,3.4267578-10.5429688,3.4267578
	c-10.5439453,0-15.8173828-2.9003906-19.7714844-8.5664063c-2.6357422-4.2167969-3.9541016-9.09375-5.2714844-14.6298828
	c-2.6367188-2.2412109-3.9521484-3.4267578-6.5898438-3.4267578c-6.5898438,0-9.2255859,6.8525391-9.2255859,20.6904297v4.3505859
	v15.2900391v11.7285156v5.6679688v3.953125c0,1.1865234-1.3183594,3.8222656-1.3183594,7.9091797
	c-1.3173828,4.0849609-1.3173828,8.7236328-1.3173828,13.9677734l-2.6367188,14.6318359v0.2236328 M366.5009766,659.3798828
	c12.2558594,1.7919922,26.3583984,5.6269531,42.3066406,11.4794922c15.9472656,5.7998047,25.7001953,8.8310547,29.2597656,8.8310547
	c9.2246094,0,16.8701172-4.0859375,23.1943359-11.9804688c1.3183594-2.5595703,1.3183594-5.5634766,1.3183594-9.0146484
	c0-12.4560547-7.5117188-28.2070313-22.5371094-47.3164063l-8.9628906-11.9931641
	c-1.8447266-2.5048828-4.0849609-6.3271484-6.984375-11.4658203c-2.7675781-5.1416016-5.2714844-9.0947266-7.2490234-11.8623047
	c-1.7138672-3.03125-4.4814453-6.0625-8.0390625-9.0957031c-3.4277344-3.0292969-7.3798828-5.0058594-11.7304688-6.0605469
	c-5.5351563,1.0546875-9.3574219,2.8984375-11.2021484,5.4042969c-1.84375,2.5029297-2.9003906,5.2714844-3.1630859,8.1699219
	c-0.3955078,2.7685547-1.1865234,4.6142578-2.5048828,5.5361328c-1.3183594,0.7900391-3.5566406,1.4501953-6.5898438,2.1083984
	c-0.6601563,0-1.8447266,0-3.5585938,0.1337891h-3.5576172c-6.9863281,0-11.7314453,0.7880859-14.234375,2.1074219
	c-3.2958984,3.8232422-5.0087891,8.171875-5.0087891,12.7841797c0,2.1103516,0.5273438,5.6699219,1.5820313,10.6767578
	c1.0546875,4.8779297,1.5820313,8.8310547,1.5820313,11.5976563c0,5.4052734-1.5820313,10.8085938-4.8769531,16.2119141
	c-3.2949219,5.6669922-5.0078125,9.8837891-5.0078125,12.8886719c1.3173828,5.1142578,10.0146484,8.7119141,25.9638672,10.8212891
	 M410.3876953,539.5371094c0-9.0947266,2.3720703-19.1113281,7.25-30.9736328
	c4.7451172-11.8613281,9.4902344-19.7685547,14.1015625-25.0400391c-0.2636719-1.3183594-0.9228516-1.3183594-1.9775391-1.3183594
	l-1.3183594-1.3183594c-3.8212891,3.9541016-8.4345703,13.1787109-13.96875,26.359375
	c-5.5351563,11.8623047-8.4355469,22.7998047-8.4355469,30.8388672c0,5.9316406,1.4492188,11.0712891,4.0849609,15.5527344
	c2.8994141,4.3496094,9.8847656,10.6767578,20.9550781,18.7148438l13.9697266,9.0927734
	c14.8945313,12.9179688,22.8027344,21.8789063,22.8027344,27.1513672c0,2.7666016-1.3183594,5.5351563-5.2724609,8.5673828
	c-2.6357422,3.1630859-6.1953125,4.7441406-9.2255859,4.7441406c-0.2636719,0-0.3964844,0.2646484-0.3964844,0.9228516
	c0,0.1337891,1.3183594,2.7685547,4.0859375,7.9082031c5.5351563,7.5117188,17.3964844,11.203125,33.2128906,11.203125
	c28.9951172,0,51.4003906-11.8623047,68.5341797-35.5849609c0-6.5888672,0-10.6748047-1.3193359-12.3896484v-4.8759766
	c0-8.5673828,1.3193359-15.0263672,3.9570313-19.2441406c2.6357422-4.2167969,5.2685547-6.1933594,9.2226563-6.1933594
	c2.6367188,0,5.2744141,0.9228516,7.9101563,2.8994141c1.3173828-10.1474609,1.3173828-18.9804688,1.3173828-26.8867188
	c0-11.9921875,0-21.8769531-2.6357422-31.1035156c-1.3173828-7.90625-3.9550781-14.4960938-6.5917969-19.7685547
	c-2.6367188-3.9541016-5.2724609-7.9082031-7.9072266-11.8613281c-2.6367188-3.953125-3.9541016-7.9072266-6.5898438-11.8613281
	c-1.3183594-5.2724609-2.6376953-9.2265625-2.6376953-15.8164063c-3.9541016-6.5898438-6.5908203-13.1796875-10.5439453-19.7705078
	c-2.6367188-6.5898438-5.2724609-13.1787109-7.9082031-18.4501953l-11.8623047,9.2246094
	c-13.1787109,9.2255859-23.7216797,13.1796875-32.9482422,13.1796875c-7.90625,0-14.4960938-1.3173828-18.4501953-6.5898438
	l-7.9072266-6.5908203c0,3.9541016-1.3183594,9.2255859-3.9541016,14.4980469l-8.3027344,15.8154297
	c-3.6914063,9.2255859-5.6679688,14.4970703-6.0625,18.4511719c-0.5273438,2.6367188-0.921875,5.2724609-1.1875,5.2724609
	l-9.8828125,19.7685547c-10.6767578,19.7695313-16.0800781,38.0898438-16.0800781,53.2460938
	c0,3.03125,0.2636719,6.1943359,0.7910156,9.3583984C413.2871094,552.5839844,410.3876953,546.9160156,410.3876953,539.5371094
	 M504.7548828,664.2148438c-17.1337891,0-30.3144531,2.3203125-39.5400391,6.9199219v-0.3964844
	c-6.5898438,7.9091797-13.9697266,11.9941406-24.2509766,11.9941406c-6.4570313,0-16.6054688-2.5048828-30.3125-7.5126953
	c-13.8378906-4.7441406-26.0966797-8.3808594-36.7714844-10.7802734c-1.0546875-0.3027344-3.4257813-0.7509766-7.2490234-1.3574219
	c-3.6904297-0.5917969-7.1162109-1.1992188-10.1484375-1.8056641c-2.7675781-0.5908203-5.9306641-1.4892578-9.3574219-2.7011719
	c-3.2949219-1.0410156-5.9316406-2.3994141-7.9072266-4.046875c-1.8193359-1.6591797-2.7148438-3.5322266-2.7148438-5.6279297
	c0-2.1083984,0.4462891-4.3623047,1.3427734-6.7617188c0.8447266-1.4492188,1.7666016-2.8974609,2.6884766-4.2167969
	c0.9228516-1.4501953,1.7128906-2.7685547,2.2402344-4.0849609c0.7919922-1.1865234,1.3183594-2.3740234,1.8457031-3.6894531
	c0.5273438-1.1884766,1.0546875-2.3730469,1.3183594-3.8232422c0.2626953-1.3164063,0.5263672-2.6367188,0.5263672-3.9541016
	s-0.5263672-5.2705078-1.5810547-12.2548828c-1.0556641-6.8554688-1.5820313-11.203125-1.5820313-13.0488281
	c0-5.7988281,1.3183594-10.4121094,4.2177734-13.7070313c2.8994141-3.2958984,5.6660156-5.0087891,8.5673828-5.0087891h15.1552734
	c1.1865234,0,3.0332031-0.6572266,5.7998047-2.2392578c0.9228516-2.1083984,1.7138672-3.8222656,2.2421875-5.4052734
	c0.6572266-1.5810547,0.921875-2.7675781,1.1845703-3.2919922c0.2636719-0.7919922,0.5273438-1.5830078,0.7910156-2.2431641
	c0.5273438-0.9228516,1.1855469-1.9775391,2.1083984-3.0292969c-1.0537109-1.3183594-1.5810547-3.0322266-1.5810547-5.1425781
	c0-1.4492188,0-2.765625,0.2636719-3.5566406c0-4.7441406,2.2412109-11.4677734,6.984375-20.2978516l4.6132813-8.3007813
	c3.8222656-7.1191406,6.7226563-12.390625,8.8310547-17.6611328c2.2402344-5.2724609,4.6123047-13.1806641,7.2490234-23.7236328
	c2.109375-9.2255859,7.1171875-18.4521484,15.0244141-27.6787109l9.8857422-11.8603516
	c6.8525391-7.9091797,11.3330078-14.4980469,13.8369141-19.7705078c2.5048828-5.2724609,3.8232422-11.8613281,3.8232422-17.1337891
	c0-2.6367188-0.6601563-10.5439453-2.1103516-23.7226563c-1.3173828-13.1796875-1.9765625-26.3598633-1.9765625-38.2211914
	c0-9.2265625,0.7900391-15.8154297,2.5039063-22.4052734c1.7138672-6.5908203,4.7441406-13.1801758,9.2255859-18.4516602
	c3.9541016-5.2719727,9.2255859-10.5439453,17.1328125-13.1806641c7.9082031-2.6352539,17.1337891-3.9526367,27.6777344-3.9526367
	c3.9550781,0,7.9082031,0,11.8632813,1.3173828c3.953125,0,9.2246094,1.3173828,15.8144531,3.953125
	c5.2714844,2.6367188,10.5439453,5.2719727,14.4970703,9.2265625c5.2724609,3.9536133,9.2265625,10.543457,13.1796875,17.1337891
	c2.6367188,7.9077148,5.2695313,15.8144531,6.5898438,26.359375c1.3173828,6.5898438,1.3173828,13.1791992,2.6367188,22.4047852
	c0,7.9086914,1.3173828,13.1801758,1.3173828,17.1337891c1.3183594,3.9536133,1.3183594,9.2255859,2.6367188,15.8144531
	c1.3173828,5.2724609,2.6376953,10.5439453,5.2714844,14.4980469c2.6376953,5.2714844,5.2724609,10.5429688,9.2265625,15.8154297
	c3.9541016,6.5898438,9.2246094,13.1796875,14.4970703,21.0878906C614.1425781,465.0058594,623.3681641,479.5029297,628.640625,494
	c6.5898438,13.1787109,10.5439453,30.3144531,10.5439453,48.6318359c0,9.0957031-1.3193359,17.9257813-3.9541016,26.4912109
	c2.6347656,0,3.9541016,1.0537109,5.2724609,2.9003906c1.3164063,1.8447266,2.6357422,5.7988281,3.953125,11.9931641
	l1.3173828,9.7529297c1.3173828,2.8994141,2.6367188,5.6689453,6.5908203,8.0400391
	c2.6357422,2.3720703,5.2714844,4.3496094,9.2255859,5.9296875c2.6367188,1.3193359,6.5908203,3.1640625,9.2255859,5.5361328
	c2.6347656,2.6357422,3.9541016,5.4042969,3.9541016,8.3017578c0,4.4814453-1.3193359,7.7763672-3.9541016,10.1484375
	c-2.6367188,2.6376953-5.2714844,4.4814453-9.2255859,5.6689453c-2.6367188,1.3164063-7.9072266,3.9521484-15.8164063,7.6689453
	c-6.5898438,3.9013672-13.1806641,8.6328125-19.7705078,14.2333984l-13.1787109,11.2158203
	c-5.2705078,5.140625-10.5439453,8.8310547-14.4970703,11.0712891c-3.953125,2.3740234-9.2255859,3.5585938-14.4960938,3.5585938
	l-9.2265625-1.0537109c-10.5439453-2.7675781-17.1337891-8.0390625-21.0878906-16.0800781
	c-21.0869141-2.5556641-38.21875-3.8222656-48.7646484-3.8222656"/>
</svg>
