<?xml version="1.0" encoding="utf-8"?>

<!DOCTYPE svg PUBLIC "-//W3C//DTD SVG 1.1//EN" "http://www.w3.org/Graphics/SVG/1.1/DTD/svg11.dtd">
<svg version="1.1" id="Layer_1" xmlns="http://www.w3.org/2000/svg" viewBox="200 180 612 612">
<style type="text/css">
<![CDATA[
	.st0{fill:#FFFFFF;}
]]>
</style>
<path class="st0" d="M614.9101563,497.8408203c0.5576172,60.0869141,52.7119141,80.0820313,53.2890625,80.3369141
	c-0.4414063,1.4101563-8.3330078,28.4951172-27.4765625,56.4726563
	c-16.5478516,24.1865234-33.7236328,48.2851563-60.78125,48.7841797
	c-26.5849609,0.4892578-35.1328125-15.765625-65.5283203-15.765625c-30.3857422,0-39.8847656,15.2666016-65.0498047,16.2548828
	c-26.1162109,0.9902344-46.0058594-26.1552734-62.6914063-50.2539063
	c-34.0966797-49.2929688-60.1533203-139.2939453-25.1660156-200.0458984
	c17.3818359-30.1689453,48.4433594-49.2744141,82.15625-49.7651367c25.6464844-0.4882813,49.8535156,17.253418,65.5302734,17.253418
	c15.6689453,0,45.0830078-21.3369141,76.0068359-18.2026367c12.9462891,0.5390625,49.2851563,5.2285156,72.6201172,39.3842773
	C655.9404297,423.4599609,614.4599609,447.6083984,614.9101563,497.8408203 M564.9462891,350.2978516
	c13.8652344-16.784668,23.1972656-40.1479492,20.6513672-63.3959961
	c-19.9863281,0.8032227-44.1533203,13.3188477-58.4892578,30.0922852
	c-12.8466797,14.8549805-24.0986328,38.6293945-21.0625,61.4169922
	C528.3222656,380.1342773,551.0800781,367.090332,564.9462891,350.2978516"/>
</svg>
