<?xml version="1.0" encoding="utf-8"?>

<!DOCTYPE svg PUBLIC "-//W3C//DTD SVG 1.1//EN" "http://www.w3.org/Graphics/SVG/1.1/DTD/svg11.dtd">
<svg version="1.1" id="Layer_1" xmlns="http://www.w3.org/2000/svg" viewBox="200 180 612 612">
<style type="text/css">
<![CDATA[
	.st0{fill:#FFFFFF;}
]]>
</style>
<path class="st0" d="M686.6894531,465.7851563c-0.5771484-5.0996094-6.5166016-8.9355469-11.65625-8.9355469
	c-16.6230469,0-31.3730469-9.7519531-37.5585938-24.8486328c-6.3134766-15.4580078-2.2392578-33.4824219,10.1425781-44.8427734
	c3.8994141-3.5644531,4.3740234-9.5356445,1.1005859-13.6787109c-8.5019531-10.8027344-18.1669922-20.5605469-28.7265625-29.015625
	c-4.1259766-3.3139648-10.2001953-2.8535156-13.7832031,1.1147461
	c-10.8095703,11.9711914-30.2314453,16.4199219-45.2353516,10.1601563
	c-15.609375-6.5693359-25.4609375-22.3901367-24.4931641-39.3740234c0.3154297-5.3374023-3.5869141-9.9765625-8.9023438-10.5952148
	c-13.5478516-1.5693359-27.2158203-1.6142578-40.8037109-0.1069336c-5.2509766,0.5800781-9.1523438,5.1079102-8.9746094,10.3798828
	c0.5839844,16.8183594-9.3789063,32.3608398-24.8378906,38.6938477
	c-14.8251953,6.0566406-34.1074219,1.640625-44.8945313-10.2270508c-3.5634766-3.9072266-9.5302734-4.3886719-13.6865234-1.1464844
	c-10.8662109,8.527832-20.75,18.2939453-29.3369141,29.0068359c-3.3457031,4.1655273-2.8515625,10.2016602,1.0820313,13.7797852
	c12.6240234,11.4326172,16.6972656,29.6132813,10.140625,45.2509766
	c-6.2617188,14.9121094-21.7382813,24.5136719-39.4580078,24.5136719
	c-5.7529297-0.1816406-9.8447266,3.6796875-10.4765625,8.9091797c-1.5966797,13.6201172-1.6152344,27.5058594-0.0810547,41.2373047
	c0.5732422,5.1230469,6.6953125,8.9238281,11.8945313,8.9238281c15.7958984-0.4042969,30.9511719,9.3691406,37.3173828,24.8496094
	c6.3388672,15.4589844,2.2597656,33.4726563-10.1416016,44.8505859c-3.8818359,3.5615234-4.3759766,9.5214844-1.1005859,13.6582031
	c8.4208984,10.7314453,18.0957031,20.4970703,28.6855469,29.0302734c4.15625,3.3457031,10.1982422,2.8769531,13.8037109-1.09375
	C417.5625,614.28125,436.9755859,609.84375,451.9208984,616.1132813c15.6572266,6.5517578,25.5009766,22.375,24.5390625,39.3603516
	c-0.3173828,5.3359375,3.5986328,9.9863281,8.8964844,10.5957031c6.9326172,0.8085938,13.9042969,1.2119141,20.8964844,1.2119141
	c6.6357422,0,13.2714844-0.3613281,19.9082031-1.0976563c5.2587891-0.5830078,9.1523438-5.1132813,8.9765625-10.3828125
	c-0.6044922-16.8115234,9.3740234-32.3574219,24.8134766-38.671875c14.9257813-6.09375,34.1210938-1.6376953,44.9140625,10.2158203
	c3.5859375,3.9013672,9.5087891,4.3769531,13.6826172,1.1464844c10.8544922-8.5048828,20.7158203-18.2646484,29.3427734-29.0029297
	c3.3457031-4.1611328,2.8720703-10.2021484-1.0830078-13.7871094
	c-12.6240234-11.4267578-16.7226563-29.6152344-10.1572266-45.2363281
	c6.1523438-14.7089844,21.0585938-24.5859375,37.0957031-24.5859375l2.2392578,0.0605469
	c5.2050781,0.421875,9.9921875-3.5839844,10.6123047-8.8896484
	C688.2119141,493.3886719,688.2324219,479.5175781,686.6894531,465.7851563L686.6894531,465.7851563z M506.7587891,546.796875
	c-33.3574219,0-60.4873047-27.1367188-60.4873047-60.4882813c0-33.3554688,27.1298828-60.4931641,60.4873047-60.4931641
	c33.3632813,0,60.4892578,27.1376953,60.4892578,60.4931641C567.2529297,519.6601563,540.1259766,546.796875,506.7587891,546.796875
	L506.7587891,546.796875z"/>
</svg>
