<?xml version="1.0" encoding="utf-8"?>

<!DOCTYPE svg PUBLIC "-//W3C//DTD SVG 1.1//EN" "http://www.w3.org/Graphics/SVG/1.1/DTD/svg11.dtd">
<svg version="1.1" id="games" xmlns="http://www.w3.org/2000/svg" viewBox="200 90 612 612">
<style type="text/css">
<![CDATA[
	.st0{fill:#FFFFFF;}
]]>
</style>
<g>
	<path class="st0" d="M381.0078125,356.3955078v88.0146484h-40.1142578V201.6938477h73.6279297
		c27.8691406,0,49.4785156,6.4907227,64.8251953,19.4648438c15.3447266,12.9770508,23.0195313,31.2573242,23.0195313,54.8393555
		c0,23.5854492-8.0126953,42.8808594-24.0341797,57.8867188c-16.0253906,15.0083008-37.6904297,22.5107422-64.9951172,22.5107422
		H381.0078125z M381.0078125,234.8686523v88.690918h26.0664063c17.2636719,0,30.4082031-4.003418,39.4365234-12.0170898
		c9.0263672-8.0107422,13.5410156-19.2954102,13.5410156-33.8515625c0-28.5463867-16.5869141-42.8222656-49.7617188-42.8222656
		H381.0078125z"/>
	<path class="st0" d="M532.3242188,434.7626953v-41.46875c3.7236328,3.3847656,8.1523438,6.4316406,13.2871094,9.140625
		c5.1337891,2.7070313,10.5791016,4.9931641,16.3339844,6.8535156c5.7539063,1.8632813,11.5087891,3.3007813,17.2646484,4.3173828
		c5.7539063,1.015625,11.0576172,1.5234375,15.9091797,1.5234375c16.9267578,0,29.5361328-2.8193359,37.8300781-8.4628906
		c8.2929688-5.6416016,12.4404297-13.8212891,12.4404297-24.5429688c0-5.7543945-1.3837891-10.7475586-4.1474609-14.9790039
		c-2.765625-4.2319336-6.6298828-8.0952148-11.59375-11.5942383c-4.9667969-3.4960938-10.8056641-6.8554688-17.5185547-10.0708008
		c-6.7148438-3.2163086-13.9072266-6.5722656-21.5810547-10.0712891
		c-8.2363281-4.4008789-15.9091797-8.8564453-23.0175781-13.371582c-7.109375-4.5112305-13.2871094-9.5039063-18.5341797-14.9790039
		c-5.2480469-5.4716797-9.3671875-11.6494141-12.3564453-18.5336914c-2.9902344-6.8813477-4.484375-14.9501953-4.484375-24.2041016
		c0-11.3955078,2.5654297-21.296875,7.7011719-29.7045898c5.1318359-8.4047852,11.9023438-15.3442383,20.3115234-20.8188477
		c8.4033203-5.4716797,17.9658203-9.5336914,28.6884766-12.1865234c10.71875-2.6499023,21.6650391-3.9775391,32.8359375-3.9775391
		c25.3886719,0,43.8935547,2.8774414,55.515625,8.6318359v39.7758789
		c-13.7675781-9.9277344-31.4814453-14.8945313-53.1464844-14.8945313c-5.9814453,0-11.9326172,0.5664063-17.8554688,1.6928711
		c-5.9257813,1.1289063-11.2294922,2.9907227-15.9111328,5.5849609c-4.6835938,2.5976563-8.4921875,5.9238281-11.4248047,9.9863281
		c-2.9355469,4.0620117-4.4013672,8.9707031-4.4013672,14.7255859c0,5.4160156,1.1269531,10.1000977,3.3857422,14.0483398
		c2.2558594,3.9511719,5.5556641,7.5610352,9.9003906,10.8325195c4.34375,3.2744141,9.6494141,6.4614258,15.9111328,9.5629883
		c6.2636719,3.1054688,13.5117188,6.4614258,21.75,10.0708008c8.4619141,4.4008789,16.4453125,9.0292969,23.9492188,13.8793945
		c7.5039063,4.8530273,14.1044922,10.2133789,19.8046875,16.0795898
		c5.6962891,5.8681641,10.2099609,12.3847656,13.5400391,19.5493164c3.3261719,7.1669922,4.9921875,15.3173828,4.9921875,24.4575195
		c0,12.300293-2.4824219,22.6816406-7.4472656,31.1435547c-4.9667969,8.4619141-11.6513672,15.3457031-20.0576172,20.6494141
		c-8.40625,5.3046875-18.0830078,9.1396484-29.0263672,11.5097656c-10.9462891,2.3691406-22.5117188,3.5537109-34.6982422,3.5537109
		c-4.0625,0-9.0556641-0.3115234-14.9785156-0.9316406c-5.9257813-0.6201172-11.9921875-1.5214844-18.1962891-2.7070313
		c-6.2070313-1.1835938-12.0751953-2.6230469-17.6025391-4.3164063
		C540.1669922,438.8242188,535.7099609,436.90625,532.3242188,434.7626953z"/>
</g>
<g>
	<path class="st0" d="M276.8115234,623.9716797c-32.9648438,0-53.1743164-22.1298828-53.1743164-58.3994141
		c0-35.7314453,20.3632813-58.1689453,52.6367188-58.1689453c26.2026367,0,45.4897461,15.1376953,48.7172852,38.1904297h-23.0522461
		c-3.4580078-11.2197266-12.7558594-17.7509766-25.6650391-17.7509766c-17.9042969,0-28.8925781,14.2158203-28.8925781,37.4990234
		c0,23.7441406,11.5263672,38.1904297,29.8144531,38.1904297c15.2148438,0,25.7416992-8.9912109,26.203125-22.3613281
		l0.0766602-1.9980469h-24.0512695v-17.4423828h46.565918v14.1386719
		C325.9902344,605.5292969,307.0869141,623.9716797,276.8115234,623.9716797z"/>
	<path class="st0" d="M408.3642578,594.6953125h-38.9589844l-8.5292969,26.4335938H337.59375l38.4970703-110.8828125h27.2783203
		l38.4980469,110.8828125h-25.1269531L408.3642578,594.6953125z M374.4003906,576.7910156h29.0458984l-13.7548828-43.4921875
		h-1.3828125L374.4003906,576.7910156z"/>
	<path class="st0" d="M556.6679688,621.1289063v-74.1523438h-1.2285156l-28.2011719,67.7744141h-15.4453125l-28.2773438-67.7744141
		h-1.2294922v74.1523438h-21.515625V510.2460938h27.3554688l30.6591797,74.5361328h1.3837891l30.7363281-74.5361328h27.2783203
		v110.8828125H556.6679688z"/>
	<path class="st0" d="M678.5390625,621.1289063H605.078125V510.2460938h73.4609375v19.8251953h-50.2539063v25.8955078h47.4111328
		v18.3652344h-47.4111328v26.9716797h50.2539063V621.1289063z"/>
	<path class="st0" d="M720.4179688,590.3154297c1.0751953,8.9902344,10.1425781,14.7529297,23.2060547,14.7529297
		c12.0634766,0,20.59375-5.8398438,20.59375-14.2158203c0-7.0693359-5.5332031-11.1416016-19.1337891-14.0615234
		l-14.4462891-3.0732422c-20.2089844-4.2265625-30.1220703-14.7539063-30.1220703-31.6591797
		c0-20.9003906,16.828125-34.6552734,42.4169922-34.6552734c24.4355469,0,41.7246094,13.6777344,42.4160156,33.4257813h-21.8232422
		c-1.0751953-8.7597656-9.2207031-14.5996094-20.4394531-14.5996094c-11.6035156,0-19.2871094,5.3789063-19.2871094,13.8310547
		c0,6.8388672,5.3017578,10.7578125,18.2880859,13.5244141l13.3701172,2.8427734
		c22.2841797,4.6875,31.8896484,14.2929688,31.8896484,31.5048828c0,22.3613281-17.1357422,36.0390625-44.9521484,36.0390625
		c-26.4335938,0-43.5693359-12.9863281-44.4140625-33.65625H720.4179688z"/>
</g>
</svg>
