<?xml version="1.0" encoding="utf-8"?>

<!DOCTYPE svg PUBLIC "-//W3C//DTD SVG 1.1//EN" "http://www.w3.org/Graphics/SVG/1.1/DTD/svg11.dtd">
<svg version="1.1" id="Layer_1" xmlns="http://www.w3.org/2000/svg" viewBox="200 90 612 612">
<style type="text/css">
<![CDATA[
	.st0{fill:#FFFFFF;}
]]>
</style>
<g id="XMLID_2_">
	<g>
		<path id="XMLID_12_" class="st0" d="M381.2226563,635.6298828c-2.4101563-0.6630859-4.7919922-2.5087891-5.7236328-4.4296875
			c-1.1640625-2.4052734-1.0800781-5.8046875,0.2080078-8.390625c0.828125-1.6630859,2.0703125-3.0615234,9.7373047-10.9511719
			c3.3671875-3.4648438,7.1572266-7.4072266,8.421875-8.7626953s4.3212891-4.4306641,6.7919922-6.8339844l4.4912109-4.3701172
			l-3.1796875-3.2246094c-1.75-1.7714844-3.5615234-3.6699219-4.0273438-4.2177734
			c-0.4648438-0.546875-3.3925781-3.5800781-6.5058594-6.7402344c-6.1298828-6.2265625-12.1367188-12.7255859-13.640625-14.7597656
			c-2.0576172-2.7851563-2.5449219-5.9199219-1.3154297-8.4511719c1.2578125-2.5859375,4.5078125-5.0283203,7.0888672-5.3291016
			c1.234375-0.1455078,3.1933594,0.2871094,5.0673828,1.1152344c1.3701172,0.6054688,4.9833984,3.8408203,7.8271484,7.0068359
			c1.8583984,2.0693359,7.2324219,7.7734375,16.2753906,17.2753906l4.4150391,4.6386719l4.9570313-5.0585938
			c2.7265625-2.7822266,6.1044922-6.3007813,7.5048828-7.8212891c1.4023438-1.5195313,5.2753906-5.5722656,8.6103516-9.0068359
			c5.5615234-5.7294922,6.1933594-6.3085938,7.6660156-7.0371094c4.5029297-2.2255859,9.7666016-0.4619141,11.9609375,4.0087891
			c0.5742188,1.1699219,0.6435547,1.5341797,0.6289063,3.3037109c-0.0195313,2.2695313-0.5058594,3.8037109-1.6992188,5.3466797
			c-1.734375,2.2431641-5.0507813,5.8681641-9.9375,10.8623047c-2.8945313,2.9580078-6.3955078,6.640625-7.78125,8.1787109
			c-1.3847656,1.5410156-4.1162109,4.3857422-6.0673828,6.3261719l-3.5507813,3.5263672l7.0117188,7.1523438
			c3.8554688,3.9335938,10.1533203,10.3535156,13.9941406,14.2666016c7.3144531,7.4521484,8.1123047,8.4414063,9.0449219,11.2050781
			c1.0185547,3.015625,0.2109375,6.2558594-2.2158203,8.9111328c-2.1025391,2.3007813-5.546875,3.1552734-8.7714844,2.1767578
			c-1.8779297-0.5722656-3.0341797-1.3808594-5.0410156-3.5322266
			c-3.8271484-4.1015625-12.4570313-13.0556641-15.5927734-16.1767578
			c-1.8935547-1.8837891-3.9658203-4.0722656-4.6064453-4.8623047c-0.640625-0.7910156-2.2197266-2.5-3.5078125-3.8027344
			l-2.3447266-2.3642578l-1.5615234,1.4462891c-0.8603516,0.7958984-3.3037109,3.2724609-5.4316406,5.5048828
			c-2.1279297,2.2333984-6.1064453,6.4033203-8.8417969,9.2666016c-2.734375,2.8632813-6.4462891,6.7714844-8.2490234,8.6835938
			c-3.4814453,3.6992188-5.3935547,5.2119141-7.4140625,5.8613281
			C384.5488281,636.0087891,382.6855469,636.0332031,381.2226563,635.6298828z"/>
		<path id="XMLID_9_" class="st0" d="M611.2753906,614.9267578c-3.0351563-0.3613281-8.4160156-1.8642578-10.8554688-3.03125
			c-9.6806641-4.6328125-16.1738281-12.8300781-18.2548828-23.0458984
			c-0.5703125-2.7910156-0.6191406-9.3642578-0.0917969-12.1660156c0.46875-2.4833984,2.1757813-7.6972656,3.109375-9.4902344
			c0.4169922-0.7988281,1.9902344-3.0029297,3.4970703-4.8974609c2.8349609-3.5644531,4.8720703-5.515625,7.7353516-7.4091797
			c1.9794922-1.3085938,7.2519531-3.6494141,9.5322266-4.2314453c2.3613281-0.6025391,6.2246094-0.9560547,9.7080078-0.8857422
			c1.5791016,0.0322266,6.2802734,0.0390625,10.4433594,0.0166016l7.5703125-0.0390625l0.0029297-10.3330078
			c0-6.0527344,0.0966797-10.9287109,0.2294922-11.7705078c1.1474609-7.1962891,8.7431641-10.0322266,14.0419922-5.2412109
			c1.2568359,1.1367188,2.3798828,3.0566406,2.7470703,4.6962891c0.2773438,1.2314453,0.3740234,12.2822266,0.46875,53.0595703
			l0.0605469,26.3203125l-0.5986328,1.2246094c-0.6943359,1.4189453-1.5849609,2.1181641-3.8876953,3.0556641
			c-2.7783203,1.1308594-8.6269531,2.6152344-13.6171875,3.4570313l-4.8623047,0.8222656l-7.6259766,0.0478516
			C616.4335938,615.1113281,612.2246094,615.0400391,611.2753906,614.9267578z M629.6162109,597.9335938h3.8330078v-15.8183594
			V566.296875l-10.3339844,0.0820313c-11.6484375,0.0908203-11.4648438,0.0693359-14.9755859,1.8222656
			c-2.4941406,1.2451172-4.0175781,2.4873047-5.5566406,4.5351563c-2.3876953,3.1748047-3.28125,5.6445313-3.2744141,9.0615234
			c0.0068359,4.3232422,1.4804688,8.2607422,4.0302734,10.7734375c2.9599609,2.9160156,4.6376953,3.8662109,8.7216797,4.9423828
			l2.4902344,0.6552734l5.6162109-0.1171875C623.2558594,597.9863281,627.5078125,597.9335938,629.6162109,597.9335938z"/>
		<path id="XMLID_8_" class="st0" d="M504.1367188,612.953125c-0.6650391-0.8564453-1.5302734-1.9746094-1.9208984-2.4863281
			c-1.0058594-1.3144531-5.5791016-7.5664063-7.5507813-10.3232422c-2.1123047-2.9550781-4.1953125-5.8203125-8.3554688-11.4931641
			c-1.8261719-2.4921875-4.4609375-6.1728516-5.8554688-8.1796875c-3.1025391-4.46875-5.9306641-8.3408203-7.9101563-10.8300781
			c-2.0927734-2.6337891-4.9550781-7.0292969-5.5683594-8.5527344c-0.4140625-1.0302734-0.5166016-1.6982422-0.5175781-3.3837891
			c-0.0019531-1.8398438,0.0742188-2.2626953,0.6181641-3.4257813c0.7636719-1.6318359,2.3574219-3.1767578,4.2226563-4.0947266
			c2.7626953-1.3603516,6.1914063-1.0292969,8.6347656,0.8339844c1.3964844,1.0654297,3.515625,3.5898438,5.0224609,5.9824219
			c1.703125,2.7041016,3.265625,5.0351563,9.5068359,14.1875c6.1796875,9.0634766,7.4707031,10.9208984,7.9648438,11.4589844
			c0.296875,0.3242188,1.0185547,1.2353516,1.6054688,2.0244141c0.5859375,0.7900391,1.1357422,1.5175781,1.2197266,1.6152344
			c0.1308594,0.1523438,1.8398438-2.0126953,2.5380859-3.2119141c0.1201172-0.2099609,1.2646484-1.8320313,2.5410156-3.6054688
			c3.125-4.3398438,6.9121094-9.6748047,7.1835938-10.1171875c0.2285156-0.3730469,0.3535156-0.5566406,4.3457031-6.3671875
			c1.3027344-1.8974609,2.9091797-4.3505859,3.5693359-5.4492188c1.6611328-2.7714844,4.3505859-6.0507813,5.6328125-6.875
			c2.3076172-1.4804688,4.8203125-1.7861328,7.6015625-0.9208984c2.2832031,0.7089844,4.4726563,2.6992188,5.2822266,4.7988281
			c0.8398438,2.1816406,0.6142578,5.0273438-0.5849609,7.3935547c-1.0097656,1.9951172-5.9707031,9.0244141-11.1601563,15.8164063
			c-1.2841797,1.6816406-3.4140625,4.6464844-4.7363281,6.5908203c-1.3222656,1.9453125-2.9199219,4.1835938-3.5507813,4.9736328
			c-0.6328125,0.7900391-1.8349609,2.4013672-2.6708984,3.5800781
			c-2.5839844,3.6503906-15.7695313,21.6191406-15.8632813,21.6191406
			C505.3613281,614.5107422,504.8027344,613.8095703,504.1367188,612.953125z"/>
		<path id="XMLID_7_" class="st0" d="M559.4726563,614.2802734c-2.3544922-0.4658203-4.8330078-2.2158203-5.8916016-4.1611328
			c-1.2880859-2.3681641-1.2929688-2.4228516-1.2138672-24.3427734c0.0927734-26.3261719,0.1826172-29.7841797,0.8164063-31.4179688
			c0.6308594-1.6230469,2.1572266-3.0585938,4.3789063-4.1142578c1.3994141-0.6621094,1.9960938-0.8164063,3.4775391-0.8945313
			c1.5322266-0.0810547,1.9814453-0.0146484,3.1513672,0.4599609c3.0058594,1.2226563,4.3427734,2.71875,5.1972656,5.8134766
			c0.4785156,1.7324219,0.484375,1.9853516,0.6220703,25.1806641c0.0771484,12.8847656,0.0605469,24.0390625-0.0351563,24.7851563
			c-0.2919922,2.2451172-1.1904297,4.7470703-2.0800781,5.7851563
			C565.7900391,613.8349609,562.6699219,614.9121094,559.4726563,614.2802734z"/>
	</g>
	<g>
		<path id="XMLID_6_" class="st0" d="M350.7539063,488.9140625c-1.0927734-0.3457031-3.6191406-1.6074219-5.6123047-2.8066406
			c-8.6845703-5.2138672-11.1943359-16.9306641-7.6386719-35.6630859c1.8740234-9.875,7.5634766-24.5078125,14.0517578-36.1396484
			c6.9052734-12.3779297,8.7128906-15.2431641,12.1142578-19.2280273c1.8701172-2.1899414,4.8017578-6.284668,6.515625-9.1044922
			c4.6923828-7.7250977,16.0898438-21.7817383,24.6582031-30.4174805c6.4316406-6.4858398,8.4375-8.0820313,12.7421875-10.144043
			c8.6152344-4.1298828,16.1806641-6.440918,22.4091797-6.8330078c5.1015625-0.3222656,6.2314453-0.1567383,11.9140625,1.7504883
			c9.0527344,3.0327148,15.8945313,6.4130859,24.6289063,12.1518555
			c8.7294922,5.7426758,13.2470703,10.2885742,16.3291016,16.4453125c4.2783203,8.5302734,5.09375,15.3422852,2.7529297,22.9350586
			c-3.1875,10.3251953-4.8466797,12.609375-21.0556641,28.9863281c-15.7402344,15.9023438-31.0039063,29.2792969-40.109375,35.15625
			c-2.96875,1.9160156-7.5419922,5.1054688-10.1621094,7.0878906
			c-11.2714844,8.5273438-33.2001953,20.5371094-43.9765625,24.0859375
			C364.1914063,489.1933594,354.3984375,490.0625,350.7539063,488.9140625z"/>
		<path id="XMLID_5_" class="st0" d="M644.1826172,488.2363281c-4.5810547-1.234375-9.3720703-3.2910156-24.5371094-10.5097656
			c-5.6777344-2.7080078-24.2939453-14.2021484-32.8476563-20.2832031
			c-2.5400391-1.8066406-6.2617188-4.8144531-8.2646484-6.6816406c-2.0078125-1.8681641-5.4394531-4.7607422-7.625-6.4277344
			c-2.1894531-1.6669922-4.875-3.9892578-5.9667969-5.1542969c-1.0976563-1.1699219-4.9726563-4.5869141-8.6240234-7.5986328
			c-12.1865234-10.0625-28.0478516-27.6455078-31.4375-34.8447266c-1.5556641-3.3032227-1.71875-4.4052734-1.6953125-11.6049805
			c0.0283203-12.4873047,2.4140625-17.7241211,12.4433594-27.2724609c4.28125-4.0761719,7.2929688-6.190918,13.7509766-9.6723633
			c9.1699219-4.9375,12.0654297-6.1005859,18.8720703-7.5571289c9.9882813-2.1362305,22.5205078-0.7563477,31.1669922,3.4321289
			c5.3095703,2.5703125,16.2441406,12.2285156,26.2373047,23.168457
			c7.4042969,8.1054688,24.2050781,30.4438477,28.6816406,38.128418
			c5.7724609,9.9033203,14.078125,27.4277344,16.5439453,34.8828125c3.2353516,9.7939453,4.0107422,14.390625,4.0751953,24.1308594
			c0.0566406,8.0751953,0,8.4121094-2.1660156,13.0341797c-1.2236328,2.6083984-3.1660156,5.6523438-4.3134766,6.7626953
			C663.3447266,489.1425781,653.5722656,490.7763672,644.1826172,488.2363281z"/>
		<path id="XMLID_4_" class="st0" d="M421.7070313,303.215332c-5.7617188-1.1723633-16.3261719-6.8984375-23.2929688-12.6230469
			c-4.7714844-3.9223633-14.7617188-15.5273438-22.7246094-26.3974609
			c-2.7734375-3.7841797-7.2792969-9.9033203-10.015625-13.5986328c-2.7353516-3.6958008-5.5507813-8.0571289-6.2539063-9.6958008
			c-0.7070313-1.6386719-3-6.1142578-5.0966797-9.9433594c-4.5546875-8.3110352-13.2695313-30.0854492-15.3173828-38.2587891
			c-2.1152344-8.4584961-2.1074219-19.7763672,0.0195313-24.4038086c2.7705078-6.0327148,7.3183594-9.3476563,15.0039063-10.9355469
			c5.1435547-1.0644531,8.0585938-0.6044922,19.2226563,3.0258789c10.578125,3.4365234,17.7597656,6.859375,24.9150391,11.871582
			c2.7363281,1.9165039,7.2109375,4.746582,9.9453125,6.2871094c2.7363281,1.5405273,6.9130859,4.3652344,9.2851563,6.2797852
			c2.3691406,1.9121094,5.5029297,4.2304688,6.9638672,5.1503906c1.4570313,0.921875,4.7832031,3.4316406,7.3886719,5.5820313
			c2.6103516,2.1479492,7.2353516,5.6938477,10.2792969,7.8818359c3.2167969,2.3081055,12.0068359,10.4165039,20.9697266,19.3369141
			c14.2177734,14.1474609,15.609375,15.7402344,17.6748047,20.2270508
			c3.2988281,7.1464844,4.5664063,12.1401367,4.6347656,18.1962891c0.0546875,5.1938477-0.0615234,5.6049805-3.3808594,12.2675781
			c-4.0390625,8.1108398-6.1865234,10.4897461-15.8027344,17.4956055
			c-10.8652344,7.9189453-16.3125,10.4960938-25.8066406,12.2260742
			C435.8330078,304,425.6474609,304.0185547,421.7070313,303.215332z"/>
		<path id="XMLID_3_" class="st0" d="M571.5244141,303.25c-12.2558594-1.7368164-27.0341797-9.4946289-36.6435547-19.2436523
			c-8.3808594-8.4980469-11.140625-15.440918-10.5478516-26.5234375
			c0.4794922-8.9438477,1.9697266-11.9414063,11.7148438-23.5395508
			c7.9287109-9.4462891,14.8486328-16.0644531,25.9101563-24.7866211
			c5.6494141-4.4614258,12.6621094-10.1274414,15.5800781-12.5952148c7.4941406-6.340332,20.9375-16.3325195,27.1894531-20.2104492
			c2.9130859-1.8115234,7.390625-4.699707,9.9453125-6.4174805c2.5488281-1.71875,7.1806641-4.0390625,10.2763672-5.1552734
			c3.1005859-1.1157227,8.4189453-3.1098633,11.8222656-4.4282227c8.0595703-3.1264648,14.9941406-4.1582031,21.3242188-3.1777344
			c6.4716797,0.9995117,9.3291016,3.0585938,12.1171875,8.7080078c1.9609375,3.9780273,2.171875,5.0146484,2.3759766,11.6660156
			c0.2294922,7.1884766-0.6669922,17.3813477-1.9833984,22.578125c-0.3652344,1.4589844-2.3164063,5.9345703-4.3427734,9.9453125
			c-2.0214844,4.0107422-4.6503906,9.6811523-5.8408203,12.5996094c-1.1816406,2.918457-3.7587891,8.0517578-5.7207031,11.4116211
			c-1.9560547,3.3598633-4.6035156,7.9584961-5.8789063,10.2250977c-2.5947266,4.6064453-9.6552734,14.7597656-13.0820313,18.8125
			c-13.4619141,15.9243164-26.8808594,29.609375-32.9082031,33.5551758
			c-6.6347656,4.3466797-13.6855469,6.6723633-20.984375,6.9267578
			C578.3837891,303.7197266,573.7382813,303.5654297,571.5244141,303.25z"/>
	</g>
</g>
</svg>
