<?xml version="1.0" encoding="utf-8"?>

<!DOCTYPE svg PUBLIC "-//W3C//DTD SVG 1.1//EN" "http://www.w3.org/Graphics/SVG/1.1/DTD/svg11.dtd">
<svg version="1.1" id="Layer_1" xmlns="http://www.w3.org/2000/svg" viewBox="200 90 612 612">
<style type="text/css">
<![CDATA[
	.st0{display:none;fill:#FFFFFF;}
	.st1{fill:#FFFFFF;}
]]>
</style>
<g>
	<g>
		<g>
			<g>
				<path class="st1" d="M463.7949219,363.1801758c-3.4990234-2.1420898-7.3623047-4.2583008-11.59375-6.3481445
					c-4.2314453-2.0854492-8.7460938-3.9189453-13.5410156-5.5004883
					c-4.7978516-1.5776367-9.8466797-2.8774414-15.1484375-3.8920898
					c-5.3056641-1.0151367-10.8320313-1.5229492-16.5869141-1.5229492c-6.4326172,0-11.8486328,0.875-16.2490234,2.6230469
					c-4.4003906,1.7514648-7.8994141,3.9233398-10.4941406,6.5170898c-2.5976563,2.5966797-4.4589844,5.390625-5.5859375,8.3779297
					c-1.1298828,2.9907227-1.6923828,5.7832031-1.6923828,8.3779297c0,3.7236328,0.5927734,7.1376953,1.7773438,10.2407227
					c1.1845703,3.1049805,3.046875,6.0932617,5.5859375,8.9692383c2.5380859,2.8789063,5.8652344,5.8134766,9.9863281,8.8017578
					c4.1171875,2.9912109,9.1103516,6.2919922,14.9785156,9.9023438
					c7.6728516,4.7392578,14.4716797,9.5078125,20.3964844,14.3027344
					c5.9228516,4.7978516,10.9726563,9.9296875,15.1484375,15.4013672
					c4.1728516,5.4746094,7.3330078,11.4248047,9.4785156,17.8574219
					c2.1416016,6.4316406,3.2158203,13.6542969,3.2158203,21.6650391c0,4.6279297-0.5371094,9.7060547-1.6074219,15.2324219
					c-1.0751953,5.53125-2.9072266,11.0878906-5.5019531,16.671875
					c-2.5966797,5.5869141-6.1767578,10.9765625-10.7480469,16.1650391
					c-4.5703125,5.1914063-10.2978516,9.7607422-17.1796875,13.7099609
					c-6.8837891,3.9511719-15.1484375,7.1376953-24.796875,9.5634766
					c-9.6464844,2.4238281-20.9023438,3.6386719-33.765625,3.6386719c-7.2226563,0-14.2470703-0.4814453-21.0732422-1.4394531
					c-6.828125-0.9599609-13.3154297-2.2578125-19.4648438-3.8916016
					c-6.1513672-1.6357422-11.8769531-3.4707031-17.1791992-5.5019531c-5.3056641-2.03125-9.9863281-4.1171875-14.0483398-6.2626953
					l9.309082-48.0693359c4.1728516,3.046875,8.7163086,5.9238281,13.6254883,8.6328125
					c4.9082031,2.7080078,10.0410156,5.0771484,15.4023438,7.1083984c5.3574219,2.03125,10.9169922,3.6132813,16.671875,4.7392578
					c5.7548828,1.1289063,11.5644531,1.6923828,17.4335938,1.6923828c6.4316406,0,11.9033203-0.7041016,16.4179688-2.1162109
					c4.5117188-1.4091797,8.1796875-3.3544922,11.0019531-5.8388672c2.8183594-2.4804688,4.8496094-5.3574219,6.0927734-8.6318359
					c1.2402344-3.2724609,1.8623047-6.7705078,1.8623047-10.4941406s-0.5927734-7.0800781-1.7773438-10.0703125
					c-1.1845703-2.9882813-3.1308594-5.8671875-5.8398438-8.6328125c-2.7080078-2.7636719-6.2910156-5.640625-10.7470703-8.6318359
					c-4.4589844-2.9882813-9.9023438-6.3476563-16.3339844-10.0712891
					c-6.8837891-3.8339844-13.1464844-7.9814453-18.7871094-12.4404297
					c-5.6445313-4.4560547-10.4941406-9.4208984-14.5566406-14.8955078
					c-4.0625-5.4707031-7.2226563-11.5644531-9.4785156-18.2792969c-2.2587891-6.7124023-3.3847656-14.1875-3.3847656-22.4262695
					c0-9.3642578,1.7480469-18.5600586,5.2470703-27.5893555c3.4960938-9.0263672,8.9707031-17.0947266,16.4179688-24.2036133
					s16.9521484-12.8344727,28.5195313-17.1801758c11.5654297-4.3417969,25.359375-6.5161133,41.3837891-6.5161133
					c6.65625,0,13.0878906,0.3676758,19.2949219,1.1000977c6.2050781,0.7353516,12.1279297,1.7216797,17.7724609,2.9619141
					c5.640625,1.2431641,10.9443359,2.6523438,15.9111328,4.2314453c4.9638672,1.5820313,9.4775391,3.2163086,13.5400391,4.9086914
					L463.7949219,363.1801758z"/>
				<path class="st1" d="M723.0986328,405.15625c0,12.7529297-1.2978516,25.1923828-3.8916016,37.3212891
					c-2.5986328,12.1308594-6.515625,23.5556641-11.7636719,34.2753906
					c-5.2460938,10.7207031-11.8769531,20.5380859-19.8886719,29.4501953
					c-8.0126953,8.9150391-17.4628906,16.5878906-28.3496094,23.0195313
					c-10.890625,6.4316406-23.2734375,11.4541016-37.1523438,15.0634766
					c-13.8789063,3.6132813-29.2832031,5.4169922-46.2089844,5.4169922h-98.1689453l51.6240234-242.7167969h85.3066406
					c17.8271484,0,33.4824219,2.4282227,46.9697266,7.2783203c13.4824219,4.8525391,24.7958984,11.5947266,33.9355469,20.2255859
					c9.1396484,8.6342773,16.0195313,18.956543,20.6494141,30.9755859
					C720.7851563,377.4819336,723.0986328,390.7143555,723.0986328,405.15625z M665.2119141,409.3876953
					c0-9.0263672-1.2675781-17.1206055-3.8076172-24.2880859c-2.5371094-7.1645508-6.4316406-13.2290039-11.6777344-18.1958008
					c-5.2480469-4.9633789-11.8779297-8.7714844-19.8876953-11.4248047
					c-8.0146484-2.6503906-17.4931641-3.9775391-28.4355469-3.9775391H574.828125l-32.6650391,153.855957h33.3427734
					c13.7666016,0,26.1777344-2.2861328,37.2363281-6.8544922c11.0595703-4.5712891,20.4814453-11.0576172,28.2675781-19.4658203
					c7.7861328-8.4042969,13.7646484-18.5039063,17.9414063-30.2958984
					C663.1230469,436.9511719,665.2119141,423.8330078,665.2119141,409.3876953z"/>
			</g>
			<g>
				<path class="st0" d="M365.2021484,297.4873047c-11.5673828,4.3457031-21.0722656,10.0712891-28.5195313,17.1801758
					s-12.921875,15.1772461-16.4179688,24.2036133c-3.4990234,9.0292969-5.2470703,18.2250977-5.2470703,27.5893555
					c0,8.2387695,1.1259766,15.7138672,3.3847656,22.4262695c2.2558594,6.715332,5.4160156,12.8085938,9.4785156,18.2792969
					c4.0625,5.4746094,8.9121094,10.4394531,14.5566406,14.8955078c5.640625,4.4589844,11.9033203,8.6064453,18.7871094,12.4404297
					c6.4316406,3.7236328,11.875,7.0830078,16.3339844,10.0712891c4.4560547,2.9912109,8.0390625,5.8681641,10.7470703,8.6318359
					c2.7089844,2.765625,4.6552734,5.6445313,5.8398438,8.6328125c1.1845703,2.9902344,1.7773438,6.3466797,1.7773438,10.0703125
					s-0.6220703,7.2216797-1.8623047,10.4941406c-1.2431641,3.2744141-3.2744141,6.1513672-6.0927734,8.6318359
					c-2.8222656,2.484375-6.4902344,4.4296875-11.0019531,5.8388672c-4.5146484,1.4121094-9.9863281,2.1162109-16.4179688,2.1162109
					c-5.8691406,0-11.6787109-0.5634766-17.4335938-1.6923828c-5.7548828-1.1259766-11.3144531-2.7080078-16.671875-4.7392578
					c-5.3613281-2.03125-10.4941406-4.4003906-15.4023438-7.1083984c-4.9091797-2.7089844-9.4526367-5.5859375-13.6254883-8.6328125
					l-9.309082,48.0693359c4.0620117,2.1455078,8.7426758,4.2314453,14.0483398,6.2626953
					c5.3022461,2.03125,11.027832,3.8662109,17.1791992,5.5019531c6.1494141,1.6337891,12.6367188,2.9316406,19.4648438,3.8916016
					c6.8261719,0.9580078,13.8505859,1.4394531,21.0732422,1.4394531c12.8632813,0,24.1191406-1.2148438,33.765625-3.6386719
					c9.6484375-2.4257813,17.9130859-5.6123047,24.796875-9.5634766c6.8818359-3.9492188,12.609375-8.5185547,17.1796875-13.7099609
					c4.5712891-5.1884766,8.1513672-10.578125,10.7480469-16.1650391c2.5947266-5.5839844,4.4267578-11.140625,5.5019531-16.671875
					c1.0703125-5.5263672,1.6074219-10.6044922,1.6074219-15.2324219c0-8.0107422-1.0742188-15.2333984-3.2158203-21.6650391
					c-2.1455078-6.4326172-5.3056641-12.3828125-9.4785156-17.8574219
					c-4.1757813-5.4716797-9.2255859-10.6035156-15.1484375-15.4013672
					c-5.9248047-4.7949219-12.7236328-9.5634766-20.3964844-14.3027344
					c-5.8681641-3.6108398-10.8613281-6.9106445-14.9785156-9.9023438
					c-4.1210938-2.9882813-7.4482422-5.9228516-9.9863281-8.8017578c-2.5390625-2.8759766-4.4013672-5.8642578-5.5859375-8.9692383
					c-1.1845703-3.1030273-1.7773438-6.5170898-1.7773438-10.2407227c0-2.5947266,0.5625-5.387207,1.6923828-8.3779297
					c1.1269531-2.9873047,2.9882813-5.78125,5.5859375-8.3779297c2.5947266-2.59375,6.09375-4.765625,10.4941406-6.5170898
					c0.6865234-0.2724609,1.40625-0.5166016,2.1425781-0.746582l9.4384766-44.7939453
					C388.0722656,291.4077148,375.7070313,293.543457,365.2021484,297.4873047z"/>
				<path class="st0" d="M443.6533203,295.0332031c-0.1308594-0.0283203-0.2666016-0.0537109-0.3974609-0.0820313
					l-9.1113281,43.0576172c1.5273438,0.4331055,3.0371094,0.8833008,4.515625,1.3696289
					c4.7949219,1.581543,9.3095703,3.4150391,13.5410156,5.5004883c4.2314453,2.0898438,8.0947266,4.2060547,11.59375,6.3481445
					l9.3095703-47.0537109c-4.0625-1.6923828-8.5761719-3.3266602-13.5400391-4.9086914
					C454.5976563,297.6855469,449.2939453,296.2763672,443.6533203,295.0332031z"/>
				<path class="st0" d="M716.1601563,353.5126953c-4.6298828-12.019043-11.5097656-22.3413086-20.6494141-30.9755859
					c-9.1396484-8.6308594-20.453125-15.3730469-33.9355469-20.2255859
					c-3.4169922-1.2290039-6.9755859-2.2998047-10.671875-3.2167969l-24.4414063,43.4233398
					c1.1503906,0.3125,2.2802734,0.6455078,3.3769531,1.0078125c8.0097656,2.6533203,14.6396484,6.4614258,19.8876953,11.4248047
					c5.2460938,4.9667969,9.140625,11.03125,11.6777344,18.1958008c2.5400391,7.1674805,3.8076172,15.2612305,3.8076172,24.2880859
					c0,14.4453125-2.0888672,27.5634766-6.2607422,39.3535156c-4.1767578,11.7919922-10.1552734,21.8916016-17.9414063,30.2958984
					c-7.7861328,8.4082031-17.2080078,14.8945313-28.2675781,19.4658203
					c-11.0585938,4.5683594-23.4697266,6.8544922-37.2363281,6.8544922h-33.3427734L568.9335938,367.3125h-26.9355469
					l-9.2773438-72.2792969h-3.421875L477.6748047,537.75H575.84375c16.9257813,0,32.3300781-1.8037109,46.2089844-5.4169922
					c13.8789063-3.609375,26.2617188-8.6318359,37.1523438-15.0634766
					c10.8867188-6.4316406,20.3369141-14.1044922,28.3496094-23.0195313
					c8.0117188-8.9121094,14.6425781-18.7294922,19.8886719-29.4501953
					c5.2480469-10.7197266,9.1650391-22.1445313,11.7636719-34.2753906
					c2.59375-12.1289063,3.8916016-24.5683594,3.8916016-37.3212891
					C723.0986328,378.7612305,720.7851563,365.5288086,716.1601563,353.5126953z"/>
				<polygon class="st0" points="589.4931641,339.5483398 611.9355469,295.0332031 572.9091797,295.0332031 
					577.2685547,339.5483398 				"/>
				<path class="st0" d="M406.9248047,333.9633789c-5.4287109,0-10.125,0.6308594-14.1064453,1.8764648l-5.7304688,27.2001953
					c3.9541016-0.3085938,8.0546875-0.4125977,12.3261719-0.4125977c6.65625,0,13.0878906,0.3989258,19.2949219,1.1318359
					c3.3212891,0.3935547,6.5546875,0.7553711,9.7138672,1.2929688l5.7216797-27.043457
					c-3.4257813-0.9726563-6.9648438-1.8203125-10.6328125-2.5224609
					C418.2060547,334.4711914,412.6796875,333.9633789,406.9248047,333.9633789z"/>
				<path class="st1" d="M425.8808594,292.0712891c6.0615234,0.71875,11.8486328,1.6806641,17.375,2.8798828l8.9677734-42.3886719
					h51.875l7.3183594-33.46875h-146.25l-7.3193359,33.46875h52.5166016l-8.1074219,38.4833984
					c1.4306641-0.0366211,2.8603516-0.074707,4.3291016-0.074707
					C413.2421875,290.9711914,419.6738281,291.3388672,425.8808594,292.0712891z"/>
				<polygon class="st1" points="565.4746094,219.09375 522.9736328,219.09375 532.7207031,295.0332031 572.9091797,295.0332031 
									"/>
				<path class="st1" d="M650.9033203,299.0947266l45.0283203-80.0009766h-45.7109375l-38.2851563,75.9394531h2.6699219
					C627.9160156,295.0332031,640.0126953,296.3896484,650.9033203,299.0947266z"/>
				<path class="st0" d="M589.4931641,339.5483398l-3.2167969,6.3813477
					c-1.7978516,3.5957031-3.3183594,6.6513672-4.5585938,9.7333984c-1.2421875,3.081543-2.2470703,5.6728516-3.0175781,8.0634766
					h-1.0273438c0.5136719-2.390625,0.7490234-5.2714844,0.7070313-8.3974609
					c-0.0449219-3.1240234-0.1933594-6.0229492-0.4501953-9.0205078l-0.6611328-6.7602539h-2.4404297L568.9335938,367.3125h38.5
					c1.6972656,0,3.3554688,0.0634766,5.0146484,0.1035156l14.0136719-24.8979492
					c-7.2646484-1.9750977-15.6132813-2.9697266-25.0585938-2.9697266H589.4931641z"/>
			</g>
		</g>
	</g>
</g>
</svg>
