<?xml version="1.0" encoding="utf-8"?>

<!DOCTYPE svg PUBLIC "-//W3C//DTD SVG 1.1//EN" "http://www.w3.org/Graphics/SVG/1.1/DTD/svg11.dtd">
<svg version="1.1" id="Layer_1" xmlns="http://www.w3.org/2000/svg" viewBox="200 270 612 612">
<style type="text/css">
<![CDATA[
	.st0{fill:#FFFFFF;}
]]>
</style>
<g>
	<path class="st0" d="M491.6572266,526.0800781c51.1728516-20.8554688,101.8154297-41.4960938,152.8544922-62.2949219
		c8.3984375,21.5214844,16.6972656,42.7900391,25.1210938,64.375c-1.8925781,0.8574219-3.5839844,1.6757813-5.3125,2.4023438
		c-41.0458984,17.2089844-82.1054688,34.3876953-123.1210938,51.671875
		c-2.3554688,0.9921875-3.6035156,0.8798828-5.2890625-1.2265625
		c-13.7871094-17.2421875-27.7226563-34.3662109-41.609375-51.5292969
		C493.5078125,528.5,492.7509766,527.4882813,491.6572266,526.0800781z"/>
	<path class="st0" d="M488.2148438,534.7363281c4.5488281,5.6074219,8.5585938,10.5263672,12.5429688,15.4638672
		c10.7792969,13.3564453,21.6035156,26.6796875,32.265625,40.1318359c1.6191406,2.0410156,2.9296875,1.7246094,4.875,0.90625
		c32.2773438-13.5839844,64.5722656-27.1191406,96.8691406-40.6591797c1.1523438-0.4833984,2.3359375-0.8896484,3.8125-1.4482422
		c0.0585938,1.3466797,0.1425781,2.3710938,0.1435547,3.3974609c0.0087891,13.9697266-0.0380859,27.9414063,0.0498047,41.9111328
		c0.0136719,2.203125-0.5527344,3.3515625-2.7402344,4.2636719c-33.8994141,14.1152344-67.7402344,28.375-101.6230469,42.53125
		c-14.4326172,6.03125-28.9316406,11.90625-43.4042969,17.8417969c-0.859375,0.3515625-1.7558594,0.6152344-2.7910156,0.9726563
		C488.2148438,618.3955078,488.2148438,577.0117188,488.2148438,534.7363281z"/>
	<path class="st0" d="M480.4111328,532.4492188c0,41.5742188,0,82.7695313,0,124.5566406
		c-5.4619141-4.3398438-10.5185547-8.3535156-15.5693359-12.3730469
		c-26.4433594-21.0458984-52.8720703-42.1113281-79.3613281-63.0996094
		c-1.7685547-1.4003906-2.4726563-2.7949219-2.4560547-5.0585938c0.1064453-14.0751953,0.0537109-28.1523438,0.0537109-42.2304688
		c0-1.0410156,0-2.0830078,0-3.7324219c1.375,0.9667969,2.3105469,1.5664063,3.1835938,2.2460938
		c9.1621094,7.1484375,18.3554688,14.2587891,27.4355469,21.5078125c1.7363281,1.3867188,3.140625,1.5410156,5.1855469,0.78125
		c19.3476563-7.1972656,38.7363281-14.2841797,58.1152344-21.4003906
		C478.0664063,533.2539063,479.1464844,532.8916016,480.4111328,532.4492188z"/>
	<path class="st0" d="M331.3144531,478.3769531c4.3359375-3.1269531,7.9492188-5.7421875,11.5693359-8.34375
		c9.2548828-6.65625,18.5234375-13.2929688,27.7587891-19.9765625c1.3740234-0.9931641,2.3847656-1.6396484,4.1503906-0.3378906
		c33.5283203,24.7226563,67.1171875,49.3652344,100.6894531,74.0283203c0.3339844,0.2470703,0.6191406,0.5625,1.3359375,1.2236328
		c-1.15625,0.515625-2.03125,0.953125-2.9414063,1.3037109c-17.6660156,6.8095703-35.34375,13.5966797-53,20.4345703
		c-1.6074219,0.6230469-2.7910156,0.7558594-4.3291016-0.4804688
		c-27.8271484-22.3564453-55.7138672-44.6347656-83.5947266-66.9238281
		C332.6230469,479.0410156,332.2119141,478.8789063,331.3144531,478.3769531z"/>
	<path class="st0" d="M558.1914063,471.3515625c-10.2871094,3.7949219-20.0507813,7.3886719-29.8115234,10.9980469
		C515.4072266,487.1455078,502.4541016,492,489.4384766,496.6816406c-1.2607422,0.453125-3.2841797,0.3984375-4.3037109-0.3291016
		c-14.7392578-10.5341797-29.3681641-21.2236328-44.0244141-31.8759766
		c-0.2578125-0.1865234-0.5224609-0.3652344-1.3291016-0.9296875c1.3925781-0.6005859,2.2675781-1.0341797,3.1806641-1.3632813
		c21.9189453-7.90625,43.8330078-15.8242188,65.7841797-23.6337891c1.2001953-0.4267578,3.0957031-0.4404297,4.0527344,0.2294922
		c14.7421875,10.34375,29.3847656,20.8320313,44.0458984,31.2929688
		C557.1757813,470.3095703,557.4433594,470.6347656,558.1914063,471.3515625z"/>
	<path class="st0" d="M520.4863281,412.1484375c7.3828125-2.4160156,14.1171875-4.6386719,20.8652344-6.8222656
		c14.0595703-4.5527344,28.1152344-9.1240234,42.2119141-13.5576172c1.3515625-0.4243164,3.2626953-0.440918,4.4521484,0.2041016
		c15.0585938,8.1728516,30.0351563,16.5,45.0273438,24.7988281c0.5273438,0.2910156,0.9980469,0.6835938,1.8027344,1.2441406
		c-1.0175781,0.5429688-1.7011719,0.9824219-2.4394531,1.2861328
		c-20.7636719,8.5185547-41.5214844,17.0537109-62.3320313,25.4560547c-1.2226563,0.4941406-3.265625,0.4609375-4.28125-0.25
		c-14.5683594-10.2050781-29.0273438-20.5664063-43.5097656-30.8964844
		C521.8603516,413.3105469,521.4746094,412.9550781,520.4863281,412.1484375z"/>
	<path class="st0" d="M389.9492188,404.859375c10.1777344-3.3828125,20.3564453-6.7636719,30.5332031-10.1523438
		c10.09375-3.3603516,20.1699219-6.7832031,30.3007813-10.0268555c1.2265625-0.3930664,3.0234375-0.3017578,4.1054688,0.3334961
		c14.3232422,8.421875,28.5683594,16.9804688,42.828125,25.5097656c0.359375,0.2138672,0.6748047,0.4960938,1.5029297,1.1113281
		c-1.2080078,0.5410156-2.0673828,0.9873047-2.96875,1.3222656c-20.6435547,7.6796875-41.28125,15.3730469-61.9619141,22.9511719
		c-1.1777344,0.4316406-3.0859375,0.4160156-4.0175781-0.2626953c-13.2578125-9.6748047-26.40625-19.5009766-39.5878906-29.2822266
		c-0.3417969-0.2529297-0.7607422-0.4003906-1.1435547-0.5966797
		C389.6767578,405.4648438,389.8134766,405.1621094,389.9492188,404.859375z"/>
	<path class="st0" d="M578.7167969,359.3183594c-11.7421875,4.2114258-22.8496094,8.1889648-33.953125,12.1787109
		c-9.9150391,3.5639648-19.8066406,7.2021484-29.765625,10.6396484c-1.2988281,0.4477539-3.2597656,0.4155273-4.3798828-0.2685547
		c-14.6416016-8.9423828-29.1875-18.0405273-43.75-27.1098633c-0.5146484-0.3198242-0.9658203-0.7416992-1.9736328-1.5283203
		c4.9511719-1.4213867,9.3964844-2.7026367,13.8457031-3.9726563c17.0888672-4.8813477,34.1738281-9.7817383,51.2841797-14.5874023
		c1.2080078-0.3393555,2.8544922-0.4140625,3.8935547,0.140625c14.4736328,7.7211914,28.875,15.5722656,43.2900391,23.3999023
		C577.5517578,358.3964844,577.8457031,358.6743164,578.7167969,359.3183594z"/>
	<path class="st0" d="M569.3652344,484.7470703c0-9.875-0.0703125-19.3505859,0.1113281-28.8193359
		c0.0166016-0.9160156,1.421875-2.2128906,2.4667969-2.6445313c16.8105469-6.9365234,33.6660156-13.7617188,50.5117188-20.6113281
		c6.2871094-2.5566406,12.5771484-5.1083984,19.4755859-7.9101563c0,1.9667969,0,3.4941406,0,5.0224609
		c0,7.6728516-0.0283203,15.3447266,0.0224609,23.015625c0.0097656,1.6162109-0.1953125,2.7216797-1.9882813,3.4443359
		c-22.9804688,9.2636719-45.9257813,18.6152344-68.8818359,27.9394531
		C570.7041016,484.3378906,570.3046875,484.4414063,569.3652344,484.7470703z"/>
	<path class="st0" d="M592.40625,360.7143555c29.6660156,16.9614258,58.8007813,33.6186523,88.2578125,50.4594727
		c-10.8222656,12.0224609-21.328125,23.6953125-32.2988281,35.8847656
		c-0.1347656-1.3828125-0.2578125-2.0644531-0.2578125-2.7460938c0-8.4189453-0.0683594-16.8398438,0.09375-25.2558594
		c0.0419922-2.1347656-0.6777344-3.1953125-2.4736328-4.2138672c-16.8505859-9.5585938-33.625-19.2509766-50.4873047-28.7900391
		c-2.1269531-1.2026367-2.9746094-2.4916992-2.9003906-4.9814453
		C592.5351563,374.5078125,592.40625,367.9355469,592.40625,360.7143555z"/>
	<path class="st0" d="M428.1210938,477.3173828c-9.7890625-6.8046875-18.8769531-13.1201172-27.9628906-19.4365234
		c-4.8134766-3.3457031-9.6542969-6.65625-14.4101563-10.0820313c-0.8525391-0.6132813-1.921875-1.7050781-1.9335938-2.5878906
		c-0.1328125-10.6337891-0.0869141-21.2695313-0.0869141-32.3535156c1.0205078,0.5605469,1.6708984,0.8378906,2.234375,1.2373047
		c13.21875,9.3720703,26.4052734,18.7890625,39.6650391,28.0986328c1.8554688,1.3027344,2.5839844,2.6806641,2.5527344,4.9726563
		C428.0449219,456.9501953,428.1210938,466.7382813,428.1210938,477.3173828z"/>
	<path class="st0" d="M586.234375,365.2792969c0,5.078125-0.1083984,9.5527344,0.046875,14.0175781
		c0.0742188,2.1728516-1.4511719,2.3432617-2.7949219,2.815918c-20.2822266,7.1293945-40.5712891,14.2407227-60.8603516,21.3540039
		c-2.3896484,0.8359375-4.7822266,1.6601563-7.6611328,2.6582031c0-5.15625-0.1201172-9.9121094,0.1230469-14.6484375
		c0.0390625-0.7724609,1.5849609-1.7753906,2.6210938-2.1425781c20.2636719-7.1767578,40.5546875-14.2768555,60.8398438-21.3886719
		C580.9384766,367.1074219,583.3339844,366.2851563,586.234375,365.2792969z"/>
	<path class="st0" d="M362.4619141,396.9941406c29.6435547-10.1787109,58.9677734-20.2480469,88.6943359-30.4550781
		c0,3.2338867,0.2011719,6.0097656-0.1171875,8.7246094c-0.1005859,0.8510742-1.4726563,1.8964844-2.4746094,2.2460938
		c-14.5634766,5.0878906-29.1650391,10.0683594-43.7539063,15.0839844
		c-8.2519531,2.8364258-16.4707031,5.7666016-24.7597656,8.4814453c-2.0039063,0.65625-2.5654297,1.6142578-2.5449219,3.6337891
		c0.0976563,9.9042969,0.0449219,19.8115234-0.6074219,29.8964844
		C372.1035156,422.1152344,367.3085938,409.6240234,362.4619141,396.9941406z"/>
	<path class="st0" d="M507.4960938,417.7294922c0,4.0478516,0.2089844,7.4677734-0.125,10.8369141
		c-0.1015625,1.0371094-1.5039063,2.4003906-2.6113281,2.8183594
		c-17.9082031,6.7587891-35.8652344,13.3896484-53.8105469,20.0507813
		c-5.1621094,1.9160156-10.3232422,3.8339844-16.0019531,5.9433594c0-4.1298828-0.1582031-7.8183594,0.1230469-11.4726563
		c0.0625-0.8105469,1.5566406-1.8144531,2.5878906-2.2011719c17.9238281-6.7246094,35.875-13.3671875,53.8222656-20.0273438
		C496.6425781,421.7617188,501.8046875,419.84375,507.4960938,417.7294922z"/>
	<path class="st0" d="M508.140625,407.4453125c-2.7910156-1.6542969-5.0605469-2.9707031-7.3027344-4.3320313
		c-13.6582031-8.296875-27.2900391-16.637207-40.9902344-24.8652344c-1.8691406-1.1225586-2.6484375-2.3417969-2.5654297-4.5546875
		c0.1728516-4.7446289,0.0537109-9.5009766,0.0537109-14.8500977c2.7890625,1.652832,5.0585938,2.9697266,7.3007813,4.3320313
		c13.6582031,8.2958984,27.2900391,16.6367188,40.9892578,24.8647461c1.8681641,1.1220703,2.6484375,2.3408203,2.5673828,4.5546875
		C508.0175781,397.3398438,508.140625,402.0957031,508.140625,407.4453125z"/>
	<path class="st0" d="M487.4306641,519.1796875c0-3.3740234-0.0947266-6.5449219,0.0712891-9.6992188
		c0.0380859-0.7109375,0.84375-1.7265625,1.5380859-2.0107422c24.4296875-9.9804688,48.8896484-19.8896484,73.3466797-29.8017578
		c0.0800781-0.0332031,0.2011719,0.0400391,0.7783203,0.1728516c0,3.21875,0.0791016,6.5625-0.0771484,9.8945313
		c-0.0273438,0.5732422-0.9697266,1.3330078-1.6503906,1.6103516
		c-24.1396484,9.8554688-48.2988281,19.6660156-72.4589844,29.4726563
		C488.6074219,518.9697266,488.1894531,519.0058594,487.4306641,519.1796875z"/>
	<path class="st0" d="M480.6132813,516.7851563c-1.2929688-0.8222656-2.09375-1.2734375-2.8359375-1.8066406
		c-13.4863281-9.7197266-26.9326172-19.4941406-40.4785156-29.1308594
		c-2.2148438-1.5771484-3.3730469-3.1953125-3.0664063-6.0117188c0.2734375-2.5097656,0.0566406-5.0732422,0.0566406-8.0507813
		c1.0644531,0.59375,1.8056641,0.9121094,2.4453125,1.3730469c13.8291016,9.9707031,27.6269531,19.984375,41.4921875,29.9082031
		c1.7275391,1.2363281,2.5898438,2.5136719,2.4355469,4.7089844
		C480.4628906,510.59375,480.6132813,513.4345703,480.6132813,516.7851563z"/>
	<path class="st0" d="M563.1923828,463.2402344c-9.3164063-6.3730469-17.9248047-12.2607422-26.5302734-18.1474609
		c-6.5097656-4.4521484-12.9667969-8.9873047-19.5634766-13.3105469c-2.1083984-1.3818359-3.1064453-2.8955078-2.8330078-5.4365234
		c0.2119141-1.9785156,0.0410156-3.9980469,0.0410156-6.5234375c1.3076172,0.7753906,2.2089844,1.2441406,3.0410156,1.8144531
		c14.2548828,9.7441406,28.4648438,19.5566406,42.7890625,29.1972656c2.3046875,1.5507813,3.4501953,3.1386719,3.0996094,5.9355469
		C563.0019531,458.6337891,563.1923828,460.5507813,563.1923828,463.2402344z"/>
</g>
<g>
	<path class="st0" d="M342.21875,834.5859375c1.1953125,10.96875,11.6015625,18.2109375,26.0859375,18.2109375
		C382.015625,852.796875,392,845.5546875,392,835.5703125c0-8.578125-5.9765625-13.8515625-19.6171875-17.3671875l-13.0078125-3.375
		c-18.703125-4.78125-27-13.0078125-27-26.7890625c0-16.875,14.765625-28.6875,35.859375-28.6875
		c20.1796875,0,34.8046875,11.953125,35.3671875,28.96875h-12.65625c-1.125-10.8984375-9.9140625-17.578125-23.1328125-17.578125
		c-13.1484375,0-22.2890625,6.8203125-22.2890625,16.734375c0,7.6640625,5.625,12.234375,19.40625,15.8203125l10.6171875,2.8125
		c21.0234375,5.2734375,29.53125,13.359375,29.53125,27.9140625c0,18.5625-14.625,30.1640625-37.96875,30.1640625
		c-21.515625,0-36.421875-11.671875-37.6171875-29.6015625H342.21875z"/>
	<path class="st0" d="M453.9453125,761.0390625c30.09375,0,47.8828125,18.7734375,47.8828125,50.6953125
		c0,31.9921875-17.71875,50.765625-47.8828125,50.765625H419.84375V761.0390625H453.9453125z M432.5,851.109375h20.6015625
		c22.9921875,0,35.7890625-14.0625,35.7890625-39.234375c0-25.3828125-12.7265625-39.4453125-35.7890625-39.4453125H432.5
		V851.109375z"/>
	<path class="st0" d="M536.84375,862.5v-90.0703125h-31.9921875v-11.390625h76.640625v11.390625H549.5V862.5H536.84375z"/>
	<path class="st0" d="M624.171875,862.5l-37.40625-101.4609375h13.2890625l30.1640625,86.0625h0.421875l30.1640625-86.0625
		H674.09375L636.6875,862.5H624.171875z"/>
</g>
</svg>
