<?xml version="1.0" encoding="utf-8"?>

<!DOCTYPE svg PUBLIC "-//W3C//DTD SVG 1.1//EN" "http://www.w3.org/Graphics/SVG/1.1/DTD/svg11.dtd">
<svg version="1.1" id="Layer_1" xmlns="http://www.w3.org/2000/svg" viewBox="200 180 612 612">
<style type="text/css">
<![CDATA[
	.st0{fill:#FFFFFF;}
]]>
</style>
<path class="st0" d="M537.5966797,509.3935547c0,0-38.5722656,46.484375-36.5976563,49.4482422
	c2.7363281-2.9638672-13.8505859-49.9472656-13.8505859-49.9472656s-3.4550781-9.890625-14.3203125-42.2636719h-39.3173828
	v-0.2568359l-95.4199219,0.2568359h-71.9580078l-7.1835938,30.3974609h54.1689453h12.8515625
	c34.84375,0,56.1220703,14.0966797,50.1777344,39.0722656c-6.4179688,27.1982422-36.8300781,38.8173828-69.2255859,38.8173828
	h-12.1166992l15.5766602-66.5107422h-54.1484375l-22.9921875,97.1533203h76.8935547
	c57.8505859,0,112.7324219-30.4023438,122.6308594-69.4599609c1.7304688-7.171875,1.4873047-25.2207031-2.9599609-35.8535156
	c0-0.2529297-0.2519531-0.7412109-0.4970703-1.4755859c-0.2451172-0.25-0.5-1.984375,0.4970703-2.2382813
	c0.4882813-0.2421875,1.4755859,0.7451172,1.4755859,0.9970703c0,0,0.5,1.2412109,0.9853516,2.2304688l48.9492188,138.1982422
	L605.84375,497.2792969l52.6523438-0.2480469h12.8583984c34.8701172,0,56.3779297,14.0966797,50.4365234,39.0712891
	c-6.4414063,27.1982422-37.0751953,38.8173828-69.4707031,38.8173828h-12.375l15.8310547-66.5097656h-54.1445313
	l-22.9951172,97.1542969h76.8964844c57.8486328,0,113.21875-30.4042969,122.375-69.4619141
	c9.3945313-39.0712891-31.1503906-69.4677734-89.5058594-69.4677734H637.484375h-63.7929688
	C543.2978516,502.4648438,537.5966797,509.3935547,537.5966797,509.3935547L537.5966797,509.3935547z"/>
<g>
	<path class="st0" d="M573.6914063,442.7285156h11.5615234l61.5068359-109.2939453h-39.9960938l-55.9521484,111.0039063
		c-1.5722656,3.1464844-2.9042969,6.0683594-3.9892578,8.7636719c-1.0878906,2.6962891-1.9648438,5.1318359-2.6396484,7.3037109
		h-0.8994141c0.4492188-2.3212891,0.6552734-4.8476563,0.6181641-7.5839844
		c-0.0380859-2.7324219-0.1689453-5.4111328-0.3925781-8.0332031l-10.8974609-111.4541016H495.421875l20.6728516,161.1132813
		h14.0820313c4.3554688-5.3691406,7.4199219-9.0605469,7.4199219-9.0605469S543.2978516,478.5585938,573.6914063,442.7285156z"/>
	<polygon class="st0" points="380.0917969,442.6113281 416.6728516,442.5126953 433.515625,362.9838867 478.90625,362.9838867 
		485.3105469,333.4345703 357.3398438,333.4345703 350.9365234,362.9838867 396.8876953,362.9838867 	"/>
</g>
</svg>
