<?xml version="1.0" encoding="utf-8"?>

<!DOCTYPE svg PUBLIC "-//W3C//DTD SVG 1.1//EN" "http://www.w3.org/Graphics/SVG/1.1/DTD/svg11.dtd">
<svg version="1.1" id="games" xmlns="http://www.w3.org/2000/svg" viewBox="200 90 612 612">
<style type="text/css">
<![CDATA[
	.st0{fill:#FFFFFF;}
]]>
</style>
<g>
	<path class="st0" d="M588.4589844,201.6938477l-66.5175781,242.7163086h-45.53125l-46.2070313-169.765625
		c-1.9199219-7.2202148-3.1044922-15.1201172-3.5537109-23.6962891h-0.6777344
		c-0.5654297,8.0136719-1.9199219,15.7988281-4.0615234,23.3579102l-46.3769531,170.1040039h-46.5458984l-67.8725586-242.7163086
		h44.1762695l44.0068359,177.7211914c1.8037109,7.4472656,2.9335938,15.2333984,3.3857422,23.3574219h0.8466797
		c0.4492188-5.7539063,2.0302734-13.5405273,4.7382813-23.3574219L408.03125,201.6938477h41.4677734l46.0380859,179.0756836
		c1.5791016,6.0927734,2.7636719,13.3154297,3.5546875,21.6650391h0.6767578
		c0.3388672-5.640625,1.6347656-13.0888672,3.8935547-22.3422852l43.1601563-178.3984375H588.4589844z"/>
	<path class="st0" d="M637.5449219,234.699707c-6.4316406,0-11.9326172-2.0874023-16.5039063-6.2626953
		c-4.5683594-4.1733398-6.8535156-9.4790039-6.8535156-15.9106445s2.2851563-11.7895508,6.8535156-16.0795898
		c4.5712891-4.2866211,10.0722656-6.4316406,16.5039063-6.4316406c6.65625,0,12.296875,2.1450195,16.9257813,6.4316406
		c4.6259766,4.2900391,6.9394531,9.6479492,6.9394531,16.0795898c0,6.09375-2.3134766,11.3144531-6.9394531,15.6567383
		C649.8417969,232.5283203,644.2011719,234.699707,637.5449219,234.699707z M657.0097656,444.4101563h-39.2685547V271.0898438
		h39.2685547V444.4101563z"/>
	<path class="st0" d="M728.0976563,234.699707c-6.4316406,0-11.9316406-2.0874023-16.5029297-6.2626953
		c-4.5683594-4.1733398-6.8544922-9.4790039-6.8544922-15.9106445s2.2861328-11.7895508,6.8544922-16.0795898
		c4.5712891-4.2866211,10.0712891-6.4316406,16.5029297-6.4316406c6.6572266,0,12.2978516,2.1450195,16.9267578,6.4316406
		c4.625,4.2900391,6.9384766,9.6479492,6.9384766,16.0795898c0,6.09375-2.3134766,11.3144531-6.9384766,15.6567383
		C740.3955078,232.5283203,734.7548828,234.699707,728.0976563,234.699707z M747.5634766,444.4101563h-39.2685547V271.0898438
		h39.2685547V444.4101563z"/>
</g>
<g>
	<path class="st0" d="M277.3125,625.1083984c-32.9648438,0-53.1743164-22.1308594-53.1743164-58.3994141
		c0-35.7314453,20.3632813-58.1689453,52.6367188-58.1689453c26.2026367,0,45.4897461,15.1376953,48.7172852,38.1894531h-23.0522461
		c-3.4580078-11.21875-12.7558594-17.75-25.6650391-17.75c-17.9042969,0-28.8925781,14.2158203-28.8925781,37.4990234
		c0,23.7441406,11.5263672,38.1894531,29.8144531,38.1894531c15.2148438,0,25.7421875-8.9902344,26.203125-22.3603516
		l0.0766602-1.9980469H279.925293v-17.4433594h46.565918v14.1396484
		C326.4912109,606.6660156,307.5878906,625.1083984,277.3125,625.1083984z"/>
	<path class="st0" d="M408.8652344,595.8320313H369.90625l-8.5292969,26.4335938h-23.2822266l38.4970703-110.8828125h27.2792969
		l38.4970703,110.8828125h-25.1269531L408.8652344,595.8320313z M374.9013672,577.9277344h29.0458984l-13.7539063-43.4921875
		h-1.3837891L374.9013672,577.9277344z"/>
	<path class="st0" d="M557.1699219,622.265625v-74.1523438h-1.2294922l-28.2001953,67.7744141h-15.4453125l-28.2783203-67.7744141
		h-1.2294922v74.1523438h-21.515625V511.3828125h27.3554688l30.6601563,74.5361328h1.3828125l30.7373047-74.5361328h27.2783203
		V622.265625H557.1699219z"/>
	<path class="st0" d="M679.0410156,622.265625h-73.4609375V511.3828125h73.4609375v19.8251953h-50.2548828v25.8955078h47.4111328
		V575.46875h-47.4111328v26.9716797h50.2548828V622.265625z"/>
	<path class="st0" d="M720.9189453,591.4521484c1.0761719,8.9902344,10.1435547,14.7529297,23.2060547,14.7529297
		c12.0644531,0,20.59375-5.8398438,20.59375-14.2158203c0-7.0693359-5.5322266-11.1416016-19.1328125-14.0615234
		l-14.4462891-3.0742188c-20.2099609-4.2255859-30.1220703-14.7529297-30.1220703-31.6582031
		c0-20.9013672,16.828125-34.6552734,42.4160156-34.6552734c24.4355469,0,41.7255859,13.6777344,42.4169922,33.4257813h-21.8232422
		c-1.0761719-8.7597656-9.2207031-14.5996094-20.4394531-14.5996094c-11.6035156,0-19.2871094,5.3789063-19.2871094,13.8310547
		c0,6.8388672,5.3017578,10.7578125,18.2880859,13.5244141l13.3701172,2.8427734
		c22.2841797,4.6875,31.8896484,14.2929688,31.8896484,31.5048828c0,22.3613281-17.1357422,36.0390625-44.9521484,36.0390625
		c-26.4335938,0-43.5693359-12.9863281-44.4150391-33.65625H720.9189453z"/>
</g>
</svg>
