<?xml version="1.0" encoding="utf-8"?>

<!DOCTYPE svg PUBLIC "-//W3C//DTD SVG 1.1//EN" "http://www.w3.org/Graphics/SVG/1.1/DTD/svg11.dtd">
<svg version="1.1" id="games" xmlns="http://www.w3.org/2000/svg" viewBox="200 90 612 612">
<style type="text/css">
<![CDATA[
	.st0{fill:#FFFFFF;}
]]>
</style>
<g>
	<path class="st0" d="M506.0058594,444.4101563h-48.2392578l-49.7617188-89.0297852
		c-1.4677734-2.7084961-3.1044922-6.5429688-4.9082031-11.5092773h-0.6777344
		c-1.015625,2.4829102-2.7080078,6.3208008-5.0771484,11.5092773l-51.2851563,89.0297852h-48.5771484L377.0302734,322.375
		l-73.1191406-120.6811523h49.2539063l43.8378906,81.9213867c2.8193359,5.4160156,5.3583984,10.8320313,7.6162109,16.2485352
		h0.5078125c3.2724609-7.1088867,6.09375-12.75,8.4638672-16.9257813l45.5292969-81.2441406h45.3623047l-74.8125,120.3422852
		L506.0058594,444.4101563z"/>
	<path class="st0" d="M539.1796875,444.4101563V201.6938477h77.0136719c23.4667969,0,42.0595703,5.1362305,55.7705078,15.402832
		c13.7089844,10.2695313,20.5634766,23.640625,20.5634766,40.1142578c0,13.7680664-3.8925781,25.7270508-11.6777344,35.8823242
		c-7.7851563,10.1557617-18.5625,17.378418-32.3300781,21.6650391v0.6772461
		c16.7001953,1.9204102,30.0439453,8.0981445,40.03125,18.5336914c9.9853516,10.4384766,14.9785156,24.0087891,14.9785156,40.706543
		c0,20.7631836-8.1826172,37.5751953-24.5429688,50.4384766c-16.3613281,12.8632813-37.0097656,19.2958984-61.9482422,19.2958984
		H539.1796875z M579.2949219,234.0224609v69.0571289h26.0654297c13.9892578,0,24.9658203-3.3007813,32.9199219-9.9013672
		c7.9560547-6.6010742,11.9316406-15.9370117,11.9316406-28.0126953c0-20.7597656-13.8779297-31.1430664-41.6367188-31.1430664
		H579.2949219z M579.2949219,335.4077148v76.8432617h34.3574219c15.0068359,0,26.6005859-3.4697266,34.7841797-10.4101563
		c8.1806641-6.9384766,12.2705078-16.5014648,12.2705078-28.6884766c0-25.1611328-17.4326172-37.7446289-52.2998047-37.7446289
		H579.2949219z"/>
</g>
<g>
	<path class="st0" d="M281.3066406,624.4414063c-32.1196289,0-52.0981445-22.2841797-52.0981445-58.2460938
		c0-35.5009766,20.2089844-58.1689453,51.7910156-58.1689453c25.5883789,0,44.3374023,14.5996094,47.8725586,37.2685547h-19.7490234
		c-3.9951172-12.6025391-13.9077148-19.5947266-28.1235352-19.5947266c-19.3642578,0-31.5048828,15.4453125-31.5048828,40.3417969
		c0,25.2041016,12.371582,40.7255859,32.1196289,40.7255859c16.9052734,0,28.4316406-10.296875,28.7382813-25.5878906
		l0.0771484-2.3056641H283.765625v-15.5214844h46.0283203v13.9082031
		C329.7939453,606.0761719,310.890625,624.4414063,281.3066406,624.4414063z"/>
	<path class="st0" d="M412.3984375,593.3203125h-40.8027344l-9.5283203,28.3544922h-20.0556641l39.3427734-110.8818359h22.2841797
		l39.4199219,110.8818359h-21.2851563L412.3984375,593.3203125z M376.2060547,577.6445313h31.5820313l-15.0615234-45.7207031
		h-1.3056641L376.2060547,577.6445313z"/>
	<path class="st0" d="M558.1669922,621.6748047v-77.9941406h-1.0761719l-30.6591797,73.6914063h-14.1386719l-30.6601563-73.6914063
		h-1.0761719v77.9941406h-18.4414063V510.7929688h23.2060547l33.3486328,80.7597656h1.3837891l33.3486328-80.7597656h23.2060547
		v110.8818359H558.1669922z"/>
	<path class="st0" d="M675.734375,621.6748047h-71.7695313V510.7929688h71.7695313v17.1357422h-51.9453125v29.4296875h49.1025391
		v16.1367188h-49.1025391v31.0439453h51.9453125V621.6748047z"/>
	<path class="st0" d="M714.6162109,591.5527344c1.2294922,9.9130859,11.0654297,16.2910156,25.1269531,16.2910156
		c13.0634766,0,22.5146484-6.6855469,22.5146484-15.9833984c0-7.9912109-6.0703125-12.6787109-20.2861328-15.9833984
		l-14.3691406-3.3037109c-20.1328125-4.5332031-29.5839844-14.5234375-29.5839844-31.0439453
		c0-20.1328125,16.4443359-33.5029297,41.2636719-33.5029297c23.2832031,0,40.1113281,13.3701172,41.0332031,32.4267578h-18.9794922
		c-1.3828125-9.7587891-9.9892578-15.90625-22.1308594-15.90625c-12.7548828,0-21.2080078,6.1474609-21.2080078,15.5996094
		c0,7.453125,5.609375,11.8330078,19.3642578,14.9833984l12.7558594,2.9199219
		c22.5146484,5.0722656,31.9658203,14.4462891,31.9658203,31.3515625c0,21.5927734-16.6748047,35.0400391-43.5693359,35.0400391
		c-25.4345703,0-42.2626953-12.7558594-43.2617188-32.8886719H714.6162109z"/>
</g>
</svg>
