<?xml version="1.0" encoding="utf-8"?>

<!DOCTYPE svg PUBLIC "-//W3C//DTD SVG 1.1//EN" "http://www.w3.org/Graphics/SVG/1.1/DTD/svg11.dtd">
<svg version="1.1" id="Layer_1" xmlns="http://www.w3.org/2000/svg" viewBox="0 90 612 612">
<style type="text/css">
<![CDATA[
	.st0{fill:#FFFFFF;stroke:#FFFFFF;}
	.st1{fill:#FFFFFF;}
]]>
</style>
<g id="playboy">
	<polygon class="st0" points="275.9248047,639.421875 314.1376953,670.5205078 323.6904297,601.1464844 277.1186523,625.0693359 
		235.3237305,597.5585938 235.3237305,656.1669922 	"/>
	<polygon class="st1" points="275.9248047,639.421875 314.1376953,670.5205078 323.6904297,601.1464844 277.1186523,625.0693359 
		235.3237305,597.5585938 235.3237305,656.1669922 	"/>
	<polygon class="st1" points="332.0478516,622.6767578 329.6601563,639.421875 427.5800781,610.7148438 428.7744141,595.1650391 	
		"/>
	<path class="st1" d="M464.5986328,300.9257813c28.6582031-95.6875,17.9121094-124.3935547,20.2998047-190.1787109
		C329.6601563,227.9638672,379.8144531,366.7114258,371.4560547,364.3193359
		c-72.8427734-101.6679688-144.4912109-188.9833984-253.1572266-234.4350586
		c0-10.7651367-17.9125977,156.6884766,210.1679688,236.8271484
		c-160.0146484,20.3344727-148.0732422,120.8061523-148.0732422,120.8061523
		c3.5825195,52.6289063,95.53125,75.3535156,95.53125,75.3535156c-17.9125977,26.3144531-1.1943359,53.8242188,0,51.4326172
		c15.5234375-8.3730469,44.1816406-22.7265625,62.0957031-32.2949219l-4.7773438,27.5097656l95.53125-31.0976563
		c11.9414063-53.8242188,38.2119141-150.7089844-17.9130859-191.375
		C410.8613281,384.652832,438.3271484,370.2998047,464.5986328,300.9257813z M262.7890625,458.8115234
		c-11.9414063,0-21.4946289-9.5703125-21.4946289-21.5302734c0-11.9609375,9.5532227-22.7255859,21.4946289-22.7255859
		s22.6884766,10.7646484,22.6884766,22.7255859C285.4775391,449.2412109,274.7304688,458.8115234,262.7890625,458.8115234z"/>
</g>
</svg>
