<?xml version="1.0" encoding="utf-8"?>
<!DOCTYPE svg PUBLIC "-//W3C//DTD SVG 1.1//EN" "http://www.w3.org/Graphics/SVG/1.1/DTD/svg11.dtd">
<svg version="1.1" id="Layer_1" xmlns="http://www.w3.org/2000/svg" viewBox="0 319.6953125 598.6582031 152.609375">
<style type="text/css">
<![CDATA[
	.st0{fill:url(#SVGID_1_);stroke:#485edf;stroke-miterlimit:10;}
	.st1{fill:url(#SVGID_2_);stroke:#485edf;stroke-miterlimit:10;}
	.st2{fill:url(#SVGID_3_);stroke:#485edf;stroke-miterlimit:10;}
	.st3{fill:url(#SVGID_5_);stroke:#485edf;stroke-miterlimit:10;}
	.st4{fill:url(#SVGID_6_);stroke:#485edf;stroke-miterlimit:10;}
	.st5{fill:url(#SVGID_7_);stroke:#485edf;stroke-miterlimit:10;}
	.st6{opacity:0.46;fill:url(#SVGID_4_);stroke:#485edf;stroke-miterlimit:10;enable-background:new    ;}
	.st7{opacity:0.46;fill:url(#SVGID_8_);stroke:#485edf;stroke-miterlimit:10;enable-background:new    ;}
	.st8{opacity:0.46;fill:url(#SVGID_9_);stroke:#485edf;stroke-miterlimit:10;enable-background:new    ;}
	.st9{fill:#2d4ea4;}
	.st10{fill:#485edf;}
]]>
</style>
<g>
	<g>
		
			<linearGradient id="SVGID_1_" gradientUnits="userSpaceOnUse" x1="86.449707" y1="786.8798828" x2="89.9497147" y2="674.3796387" gradientTransform="matrix(0.6394984 0 0 -0.6394984 0.1802508 826.9973145)">
			<stop  offset="0" style="stop-color:#3665de"/>
			<stop  offset="1" style="stop-color:#2d4ea4"/>
		</linearGradient>
		<path class="st0" d="M103.2050781,472.3046875c-0.3520508,0-0.6816406-0.2050781-0.8081055-0.5351563
			c-4.6074219-11.8369141-14.1186523-18.0078125-19.3862305-19.2646484
			c-60.2211914-14.3955078-68.3935547-54.7480469-69.4633789-66.7685547
			c-0.9233398-10.4121094-1.0009766-30.2485352,8.8818359-46.1376953c0.237793-0.3930664,0.7700195-0.519043,1.1796875-0.2910156
			c0.4111328,0.230957,0.5498047,0.7304688,0.309082,1.121582c-9.6362305,15.496582-9.5512695,34.9526367-8.6474609,45.1669922
			c1.0483398,11.7553711,9.0522461,51.190918,68.1625977,65.3227539
			c5.6225586,1.3417969,15.7441406,7.8515625,20.5830078,20.2851563c0.1645508,0.4228516-0.0644531,0.8945313-0.512207,1.0488281
			C103.4052734,472.2871094,103.3041992,472.3046875,103.2050781,472.3046875z"/>
		
			<linearGradient id="SVGID_2_" gradientUnits="userSpaceOnUse" x1="68.3168945" y1="786.3154297" x2="71.8169022" y2="673.8150635" gradientTransform="matrix(0.6394984 0 0 -0.6394984 0.1802508 826.9973145)">
			<stop  offset="0" style="stop-color:#3665de"/>
			<stop  offset="1" style="stop-color:#2d4ea4"/>
		</linearGradient>
		<path class="st1" d="M27.409668,357.9082031c-2.7822266,2.1479492-10.4487305,3.9042969-11.6157227,1.375
			c-1.1689453-2.5263672,2.6367188-7.5917969,5.6875-9.2070313c4.9794922-2.6376953,12.3662109-1.8168945,12.3662109-1.8168945
			S32.7338867,353.8056641,27.409668,357.9082031z M30.6948242,363.3706055c0,0-7.3994141,0.6967773-11.8769531,4.3061523
			c-2.7441406,2.2104492-5.6855469,7.9624023-4.1367188,10.2128906c1.5449219,2.2495117,8.8139648-1.0366211,11.2109375-3.7192383
			C30.4775391,369.0556641,30.6948242,363.3706055,30.6948242,363.3706055z M27.9887695,377.9472656
			c0,0-6.7260742,3.5566406-9.8203125,8.7055664c-1.8979492,3.1538086-2.8979492,9.7045898-0.7563477,11.2055664
			c2.1411133,1.5019531,7.9492188-4.4370117,9.3774414-7.8930664
			C29.5205078,383.3574219,27.9887695,377.9472656,27.9887695,377.9472656z M30.7016602,393.421875
			c0,0-5.4501953,5.7177734-7.0166016,11.6826172c-0.9599609,3.6572266-0.1542969,10.2480469,2.2880859,10.9414063
			c2.440918,0.6865234,6.3803711-6.9707031,6.8129883-10.7578125
			C33.6186523,398.0498047,30.7016602,393.421875,30.7016602,393.421875z M38.1806641,406.1005859
			c0,0-4.25,6.4716797-4.7954102,12.4052734c-0.3378906,3.6396484,1.449707,9.6845703,3.859375,9.8457031
			c2.4091797,0.1621094,4.9301758-7.8417969,4.7475586-11.4941406
			C41.6484375,409.8769531,38.1806641,406.1005859,38.1806641,406.1005859z M47.3945313,418.0107422
			c0,0-2.6401367,7.0205078-1.9677734,12.5976563c0.4135742,3.4160156,3.2646484,8.4951172,5.5219727,8.0273438
			c2.2607422-0.4697266,2.996582-8.4482422,2.1035156-11.7470703
			C51.3530273,420.5849609,47.3945313,418.0107422,47.3945313,418.0107422z M59.5683594,423.65625
			c0,0-2.6513672,7.1611328-1.9624023,12.8603516c0.425293,3.4941406,3.3139648,8.6894531,5.5917969,8.21875
			c2.2822266-0.4765625,3.0107422-8.6201172,2.0981445-11.9990234
			C63.5664063,426.2900391,59.5683594,423.65625,59.5683594,423.65625z M71.9990234,424.6533203
			c0,0-2.7294922,8.1787109-1.9165039,14.7353516c0.5009766,4.0175781,3.6489258,10.0371094,6.0776367,9.5332031
			c2.4257813-0.5048828,3.0888672-9.8486328,2.074707-13.7353516
			C76.2988281,427.7519531,71.9990234,424.6533203,71.9990234,424.6533203z"/>
		
			<linearGradient id="SVGID_3_" gradientUnits="userSpaceOnUse" x1="49.8325195" y1="785.7402344" x2="53.3325043" y2="673.2407227" gradientTransform="matrix(0.6394984 0 0 -0.6394984 0.1802508 826.9973145)">
			<stop  offset="0" style="stop-color:#3665de"/>
			<stop  offset="1" style="stop-color:#2d4ea4"/>
		</linearGradient>
		<path class="st2" d="M30.0683594,332.7441406c-1.2963867,3.9887695-6.6972656,11.6030273-8.7587891,10.4916992
			c-2.0532227-1.1162109-1.2192383-8.3061523,0.527832-12.0805664c2.8461914-6.1601563,9.1586914-11.4599609,9.1586914-11.4599609
			S32.5473633,325.1123047,30.0683594,332.7441406z M10.7509766,332.4316406c0,0-2.4868164,7.9277344-1.4306641,14.0395508
			c0.6474609,3.7460938,4.0639648,9.1523438,6.5078125,8.4814453c2.4487305-0.6743164,2.796875-9.5322266,1.6298828-13.1176758
			C15.2319336,334.996582,10.7509766,332.4316406,10.7509766,332.4316406z M5.465332,352.4936523
			c0,0-1.1894531,8.3125,0.8208008,14.109375c1.2299805,3.5517578,5.4467773,8.1767578,7.7460938,7.0200195
			c2.2973633-1.1625977,1.2368164-9.9521484-0.4790039-13.2319336
			C10.2802734,354.1123047,5.465332,352.4936523,5.465332,352.4936523z M0,375.2167969c0,0,1.425293,8.2612305,5.0834961,12.9086914
			c2.2397461,2.8476563,7.6123047,5.5258789,9.4140625,3.5366211c1.7973633-1.9941406-1.8842773-9.8164063-4.5004883-12.2197266
			C5.0087891,374.8334961,0,375.2167969,0,375.2167969z M0.909668,397.2734375c0,0,3.8085938,7.2226563,8.6401367,10.1923828
			c2.9584961,1.8242188,8.8110352,2.2822266,9.9116211-0.2822266c1.0986328-2.5693359-4.7036133-8.5175781-7.8793945-9.7792969
			C5.5112305,394.9926758,0.909668,397.2734375,0.909668,397.2734375z M10.8491211,421.2607422
			c0,0,5.7558594,5.3203125,11.1923828,6.234375c3.3286133,0.5703125,8.9702148-1.265625,9.2285156-4.1025391
			c0.2578125-2.8427734-6.9858398-6.1816406-10.3535156-6.1357422
			C14.4819336,417.3378906,10.8491211,421.2607422,10.8491211,421.2607422z M22.9506836,440.9794922
			c0,0,7.1381836,2.3242188,12.4521484,0.7460938c3.2597656-0.9648438,7.8076172-5.1630859,7.0649414-7.890625
			c-0.7485352-2.7255859-8.5668945-2.5683594-11.6508789-1.0273438
			C24.9296875,435.7529297,22.9506836,440.9794922,22.9506836,440.9794922z M36.2573242,450.4101563
			c0,0,7.1357422,2.3193359,12.4487305,0.7431641c3.2612305-0.9648438,7.8120117-5.1669922,7.0664063-7.890625
			c-0.7504883-2.7314453-8.5668945-2.5703125-11.6474609-1.03125
			C38.2363281,445.1816406,36.2573242,450.4101563,36.2573242,450.4101563z M54.4755859,461.0517578
			c0,0,6.7734375-0.6806641,10.8764648-4.0019531c2.5170898-2.0371094,5.2236328-7.3125,3.8100586-9.359375
			c-1.4189453-2.0439453-8.0712891,1.0029297-10.2695313,3.4638672
			C54.684082,455.8535156,54.4755859,461.0517578,54.4755859,461.0517578z"/>
		
			<linearGradient id="SVGID_4_" gradientUnits="userSpaceOnUse" x1="50.5834961" y1="785.7636719" x2="54.0834885" y2="673.263916" gradientTransform="matrix(0.6394984 0 0 -0.6394984 0.1802508 826.9973145)">
			<stop  offset="0" style="stop-color:#3665de"/>
			<stop  offset="1" style="stop-color:#2d4ea4"/>
		</linearGradient>
		<path class="st6" d="M30.5493164,332.7441406c-1.2978516,3.9887695-6.6982422,11.6030273-8.7578125,10.4916992
			c-2.0537109-1.1162109-1.222168-8.3061523,0.5253906-12.0805664c2.847168-6.1601563,9.159668-11.4599609,9.159668-11.4599609
			S33.027832,325.1123047,30.5493164,332.7441406z M11.230957,332.4316406c0,0-2.4863281,7.9277344-1.4306641,14.0395508
			c0.6479492,3.7460938,4.0644531,9.1523438,6.5068359,8.4814453c2.4492188-0.6743164,2.7978516-9.5322266,1.6313477-13.1176758
			C15.7114258,334.996582,11.230957,332.4316406,11.230957,332.4316406z M5.9453125,352.4936523
			c0,0-1.1889648,8.3125,0.8222656,14.109375c1.2285156,3.5517578,5.4453125,8.1767578,7.7456055,7.0200195
			c2.2973633-1.1625977,1.2368164-9.9521484-0.4799805-13.2319336
			C10.7592773,354.1123047,5.9453125,352.4936523,5.9453125,352.4936523z M0.4804688,375.2167969
			c0,0,1.4248047,8.2612305,5.0839844,12.9086914c2.2402344,2.8476563,7.6132813,5.5258789,9.4145508,3.5366211
			c1.7963867-1.9941406-1.8857422-9.8164063-4.5014648-12.2197266
			C5.4887695,374.8334961,0.4804688,375.2167969,0.4804688,375.2167969z M1.3901367,397.2734375
			c0,0,3.809082,7.2226563,8.6396484,10.1923828c2.9580078,1.8242188,8.8110352,2.2822266,9.9116211-0.2822266
			c1.0976563-2.5693359-4.703125-8.5175781-7.8789063-9.7792969C5.9907227,394.9926758,1.3901367,397.2734375,1.3901367,397.2734375
			z M11.3291016,421.2607422c0,0,5.7583008,5.3203125,11.1933594,6.234375
			c3.328125,0.5703125,8.9697266-1.265625,9.2270508-4.1025391c0.2583008-2.8427734-6.984375-6.1816406-10.3530273-6.1357422
			C14.9619141,417.3378906,11.3291016,421.2607422,11.3291016,421.2607422z M23.4316406,440.9794922
			c0,0,7.1386719,2.3242188,12.4516602,0.7460938c3.2602539-0.9648438,7.8081055-5.1630859,7.0654297-7.890625
			c-0.7485352-2.7255859-8.5673828-2.5683594-11.6503906-1.0273438
			C25.4106445,435.7529297,23.4316406,440.9794922,23.4316406,440.9794922z M36.7368164,450.4101563
			c0,0,7.1362305,2.3193359,12.449707,0.7431641c3.2602539-0.9648438,7.8120117-5.1669922,7.0654297-7.890625
			c-0.75-2.7314453-8.5664063-2.5703125-11.6469727-1.03125C38.7158203,445.1816406,36.7368164,450.4101563,36.7368164,450.4101563z
			 M54.9550781,461.0517578c0,0,6.7744141-0.6806641,10.8774414-4.0019531c2.5175781-2.0371094,5.2241211-7.3125,3.8095703-9.359375
			c-1.4179688-2.0439453-8.0717773,1.0029297-10.2700195,3.4638672
			C55.1655273,455.8535156,54.9550781,461.0517578,54.9550781,461.0517578z"/>
		
			<linearGradient id="SVGID_5_" gradientUnits="userSpaceOnUse" x1="173.1391602" y1="789.578125" x2="176.6391907" y2="677.0773315" gradientTransform="matrix(0.6394984 0 0 -0.6394984 0.1802508 826.9973145)">
			<stop  offset="0" style="stop-color:#3665de"/>
			<stop  offset="1" style="stop-color:#2d4ea4"/>
		</linearGradient>
		<path class="st3" d="M69.4663086,472.3046875c-0.1000977,0-0.2011719-0.0175781-0.2998047-0.0517578
			c-0.4477539-0.1542969-0.6806641-0.6259766-0.512207-1.0488281c4.8354492-12.4335938,14.9599609-18.9433594,20.5805664-20.2851563
			c59.1118164-14.1318359,67.1166992-53.5673828,68.1640625-65.3227539
			c0.9038086-10.2143555,0.9897461-29.6704102-8.6450195-45.1669922c-0.2446289-0.3911133-0.1044922-0.890625,0.3071289-1.121582
			c0.40625-0.2280273,0.9350586-0.1020508,1.1806641,0.2910156c9.8808594,15.8891602,9.7998047,35.7255859,8.8803711,46.1376953
			c-1.0693359,12.0205078-9.2446289,52.3730469-69.4643555,66.7685547
			c-5.2675781,1.2568359-14.7768555,7.4277344-19.3828125,19.2646484
			C70.1479492,472.0996094,69.8139648,472.3046875,69.4663086,472.3046875z"/>
		
			<linearGradient id="SVGID_6_" gradientUnits="userSpaceOnUse" x1="192.8442383" y1="790.1904297" x2="196.3442383" y2="677.6904297" gradientTransform="matrix(0.6394984 0 0 -0.6394984 0.1802508 826.9973145)">
			<stop  offset="0" style="stop-color:#3665de"/>
			<stop  offset="1" style="stop-color:#2d4ea4"/>
		</linearGradient>
		<path class="st4" d="M138.8222656,348.2592773c0,0,7.387207-0.8208008,12.3666992,1.8168945
			c3.0483398,1.6152344,6.8579102,6.6806641,5.6884766,9.2070313c-1.1704102,2.5292969-8.8354492,0.7729492-11.6196289-1.375
			C139.9350586,353.8056641,138.8222656,348.2592773,138.8222656,348.2592773z M146.7749023,374.1704102
			c2.3989258,2.6826172,9.6660156,5.96875,11.2124023,3.7192383c1.550293-2.2504883-1.394043-8.0024414-4.1391602-10.2128906
			c-4.4746094-3.609375-11.8745117-4.3061523-11.8745117-4.3061523S142.1923828,369.0556641,146.7749023,374.1704102z
			 M145.8789063,389.965332c1.4282227,3.4560547,7.2373047,9.3950195,9.3789063,7.8930664
			c2.1411133-1.5009766,1.140625-8.0517578-0.7573242-11.2055664c-3.0927734-5.1489258-9.8188477-8.7055664-9.8188477-8.7055664
			S143.1479492,383.3574219,145.8789063,389.965332z M139.8837891,405.2880859
			c0.4326172,3.7871094,4.371582,11.4443359,6.8110352,10.7578125c2.4414063-0.6933594,3.25-7.2841797,2.2900391-10.9414063
			c-1.5634766-5.9648438-7.0175781-11.6826172-7.0175781-11.6826172S139.0522461,398.0498047,139.8837891,405.2880859z
			 M130.6767578,416.8574219c-0.1821289,3.6523438,2.3383789,11.65625,4.7480469,11.4941406
			c2.409668-0.1611328,4.1958008-6.2060547,3.8598633-9.8457031c-0.5458984-5.9335938-4.7963867-12.4052734-4.7963867-12.4052734
			S131.0170898,409.8769531,130.6767578,416.8574219z M119.6171875,426.8886719
			c-0.8989258,3.2988281-0.1577148,11.2773438,2.1025391,11.7470703c2.2568359,0.4677734,5.109375-4.6113281,5.5234375-8.0273438
			c0.6713867-5.5771484-1.9682617-12.5976563-1.9682617-12.5976563S121.3154297,420.5849609,119.6171875,426.8886719z
			 M107.371582,432.7363281c-0.9121094,3.3789063-0.1801758,11.5224609,2.1005859,11.9990234
			c2.2768555,0.4707031,5.1660156-4.7246094,5.5888672-8.21875c0.6918945-5.6992188-1.9604492-12.8603516-1.9604492-12.8603516
			S109.1040039,426.2900391,107.371582,432.7363281z M94.4355469,435.1865234
			c-1.0161133,3.8867188-0.3510742,13.2304688,2.0742188,13.7353516c2.4272461,0.5039063,5.5751953-5.515625,6.0761719-9.5332031
			c0.8129883-6.5566406-1.9150391-14.7353516-1.9150391-14.7353516S96.3696289,427.7519531,94.4355469,435.1865234z"/>
		
			<linearGradient id="SVGID_7_" gradientUnits="userSpaceOnUse" x1="210.9233398" y1="790.7519531" x2="214.4233246" y2="678.2521973" gradientTransform="matrix(0.6394984 0 0 -0.6394984 0.1802508 826.9973145)">
			<stop  offset="0" style="stop-color:#3665de"/>
			<stop  offset="1" style="stop-color:#2d4ea4"/>
		</linearGradient>
		<path class="st5" d="M141.6713867,319.6953125c0,0,6.3144531,5.2998047,9.1616211,11.4599609
			c1.7446289,3.7744141,2.5795898,10.9643555,0.527832,12.0805664c-2.0625,1.1113281-7.4643555-6.5029297-8.7607422-10.4916992
			C140.121582,325.1123047,141.6713867,319.6953125,141.6713867,319.6953125z M155.2124023,341.8349609
			c-1.1674805,3.5854492-0.8178711,12.4433594,1.6293945,13.1176758c2.4428711,0.6708984,5.8603516-4.7353516,6.5068359-8.4814453
			c1.0566406-6.1118164-1.4291992-14.0395508-1.4291992-14.0395508S157.4384766,334.996582,155.2124023,341.8349609z
			 M159.1157227,360.3911133c-1.7148438,3.2797852-2.7763672,12.0693359-0.4775391,13.2319336
			c2.2993164,1.1567383,6.5166016-3.4682617,7.7480469-7.0200195c2.0043945-5.796875,0.8164063-14.109375,0.8164063-14.109375
			S162.390625,354.1123047,159.1157227,360.3911133z M162.6728516,379.4423828
			c-2.6171875,2.4033203-6.2993164,10.2255859-4.4995117,12.2197266c1.8012695,1.9892578,7.171875-0.6889648,9.4125977-3.5366211
			c3.6591797-4.6474609,5.0834961-12.9086914,5.0834961-12.9086914S167.6640625,374.8334961,162.6728516,379.4423828z
			 M161.0888672,397.4042969c-3.1796875,1.2617188-8.9775391,7.2099609-7.8803711,9.7792969
			c1.0986328,2.5644531,6.9536133,2.1064453,9.9121094,0.2822266c4.8325195-2.9697266,8.6376953-10.1923828,8.6376953-10.1923828
			S167.1601563,394.9926758,161.0888672,397.4042969z M151.7524414,417.2568359
			c-3.3681641-0.0458984-10.6108398,3.2929688-10.3525391,6.1357422c0.2573242,2.8369141,5.9008789,4.6728516,9.2270508,4.1025391
			c5.4375-0.9140625,11.1953125-6.234375,11.1953125-6.234375S158.1870117,417.3378906,151.7524414,417.2568359z
			 M141.8520508,432.8076172c-3.0820313-1.5410156-10.9023438-1.6982422-11.6508789,1.0273438
			c-0.7446289,2.7275391,3.8061523,6.9257813,7.0634766,7.890625c5.3164063,1.578125,12.4541016-0.7460938,12.4541016-0.7460938
			S147.7392578,435.7529297,141.8520508,432.8076172z M128.546875,442.2314453
			c-3.0844727-1.5390625-10.9008789-1.7001953-11.6499023,1.03125c-0.7451172,2.7236328,3.8051758,6.9257813,7.0668945,7.890625
			c5.3129883,1.5761719,12.4492188-0.7431641,12.4492188-0.7431641S134.4350586,445.1816406,128.546875,442.2314453z
			 M113.7783203,451.1542969c-2.1977539-2.4609375-8.8525391-5.5078125-10.2700195-3.4638672
			c-1.4140625,2.046875,1.2905273,7.3222656,3.8100586,9.359375c4.1015625,3.3212891,10.875,4.0019531,10.875,4.0019531
			S117.9848633,455.8535156,113.7783203,451.1542969z"/>
		
			<linearGradient id="SVGID_8_" gradientUnits="userSpaceOnUse" x1="210.9233398" y1="790.7519531" x2="214.4233246" y2="678.2521973" gradientTransform="matrix(0.6394984 0 0 -0.6394984 0.1802508 826.9973145)">
			<stop  offset="0" style="stop-color:#3665de"/>
			<stop  offset="1" style="stop-color:#2d4ea4"/>
		</linearGradient>
		<path class="st7" d="M141.6713867,319.6953125c0,0,6.3144531,5.2998047,9.1616211,11.4599609
			c1.7446289,3.7744141,2.5795898,10.9643555,0.527832,12.0805664c-2.0625,1.1113281-7.4643555-6.5029297-8.7607422-10.4916992
			C140.121582,325.1123047,141.6713867,319.6953125,141.6713867,319.6953125z M155.2124023,341.8349609
			c-1.1674805,3.5854492-0.8178711,12.4433594,1.6293945,13.1176758c2.4428711,0.6708984,5.8603516-4.7353516,6.5068359-8.4814453
			c1.0566406-6.1118164-1.4291992-14.0395508-1.4291992-14.0395508S157.4384766,334.996582,155.2124023,341.8349609z
			 M159.1157227,360.3911133c-1.7148438,3.2797852-2.7763672,12.0693359-0.4775391,13.2319336
			c2.2993164,1.1567383,6.5166016-3.4682617,7.7480469-7.0200195c2.0043945-5.796875,0.8164063-14.109375,0.8164063-14.109375
			S162.390625,354.1123047,159.1157227,360.3911133z M162.6728516,379.4423828
			c-2.6171875,2.4033203-6.2993164,10.2255859-4.4995117,12.2197266c1.8012695,1.9892578,7.171875-0.6889648,9.4125977-3.5366211
			c3.6591797-4.6474609,5.0834961-12.9086914,5.0834961-12.9086914S167.6640625,374.8334961,162.6728516,379.4423828z
			 M161.0888672,397.4042969c-3.1796875,1.2617188-8.9775391,7.2099609-7.8803711,9.7792969
			c1.0986328,2.5644531,6.9536133,2.1064453,9.9121094,0.2822266c4.8325195-2.9697266,8.6376953-10.1923828,8.6376953-10.1923828
			S167.1601563,394.9926758,161.0888672,397.4042969z M151.7524414,417.2568359
			c-3.3681641-0.0458984-10.6108398,3.2929688-10.3525391,6.1357422c0.2573242,2.8369141,5.9008789,4.6728516,9.2270508,4.1025391
			c5.4375-0.9140625,11.1953125-6.234375,11.1953125-6.234375S158.1870117,417.3378906,151.7524414,417.2568359z
			 M141.8520508,432.8076172c-3.0820313-1.5410156-10.9023438-1.6982422-11.6508789,1.0273438
			c-0.7446289,2.7275391,3.8061523,6.9257813,7.0634766,7.890625c5.3164063,1.578125,12.4541016-0.7460938,12.4541016-0.7460938
			S147.7392578,435.7529297,141.8520508,432.8076172z M128.546875,442.2314453
			c-3.0844727-1.5390625-10.9008789-1.7001953-11.6499023,1.03125c-0.7451172,2.7236328,3.8051758,6.9257813,7.0668945,7.890625
			c5.3129883,1.5761719,12.4492188-0.7431641,12.4492188-0.7431641S134.4350586,445.1816406,128.546875,442.2314453z
			 M113.7783203,451.1542969c-2.1977539-2.4609375-8.8525391-5.5078125-10.2700195-3.4638672
			c-1.4140625,2.046875,1.2905273,7.3222656,3.8100586,9.359375c4.1015625,3.3212891,10.875,4.0019531,10.875,4.0019531
			S117.9848633,455.8535156,113.7783203,451.1542969z"/>
		
			<linearGradient id="SVGID_9_" gradientUnits="userSpaceOnUse" x1="210.9233398" y1="790.7519531" x2="214.4233246" y2="678.2521973" gradientTransform="matrix(0.6394984 0 0 -0.6394984 0.1802508 826.9973145)">
			<stop  offset="0" style="stop-color:#3665de"/>
			<stop  offset="1" style="stop-color:#2d4ea4"/>
		</linearGradient>
		<path class="st8" d="M141.6713867,319.6953125c0,0,6.3144531,5.2998047,9.1616211,11.4599609
			c1.7446289,3.7744141,2.5795898,10.9643555,0.527832,12.0805664c-2.0625,1.1113281-7.4643555-6.5029297-8.7607422-10.4916992
			C140.121582,325.1123047,141.6713867,319.6953125,141.6713867,319.6953125z M155.2124023,341.8349609
			c-1.1674805,3.5854492-0.8178711,12.4433594,1.6293945,13.1176758c2.4428711,0.6708984,5.8603516-4.7353516,6.5068359-8.4814453
			c1.0566406-6.1118164-1.4291992-14.0395508-1.4291992-14.0395508S157.4384766,334.996582,155.2124023,341.8349609z
			 M159.1157227,360.3911133c-1.7148438,3.2797852-2.7763672,12.0693359-0.4775391,13.2319336
			c2.2993164,1.1567383,6.5166016-3.4682617,7.7480469-7.0200195c2.0043945-5.796875,0.8164063-14.109375,0.8164063-14.109375
			S162.390625,354.1123047,159.1157227,360.3911133z M162.6728516,379.4423828
			c-2.6171875,2.4033203-6.2993164,10.2255859-4.4995117,12.2197266c1.8012695,1.9892578,7.171875-0.6889648,9.4125977-3.5366211
			c3.6591797-4.6474609,5.0834961-12.9086914,5.0834961-12.9086914S167.6640625,374.8334961,162.6728516,379.4423828z
			 M161.0888672,397.4042969c-3.1796875,1.2617188-8.9775391,7.2099609-7.8803711,9.7792969
			c1.0986328,2.5644531,6.9536133,2.1064453,9.9121094,0.2822266c4.8325195-2.9697266,8.6376953-10.1923828,8.6376953-10.1923828
			S167.1601563,394.9926758,161.0888672,397.4042969z M151.7524414,417.2568359
			c-3.3681641-0.0458984-10.6108398,3.2929688-10.3525391,6.1357422c0.2573242,2.8369141,5.9008789,4.6728516,9.2270508,4.1025391
			c5.4375-0.9140625,11.1953125-6.234375,11.1953125-6.234375S158.1870117,417.3378906,151.7524414,417.2568359z
			 M141.8520508,432.8076172c-3.0820313-1.5410156-10.9023438-1.6982422-11.6508789,1.0273438
			c-0.7446289,2.7275391,3.8061523,6.9257813,7.0634766,7.890625c5.3164063,1.578125,12.4541016-0.7460938,12.4541016-0.7460938
			S147.7392578,435.7529297,141.8520508,432.8076172z M128.546875,442.2314453
			c-3.0844727-1.5390625-10.9008789-1.7001953-11.6499023,1.03125c-0.7451172,2.7236328,3.8051758,6.9257813,7.0668945,7.890625
			c5.3129883,1.5761719,12.4492188-0.7431641,12.4492188-0.7431641S134.4350586,445.1816406,128.546875,442.2314453z
			 M113.7783203,451.1542969c-2.1977539-2.4609375-8.8525391-5.5078125-10.2700195-3.4638672
			c-1.4140625,2.046875,1.2905273,7.3222656,3.8100586,9.359375c4.1015625,3.3212891,10.875,4.0019531,10.875,4.0019531
			S117.9848633,455.8535156,113.7783203,451.1542969z"/>
	</g>
</g>
<g>
	<g>
		<path class="st9" d="M90.4692383,394.7128906H70.2895508l-5.0976563,14.5195313h-6.6445313l18.703125-50.7304688h6.2578125
			l18.703125,50.7304688h-6.6445313L90.4692383,394.7128906z M72.152832,389.3339844h16.453125l-8.1210938-23.1328125h-0.2109375
			L72.152832,389.3339844z"/>
	</g>
</g>
<g>
	<g>
		<path class="st10" d="M85.8139648,409.2324219h-6.328125v-50.7304688h19.0195313
			c9.7734375,0,16.171875,5.9765625,16.171875,15.1171875c0,7.0664063-3.8320313,12.5507813-10.1953125,14.5546875
			l11.7421875,21.0585938h-7.4179688l-10.8632813-20.0742188H85.8139648V409.2324219z M85.8139648,383.5683594h12.1289063
			c6.5039063,0,10.1953125-3.515625,10.1953125-9.7382813c0-6.0820313-3.9375-9.703125-10.4765625-9.703125H85.8139648V383.5683594z
			"/>
	</g>
</g>
<g>
	<g>
		<path class="st9" d="M233.1074219,403.0146484h-20.1796875l-5.0976563,14.5195313h-6.6445313l18.703125-50.7304688h6.2578125
			l18.703125,50.7304688h-6.6445313L233.1074219,403.0146484z M214.7910156,397.6357422h16.453125l-8.1210938-23.1328125h-0.2109375
			L214.7910156,397.6357422z"/>
		<path class="st9" d="M250.0175781,366.8037109h6.1171875v50.7304688h-6.1171875V366.8037109z"/>
		<path class="st9" d="M297.7949219,399.2529297c0,11.4609375-6.2929688,18.9140625-15.5039063,18.9140625
			c-5.2382813,0-9.4570313-2.5664063-11.6367188-6.5742188h-0.140625v18.140625h-6.1171875v-48.7617188h5.8007813v6.1875h0.140625
			c2.25-4.1132813,6.5039063-6.8203125,11.8125-6.8203125C291.4667969,380.3388672,297.7949219,387.7919922,297.7949219,399.2529297
			z M291.5371094,399.2529297c0-8.2617188-4.078125-13.5351563-10.5820313-13.5351563
			c-6.2578125,0-10.4765625,5.4140625-10.4765625,13.5351563c0,8.15625,4.21875,13.5351563,10.4765625,13.5351563
			C287.4589844,412.7880859,291.5371094,407.5498047,291.5371094,399.2529297z"/>
		<path class="st9" d="M304.2636719,366.8037109h6.1171875v20.0039063h0.140625
			c2.0390625-4.078125,6.046875-6.46875,11.6015625-6.46875c8.015625,0,12.8671875,5.4140625,12.8671875,13.5703125v23.625
			h-6.1171875v-22.5c0-5.8007813-2.9179688-9.28125-8.6484375-9.28125c-6.0820313,0-9.84375,4.1484375-9.84375,10.4765625
			v21.3046875h-6.1171875V366.8037109z"/>
		<path class="st9" d="M341.2832031,407.1982422c0-6.2578125,4.8164063-10.1953125,13.2539063-10.6875l10.4765625-0.5976563
			v-3.0585938c0-4.4648438-2.953125-7.1367188-8.015625-7.1367188c-4.7109375,0-7.6640625,2.2148438-8.4375,5.8007813h-5.90625
			c0.421875-6.328125,5.8359375-11.1796875,14.484375-11.1796875c8.578125,0,13.9921875,4.640625,13.9921875,11.9179688v25.2773438
			h-5.8007813v-6.2929688h-0.140625c-2.1796875,4.1835938-6.8203125,6.9257813-11.7421875,6.9257813
			C346.1699219,418.1669922,341.2832031,413.7724609,341.2832031,407.1982422z M365.0136719,403.6474609v-2.9882813
			l-9.7734375,0.5976563c-4.921875,0.3164063-7.734375,2.4960938-7.734375,5.9414063
			c0,3.4804688,2.9179688,5.765625,7.3125,5.765625C360.5839844,412.9638672,365.0136719,408.9208984,365.0136719,403.6474609z"/>
		<path class="st10" d="M386.1777344,417.5341797h-6.328125v-50.7304688h19.0195313
			c9.7734375,0,16.171875,5.9765625,16.171875,15.1171875c0,7.0664063-3.8320313,12.5507813-10.1953125,14.5546875
			l11.7421875,21.0585938h-7.4179688l-10.8632813-20.0742188h-12.1289063V417.5341797z M386.1777344,391.8701172h12.1289063
			c6.5039063,0,10.1953125-3.515625,10.1953125-9.7382813c0-6.0820313-3.9375-9.703125-10.4765625-9.703125h-11.8476563V391.8701172
			z"/>
		<path class="st10" d="M420.5605469,407.1982422c0-6.2578125,4.8164063-10.1953125,13.2539063-10.6875l10.4765625-0.5976563
			v-3.0585938c0-4.4648438-2.953125-7.1367188-8.015625-7.1367188c-4.7109375,0-7.6640625,2.2148438-8.4375,5.8007813h-5.90625
			c0.421875-6.328125,5.8359375-11.1796875,14.484375-11.1796875c8.578125,0,13.9921875,4.640625,13.9921875,11.9179688v25.2773438
			h-5.8007813v-6.2929688h-0.140625c-2.1796875,4.1835938-6.8203125,6.9257813-11.7421875,6.9257813
			C425.4472656,418.1669922,420.5605469,413.7724609,420.5605469,407.1982422z M444.2910156,403.6474609v-2.9882813
			l-9.7734375,0.5976563c-4.921875,0.3164063-7.734375,2.4960938-7.734375,5.9414063
			c0,3.4804688,2.9179688,5.765625,7.3125,5.765625C439.8613281,412.9638672,444.2910156,408.9208984,444.2910156,403.6474609z"/>
		<path class="st10" d="M466.2636719,372.1474609v8.8242188h7.1015625v5.0273438h-7.1015625v21.7265625
			c0,3.3398438,1.40625,4.8515625,4.5351563,4.8515625c0.703125,0,2.109375-0.1054688,2.53125-0.1757813v5.1328125
			c-0.7382813,0.1757813-2.4257813,0.28125-3.8671875,0.28125c-6.7148438,0-9.3164063-2.7421875-9.3164063-9.7734375v-22.0429688
			h-5.4492188v-5.0273438h5.4492188v-8.8242188H466.2636719z"/>
		<path class="st10" d="M479.4472656,371.0224609c0-2.109375,1.7226563-3.796875,3.796875-3.796875
			c2.109375,0,3.8320313,1.6875,3.8320313,3.796875c0,2.0742188-1.7226563,3.796875-3.8320313,3.796875
			C481.1699219,374.8193359,479.4472656,373.0966797,479.4472656,371.0224609z M480.1855469,380.9716797h6.1171875v36.5625
			h-6.1171875V380.9716797z"/>
		<path class="st10" d="M492.7714844,399.2529297c0-11.671875,6.8203125-18.9140625,16.9453125-18.9140625
			c10.0898438,0,16.9101563,7.2421875,16.9101563,18.9140625c0,11.6367188-6.8203125,18.9140625-16.9101563,18.9140625
			C499.5917969,418.1669922,492.7714844,410.8896484,492.7714844,399.2529297z M520.4042969,399.2529297
			c0-8.6132813-4.21875-13.5351563-10.6875-13.5351563s-10.7226563,4.921875-10.7226563,13.5351563
			s4.2539063,13.5351563,10.7226563,13.5351563S520.4042969,407.8662109,520.4042969,399.2529297z"/>
	</g>
</g>
</svg>
