<?xml version="1.0" encoding="utf-8"?>
<!DOCTYPE svg PUBLIC "-//W3C//DTD SVG 1.1//EN" "http://www.w3.org/Graphics/SVG/1.1/DTD/svg11.dtd">
<svg version="1.1" id="Layer_1" xmlns="http://www.w3.org/2000/svg" viewBox="0 0 115 115">
<style type="text/css">
<![CDATA[
	.st0{fill:#FFFFFF;}
	.st1{fill:none;stroke:#FFFFFF;stroke-width:3;stroke-miterlimit:10;}
]]>
</style>
<g>
	<path class="st0" d="M50.4804688,63.0458984H26.890625l-6.6796875,17.6132813h-1.9335938l19.5117188-50.7304688h1.7929688
		L59.09375,80.6591797H57.125L50.4804688,63.0458984z M27.5234375,61.4287109h22.3242188L38.7734375,32.3544922h-0.1757813
		L27.5234375,61.4287109z"/>
	<path class="st0" d="M65.9140625,80.6591797H64.15625V29.9287109h15.7148438c10.125,0,16.3125,5.4140625,16.3125,14.3085938
		c0,7.3828125-4.5351563,12.5859375-12.1992188,13.921875l13.4296875,22.5H95.375l-13.21875-22.21875
		c-0.5976563,0.0351563-1.6171875,0.0703125-2.3203125,0.0703125h-13.921875V80.6591797z M65.9140625,56.8935547h13.921875
		c9.0703125,0,14.5898438-4.8164063,14.5898438-12.65625c0-7.9804688-5.5195313-12.65625-14.5898438-12.65625h-13.921875V56.8935547
		z"/>
</g>
<circle class="st1" cx="58" cy="58" r="50"/>

</svg>
