<?xml version="1.0" encoding="utf-8"?>
<!DOCTYPE svg PUBLIC "-//W3C//DTD SVG 1.1//EN" "http://www.w3.org/Graphics/SVG/1.1/DTD/svg11.dtd">
<svg version="1.1" id="Layer_1" xmlns="http://www.w3.org/2000/svg" viewBox="0 0 494.1113281 473.1606445">
<style type="text/css">
<![CDATA[
	.st0{fill:#464646;}
	.st1{fill:#E3E2DF;}
	.st2{fill:#4A4A4A;}
	.st3{fill:#FDFDFD;}
	.st4{fill:#D12323;}
	.st5{fill:#3C3C3C;}
	.st6{fill:#3D3D3D;}
	.st7{fill:#3E3E3E;}
	.st8{fill:#424242;}
	.st9{fill:#444444;}
]]>
</style>
<g>
	<path class="st5" d="M111.8696289,388.6000977c0,12.8261719,0.0771484,25.6523438-0.0507813,38.4746094
		c-0.034668,3.4765625-0.5893555,6.9589844-1.1181641,10.40625c-0.1591797,1.0410156-0.7988281,2.4257813-2.2426758,2.1992188
		c-1.0546875-0.1640625-1.3632813-1.3105469-1.6079102-2.3183594c-0.8803711-3.6289063-0.4536133-7.2949219-0.3725586-10.9511719
		c0.4350586-19.6445313,1.8671875-39.2792969,0.609375-58.9414063c-0.4672852-7.3164063-1.4082031-14.5644531-2.597168-21.8027344
		c-0.5898438-3.5898438-2.3320313-5.6328125-5.5947266-6.8632813c-3.8828125-1.4648438-7.7226563-3.0585938-11.5200195-4.7324219
		c-18.7827148-8.2832031-24.4692383-30.4492188-11.7416992-46.6289063
		c4.8168945-6.1230469,5.6621094-11.9726563,1.6865234-18.8027344c-4.6230469-7.9453125-6.4990234-16.6992188-6.1933594-25.8789063
		c0.1865234-5.5839844-1.0107422-10.6225586-5.3881836-14.4267578c-1.8481445-1.605957-1.5610352-3.0913086-0.2260742-4.7001953
		c1.7211914-2.0761719,3.4887695-4.2641602,3.5683594-7.0053711c0.5004883-17.1860352,6.5351563-33.5913086,6.9951172-50.793457
		c0.2583008-9.6479492,0.9150391-19.3217773,2.8251953-28.796875c3.6879883-18.2949219,25.6513672-39.2470703,44.0634766-41.972168
		c11.0371094-1.6337891,20.4711914-6.6137695,29.4472656-12.7856445c3.4506836-2.3730469,5.3823242-5.9077148,6.480957-9.8134766
		c0.8974609-3.1918945,1.347168-6.5078125,2.019043-9.7641602c0.5986328-2.9023438-0.2460938-7.9423828,2.8461914-7.8457031
		c2.5566406,0.0800781,1.9716797,5.3652344,2.1435547,8.4111328c0.7128906,12.6611328,0.6748047,12.7441406,12.6533203,8.6352539
		c7.3554688-2.5219727,14.9829102-3.2700195,22.6171875-3.347168c6.9677734-0.0693359,10.7294922-3.684082,12.9902344-9.6225586
		c1.3574219-3.565918,2.512207-7.2094727,3.7773438-10.8100586c0.3330078-0.9462891,0.7236328-1.9501953,1.9394531-1.9667969
		c1.1723633-0.015625,1.8173828,0.8837891,2.1254883,1.8242188c1.0839844,3.3129883,2.0986328,6.6503906,3.0556641,10.0024414
		c1.5029297,5.2612305,4.6806641,7.9199219,10.4042969,8.2314453c6.7924805,0.3701172,13.909668-0.4345703,20.2905273,1.9155273
		c5.3417969,1.96875,9.296875,1.9746094,13.1210938-2.3588867c1.3066406-1.4814453,3.0488281-1.0273438,4.5136719,0.09375
		c1.7167969,1.3125,3.5410156,2.5317383,5.0546875,4.0532227c4.15625,4.1762695,8.4902344,6.8251953,14.5625,3.6538086
		c2.5019531-1.3076172,4.5527344,0.3544922,5.9707031,2.3344727c2.03125,2.8349609,4.0371094,5.7260742,5.6796875,8.7929688
		c2.2255859,4.1518555,6.3583984,5.6938477,9.9638672,8c1.5859375,1.0146484,2.3691406-0.1835938,3.3671875-1.0683594
		c9.640625-8.5488281,20.5058594-14.6015625,33.3964844-16.769043c5.4355469-0.9130859,7.3964844-3.4868164,7.0039063-9.0927734
		c-0.2773438-3.9594727-1.2675781-7.8691406-1.921875-11.8041992c-0.7734375-4.637207-1.125-9.2636719,0.5410156-13.8046875
		c0.6523438-1.7822266,1.5800781-3.4726563,3.609375-3.7685547c2.1914063-0.3193359,3.8554688,0.9462891,5.0371094,2.6611328
		c2.3867188,3.4643555,2.6113281,7.4287109,2.5410156,11.4887695c-0.0878906,4.9711914-1.3417969,9.8754883-0.3144531,14.9257813
		C369.2148438,72.0239258,372.0273438,75.0073242,378.5,76.3125c4.6796875,0.9443359,9.28125,0.4179688,13.8984375-0.2246094
		c3.2402344-0.4501953,4.9648438-2.628418,5.5761719-5.6201172c0.7636719-3.7436523,1.1875-7.5556641,1.9023438-11.3100586
		c1.2753906-6.7055664,3.96875-9.6884766,7.9316406-8.9814453c4.7207031,0.8417969,6.5761719,4.605957,5.7832031,11.5083008
		c-0.5898438,5.1196289-1.3476563,10.2172852-0.8789063,15.4238281c0.328125,3.6538086,1.5722656,6.7822266,4.0683594,9.4140625
		c2.2890625,2.4135742,4.4082031,5.0693359,7.0136719,7.0888672c8.8339844,6.8496094,15.96875,15.0244141,20.8222656,25.1381836
		c1.4433594,3.0058594,3.90625,4.3383789,7.2285156,4.4233398c2.6191406,0.0664063,4.9453125,0.8164063,5.8320313,3.7446289
		c0.8613281,2.8388672,0.421875,5.7104492-1.890625,7.2709961c-5.6386719,3.8027344-4.5195313,8.6625977-3.5273438,14.1425781
		c2.6191406,14.4736328,2.2949219,28.7646484-4.5996094,42.2700195c-1.8769531,3.6762695-1.59375,6.7167969,2.5175781,8.6894531
		c1.0449219,0.5009766,2.0390625,1.1352539,2.984375,1.8110352c4.0195313,2.8759766,3.9296875,7.0131836-0.2871094,9.6357422
		c-1.5410156,0.9580078-3.3457031,1.4824219-4.9453125,2.3549805c-7.6445313,4.1655273-13.0019531,9.6943359-14.2441406,19.050293
		c-3.1308594,23.5786133-4.1699219,47.0825195-0.0800781,70.6411133c0.6289063,3.625,0.7734375,7.3164063,0.2578125,10.9570313
		c-0.4082031,2.8847656-1.8046875,4.9648438-5.2871094,4.6738281c-3.2910156-0.2753906-5.3027344-1.75-5.5390625-5.1894531
		c-0.1484375-2.1875,0.1855469-4.3027344,0.8886719-6.3847656c3.9453125-11.703125,2.0351563-23.359375-0.3535156-35
		c-0.6660156-3.2460938-2.7011719-5.0527344-5.9160156-6.0371094c-4.6328125-1.4179688-9.3671875-2.2089844-14.0957031-3.1445313
		c-6.2675781-1.2421875-7.4355469-4.75-2.9765625-9.3027344c3.3300781-3.4042969,5.7226563-6.5800781,2.0917969-11.1757813
		c-2.9921875-3.7871094-6.2636719-4.3046875-12.0371094-1.7128906c-2.7265625,1.2226563-5.4765625,2.3945313-8.1855469,3.6582031
		c-5.5625,2.5898438-6.0390625,7.1464844-1.140625,10.59375c4.9882813,3.5117188,4.9746094,4.4941406-0.1289063,7.9746094
		c-1.9257813,1.3125-3.8730469,2.5898438-5.796875,3.9023438c-3.5566406,2.4257813-5.2246094,5.3515625-3.1933594,9.7480469
		c2.3339844,5.0507813,0.9921875,9.453125-3.2128906,12.9335938c-4.1386719,3.4238281-6.4921875,7.453125-7.3554688,13.0175781
		c-1.5839844,10.1972656-4.8261719,20.0117188-9.5253906,29.2910156
		c-6.2871094,12.4121094-16.015625,20.7597656-29.4257813,24.390625
		c-7.6914063,2.0820313-15.5820313,3.4472656-23.4052734,5.0214844c-15.8300781,3.1796875-23.0585938,11.59375-24.3125,27.609375
		c-1.4589844,18.6464844-0.59375,37.3027344-0.8125,55.953125c-0.0351563,2.9902344,0.0664063,5.9941406-0.9082031,8.9101563
		c-0.5410156,1.6152344-0.9667969,3.4804688-2.9726563,3.4921875c-2.3125,0.015625-2.7871094-2.0546875-3.1894531-3.8496094
		c-0.8828125-3.9277344-0.9042969-7.9277344-0.921875-11.9316406c-0.0664063-16.8261719-0.1269531-33.6542969-0.2851563-50.4804688
		c-0.0273438-2.8125-0.2890625-5.671875-0.8652344-8.4199219c-1.2832031-6.1132813-5.4746094-9.4960938-11.5898438-9.7265625
		c-15.8110352-0.5917969-26.7631836,8.7890625-28.3007813,24.6875c-1.7329102,17.9238281-2.2753906,35.9023438-1.5629883,53.9101563
		c0.0981445,2.4804688-0.0727539,4.9824219-0.2646484,7.4609375c-0.1499023,1.9355469-0.7827148,3.7617188-3.1757813,3.7070313
		c-2.7202148-0.0605469-3.0532227-2.1445313-3.1054688-4.25c-0.3242188-12.9882813-0.6337891-25.9765625-0.9296875-38.9648438
		c-0.2080078-9.1621094-0.8120117-18.2851563-1.9296875-27.3925781c-1.0756836-8.7636719-5.796875-14.2128906-14.0654297-16.8847656
		c-2.5258789-0.8164063-5.0341797-1.7265625-7.4633789-2.7929688c-4.2045898-1.84375-8.1132813-1.9902344-12.3696289,0.3066406
		c-5.4487305,2.9394531-7.6982422,2.2226563-11.628418-2.5410156c-2.0126953-2.4394531-3.8393555-5.0546875-6.4233398-6.9472656
		c-4.8393555-3.5449219-8.8803711-2.4609375-11.0009766,3.1289063c-1.9594727,5.1660156-2.6826172,10.6269531-3.1513672,16.109375
		c-0.2836914,3.3203125-0.4052734,6.6542969-0.7895508,9.9609375c-0.1914063,1.6425781,0.3183594,4.3730469-2.3134766,4.0917969
		c-2.2998047-0.2460938-1.8764648-2.8203125-1.8496094-4.5683594c0.1274414-8.3203125,0.8984375-16.6308594,0.0102539-24.9628906
		c-0.7094727-6.6542969-2.5708008-12.5429688-8.0224609-17.0820313c-4.0825195-3.3984375-7.6435547-7.4492188-12.1328125-10.3652344
		c-5.9042969-3.8339844-9.3149414-2.4609375-10.5004883,4.5097656c-0.7504883,4.4082031-0.9272461,8.9492188-0.9848633,13.4355469
		c-0.1352539,10.4960938-0.043457,20.9921875-0.043457,31.4882813
		C111.5654297,388.6000977,111.7177734,388.6000977,111.8696289,388.6000977z"/>
	<path class="st5" d="M21.8632813,293.2036133c-6.4726563-0.3359375-11.097168-2.0039063-14.4472656-6.1367188
		c-3.09375-3.8144531-2.246582-7.7460938,2.0859375-9.8300781c10.4755859-5.0390625,21.081543-3.9570313,31.4194336,0.2128906
		c5.1176758,2.0625,5.4516602,6.3378906,0.8925781,8.9335938C35.2807617,290.1020508,28.0688477,292.0864258,21.8632813,293.2036133
		z"/>
	<path class="st6" d="M36.0830078,162.9746094c3.1835938-0.1005859,6.2695313,0.3583984,9.1938477,1.6679688
		c1.9355469,0.8662109,3.4418945,2.2192383,3.3857422,4.4580078c-0.0600586,2.4169922-1.6083984,4.0986328-3.8369141,4.644043
		c-5.7543945,1.4082031-11.2412109,0.1826172-16.1870117-2.8178711c-2.828125-1.7177734-2.3339844-5.0825195,0.6738281-6.78125
		C31.4140625,162.9580078,33.7529297,162.9404297,36.0830078,162.9746094z"/>
	<path class="st7" d="M49.4472656,144.3374023c-3.8041992,0.0146484-7.6445313-2.9799805-7.2832031-5.9213867
		c0.3632813-2.9536133,1.9799805-4.8759766,5.2768555-4.6279297c3.6225586,0.2734375,7.3061523,0.9555664,7.4892578,5.4609375
		C55.0629883,142.5083008,52.753418,144.2250977,49.4472656,144.3374023z"/>
	<path class="st8" d="M214.7177734,27.4106445c0.2207031-3.2739258,1.2158203-5.9575195,4.409668-5.9819336
		c3.3466797-0.0253906,4.1362305,2.7226563,4.0424805,5.6225586c-0.0952148,2.9418945-1.3911133,5.5629883-4.3925781,5.6640625
		C215.362793,32.831543,215.0458984,29.6835938,214.7177734,27.4106445z"/>
	<path class="st9" d="M488.015625,129.4956055c-0.4199219,2.3647461-1.7421875,3.6108398-4.0449219,3.6088867
		c-2.2714844-0.0029297-3.9082031-1.0810547-3.9296875-3.4672852c-0.0195313-2.2158203,1.7558594-3.1572266,3.640625-3.3012695
		C485.8769531,126.1679688,487.3945313,127.3618164,488.015625,129.4956055z"/>
	<path class="st0" d="M45.1396484,225.7851563c-0.7446289,1.9296875-1.7783203,3.3657227-3.7114258,2.8168945
		c-1.840332-0.5219727-3.2392578-2.0629883-2.9082031-4.0717773c0.2407227-1.4633789,1.5249023-2.7163086,3.2929688-2.3364258
		C43.7607422,222.6108398,44.8530273,223.9912109,45.1396484,225.7851563z"/>
	<path class="st2" d="M391.3144531,297.4516602c-0.0488281,1.9824219-0.9960938,3.1015625-3.0449219,2.8496094
		c-2.1503906-0.2636719-3.1191406-1.765625-2.9160156-3.7636719c0.1738281-1.7148438,1.1972656-3.3535156,3.1152344-3.0546875
		C390.3964844,293.7836914,391.4023438,295.3793945,391.3144531,297.4516602z"/>
	<path class="st0" d="M372.2148438,11.7993164c-0.2734375,1.6420898-1.0585938,3.1450195-3.0878906,2.9194336
		c-1.7539063-0.1953125-2.2949219-1.6201172-2.1621094-3.3041992c0.1425781-1.7939453,1.2695313-2.7475586,2.875-2.7885742
		C371.7226563,8.5791016,372.2636719,9.9780273,372.2148438,11.7993164z"/>
	<path class="st4" d="M195.3149414,117.1005859c13.9975586-0.0019531,27.9956055,0.0117188,41.9926758-0.0107422
		c4.0024414-0.0058594,7.9975586-0.1318359,11.7910156,1.5283203c0.7265625,0.3168945,1.6621094,0.519043,2.4121094,0.3608398
		c19.3007813-4.0766602,38.8183594-0.9233398,58.2119141-1.7885742c0.984375-0.0439453,1.9941406,0.1289063,2.96875,0.3173828
		c14.7890625,2.8637695,24.0566406,13.84375,24.3046875,29.1748047c0.1914063,11.8286133,0.6171875,23.6962891-0.078125,35.4858398
		c-1.140625,19.3305664,0.421875,38.6103516,0.1816406,57.9160156c-0.2421875,19.4941406-0.2480469,38.9960938,0.015625,58.4882813
		c0.171875,12.7285156-2.0761719,24.1347656-14.6679688,30.3574219
		c-13.8789063,6.8613281-27.5048828,5.8066406-40.1083984-3.1992188c-11.7167969-8.3730469-21.0898438-19.3496094-31.1699219-29.5
		c-3.2070313-3.2304688-4.949707-3.359375-8.1884766-0.03125c-10.5712891,10.859375-21.4960938,21.375-32.3208008,31.9882813
		c-3.5131836,3.4453125-7.9140625,4.8496094-12.7290039,4.8632813c-15.8305664,0.046875-31.6625977,0.1289063-47.4916992-0.0234375
		c-17.0571289-0.1640625-28.9199219-11.7636719-29.2724609-28.9941406
		c-0.3305664-16.15625-0.1459961-32.3261719-0.0493164-48.4902344c0.03125-5.2246094,2.2866211-9.6113281,5.9956055-13.3027344
		c10.394043-10.3442383,20.6352539-20.8447266,31.1850586-31.0268555c3.0258789-2.9199219,3.5087891-4.4926758,0.171875-7.7089844
		c-9.109375-8.7792969-18.3295898-17.4833984-26.6196289-27.0766602
		c-9.5634766-11.0678711-13.3422852-23.6376953-9.3935547-38.0170898
		c3.65625-13.3115234,13.5683594-20.9277344,27.3662109-21.2802734c0.4995117-0.0126953,0.9995117-0.0273438,1.4995117-0.0273438
		C165.9863281,117.1015625,180.6508789,117.1015625,195.3149414,117.1005859z"/>
	<path class="st3" d="M415.7753906,250.2036133c-4.4707031-0.0488281-6.40625-2.5410156-6.3144531-8.1171875
		c0.0742188-4.4667969,2.6953125-6.9799805,7.25-6.9487305c3.8164063,0.0253906,6.0664063,3.3081055,5.9511719,8.6831055
		C422.5605469,248.5395508,420.7050781,250.2583008,415.7753906,250.2036133z"/>
	<path class="st1" d="M285.0791016,135.097168c7.1640625,0.0009766,14.328125-0.0732422,21.4912109,0.0214844
		c7.6933594,0.1015625,12.3105469,4.355957,12.4101563,11.996582c0.1972656,15.1572266,0.0253906,30.3203125,0.1113281,45.4804688
		c0.0117188,2.0712891-0.8710938,3.390625-2.2207031,4.7387695
		c-38.5400391,38.5043945-77.0698242,77.0195313-115.5454102,115.5898438
		c-1.7084961,1.7128906-3.4707031,2.1972656-5.7617188,2.1855469c-14.4941406-0.0703125-28.9887695,0-43.4829102-0.0488281
		c-8.4262695-0.0292969-12.9194336-4.4570313-12.9794922-12.9941406
		c-0.1035156-14.6621094,0.0136719-29.3242188-0.0771484-43.984375c-0.0136719-2.2070313,0.7504883-3.7148438,2.2631836-5.2246094
		c38.5522461-38.4921875,77.0791016-77.0107422,115.5551758-115.5791016
		c1.6992188-1.7041016,3.4394531-2.2548828,5.7460938-2.2226563
		C270.0830078,135.1625977,277.5810547,135.0961914,285.0791016,135.097168z"/>
	<path class="st1" d="M240.4189453,135.8452148c-20.1469727,20.1235352-40.0922852,40.0009766-59.9545898,59.9614258
		c-1.8261719,1.8344727-2.8867188,1.9672852-4.7587891,0.0449219
		c-9.8798828-10.1484375-19.9355469-20.1235352-29.8496094-30.2387695
		c-5.1611328-5.265625-7.6538086-11.5112305-6.7963867-19.050293c0.7836914-6.8916016,4.7988281-11.3745117,11.543457-11.3959961
		c29.6591797-0.0927734,59.3178711,0.0048828,88.9775391,0.0449219
		C239.6958008,135.2114258,239.8110352,135.378418,240.4189453,135.8452148z"/>
	<path class="st1" d="M319.0234375,213.1040039c0,31.1679688,0.0644531,60.8085938-0.0488281,90.4472656
		c-0.0253906,6.7050781-4.5195313,10.7910156-11.4101563,11.5253906
		c-6.7021484,0.7148438-12.7138672-0.9511719-17.5087891-5.5351563
		c-10.8378906-10.3574219-21.3964844-21.0078125-32.1113281-31.4960938
		c-1.3046875-1.2792969-1.6601563-2.1992188-0.1914063-3.6660156
		C277.8857422,254.2973633,297.9736328,234.1708984,319.0234375,213.1040039z"/>
</g>
</svg>
