<?xml version="1.0" encoding="utf-8"?>
<!DOCTYPE svg PUBLIC "-//W3C//DTD SVG 1.1//EN" "http://www.w3.org/Graphics/SVG/1.1/DTD/svg11.dtd">
<svg version="1.1" id="games" xmlns="http://www.w3.org/2000/svg" viewBox="200 0 560 560">
<style type="text/css">
<![CDATA[
	.st0{fill:url(#SVGID_1_);}
	.st1{fill:#FFFFFF;}
]]>
</style>
<linearGradient id="SVGID_1_" gradientUnits="userSpaceOnUse" x1="229.2426758" y1="210.8144531" x2="229.2426605" y2="722.8149414" gradientTransform="matrix(1.09375 0 0 1.09375 229.265625 -230.578125)">
	<stop  offset="0" style="stop-color:#F4B113"/>
	<stop  offset="0.1749831" style="stop-color:#EBAB15"/>
	<stop  offset="0.4659598" style="stop-color:#D19A19"/>
	<stop  offset="0.8347928" style="stop-color:#A88020"/>
	<stop  offset="0.994382" style="stop-color:#947323"/>
</linearGradient>
<rect x="200" class="st0" width="560" height="560"/>
<g>
	<path class="st1" d="M365.628418,243.7607422v80.5361328h-36.7060547V102.2036133h67.371582
		c25.5009766,0,45.2744141,5.9389648,59.3173828,17.8110352c14.0410156,11.8745117,21.0634766,28.6015625,21.0634766,50.1796875
		c0,21.581543-7.3320313,39.2373047-21.9921875,52.9682617c-14.6630859,13.7329102-34.4873047,20.5981445-59.4726563,20.5981445
		H365.628418z M365.628418,132.5595703v81.1552734h23.8510742c15.796875,0,27.8242188-3.6635742,36.0859375-10.9960938
		c8.2597656-7.3300781,12.390625-17.65625,12.390625-30.9755859c0-26.1206055-15.1777344-39.1835938-45.5341797-39.1835938
		H365.628418z"/>
	<path class="st1" d="M504.0878906,315.46875v-37.9448242c3.4072266,3.097168,7.4589844,5.8852539,12.1582031,8.3637695
		c4.6972656,2.4775391,9.6796875,4.5693359,14.9453125,6.2714844c5.265625,1.7050781,10.53125,3.0205078,15.7978516,3.9501953
		c5.265625,0.9296875,10.1181641,1.3945313,14.5576172,1.3945313c15.4882813,0,27.0263672-2.5800781,34.6162109-7.7441406
		c7.5878906-5.1621094,11.3828125-12.6469727,11.3828125-22.4575195c0-5.265625-1.265625-9.8344727-3.7949219-13.706543
		c-2.5302734-3.8720703-6.0664063-7.4072266-10.6083984-10.6088867c-4.5449219-3.1992188-9.8876953-6.2729492-16.0302734-9.215332
		c-6.1445313-2.9428711-12.7255859-6.0136719-19.7470703-9.215332c-7.5371094-4.0268555-14.5576172-8.1040039-21.0625-12.2353516
		c-6.5048828-4.1279297-12.1582031-8.6967773-16.9589844-13.706543c-4.8017578-5.0068359-8.5712891-10.659668-11.3066406-16.9589844
		c-2.7363281-6.2963867-4.1035156-13.6796875-4.1035156-22.1474609c0-10.4272461,2.3476563-19.4873047,7.046875-27.1806641
		c4.6962891-7.6904297,10.8916016-14.0405273,18.5859375-19.0498047
		c7.6894531-5.0068359,16.4394531-8.7236328,26.2509766-11.1513672c9.8076172-2.4243164,19.8242188-3.6391602,30.0458984-3.6391602
		c23.2314453,0,40.1640625,2.6328125,50.7988281,7.8984375V142.78125
		c-12.5976563-9.0839844-28.8066406-13.6289063-48.6308594-13.6289063c-5.4736328,0-10.9189453,0.5180664-16.3388672,1.5488281
		c-5.421875,1.0332031-10.2753906,2.7368164-14.5585938,5.1108398c-4.2861328,2.3764648-7.7705078,5.4204102-10.4541016,9.1376953
		c-2.6865234,3.7167969-4.0273438,8.2084961-4.0273438,13.4741211c0,4.9560547,1.03125,9.2421875,3.0976563,12.8549805
		c2.0644531,3.6152344,5.0839844,6.918457,9.0595703,9.9121094c3.9746094,2.9960938,8.8291016,5.9121094,14.5585938,8.7504883
		c5.7314453,2.8413086,12.3642578,5.9121094,19.9023438,9.2148438c7.7431641,4.0268555,15.0478516,8.262207,21.9140625,12.7001953
		c6.8662109,4.4404297,12.90625,9.3457031,18.1220703,14.7133789c5.2119141,5.3696289,9.3427734,11.3325195,12.3896484,17.8881836
		c3.0439453,6.5581055,4.5683594,14.0161133,4.5683594,22.3793945c0,11.2553711-2.2714844,20.7543945-6.8144531,28.4975586
		c-4.5449219,7.7431641-10.6621094,14.0419922-18.3535156,18.8945313
		c-7.6923828,4.8544922-16.546875,8.3632813-26.5605469,10.5322266c-10.015625,2.1679688-20.5986328,3.2519531-31.75,3.2519531
		c-3.7167969,0-8.2861328-0.2851563-13.7060547-0.8525391c-5.421875-0.5673828-10.9726563-1.3925781-16.6494141-2.4775391
		c-5.6796875-1.0830078-11.0498047-2.4003906-16.1074219-3.9492188
		C511.2636719,319.1855469,507.1855469,317.4306641,504.0878906,315.46875z"/>
</g>
<g>
	<path class="st1" d="M270.2851563,488.6015625c-30.1640625,0-48.65625-20.25-48.65625-53.4375
		c0-32.6953125,18.6328125-53.2265625,48.1640625-53.2265625c23.9765625,0,41.625,13.8515625,44.578125,34.9453125h-21.09375
		c-3.1640625-10.265625-11.671875-16.2421875-23.484375-16.2421875c-16.3828125,0-26.4375,13.0078125-26.4375,34.3125
		c0,21.7265625,10.546875,34.9453125,27.28125,34.9453125c13.921875,0,23.5546875-8.2265625,23.9765625-20.4609375
		l0.0703125-1.828125h-22.0078125v-15.9609375h42.609375v12.9375
		C315.2851563,471.7265625,297.9882813,488.6015625,270.2851563,488.6015625z"/>
	<path class="st1" d="M390.6601563,461.8125h-35.6484375L347.2070313,486h-21.3046875l35.2265625-101.4609375h24.9609375
		L421.3164063,486h-22.9921875L390.6601563,461.8125z M359.5820313,445.4296875h26.578125l-12.5859375-39.796875h-1.265625
		L359.5820313,445.4296875z"/>
	<path class="st1" d="M526.3632813,486v-67.8515625h-1.125l-25.8046875,62.015625h-14.1328125l-25.875-62.015625h-1.125V486
		h-19.6875V384.5390625h25.03125l28.0546875,68.203125h1.265625l28.125-68.203125h24.9609375V486H526.3632813z"/>
	<path class="st1" d="M637.8789063,486h-67.21875V384.5390625h67.21875v18.140625h-45.984375V426.375h43.3828125v16.8046875
		h-43.3828125v24.6796875h45.984375V486z"/>
	<path class="st1" d="M676.1992188,457.8046875c0.984375,8.2265625,9.28125,13.5,21.234375,13.5
		c11.0390625,0,18.84375-5.34375,18.84375-13.0078125c0-6.46875-5.0625-10.1953125-17.5078125-12.8671875l-13.21875-2.8125
		c-18.4921875-3.8671875-27.5625-13.5-27.5625-28.96875c0-19.125,15.3984375-31.7109375,38.8125-31.7109375
		c22.359375,0,38.1796875,12.515625,38.8125,30.5859375h-19.96875c-0.984375-8.015625-8.4375-13.359375-18.703125-13.359375
		c-10.6171875,0-17.6484375,4.921875-17.6484375,12.65625c0,6.2578125,4.8515625,9.84375,16.734375,12.375l12.234375,2.6015625
		c20.390625,4.2890625,29.1796875,13.078125,29.1796875,28.828125c0,20.4609375-15.6796875,32.9765625-41.1328125,32.9765625
		c-24.1875,0-39.8671875-11.8828125-40.640625-30.796875H676.1992188z"/>
</g>
</svg>
