<?xml version="1.0" encoding="utf-8"?>
<!DOCTYPE svg PUBLIC "-//W3C//DTD SVG 1.1//EN" "http://www.w3.org/Graphics/SVG/1.1/DTD/svg11.dtd">
<svg version="1.1" id="Layer_1" xmlns="http://www.w3.org/2000/svg" viewBox="200 90 512 512">
<style type="text/css">
<![CDATA[
	.st0{fill:url(#SVGID_1_);}
	.st1{fill:#FFFFFF;}
]]>
</style>
<linearGradient id="SVGID_1_" gradientUnits="userSpaceOnUse" x1="187.4868164" y1="582.1152344" x2="187.4868011" y2="153.7949219" gradientTransform="matrix(1.1953671 0 0 -1.1953671 231.8857117 785.8401489)">
	<stop  offset="0" style="stop-color:#0C4C9B"/>
	<stop  offset="0.2767" style="stop-color:#104A92"/>
	<stop  offset="0.7351" style="stop-color:#1A4678"/>
	<stop  offset="0.9944" style="stop-color:#214367"/>
</linearGradient>
<rect x="200" y="90" class="st0" width="512" height="512"/>
<path class="st1" d="M482.4335938,365.5708008c0,0-32.2695313,38.8891602-30.6171875,41.3686523
	c2.2890625-2.4794922-11.5878906-41.7861328-11.5878906-41.7861328s-2.890625-8.2739258-11.9804688-35.3574219h-32.8925781
	v-0.215332l-79.828125,0.215332h-60.2006836l-6.0097656,25.4306641h45.3178711h10.7519531
	c29.1503906,0,46.9511719,11.793457,41.9785156,32.6875c-5.3691406,22.7539063-30.8125,32.4746094-57.9145508,32.4746094
	h-10.1367188l13.0317383-55.6430664h-45.3007813l-19.2353516,81.2788086h64.3291016
	c48.3984375,0,94.3125-25.4345703,102.59375-58.1103516c1.4472656-6,1.2441406-21.0996094-2.4765625-29.9946289
	c0-0.2119141-0.2109375-0.6206055-0.4160156-1.2348633c-0.2050781-0.2094727-0.4179688-1.6601563,0.4160156-1.8720703
	c0.4082031-0.203125,1.234375,0.6230469,1.234375,0.8339844c0,0,0.4179688,1.0380859,0.8242188,1.8657227l40.9511719,115.6166992
	l104.2636719-117.6923828l44.0488281-0.2075195h10.7578125c29.171875,0,47.1660156,11.7929688,42.1953125,32.6870117
	c-5.3886719,22.7539063-31.0175781,32.4746094-58.1191406,32.4746094h-10.3535156l13.2441406-55.6425781h-45.296875
	l-19.2382813,81.2792969h64.3320313c48.3964844,0,94.71875-25.4355469,102.3789063-58.1113281
	c7.859375-32.6870117-26.0605469-58.1166992-74.8808594-58.1166992H566h-53.3691406
	C487.203125,359.7744141,482.4335938,365.5708008,482.4335938,365.5708008L482.4335938,365.5708008z"/>
<g>
	<path class="st1" d="M512.6308594,309.7993164h9.671875l51.4570313-91.4355469h-33.4609375l-46.8095703,92.8657227
		c-1.3154297,2.6328125-2.4296875,5.0766602-3.3369141,7.3320313c-0.9101563,2.2553711-1.6445313,4.2929688-2.2089844,6.1103516
		h-0.7519531c0.3759766-1.9423828,0.5478516-4.0561523,0.5166016-6.3452148
		c-0.03125-2.2861328-0.140625-4.5268555-0.328125-6.7207031l-9.1171875-93.2421875h-31.1123047l17.2949219,134.7875977h11.78125
		c3.6435547-4.4916992,6.2070313-7.5805664,6.2070313-7.5805664S487.203125,339.7744141,512.6308594,309.7993164z"/>
	<polygon class="st1" points="350.6650391,309.7011719 381.2685547,309.6186523 395.359375,243.0844727 433.3330078,243.0844727 
		438.6914063,218.3637695 331.6308594,218.3637695 326.2734375,243.0844727 364.7167969,243.0844727 	"/>
</g>
</svg>
