<?xml version="1.0" encoding="utf-8"?>
<!DOCTYPE svg PUBLIC "-//W3C//DTD SVG 1.1//EN" "http://www.w3.org/Graphics/SVG/1.1/DTD/svg11.dtd">
<svg version="1.1" id="games" xmlns="http://www.w3.org/2000/svg" viewBox="200 0 560 560">
<style type="text/css">
<![CDATA[
	.st0{fill:url(#SVGID_1_);}
	.st1{fill:#FFFFFF;}
]]>
</style>
<linearGradient id="SVGID_1_" gradientUnits="userSpaceOnUse" x1="229.2426758" y1="210.8144531" x2="229.2426605" y2="722.8149414" gradientTransform="matrix(1.09375 0 0 1.09375 229.265625 -230.578125)">
	<stop  offset="0" style="stop-color:#F4B113"/>
	<stop  offset="0.1749831" style="stop-color:#EBAB15"/>
	<stop  offset="0.4659598" style="stop-color:#D19A19"/>
	<stop  offset="0.8347928" style="stop-color:#A88020"/>
	<stop  offset="0.994382" style="stop-color:#947323"/>
</linearGradient>
<rect x="200" class="st0" width="560" height="560"/>
<g>
	<path class="st1" d="M555.453125,102.2036133L494.5869141,324.296875h-41.6621094l-42.28125-155.3413086
		c-1.7568359-6.6064453-2.8408203-13.8349609-3.2519531-21.6826172h-0.6201172
		c-0.5175781,7.3325195-1.7568359,14.456543-3.7167969,21.3730469L360.6186523,324.296875H318.027832l-62.105957-222.0932617
		h40.4228516l40.2680664,162.6206055c1.6503906,6.8144531,2.6835938,13.9389648,3.0976563,21.3730469h0.7744141
		c0.4111328-5.265625,1.8583984-12.3901367,4.3364258-21.3730469l45.5336914-162.6206055h37.9448242l42.1259766,163.8598633
		c1.4453125,5.5751953,2.5292969,12.184082,3.2529297,19.8242188h0.6191406
		c0.3105469-5.1611328,1.4960938-11.9765625,3.5625-20.4438477l39.4931641-163.2402344H555.453125z"/>
	<path class="st1" d="M600.3681641,132.4047852c-5.8857422,0-10.9189453-1.909668-15.1015625-5.7304688
		c-4.1806641-3.8188477-6.2714844-8.6733398-6.2714844-14.5585938s2.0908203-10.7880859,6.2714844-14.7133789
		c4.1826172-3.9223633,9.2158203-5.8852539,15.1015625-5.8852539c6.0908203,0,11.2519531,1.9628906,15.4873047,5.8852539
		c4.2333984,3.925293,6.3496094,8.828125,6.3496094,14.7133789c0,5.5756836-2.1162109,10.3530273-6.3496094,14.3261719
		C611.6201172,130.4179688,606.4589844,132.4047852,600.3681641,132.4047852z M618.1787109,324.296875h-35.9316406v-158.59375
		h35.9316406V324.296875z"/>
	<path class="st1" d="M683.2265625,132.4047852c-5.8847656,0-10.9179688-1.909668-15.1005859-5.7304688
		c-4.1806641-3.8188477-6.2724609-8.6733398-6.2724609-14.5585938s2.0917969-10.7880859,6.2724609-14.7133789
		c4.1826172-3.9223633,9.2158203-5.8852539,15.1005859-5.8852539c6.0917969,0,11.2529297,1.9628906,15.4882813,5.8852539
		c4.2324219,3.925293,6.3496094,8.828125,6.3496094,14.7133789c0,5.5756836-2.1171875,10.3530273-6.3496094,14.3261719
		C694.4794922,130.4179688,689.3183594,132.4047852,683.2265625,132.4047852z M701.0380859,324.296875h-35.9316406v-158.59375
		h35.9316406V324.296875z"/>
</g>
<g>
	<path class="st1" d="M270.7436523,489.6416016c-30.1640625,0-48.65625-20.25-48.65625-53.4375
		c0-32.6953125,18.6328125-53.2265625,48.1640625-53.2265625c23.9765625,0,41.625,13.8515625,44.578125,34.9453125h-21.09375
		c-3.1640625-10.265625-11.671875-16.2421875-23.484375-16.2421875c-16.3828125,0-26.4375,13.0078125-26.4375,34.3125
		c0,21.7265625,10.546875,34.9453125,27.28125,34.9453125c13.921875,0,23.5546875-8.2265625,23.9765625-20.4609375
		l0.0703125-1.828125h-22.0078125v-15.9609375h42.609375v12.9375
		C315.7436523,472.7666016,298.4467773,489.6416016,270.7436523,489.6416016z"/>
	<path class="st1" d="M391.1186523,462.8525391h-35.6484375l-7.8046875,24.1875h-21.3046875l35.2265625-101.4609375h24.9609375
		l35.2265625,101.4609375h-22.9921875L391.1186523,462.8525391z M360.0405273,446.4697266h26.578125l-12.5859375-39.796875
		h-1.265625L360.0405273,446.4697266z"/>
	<path class="st1" d="M526.8222656,487.0400391v-67.8515625h-1.125l-25.8046875,62.015625h-14.1328125l-25.8754883-62.015625h-1.125
		v67.8515625h-19.6875V385.5791016h25.03125l28.0551758,68.203125h1.265625l28.125-68.203125h24.9609375v101.4609375H526.8222656z"
		/>
	<path class="st1" d="M638.3378906,487.0400391h-67.21875V385.5791016h67.21875v18.140625h-45.984375v23.6953125h43.3828125
		v16.8046875h-43.3828125v24.6796875h45.984375V487.0400391z"/>
	<path class="st1" d="M676.6582031,458.8447266c0.984375,8.2265625,9.28125,13.5,21.234375,13.5
		c11.0390625,0,18.84375-5.34375,18.84375-13.0078125c0-6.46875-5.0625-10.1953125-17.5078125-12.8671875l-13.21875-2.8125
		c-18.4921875-3.8671875-27.5625-13.5-27.5625-28.96875c0-19.125,15.3984375-31.7109375,38.8125-31.7109375
		c22.359375,0,38.1796875,12.515625,38.8125,30.5859375h-19.96875c-0.984375-8.015625-8.4375-13.359375-18.703125-13.359375
		c-10.6171875,0-17.6484375,4.921875-17.6484375,12.65625c0,6.2578125,4.8515625,9.84375,16.734375,12.375l12.234375,2.6015625
		c20.390625,4.2890625,29.1796875,13.078125,29.1796875,28.828125c0,20.4609375-15.6796875,32.9765625-41.1328125,32.9765625
		c-24.1875,0-39.8671875-11.8828125-40.640625-30.796875H676.6582031z"/>
</g>
</svg>
