<?xml version="1.0" encoding="utf-8"?>
<!-- Generator: Adobe Illustrator 16.0.2, SVG Export Plug-In . SVG Version: 6.00 Build 0)  -->
<!DOCTYPE svg PUBLIC "-//W3C//DTD SVG 1.1//EN" "http://www.w3.org/Graphics/SVG/1.1/DTD/svg11.dtd">
<svg version="1.1" id="Layer_1" xmlns="http://www.w3.org/2000/svg" viewBox="0 0 512 512">
<style type="text/css">
<![CDATA[
	.st0{fill:#853A25;}
	.st1{fill:#F2E3BD;}
	.st2{fill:#D34329;}
]]>
</style>
<g>
	<g>
		<polygon class="st0" points="247.2558594,188.6816406 266.0175781,208.9785156 289.5214844,200.2597656 281.8027344,168.3847656 
					"/>
		<g>
			<g>
				<g>
					<path class="st2" d="M283.8964844,126.1972656c-11.796875-24.0078125-55.8359375-70.6953125-76.7734375-60.4023438
						s-10.8476563,73.671875,0.9609375,97.6875c11.8085938,24.0078125,38.3515625,35.1289063,59.2851563,24.8320313
						C288.3105469,178.0214844,295.7050781,150.2128906,283.8964844,126.1972656z"/>
				</g>
			</g>
		</g>
	</g>
	<g>
		<polygon class="st0" points="150.6503906,340.3417969 178.1230469,337.2753906 185.0371094,313.1777344 154.7988281,300.4902344 
					"/>
		<g>
			<g>
				<g>
					<path class="st2" d="M122.0761719,273.7832031c-26.3359375-4.734375-90.0429688,3.03125-94.171875,25.9921875
						c-4.125,22.9648438,52.8867188,52.4335938,79.2226563,57.1601563
						c26.3359375,4.7382813,51.0351563-10.0390625,55.1601563-33.0078125
						C166.4160156,300.9667969,148.4121094,278.5136719,122.0761719,273.7832031z"/>
				</g>
			</g>
		</g>
	</g>
	<g>
		<polygon class="st0" points="368.5644531,157.1894531 340.9472656,158.4863281 332.4980469,182.0878906 361.8613281,196.6933594 
					"/>
		<g>
			<g>
				<g>
					<path class="st2" d="M392.8105469,225.4433594c25.9765625,6.4179688,90.046875,2.7617188,95.640625-19.890625
						c5.59375-22.6484375-49.4140625-55.7148438-75.3945313-62.125
						c-25.9765625-6.4179688-51.5664063,6.7421875-57.1640625,29.390625
						C350.2988281,195.4667969,366.8300781,219.0292969,392.8105469,225.4433594z"/>
				</g>
			</g>
		</g>
	</g>
	<g>
		<polygon class="st0" points="246.1660156,255.9824219 221.9082031,242.7324219 202.4199219,258.4941406 219.9003906,286.2363281 
					"/>
		<g>
			<g>
				<g>
					<path class="st2" d="M231.3730469,326.8886719c18.8476563,18.9960938,75.4765625,49.1953125,92.0390625,32.7578125
						c16.5546875-16.4335938-13.2304688-73.2890625-32.0742188-92.2773438
						c-18.8515625-18.9882813-47.5625-21.0625-64.1171875-4.6171875
						C210.6621094,279.1816406,212.5175781,307.9003906,231.3730469,326.8886719z"/>
				</g>
			</g>
		</g>
	</g>
	<g>
		<polygon class="st0" points="200.3066406,402.2285156 173.3652344,396.0644531 158.8847656,416.5214844 183.2402344,438.4746094 
					"/>
		<g>
			<g>
				<g>
					<path class="st2" d="M205.3144531,474.4902344c23.296875,13.1601563,86,26.8554688,97.4726563,6.5390625
						c11.4804688-20.3125-32.6210938-66.9414063-55.921875-80.0976563
						c-23.2929688-13.1640625-51.484375-7.3671875-62.9570313,12.9453125
						C172.4316406,434.1933594,182.0175781,461.3261719,205.3144531,474.4902344z"/>
				</g>
			</g>
		</g>
	</g>
	<g>
		<path class="st1" d="M329.1660156,17.0175781c-4.5039063,6.2148438-7.8632813,13.234375-9.7148438,20.3867188
			c-5.6289063,21.7773438-0.6171875,43.46875,3.8242188,62.6015625c3.75,16.2226563,8,34.6054688,3.6601563,50.5820313
			c-7.7148438,28.4023438-39.8203125,44.46875-69.3125,57.3125c-34.8398438,15.15625-72.9414063,34.5117188-84.2304688,72.5859375
			c-4.5742188,15.4453125-3.6210938,30.7773438-2.6992188,45.5976563c0.6914063,11.0742188,1.34375,21.5234375-0.3398438,31.3125
			c-3.7539063,21.8789063-20.5234375,42.8789063-44.859375,56.1875c-17.015625,9.3046875-36.3164063,14.59375-54.9960938,18.2421875
			l5.0195313,24.390625c1.1679688-0.2265625,2.3085938-0.4101563,3.484375-0.6484375
			c19.5351563-4.015625,39.8046875-9.9101563,58.453125-20.109375c30.9570313-16.921875,52.4414063-44.5273438,57.4765625-73.84375
			c2.1757813-12.6484375,1.3984375-25.0703125,0.65625-37.0820313c-0.828125-13.2421875-1.6054688-25.75,1.7148438-36.9609375
			c8.234375-27.7929688,39.2304688-43.3085938,70.265625-56.8125
			c37.3632813-16.2539063,73.3242188-36.4296875,83.4335938-73.6367188
			c5.9804688-22.0234375,0.7539063-44.5976563-3.4335938-62.7382813c-3.9726563-17.1484375-8.0820313-34.875-3.9726563-50.7265625
			c1.1054688-4.2734375,3.171875-8.5039063,5.8789063-12.1992188
			C342.5996094,26.7871094,335.7910156,22.0253906,329.1660156,17.0175781z"/>
	</g>
</g>
</svg>
