<?xml version="1.0" encoding="utf-8"?>
<!DOCTYPE svg PUBLIC "-//W3C//DTD SVG 1.1//EN" "http://www.w3.org/Graphics/SVG/1.1/DTD/svg11.dtd">
<svg version="1.1" id="Layer_1" xmlns="http://www.w3.org/2000/svg" viewBox="0 0 512 512">
<style type="text/css">
<![CDATA[
	.st0{fill:#909090;}
	.st1{fill:#FFFFFF;}
]]>
</style>
<g>
	<g>
		<g>
			<path class="st0" d="M266.8300781,148.9257813l-8.5664063-64.2773438
				c20.2792969-4.0546875,43.6855469-1.2519531,69.6542969,13.4570313l-36.2265625,54.6796875
				c-7.8828125-5.296875-16.2109375-5.5703125-24.5761719-2.8046875L266.8300781,148.9257813z"/>
			<path class="st0" d="M305.3867188,169.1210938l55.5390625-34.4140625l2.734375-1.2109375
				c7.921875,17.4140625,8.6171875,38.375,4.296875,61.1210938l-1.1015625-0.1992188l-60.9296875,7.6015625l-2.90625-0.828125
				c3.5859375-11.9375,4.328125-22.75,1.3203125-31.7851563L305.3867188,169.1210938z"/>
			<path class="st0" d="M285.6835938,238.9179688l70.171875-3.5898438
				c-5.46875,13.8476563-12.1953125,28.0039063-19.796875,42.1367188l-2.3515625-1.265625l-75.4082031,2.9609375
				C268.5839844,265.5820313,278.0898438,251.9804688,285.6835938,238.9179688z"/>
			<path class="st0" d="M307.3164063,319l2.90625,1.90625c-9.53125,14.4921875-19.4765625,28.6171875-29.5,41.8867188
				l-1.25-0.9609375l-88.4433594-3.28125l-0.84375-0.7070313c11.296875-11.9960938,23.4726563-25.25,35.40625-38.9609375
				l1.7929688,1.5117188L307.3164063,319z"/>
			<path class="st0" d="M232.3261719,421.5273438l-96.703125-6.1757813l-0.2109375-0.1835938
				c3.515625-4.6054688,13.78125-14.9570313,27.5429688-29.109375l0.8476563,0.796875l88.0078125,9.6640625l1.375,1.1445313
				c-7.28125,8.7382813-14.2265625,16.7578125-20.75,23.9570313L232.3261719,421.5273438z"/>
			<path class="st0" d="M207.6621094,110.4394531l28.6679688,60.4160156
				c-16.5273438,16.0625-29.2929688,34.9375-32.0820313,35.5703125c-5.75,1.359375-31.625-27.2382813-32.7617188-47.5742188
				C171.3027344,155.5507813,184.2636719,130.7929688,207.6621094,110.4394531z"/>
			<path class="st1" d="M207.6621094,110.4394531c13.5742188-11.7089844,30.5859375-22.0449219,50.6015625-25.7910156
				l8.5664063,64.2773438l0.2851563,1.0546875c-10.6640625,3.34375-21.296875,11.671875-30.7851563,20.875L207.6621094,110.4394531z
				"/>
			<path class="st1" d="M363.6601563,133.4960938l-2.734375,1.2109375l-55.5390625,34.4140625l-1.046875,0.2851563
				c-1.71875-5.2304688-4.65625-9.9648438-9.09375-13.8945313c-1.171875-1.0703125-2.4140625-1.9453125-3.5546875-2.7265625
				l36.2265625-54.6796875c3.6953125,2.0371094,7.515625,4.4511719,11.3515625,7.0527344
				C350.5820313,112.9023438,358.5195313,122.4980469,363.6601563,133.4960938z"/>
			<path class="st1" d="M285.6835938,238.9179688c7.96875-13.2890625,14.0234375-26.109375,17.3359375-37.7265625l2.90625,0.828125
				l60.9296875-7.6015625l1.1015625,0.1992188c-2.421875,13.1054688-6.640625,26.7539063-12.1015625,40.7109375
				L285.6835938,238.9179688z"/>
			<path class="st1" d="M333.7070313,276.1992188l2.3515625,1.265625
				c-7.8515625,14.640625-16.5859375,29.2617188-25.8359375,43.4414063L307.3164063,319l-79.9316406,1.3945313l-1.7929688-1.5117188
				c11.328125-12.890625,22.4140625-26.3398438,32.7070313-39.7226563L333.7070313,276.1992188z"/>
			<path class="st1" d="M279.4726563,361.8320313l1.25,0.9609375c-9.3125,12.4179688-18.5722656,24.2539063-27.5371094,34.8710938
				l-1.375-1.1445313l-88.0078125-9.6640625l-0.8476563-0.796875c8.1054688-8.2148438,17.3632813-17.8007813,27.2304688-28.2148438
				l0.84375,0.7070313L279.4726563,361.8320313z"/>
			<path class="st1" d="M232.3261719,421.5273438l0.109375,0.09375c-20.75,22.765625-36.7421875,37.1132813-41,37.5820313
				c-18.8945313,1.9921875-57.421875-34.0429688-57.40625-41.8710938c-0.03125-0.3867188,0.4960938-1.1132813,1.3828125-2.1640625
				l0.2109375,0.1835938L232.3261719,421.5273438z"/>
		</g>
	</g>
	<g>
		<path class="st0" d="M250.4824219,328.3515625c0.1640625-1.3164063,0.3984375-2.9648438,0.6132813-4.9335938
			c0.6054688-5.5234375,1.3359375-13.4609375,1.4453125-22.8164063c0.0078125-4.6679688-0.1523438-9.6953125-0.7109375-14.828125
			c-0.59375-5.1132813-1.6367188-10.3867188-3.5273438-15.015625c-1.8632813-4.7070313-4.71875-8.3125-8.2539063-10.34375
			c-1.7695313-1.0664063-3.9375-1.5898438-6.2304688-1.9882813l-2.875-0.171875l-1.2109375,0.1484375l-0.6054688,0.0703125
			c-0.2460938,0.0195313-0.4101563,0.0507813-0.3085938,0.09375c0.0742188,0.1523438,0.1679688,0.1484375,0.140625,0.046875
			c-1.9765625,0.8359375-4.7773438,5.4726563-5.8125,10.6132813c-1.15625,5.1875-1.4765625,10.8398438-0.9960938,16.1796875
			c0.2382813,2.6796875,0.6953125,5.2695313,1.2109375,7.7773438c0.1367188,0.625,0.328125,1.21875,0.484375,1.828125
			l0.2460938,0.9023438l0.1210938,0.4492188l0.0585938,0.2265625l0.03125,0.1132813l0.015625,0.0585938
			c0.0898438,0.2382813-0.1054688-0.265625-0.078125-0.1914063c0.4921875,1.3320313,0.9765625,2.6523438,1.4570313,3.9570313
			c0.46875,1.046875,0.9335938,2.078125,1.390625,3.0976563c0.5585938,1.0742188,1.109375,2.1289063,1.6523438,3.1679688
			c1.1601563,2.0546875,2.3984375,3.9765625,3.671875,5.7890625c5.1875,7.1640625,10.9765625,12.0585938,15.0820313,14.4101563
			C248.6582031,327.6054688,249.6660156,328.0429688,250.4824219,328.3515625z M255.0214844,337.2109375
			c0,0-0.3007813,0.0546875-0.8867188,0.1640625c-0.5546875,0.0585938-1.5546875,0.3320313-2.5664063,0.265625
			c-2.1796875,0.0390625-5.0039063-0.453125-8.171875-1.6367188c-6.2070313-2.4296875-13.8085938-7.4375-20.890625-15.4921875
			c-3.546875-4.140625-6.8398438-8.5859375-9.765625-14.7109375c-0.5703125-1.2890625-1.1523438-2.59375-1.7382813-3.9140625
			l-0.90625-2.5703125c-0.265625-0.78125-0.5585938-1.5625-0.7929688-2.359375
			c-0.9257813-3.1835938-1.6484375-6.484375-2.0742188-9.8671875c-0.84375-6.7695313-0.8984375-13.875,0.578125-21.2304688
			c0.875-3.6835938,1.890625-7.421875,4.0039063-11.1992188c2.0507813-3.6953125,5-7.6640625,9.90625-10.2734375
			c1.4960938-0.6640625,3.1171875-1.2265625,4.71875-1.6367188c0.4726563-0.1289063,0.7109375-0.1640625,0.8710938-0.1679688
			l0.6054688-0.0664063l1.2148438-0.1289063l0.6054688-0.0625l1.03125-0.0546875l0.09375,0.0078125l0.1914063,0.0117188
			l0.375,0.0234375l1.5117188,0.0976563c1.0078125,0.0820313,2.0039063,0.1171875,3.015625,0.2578125
			c4.0742188,0.6875,8.25,1.8359375,11.9960938,4.1015625c3.671875,2.2382813,7.0195313,5.1289063,9.2890625,8.46875
			c2.328125,3.28125,4.0859375,6.7421875,5.234375,10.1289063c2.4726563,6.7929688,3.2148438,13.3085938,3.4804688,19.3164063
			c0.28125,6.0234375-0.0390625,11.59375-0.5820313,16.65625c-1.046875,10.140625-2.9765625,18.2890625-4.4765625,23.9414063
			c-1.515625,5.6289063-2.6992188,8.8515625-2.6992188,8.8515625l-0.2109375,0.5820313
			C257.4902344,336.0546875,256.3339844,336.9648438,255.0214844,337.2109375z"/>
		<path class="st0" d="M252.3808594,329.3203125c0,0,2.9140625-1.8164063,8.1171875-4.4492188
			c5.2265625-2.6171875,12.8105469-6.171875,22.5214844-9.2617188c4.8515625-1.5664063,10.234375-3.0117188,16.1875-3.9648438
			c5.9375-0.96875,12.46875-1.5703125,19.6171875-0.53125c3.5546875,0.4296875,7.296875,1.4453125,10.984375,3.0546875
			c3.734375,1.5390625,7.25,4.2304688,10.1875,7.3671875c2.9765625,3.2070313,4.9609375,7.0585938,6.4609375,10.90625
			c0.34375,0.9609375,0.5859375,1.9296875,0.8671875,2.8984375l0.40625,1.4609375l0.1015625,0.3671875l0.046875,0.1796875
			l0.0234375,0.09375c-0.1171875-0.8046875,0.1875,1.1992188,0.15625,1.0195313l0.0625,0.6054688l0.125,1.2109375l0.0625,0.609375
			c0.0234375,0.1601563,0.0390625,0.3984375,0.0078125,0.890625c-0.0703125,1.6484375-0.2890625,3.3515625-0.640625,4.953125
			c-1.546875,5.3359375-4.8359375,9.03125-8.0390625,11.7890625c-3.265625,2.84375-6.71875,4.59375-10.140625,6.203125
			c-6.8984375,2.9453125-13.8671875,4.34375-20.6640625,4.8984375c-3.40625,0.2734375-6.78125,0.2421875-10.0859375-0.015625
			c-0.828125-0.0703125-1.65625-0.1992188-2.4765625-0.296875l-2.6953125-0.3632813
			c-1.4140625-0.3085938-2.8125-0.609375-4.1875-0.90625c-6.59375-1.6132813-11.6171875-3.9296875-16.390625-6.5585938
			c-9.3300781-5.2890625-15.7832031-11.7109375-19.4277344-17.2890625c-1.8046875-2.8632813-2.859375-5.5234375-3.2695313-7.6679688
			c-0.2734375-0.9726563-0.2109375-2.0117188-0.2617188-2.5664063c-0.015625-0.59375-0.0234375-0.90625-0.0234375-0.90625
			c-0.03125-1.4257813,0.7109375-2.6953125,1.8398438-3.3984375L252.3808594,329.3203125z M259.6152344,335.6914063
			c0.46875,0.734375,1.1015625,1.6328125,1.9414063,2.6484375c3.1367188,3.5390625,9.1113281,8.2070313,17.1816406,11.8242188
			c2.03125,0.8789063,4.171875,1.6992188,6.4140625,2.4179688c1.125,0.3125,2.2734375,0.640625,3.4375,0.96875
			c1.09375,0.2382813,2.1953125,0.484375,3.3203125,0.7304688c1.375,0.203125,2.765625,0.4101563,4.171875,0.6171875
			c0.078125,0.0117188-0.453125-0.0742188-0.203125-0.0351563h0.0625l0.1171875,0.0078125l0.2265625,0.015625l0.46875,0.0234375
			l0.9375,0.0546875c0.625,0.03125,1.2421875,0.1015625,1.8828125,0.109375c2.5625-0.0117188,5.1875-0.09375,7.859375-0.40625
			c5.328125-0.6171875,10.7890625-2.0859375,15.6328125-4.2734375c4.8203125-2.0625,8.796875-5.75,9.203125-7.8554688
			c-0.1015625-0.0039063-0.0859375,0.0898438,0.078125,0.1289063c0.0625,0.0898438,0.0625-0.0742188,0.03125-0.3203125
			l-0.0546875-0.609375l-0.1015625-1.2109375l-0.7578125-2.78125c-0.859375-2.1640625-1.8125-4.1796875-3.2109375-5.6953125
			c-2.7109375-3.046875-6.828125-5.109375-11.8125-5.96875c-4.9140625-0.90625-10.296875-0.8515625-15.421875-0.3945313
			c-5.140625,0.5-10.0859375,1.3710938-14.65625,2.3320313c-9.140625,2.0117188-16.7578125,4.34375-22.0488281,6.0625
			C262.4355469,334.6953125,260.8730469,335.2617188,259.6152344,335.6914063z"/>
		<path class="st0" d="M161.7207031,315.3710938c-0.0039063,0.0234375,0.015625,0.5,0.09375,1.296875
			c0.1015625,0.875,0.2460938,2.1640625,0.4296875,3.796875c0.453125,3.234375,1.171875,7.9375,2.9414063,12.8398438
			c0.8515625,2.4726563,2.1210938,4.8476563,3.5273438,7.0664063c1.5039063,2.15625,3.3945313,3.8242188,5.4726563,5.171875
			c0.5703125,0.2734375,1.125,0.5625,1.6757813,0.8671875l0.1054688,0.0625L176.0175781,346.5l0.0273438,0.0117188
			c0.125,0.0585938-1.03125-0.4375-0.5195313-0.21875l0.3398438,0.1171875l0.6875,0.234375l1.3789063,0.46875l2.7734375,0.9765625
			c0.9140625,0.328125,1.921875,0.765625,2.578125,0.7734375c1.4765625,0.2304688,2.9375,0.5,4.4023438,0.828125
			c1.6835938,0.09375,3.3945313,0.125,5.0859375,0.296875c3.4335938,0,6.921875-0.140625,10.3710938-0.8515625
			c1.7226563-0.2265625,3.4492188-0.5898438,5.1445313-1.046875c1.703125-0.3867188,3.390625-0.7890625,5.0195313-1.3945313
			c3.2890625-1.0273438,6.4648438-2.2304688,9.4648438-3.4492188c2.9492188-1.3515625,5.796875-2.5625,8.3515625-3.8984375
			c2.5507813-1.3164063,4.9179688-2.5390625,6.9609375-3.7148438c2.046875-1.1914063,3.8320313-2.2304688,5.3007813-3.0820313
			c2.8398438-1.765625,4.4648438-2.7734375,4.4648438-2.7734375l0.328125-0.203125
			c1.9882813-1.2304688,4.59375-0.6171875,5.8242188,1.3671875c1.0078125,1.625,0.7773438,3.6757813-0.4335938,5.0390625
			c0,0-0.3710938,0.4140625-1.0664063,1.1992188c-0.6835938,0.7539063-1.65625,1.8398438-2.9882813,3.1445313
			c-1.3359375,1.28125-2.9453125,2.8671875-4.9335938,4.5078125c-1.9609375,1.6796875-4.2304688,3.5234375-6.8515625,5.3515625
			c-2.5898438,1.8671875-5.5195313,3.7578125-8.7382813,5.59375c-3.28125,1.7226563-6.734375,3.6328125-10.6171875,5.0546875
			c-1.8828125,0.828125-3.8984375,1.46875-5.9609375,2.0859375c-2.0429688,0.6523438-4.1210938,1.328125-6.3398438,1.6523438
			c-4.328125,0.9609375-8.9453125,1.3125-13.5664063,1.3789063c-2.3320313-0.09375-4.65625-0.3007813-6.9804688-0.5
			c-2.46875-0.5078125-4.9257813-1.0703125-7.3398438-1.6640625c-1.3242188-0.2734375-2.1289063-0.6640625-3.0585938-1.0195313
			l-2.7226563-1.1132813l-1.34375-0.5625l-0.6679688-0.28125l-0.3320313-0.140625l-0.6015625-0.2578125l-0.0507813-0.03125
			l-0.1054688-0.0625l-0.2109375-0.125c-1.0976563-0.671875-2.1875-1.3359375-3.2695313-2
			c-4.1484375-2.9375-7.3085938-6.7734375-9.3007813-10.6171875c-1.9609375-3.8359375-3.1953125-7.5898438-3.765625-11.0078125
			c-0.6757813-3.4140625-0.875-6.5078125-0.8710938-9.2109375c-0.0390625-2.7070313,0.1640625-5.03125,0.3867188-6.9296875
			c0.1953125-1.9023438,0.5195313-3.3828125,0.7109375-4.3984375c0.2226563-1.09375,0.3554688-1.59375,0.3554688-1.59375
			l0.0039063-0.0195313c0.609375-2.2773438,2.9453125-3.625,5.21875-3.0195313
			C160.4160156,311.890625,161.6582031,313.5429688,161.7207031,315.3710938z"/>
		<path class="st0" d="M256.9472656,338.7929688c0,0-0.9765625,7.90625-2.4414063,19.765625
			c-0.3085938,2.9453125-0.6445313,6.1328125-0.9960938,9.5039063c-0.2539063,3.3398438-0.515625,6.859375-0.7929688,10.5039063
			c-0.2929688,7.1992188-0.5234375,14.90625,0.6054688,21.84375c0.4921875,3.453125,1.34375,6.6953125,2.5703125,9.2226563
			c1.1953125,2.5898438,2.6210938,4.2617188,4.3554688,5.3242188c0.828125,0.46875,1.6484375,0.9335938,2.4609375,1.3945313
			l1.1953125,0.7070313l0.9570313,0.4453125c1.2460938,0.6210938,2.4960938,1.2539063,3.9101563,1.703125
			c2.7167969,1.0390625,5.3417969,1.6132813,7.7949219,1.921875c2.4609375,0.2695313,4.7265625,0.171875,6.7578125-0.0234375
			c1.9921875-0.34375,3.78125-0.6835938,5.1796875-1.1796875c1.390625-0.484375,2.5078125-0.90625,3.1796875-1.2460938
			c0.7265625-0.3515625,0.9296875-0.4609375,0.890625-0.421875c1.734375-1.5546875,4.40625-1.4101563,5.9609375,0.3242188
			s1.40625,4.4023438-0.328125,5.9570313c-0.0390625,0.0273438-0.5859375,0.6171875-1.421875,1.3476563
			c-0.8671875,0.765625-2.125,1.8320313-3.9140625,2.921875c-3.4921875,2.2070313-9.1953125,4.6875-16.5078125,5.0078125
			c-3.609375,0.1171875-7.5996094-0.109375-11.5292969-1.1875c-1.96875-0.4179688-4.0351563-1.1328125-6.15625-1.9453125
			l-1.5976563-0.6015625l-1.2695313-0.59375c-0.8398438-0.40625-1.6875-0.8203125-2.5429688-1.234375
			c-5.0351563-2.484375-9.1015625-6.9296875-11.3867188-11.5195313c-2.3554688-4.6210938-3.5625-9.3242188-4.3320313-13.8671875
			c-0.7421875-4.5585938-0.8710938-9.0078125-0.8320313-13.2929688c0.0195313-4.2890625,0.4296875-8.4375,0.9023438-12.390625
			c0.9882813-7.90625,2.59375-15.0703125,4.2773438-21.0976563c1.6445313-6.0351563,3.3984375-10.9375,4.7148438-14.3398438
			c1.3203125-3.3828125,2.2421875-5.328125,2.2421875-5.328125c1.0117188-2.1328125,3.5585938-3.0390625,5.6875-2.03125
			c1.7070313,0.8125,2.6289063,2.6015625,2.4101563,4.375L256.9472656,338.7929688z"/>
	</g>
</g>
</svg>
