<?xml version="1.0" encoding="utf-8"?>
<!DOCTYPE svg PUBLIC "-//W3C//DTD SVG 1.1//EN" "http://www.w3.org/Graphics/SVG/1.1/DTD/svg11.dtd">
<svg version="1.1" id="Layer_1" xmlns="http://www.w3.org/2000/svg" viewBox="0 0 512 512">
<style type="text/css">
<![CDATA[
	.st0{fill-rule:evenodd;clip-rule:evenodd;fill:#DB4743;}
	.st1{fill:#4D4D4D;}
	.st2{fill-rule:evenodd;clip-rule:evenodd;fill:#4D4D4D;}
	.st3{fill-rule:evenodd;clip-rule:evenodd;fill:#B8332E;}
	.st4{fill:#FD9325;}
	.st5{fill-rule:evenodd;clip-rule:evenodd;fill:#F1ABA1;}
	.st6{fill-rule:evenodd;clip-rule:evenodd;fill:#F7C8B4;}
	.st7{fill-rule:evenodd;clip-rule:evenodd;fill:#FAC2B9;}
	.st8{fill-rule:evenodd;clip-rule:evenodd;fill:#FFFFFF;}
]]>
</style>
<g>
	<g>
		<g>
			<path class="st3" d="M191.2910156,264.0917969l-45.9335938-30.7617188
				c-12.3554688,5.0214844-18.4433594,14.5546875-18.859375,28.1601563L172.0585938,292
				C193.5410156,305.9804688,213.296875,278.8164063,191.2910156,264.0917969z"/>
			<path class="st2" d="M129.1152344,221.3300781c-8.3203125-9.2910156-17.0761719-11.2382813-15.4707031,0.7617188
				c-4.0664063-3.4921875-14.9550781-8.0449219-19.4550781-1.0546875
				c-8.8945313,13.8222656,6.140625,26.6601563,24.5117188,31.1269531
				C129.4472656,254.7773438,143.6640625,237.5703125,129.1152344,221.3300781z"/>
			<path class="st8" d="M127.8789063,262.1347656c3.2441406-9.8613281,12.3476563-22.6640625,18.6328125-27.7910156
				c1.9375-1.578125,0.4726563-3.6035156-0.7929688-4.5117188c-3.7949219-2.7128906-7.9472656-5.2421875-11.1738281-2.78125
				c-8.4101563,6.4199219-15.609375,17.2617188-18.0234375,27.0566406c-0.921875,3.7265625,3.2246094,6.7382813,6.875,9.0585938
				C125.09375,264.2441406,127.2441406,264.0683594,127.8789063,262.1347656z"/>
		</g>
		<g>
			<path class="st3" d="M315.8007813,264.0917969l45.9355469-30.7617188
				c12.3535156,5.0214844,18.4414063,14.5546875,18.8574219,28.1601563L335.0332031,292
				C313.5507813,305.9804688,293.7949219,278.8164063,315.8007813,264.0917969z"/>
			<path class="st2" d="M377.9746094,221.3300781c8.3242188-9.2910156,17.0800781-11.2382813,15.4746094,0.7617188
				c4.0664063-3.4921875,14.953125-8.0449219,19.453125-1.0546875c8.8945313,13.8222656-6.140625,26.6601563-24.5097656,31.1269531
				C377.6464844,254.7773438,363.4277344,237.5703125,377.9746094,221.3300781z"/>
			<path class="st8" d="M379.2128906,262.1347656c-3.2421875-9.8613281-12.34375-22.6640625-18.6328125-27.7910156
				c-1.9355469-1.578125-0.4707031-3.6035156,0.7949219-4.5117188c3.7949219-2.7128906,7.9453125-5.2421875,11.1738281-2.78125
				c8.4082031,6.4199219,15.609375,17.2617188,18.0234375,27.0566406c0.9199219,3.7265625-3.2265625,6.7382813-6.875,9.0585938
				C382,264.2441406,379.8496094,264.0683594,379.2128906,262.1347656z"/>
		</g>
		<g>
			<g>
				<path class="st2" d="M307.4355469,426.3984375c0.6484375,3.4550781,8.2832031,6.625,8.0976563,14.3535156
					c-0.1835938,7.7285156-3.7929688,15.4902344-25.7617188,12.5136719
					c-20.3886719-2.7617188-22.3398438-14.8632813-18.65625-27.1914063
					C274.7949219,413.7421875,305.3242188,415.1210938,307.4355469,426.3984375z"/>
				<rect x="271.7128906" y="321.578125" class="st3" width="37.0566406" height="94.4941406"/>
				<path class="st8" d="M271.9667969,409.703125c10.9335938,3.0527344,28.0957031,2.5722656,36.5800781-0.0175781
					c2.6132813-0.7988281,3.5625,1.7636719,3.6152344,3.4628906c0.0351563,1.0605469,0.0527344,2.1328125,0.0175781,3.1757813
					c0.1191406,5.09375-0.2519531,10.203125-4.2890625,11.6835938c-10.7441406,3.9453125-24.9628906,3.8242188-35.5429688-0.0878906
					c-3.9082031-1.4433594-4.1503906-7.1152344-4.0488281-11.9707031c-0.0273438-0.9414063-0.0175781-1.8867188,0.0058594-2.8007813
					C268.3574219,410.9511719,269.8261719,409.1054688,271.9667969,409.703125z"/>
			</g>
			<g>
				<path class="st2" d="M216.1699219,426.3984375c-0.6484375,3.4550781-8.2792969,6.625-8.0976563,14.3535156
					c0.1835938,7.7285156,3.7929688,15.4902344,25.7636719,12.5136719
					c20.3886719-2.7617188,22.3378906-14.8632813,18.6582031-27.1914063
					C248.8125,413.7421875,218.2851563,415.1210938,216.1699219,426.3984375z"/>
				<rect x="214.8388672" y="321.578125" class="st3" width="37.0566406" height="94.4941406"/>
				<path class="st8" d="M251.6386719,409.703125c-10.9296875,3.0527344-28.0976563,2.5722656-36.578125-0.0175781
					c-2.6171875-0.7988281-3.5664063,1.7636719-3.6171875,3.4628906c-0.0332031,1.0605469-0.0488281,2.1328125-0.015625,3.1757813
					c-0.1210938,5.09375,0.25,10.203125,4.2851563,11.6835938c10.7460938,3.9453125,24.96875,3.8242188,35.5449219-0.0878906
					c3.9082031-1.4433594,4.1542969-7.1152344,4.0488281-11.9707031c0.0273438-0.9414063,0.0175781-1.8867188-0.0039063-2.8007813
					C255.25,410.9511719,253.7832031,409.1054688,251.6386719,409.703125z"/>
			</g>
		</g>
		<g>
			<path class="st0" d="M263.1542969,387.0566406c48.0410156,0,87.2265625-33.8261719,87.2265625-75.2988281
				s-39.1855469-75.2988281-87.2265625-75.2988281c-48.0429688,0-87.2265625,33.8261719-87.2265625,75.2988281
				S215.1113281,387.0566406,263.1542969,387.0566406z"/>
			<path class="st2" d="M326.1191406,363.8652344C288.671875,380.296875,237.9570313,380.2460938,199.7832031,363.5
				c-7.1738281-6.5488281-13.0039063-14.2070313-17.1035156-22.6445313c45.2617188,28.7617188,115.6835938,28.7617188,160.9472656,0
				C339.4492188,349.4511719,333.4824219,357.2382813,326.1191406,363.8652344z"/>
			<path class="st4" d="M263.1542969,356.1542969h8.6074219c2.0976563,0,4.0078125,0.8574219,5.3925781,2.2441406
				l0.0117188,0.0117188c1.3867188,1.3867188,2.2480469,3.296875,2.2480469,5.3945313v10.8085938
				c0,2.1015625-0.8613281,4.0078125-2.2480469,5.3945313l-0.0117188,0.0117188
				c-1.3847656,1.3867188-3.2949219,2.2460938-5.3925781,2.2460938h-8.6074219v-6.5546875h8.6074219
				c0.3027344,0,0.5761719-0.1210938,0.7753906-0.3144531l0.0078125-0.0058594
				c0.1914063-0.1992188,0.3125-0.4746094,0.3125-0.7773438v-10.8085938c0-0.3027344-0.1210938-0.578125-0.3125-0.7734375
				l-0.0078125-0.0078125c-0.1992188-0.1953125-0.4726563-0.3164063-0.7753906-0.3164063h-8.6074219V356.1542969z
				 M254.5449219,356.1542969h8.609375v6.5527344h-8.609375c-0.3027344,0-0.5742188,0.1210938-0.7734375,0.3164063
				l-0.0078125,0.0078125c-0.1933594,0.1953125-0.3144531,0.4707031-0.3144531,0.7734375v10.8085938
				c0,0.3027344,0.1210938,0.578125,0.3144531,0.7773438l0.0078125,0.0058594
				c0.1992188,0.1933594,0.4726563,0.3144531,0.7734375,0.3144531h8.609375v6.5546875h-8.609375
				c-2.0976563,0-4.0078125-0.859375-5.3925781-2.2460938l-0.0136719-0.0117188
				c-1.3847656-1.3867188-2.2441406-3.2929688-2.2441406-5.3945313v-10.8085938c0-2.0976563,0.859375-4.0078125,2.2441406-5.3945313
				l0.0136719-0.0117188C250.5371094,357.0117188,252.4472656,356.1542969,254.5449219,356.1542969z"/>
		</g>
		
			<ellipse transform="matrix(0.0046216 -0.9999893 0.9999893 0.0046216 33.8141785 481.9590759)" class="st8" cx="259.0029297" cy="223.9941406" rx="60.2213478" ry="99.9180603"/>
		<path class="st8" d="M198.5742188,188.6875c21.7011719,0.0996094,39.2167969,16.453125,39.125,36.5273438
			s-17.7597656,36.2695313-39.4609375,36.1699219c-21.7011719-0.1035156-39.2167969-16.4550781-39.125-36.5332031
			C159.2070313,204.7773438,176.8730469,188.5859375,198.5742188,188.6875z"/>
		<path class="st6" d="M259.3242188,154.5566406c38.9335938,0.1816406,70.3691406,27.6855469,70.2167969,61.4296875
			c-0.1582031,33.75-31.8457031,60.9609375-70.78125,60.7792969c-38.9355469-0.1796875-70.3730469-27.6835938-70.2148438-61.4296875
			C188.6992188,181.5898438,220.3886719,154.3789063,259.3242188,154.5566406z"/>
		<g>
			<path class="st8" d="M226.4277344,195.3496094c23.0214844,0.1054688,41.6074219,16.4648438,41.515625,36.5390625
				c-0.0898438,20.0742188-18.8300781,36.2636719-41.8515625,36.1582031
				c-23.0234375-0.1054688-41.609375-16.46875-41.5175781-36.5429688
				C184.6660156,211.4277344,203.40625,195.2421875,226.4277344,195.3496094z"/>
			<path class="st8" d="M291.7128906,195.6484375c-23.0214844-0.1054688-41.7617188,16.0839844-41.8535156,36.1582031
				c-0.09375,20.0742188,18.4941406,36.4335938,41.5175781,36.5390625
				c23.0195313,0.1074219,41.7578125-16.078125,41.8515625-36.1523438
				C333.3203125,212.1171875,314.734375,195.7578125,291.7128906,195.6484375z"/>
		</g>
		<path class="st8" d="M199.78125,227.40625c21.6992188,0.0996094,39.2109375,17.8652344,39.109375,39.6738281
			c-0.1015625,21.8144531-17.7753906,39.4121094-39.4746094,39.3144531
			c-21.7011719-0.1035156-39.2109375-17.8632813-39.109375-39.6777344
			C160.40625,244.9082031,178.0800781,227.3066406,199.78125,227.40625z"/>
		<path class="st8" d="M313.4511719,238.625c-21.6972656-0.1015625-39.3710938,17.4980469-39.4746094,39.3085938
			c-0.0996094,21.8125,17.4121094,39.5742188,39.1113281,39.6777344c21.6992188,0.0996094,39.375-17.5019531,39.4746094-39.3144531
			C352.6621094,256.4863281,335.1542969,238.7265625,313.4511719,238.625z"/>
		
			<ellipse transform="matrix(0.0046241 -0.9999893 0.9999893 0.0046241 -30.3870239 545.0581055)" class="st8" cx="258.5986328" cy="287.7929688" rx="39.4926071" ry="39.2924118"/>
		<path class="st1" d="M220.9453125,184.5742188c-0.3183594,0.7617188-1.1933594,1.1210938-1.9570313,0.8046875
			c-0.7636719-0.3183594-1.1230469-1.1953125-0.8066406-1.9589844c0.515625-1.2304688,1.4804688-2.2871094,2.7558594-3.1542969
			c2.2246094-1.515625,5.484375-2.5,8.875-2.7988281c3.3691406-0.2949219,6.9199219,0.0761719,9.7539063,1.265625
			c1.8828125,0.7910156,3.4726563,1.9394531,4.5332031,3.4980469c0.4648438,0.6835938,0.2910156,1.6132813-0.390625,2.0800781
			c-0.6835938,0.46875-1.6132813,0.2929688-2.0800781-0.3886719c-0.7148438-1.0527344-1.8457031-1.8554688-3.2148438-2.4257813
			c-2.3789063-1-5.4199219-1.3046875-8.3457031-1.046875c-2.9023438,0.2539063-5.640625,1.0605469-7.4414063,2.2851563
			C221.8144531,183.2890625,221.2226563,183.9101563,220.9453125,184.5742188z"/>
		<path class="st5" d="M259.1367188,176.6230469c10.609375,0.046875,19.1660156,8.6855469,19.1171875,19.2949219
			c-0.046875,10.609375-8.6855469,19.1679688-19.2949219,19.1191406s-19.1679688-8.6894531-19.1191406-19.2949219
			C239.8886719,185.1308594,248.5273438,176.5742188,259.1367188,176.6230469z"/>
		<path class="st8" d="M290.6523438,165.1445313c-9.6210938-2.8535156-18.5214844-1.4726563-19.875,3.0820313
			c-1.3496094,4.5585938,8.390625,2.4140625,18.0117188,5.2734375c9.6269531,2.8535156,15.4863281,9.6289063,16.8398438,5.0703125
			C306.9785156,174.0117188,300.2734375,168.0039063,290.6523438,165.1445313z"/>
		<path class="st8" d="M228.9199219,164.859375c9.6484375-2.7675781,18.53125-1.3027344,19.8417969,3.2675781
			s-8.4082031,2.3378906-18.0585938,5.1035156c-9.6484375,2.765625-15.5703125,9.4863281-16.8808594,4.9160156
			C212.5097656,173.5761719,219.2714844,167.6289063,228.9199219,164.859375z"/>
		<path class="st0" d="M316.3046875,144.8828125c-6.2597656-47.25-30.1582031-86.2519531-85.8417969-58.7285156
			c-55.6835938,27.5214844-75.7324219,42.2910156-21.8027344,46.5234375
			C262.125,136.8730469,279.2636719,145.6386719,316.3046875,144.8828125z"/>
		<path class="st3" d="M221.5,132.578125c-0.5644531-10.1308594,16.7304688-33.6835938,37.59375-32.6660156
			C279.9589844,100.9316406,237.6210938,97.9726563,221.5,132.578125z"/>
		<circle class="st8" cx="176.6181641" cy="116.4609375" r="28.7034283"/>
		<path class="st8" d="M259.5,116.6347656c43.5976563,0.1992188,78.7949219,30.9960938,78.6230469,68.7832031
			c-0.0429688,8.7363281-1.9726563,17.0800781-5.4472656,24.7441406
			c-27.9394531-72.9433594-123.1992188-72.8320313-147.2128906-0.6796875
			c-3.40625-7.6992188-5.2597656-16.0566406-5.21875-24.7910156C180.4179688,146.9042969,215.9003906,116.4335938,259.5,116.6347656
			z"/>
		<circle class="st7" cx="252.5263672" cy="187.1132813" r="5.214901"/>
		<path class="st1" d="M301.2011719,183.8066406c0.3144531,0.7636719-0.0546875,1.6386719-0.8222656,1.9472656
			c-0.7675781,0.3125-1.640625-0.0585938-1.9511719-0.8222656c-0.2695313-0.6679688-0.859375-1.2910156-1.6640625-1.8515625
			c-1.7890625-1.2441406-4.5195313-2.0742188-7.421875-2.3574219c-2.9199219-0.2851563-5.9667969-0.0078125-8.3554688,0.96875
			c-1.3730469,0.5625-2.5097656,1.3535156-3.2363281,2.3964844c-0.4707031,0.6796875-1.40625,0.84375-2.0839844,0.3691406
			c-0.6757813-0.4726563-0.84375-1.40625-0.3710938-2.0820313c1.078125-1.546875,2.6777344-2.6835938,4.5664063-3.4570313
			c2.8457031-1.1640625,6.3984375-1.5039063,9.765625-1.1757813c3.3867188,0.3320313,6.6386719,1.34375,8.8476563,2.8789063
			C299.7402344,181.5039063,300.6953125,182.5703125,301.2011719,183.8066406z"/>
		<path class="st5" d="M259.1914063,262.8125c4.7890625,0,8.6914063-9.7597656,8.6914063-21.7304688
			c0-11.9648438-3.9023438-21.7265625-8.6914063-21.7265625c-4.7871094,0-8.6894531,9.7617188-8.6894531,21.7265625
			C250.5019531,253.0527344,254.4042969,262.8125,259.1914063,262.8125z"/>
	</g>
</g>
</svg>
