<?xml version="1.0" encoding="utf-8"?>

<!DOCTYPE svg PUBLIC "-//W3C//DTD SVG 1.1//EN" "http://www.w3.org/Graphics/SVG/1.1/DTD/svg11.dtd">
<svg version="1.1" id="Layer_1" xmlns="http://www.w3.org/2000/svg" viewBox="200 90 612 612">
<style type="text/css">
<![CDATA[
	.st0{fill:#FFFFFF;}
]]>
</style>
<g>
	<g>
		<polygon class="st0" points="469.0585938,482.0898438 495.0419922,503.2373047 501.5390625,456.0634766 469.8691406,472.3291016 
			441.4501953,453.6230469 441.4501953,493.4765625 		"/>
		<polygon class="st0" points="507.2226563,470.703125 505.5986328,482.0898438 572.1826172,462.5683594 572.9960938,451.9951172 		
			"/>
		<path class="st0" d="M597.3564453,251.9125977c19.4873047-65.0673828,12.1796875-84.5874023,13.8046875-129.3217773
			c-105.5625,79.7070313-71.4580078,174.0556641-77.1416016,172.4291992
			c-49.5322266-69.1337891-98.2539063-128.5083008-172.1474609-159.4155273
			c0-7.3203125-12.1796875,106.5478516,142.9150391,161.0419922
			c-108.8105469,13.8276367-100.6904297,82.1479492-100.6904297,82.1479492
			c2.4365234,35.7885742,64.9619141,51.2416992,64.9619141,51.2416992c-12.1806641,17.8925781-0.8125,36.5996094,0,34.9716797
			c10.5556641-5.6923828,30.0439453-15.4521484,42.2246094-21.9580078l-3.2470703,18.7060547l64.9599609-21.1464844
			c8.1201172-36.6015625,25.984375-102.4824219-12.1816406-130.1352539
			C560.8144531,308.847168,579.4921875,299.0869141,597.3564453,251.9125977z M460.1269531,359.2744141
			c-8.1210938,0-14.6171875-6.5073242-14.6171875-14.6396484c0-8.1342773,6.4960938-15.4541016,14.6171875-15.4541016
			c8.1191406,0,15.4277344,7.3198242,15.4277344,15.4541016
			C475.5546875,352.7670898,468.2460938,359.2744141,460.1269531,359.2744141z"/>
	</g>
</g>
<g>
	<path class="st0" d="M313.3457031,608.8164063c0-36.5761719,14.5224609-58.0146484,39.3427734-58.0146484
		c24.6660156,0,39.1894531,21.515625,39.1894531,58.2451172c0,36.8076172-14.2929688,57.8623047-39.1894531,57.8623047
		C327.7148438,666.9091797,313.3457031,645.7011719,313.3457031,608.8164063z M377.96875,608.8164063
		c0-29.4296875-9.0664063-45.8740234-25.2802734-45.8740234s-25.4345703,16.5976563-25.4345703,45.8740234
		c0,29.6611328,9.0673828,46.0283203,25.4345703,46.0283203S377.96875,638.5546875,377.96875,608.8164063z"/>
	<path class="st0" d="M454.3496094,553.4140625c32.8886719,0,52.3291016,20.5166016,52.3291016,55.4023438
		c0,34.9628906-19.3642578,55.4804688-52.3291016,55.4804688h-38.0361328V553.4140625H454.3496094z M430.1445313,651.8476563
		h23.2832031c24.7431641,0,39.1123047-15.8291016,39.1123047-42.8769531c0-27.125-14.5234375-43.1083984-39.1123047-43.1083984
		h-23.2832031V651.8476563z"/>
	<path class="st0" d="M586.1328125,632.5605469h-44.1074219l-11.1416016,31.7363281h-14.5234375l40.8798828-110.8828125h13.6777344
		l40.8798828,110.8828125h-14.5224609L586.1328125,632.5605469z M546.0986328,620.8037109h35.9619141l-17.3662109-49.4853516
		h-1.2294922L546.0986328,620.8037109z"/>
	<path class="st0" d="M650.2958984,664.296875v-47.71875l-39.3427734-63.1640625h15.7519531l29.8916016,49.2558594h1.2294922
		l29.8916016-49.2558594h15.7519531l-39.3427734,63.1640625v47.71875H650.2958984z"/>
</g>
</svg>
