<?xml version="1.0" encoding="utf-8"?>

<!DOCTYPE svg PUBLIC "-//W3C//DTD SVG 1.1//EN" "http://www.w3.org/Graphics/SVG/1.1/DTD/svg11.dtd">
<svg version="1.1" id="Layer_1" xmlns="http://www.w3.org/2000/svg" viewBox="0 270 612 612">
<style type="text/css">
<![CDATA[
	.st0{fill:#FFFFFF;}
]]>
</style>
<g>
	<path class="st0" d="M459.3183594,319.4873047h-306.637207c-18.5668945,0-33.7583008,15.1914063-33.7583008,33.7583008v444.4838867
		c0,18.5664063,15.1914063,33.7578125,33.7583008,33.7578125h306.637207c18.5673828,0,33.7587891-15.1914063,33.7587891-33.7578125
		V353.2456055C493.0771484,334.6787109,477.8857422,319.4873047,459.3183594,319.4873047z M322.8808594,806.1708984h-33.7587891
		c-4.6611328,0-8.4394531-3.7783203-8.4394531-8.4394531s3.7783203-8.4394531,8.4394531-8.4394531h33.7587891
		c4.6621094,0,8.4394531,3.7783203,8.4394531,8.4394531S327.5429688,806.1708984,322.8808594,806.1708984z M459.3300781,763.9707031
		H152.6699219l0.0224609-410.7475586l306.6376953,0.0224609V763.9707031z"/>
	<g>
		<path class="st0" d="M418.5410156,401.6728516H310.2207031c-2.3310547,0-4.2207031-3.7792969-4.2207031-8.4394531
			c0-4.6611328,1.8896484-8.4394531,4.2207031-8.4394531h108.3203125c2.3320313,0,4.2207031,3.7783203,4.2207031,8.4394531
			C422.7617188,397.8935547,420.8730469,401.6728516,418.5410156,401.6728516z"/>
		<path class="st0" d="M418.5419922,441.7626953H310.234375c-2.3300781,0-4.2197266-3.7792969-4.2197266-8.4394531
			c0-4.6611328,1.8896484-8.4394531,4.2197266-8.4394531h108.3076172c2.3310547,0,4.2197266,3.7783203,4.2197266,8.4394531
			C422.7617188,437.9833984,420.8730469,441.7626953,418.5419922,441.7626953z"/>
		<path class="st0" d="M306.0146484,481.8544922H197.7070313c-4.6611328,0-8.4394531-3.7792969-8.4394531-8.4394531
			c0-4.6621094,3.7783203-8.4404297,8.4394531-8.4404297h108.3076172c4.6621094,0,8.4394531,3.7783203,8.4394531,8.4404297
			C314.4541016,478.0751953,310.6767578,481.8544922,306.0146484,481.8544922z"/>
		<path class="st0" d="M414.3222656,521.9453125H197.7070313c-4.6611328,0-8.4394531-3.7783203-8.4394531-8.4394531
			s3.7783203-8.4404297,8.4394531-8.4404297h216.6152344c4.6621094,0,8.4394531,3.7792969,8.4394531,8.4404297
			S418.984375,521.9453125,414.3222656,521.9453125z"/>
		<path class="st0" d="M309.9296875,562.0361328h-116.137207c-2.4990234,0-4.5249023-3.7783203-4.5249023-8.4394531
			c0-4.6601563,2.0258789-8.4394531,4.5249023-8.4394531h116.137207c2.4990234,0,4.5244141,3.7792969,4.5244141,8.4394531
			C314.4541016,558.2578125,312.4287109,562.0361328,309.9296875,562.0361328z"/>
		<path class="st0" d="M414.3222656,602.1279297H197.7070313c-4.6611328,0-8.4394531-3.7792969-8.4394531-8.4394531
			c0-4.6611328,3.7783203-8.4394531,8.4394531-8.4394531h216.6152344c4.6621094,0,8.4394531,3.7783203,8.4394531,8.4394531
			C422.7617188,598.3486328,418.984375,602.1279297,414.3222656,602.1279297z"/>
		<path class="st0" d="M358.0585938,642.2197266H195.597168c-3.4956055,0-6.3295898-3.7792969-6.3295898-8.4404297
			s2.8339844-8.4394531,6.3295898-8.4394531h162.4614258c3.4960938,0,6.3300781,3.7783203,6.3300781,8.4394531
			S361.5546875,642.2197266,358.0585938,642.2197266z"/>
		<path class="st0" d="M414.3222656,682.3105469H197.7070313c-4.6611328,0-8.4394531-3.7783203-8.4394531-8.4404297
			c0-4.6601563,3.7783203-8.4394531,8.4394531-8.4394531h216.6152344c4.6621094,0,8.4394531,3.7792969,8.4394531,8.4394531
			C422.7617188,678.5322266,418.984375,682.3105469,414.3222656,682.3105469z"/>
		<path class="st0" d="M306.0146484,722.4013672H197.7070313c-4.6611328,0-8.4394531-3.7783203-8.4394531-8.4394531
			c0-4.6601563,3.7783203-8.4394531,8.4394531-8.4394531h108.3076172c4.6621094,0,8.4394531,3.7792969,8.4394531,8.4394531
			C314.4541016,718.6230469,310.6767578,722.4013672,306.0146484,722.4013672z"/>
	</g>
</g>
<g>
	<path class="st0" d="M247.0336914,427.2099609H222.277832l-5.3710938,17.0898438h-15.1367188l24.4628906-70.4589844h17.3339844
		l24.5117188,70.4589844h-15.6738281L247.0336914,427.2099609z M225.4516602,416.1748047h18.4082031l-9.0332031-28.8574219
		h-0.3417969L225.4516602,416.1748047z"/>
</g>
</svg>
