<?xml version="1.0" encoding="utf-8"?>

<!DOCTYPE svg PUBLIC "-//W3C//DTD SVG 1.1//EN" "http://www.w3.org/Graphics/SVG/1.1/DTD/svg11.dtd">
<svg version="1.1" id="Layer_1" xmlns="http://www.w3.org/2000/svg" viewBox="200 90 612 612">
<style type="text/css">
<![CDATA[
	.st0{display:none;fill:#FFFFFF;}
	.st1{fill:#FFFFFF;}
]]>
</style>
<g id="hd_tv">
	<g id="Layer_3">
		<g>
			<path class="st1" d="M466.96875,549.703125h-55.0087891l20.6494141-98.1699219h-99.6933594l-20.8183594,98.1699219h-55.1787109
				l51.6240234-242.7167969h55.1777344l-20.8183594,96.8154297h99.8623047l20.8183594-96.8154297h55.0087891L466.96875,549.703125z"
				/>
			<path class="st1" d="M767.2314453,405.15625c0,12.7529297-1.2978516,25.1923828-3.8916016,37.3212891
				c-2.5986328,12.1308594-6.515625,23.5556641-11.7636719,34.2753906
				c-5.2460938,10.7207031-11.8759766,20.5380859-19.8886719,29.4501953
				c-8.0117188,8.9150391-17.4628906,16.5878906-28.3486328,23.0195313
				c-10.8916016,6.4316406-23.2734375,11.4541016-37.1533203,15.0634766
				c-13.8789063,3.6132813-29.2822266,5.4169922-46.2080078,5.4169922h-98.1689453l51.6240234-242.7167969h85.3056641
				c17.8271484,0,33.4833984,2.4282227,46.9697266,7.2783203c13.4824219,4.8530273,24.7958984,11.5942383,33.9355469,20.2265625
				c9.140625,8.6318359,16.0205078,18.956543,20.6494141,30.9741211
				C764.9179688,377.4824219,767.2314453,390.7138672,767.2314453,405.15625z M709.3457031,409.3876953
				c0-9.0263672-1.2675781-17.1210938-3.8076172-24.2885742c-2.5380859-7.1640625-6.4316406-13.2285156-11.6777344-18.1953125
				c-5.2480469-4.9638672-11.8789063-8.7719727-19.8886719-11.4248047
				c-8.0146484-2.6499023-17.4931641-3.9775391-28.4355469-3.9775391h-26.5742188l-32.6660156,153.855957h33.3427734
				c13.7675781,0,26.1777344-2.2861328,37.2363281-6.8544922c11.0595703-4.5712891,20.4824219-11.0576172,28.2675781-19.4658203
				c7.7861328-8.4042969,13.7646484-18.5039063,17.9414063-30.2958984
				C707.2558594,436.9511719,709.3457031,423.8330078,709.3457031,409.3876953z"/>
		</g>
		<g>
			<g>
				<polygon class="st0" points="430.8115234,392.4140625 425.3085938,392.4140625 420.3808594,415.125 378.6494141,415.125 
					383.5585938,392.4140625 330.9492188,392.4140625 351.7675781,295.59375 296.5898438,295.59375 244.9658203,538.2421875 
					300.144043,538.2421875 320.9628906,439.03125 420.65625,439.03125 400.0068359,538.2421875 455.015625,538.2421875 
					506.6386719,295.59375 451.6298828,295.59375 				"/>
				<polygon class="st1" points="452.2236328,264.515625 504.0986328,264.515625 511.4169922,231.046875 365.1669922,231.046875 
					357.8476563,264.515625 410.3642578,264.515625 383.5585938,392.4140625 425.3085938,392.4140625 				"/>
			</g>
			<g>
				<path class="st0" d="M578.3798828,367.2822266c0.0419922,3.1259766-0.1933594,6.0068359-0.7070313,8.3974609h1.0273438
					c0.7705078-2.390625,1.7753906-4.9951172,3.0175781-8.0766602c1.2402344-3.081543,2.7607422-6.0053711,4.5585938-9.6010742
					l31.6660156-62.4082031h-46.2070313l6.1943359,62.921875
					C578.1865234,361.5131836,578.3349609,364.1582031,578.3798828,367.2822266z"/>
				<path class="st0" d="M748.3398438,353.5126953c-4.6289063-12.0185547-11.5087891-22.3417969-20.6494141-30.9755859
					c-9.1396484-8.6308594-20.453125-15.3730469-33.9355469-20.2255859
					c-10.1435547-3.6479492-21.515625-5.9233398-34.1142578-6.8286133l-24.8085938,44.0854492
					c10.4101563,0.0976563,19.4824219,1.4101563,27.1865234,3.9570313
					c8.0097656,2.6533203,14.640625,6.4619141,19.8886719,11.425293c5.2460938,4.9667969,9.1396484,11.03125,11.6777344,18.1958008
					c2.5400391,7.1674805,3.8076172,15.2612305,3.8076172,24.2880859c0,14.4453125-2.0898438,27.5634766-6.2617188,39.3535156
					c-4.1767578,11.7919922-10.1552734,21.8916016-17.9414063,30.2958984
					c-7.7851563,8.4082031-17.2080078,14.6025391-28.2675781,19.1738281c-11.0585938,4.5683594-23.46875,6.5625-37.2363281,6.5625
					h-33.3427734L590.9628906,415.125h-44.3632813l-4.0117188-31.0244141l-32.7324219,154.1416016h98.1689453
					c16.9257813,0,32.3291016-2.0498047,46.2080078-5.6621094c13.8798828-3.609375,26.2617188-8.7558594,37.1533203-15.1884766
					c10.8857422-6.4316406,20.3369141-14.1650391,28.3486328-23.0791016
					c8.0126953-8.9130859,14.6425781-18.7607422,19.8886719-29.4824219
					c5.2480469-10.7197266,9.1650391-22.1591797,11.7636719-34.2910156
					c2.59375-12.1279297,3.8916016-24.5751953,3.8916016-37.3276367
					C755.2783203,378.7695313,752.9648438,365.5288086,748.3398438,353.5126953z"/>
				<path class="st1" d="M659.640625,295.7885742l36.2910156-64.7416992h-45.7109375l-32.2783203,64.546875h28.8427734
					C651.2050781,295.59375,655.4882813,295.4902344,659.640625,295.7885742z"/>
				<path class="st0" d="M607.0087891,339.8203125L590.9628906,415.125h1.3486328l42.5205078-75.4213867
					c-0.4189453-0.0048828-0.8251953,0.1166992-1.2490234,0.1166992H607.0087891z"/>
				<polygon class="st1" points="571.7353516,295.59375 565.4746094,231.046875 522.9736328,231.046875 542.5878906,384.1601563 
					561.4794922,295.59375 				"/>
			</g>
		</g>
	</g>
</g>
</svg>
