<?xml version="1.0" encoding="utf-8"?>
<!DOCTYPE svg PUBLIC "-//W3C//DTD SVG 1.1//EN" "http://www.w3.org/Graphics/SVG/1.1/DTD/svg11.dtd">
<svg version="1.1" id="Layer_1" xmlns="http://www.w3.org/2000/svg" viewBox="0 180 612 612">
<style type="text/css">
<![CDATA[
	.st0{fill:#FFFFFF;}
]]>
</style>
<path class="st0" d="M459.3183594,229.4873047h-306.637207c-18.5668945,0-33.7583008,15.1914063-33.7583008,33.7583008v444.4838867
	c0,18.5664063,15.1914063,33.7578125,33.7583008,33.7578125h306.637207c18.5673828,0,33.7587891-15.1914063,33.7587891-33.7578125
	V263.2456055C493.0771484,244.6787109,477.8857422,229.4873047,459.3183594,229.4873047z M322.8808594,716.1708984h-33.7587891
	c-4.6611328,0-8.4394531-3.7783203-8.4394531-8.4394531s3.7783203-8.4394531,8.4394531-8.4394531h33.7587891
	c4.6621094,0,8.4394531,3.7783203,8.4394531,8.4394531S327.5429688,716.1708984,322.8808594,716.1708984z M459.3300781,673.9707031
	H152.6699219l0.0224609-410.7475586l306.6376953,0.0224609V673.9707031z"/>
</svg>
