<?xml version="1.0" encoding="utf-8"?>

<!DOCTYPE svg PUBLIC "-//W3C//DTD SVG 1.1//EN" "http://www.w3.org/Graphics/SVG/1.1/DTD/svg11.dtd">
<svg version="1.1" id="Layer_1" xmlns="http://www.w3.org/2000/svg" viewBox="200 90 612 612">
<style type="text/css">
<![CDATA[
	.st0{fill:#FFFFFF;}
]]>
</style>
<g>
	<path class="st0" d="M501.3798828,349.0073242l181.4072266-29.4223633v245.9511719
		c0,20.3564453-15.1669922,36.6171875-38.8427734,42.6064453c-26.0136719,6.4375-51.0917969-4.453125-56.1035156-24.3886719
		c-4.9882813-19.9765625,12.0488281-41.3818359,38.0400391-47.8828125
		c11.7382813-2.8964844,23.3193359-2.2949219,32.9853516,1.1113281V388.7832031l-132.9433594,24.3222656l-0.6230469,184.3261719
		c-0.1103516,17.4384766-15.8789063,34.6103516-38.5078125,40.1982422
		c-25.6806641,6.4384766-52.6298828-5.7880859-55.5019531-24.0742188
		c-4.9228516-19.7333984,11.8935547-40.9140625,37.6621094-47.3730469
		c11.5810547-2.8964844,22.9179688-2.3154297,32.4277344,1.0244141V349.0073242L501.3798828,349.0073242z M433.1826172,439.2080078
		l0.6464844-227.8217773c0,0,49.6220703-2.6508789,98.1533203,73.4536133c0,0,0.1328125-39.2880859-37.1728516-68.0419922
		c-72.8525391-50.8691406-72.6523438-62.8959961-72.6523438-62.8959961
		c-13.8974609,1.6259766-15.3232422,12.1826172-15.3232422,12.1826172v239.894043
		c-10.4228516-3.6523438-22.8955078-4.2988281-35.6787109-1.1142578
		c-28.2861328,6.9931641-46.7724609,30.3564453-41.3603516,52.0732422
		c3.1845703,20.0664063,32.7617188,33.5410156,61.0263672,26.4355469
		c24.8320313-6.1904297,42.1835938-24.9433594,42.3173828-44.1650391H433.1826172z M565.1230469,291.9892578
		c8.6416016-2.1606445,14.6767578-8.6865234,14.7216797-15.3681641h0.0234375l0.2216797-79.2666016
		c0,0,17.2607422-0.9135742,34.1435547,25.5683594c0,0,0.0224609-13.6748047-12.9628906-23.6533203
		c-25.3447266-17.7060547-25.2558594-21.8930664-25.2558594-21.8930664
		c-4.8330078,0.5571289-5.3457031,4.2319336-5.3457031,4.2319336v83.4760742
		c-3.6074219-1.2919922-7.9287109-1.5151367-12.3828125-0.4238281
		c-9.8671875,2.4282227-16.2587891,10.5795898-14.3886719,18.1298828
		C545.0107422,289.7841797,555.3017578,294.4609375,565.1230469,291.9892578z M650.6484375,292.1894531
		c6.0136719-1.4921875,10.2011719-6.0581055,10.2451172-10.7128906l0.1552734-55.2124023
		c0,0,12.0283203-0.6464844,23.7871094,17.7949219c0,0,0.0224609-9.5327148-8.9980469-16.4814453
		c-17.6621094-12.3388672-17.6171875-15.2563477-17.6171875-15.2563477c-3.3623047,0.4008789-3.71875,2.9624023-3.71875,2.9624023
		v58.1523438c-2.5166016-0.890625-5.546875-1.0463867-8.6416016-0.2670898
		c-6.8603516,1.6928711-11.3369141,7.3500977-10.0224609,12.605957
		C636.5957031,290.652832,643.7666016,293.9267578,650.6484375,292.1894531z"/>
</g>
</svg>
