<?xml version="1.0" encoding="utf-8"?>

<!DOCTYPE svg PUBLIC "-//W3C//DTD SVG 1.1//EN" "http://www.w3.org/Graphics/SVG/1.1/DTD/svg11.dtd">
<svg version="1.1" id="games" xmlns="http://www.w3.org/2000/svg" viewBox="200 90 612 612">
<style type="text/css">
<![CDATA[
	.st0{fill:#FFFFFF;}
]]>
</style>
<g>
	<path class="st0" d="M374.4638672,360.9008789v83.6137695h-54.6708984V201.7983398H405.4375
		c61.1582031,0,91.7382813,25.7856445,91.7382813,77.3510742c0,24.3735352-8.7744141,44.0917969-26.3203125,59.1557617
		s-40.9892578,22.5957031-70.3261719,22.5957031H374.4638672z M374.4638672,243.7744141v75.6582031h21.4960938
		c29.1123047,0,43.6679688-12.7495117,43.6679688-38.2519531c0-24.9365234-14.5556641-37.40625-43.6679688-37.40625H374.4638672z"/>
	<path class="st0" d="M706.7167969,435.8818359c-17.7148438,8.5771484-40.8476563,12.8632813-69.3955078,12.8632813
		c-37.2373047,0-66.5175781-10.9423828-87.84375-32.8359375c-21.3271484-21.8886719-31.9921875-51.0566406-31.9921875-87.5058594
		c0-38.8154297,11.9882813-70.2973633,35.9677734-94.4462891c23.9785156-24.1450195,55.09375-36.2207031,93.3457031-36.2207031
		c23.6962891,0,43.6689453,2.9912109,59.9179688,8.9707031v52.6396484
		c-16.2490234-9.7036133-34.7548828-14.5566406-55.5166016-14.5566406c-22.7929688,0-41.1865234,7.1674805-55.1787109,21.4956055
		c-13.9912109,14.331543-20.9882813,33.7407227-20.9882813,58.2250977c0,23.4711914,6.6035156,42.1743164,19.8046875,56.109375
		c13.2021484,13.9370117,30.9726563,20.9042969,53.3154297,20.9042969c21.3271484,0,40.8486328-5.1894531,58.5634766-15.5732422
		V435.8818359z"/>
</g>
<g>
	<path class="st0" d="M277.9042969,635.4462891c-32.9648438,0-53.1743164-22.1298828-53.1743164-58.3994141
		c0-35.7314453,20.3632813-58.1689453,52.6367188-58.1689453c26.2026367,0,45.4897461,15.1376953,48.7172852,38.1904297h-23.0522461
		c-3.4580078-11.21875-12.7558594-17.75-25.6650391-17.75c-17.9042969,0-28.8925781,14.2148438-28.8925781,37.4980469
		c0,23.7441406,11.5263672,38.1904297,29.8144531,38.1904297c15.2148438,0,25.7421875-8.9902344,26.203125-22.3613281
		l0.0766602-1.9970703h-24.0512695v-17.4433594h46.565918V587.34375
		C327.0830078,617.0048828,308.1796875,635.4462891,277.9042969,635.4462891z"/>
	<path class="st0" d="M409.4570313,606.1699219h-38.9589844l-8.5292969,26.4335938h-23.2822266l38.4970703-110.8818359h27.2792969
		l38.4970703,110.8818359h-25.1269531L409.4570313,606.1699219z M375.4931641,588.265625h29.0458984l-13.7539063-43.4921875
		h-1.3837891L375.4931641,588.265625z"/>
	<path class="st0" d="M557.7617188,632.6035156v-74.1523438h-1.2294922l-28.2011719,67.7744141h-15.4453125l-28.2773438-67.7744141
		h-1.2294922v74.1523438h-21.515625V521.7216797H489.21875l30.6601563,74.5361328h1.3828125l30.7363281-74.5361328h27.2792969
		v110.8818359H557.7617188z"/>
	<path class="st0" d="M679.6318359,632.6035156H606.171875V521.7216797h73.4599609v19.8242188h-50.2539063v25.8964844h47.4111328
		v18.3642578h-47.4111328v26.9716797h50.2539063V632.6035156z"/>
	<path class="st0" d="M721.5107422,601.7900391c1.0751953,8.9902344,10.1425781,14.7539063,23.2060547,14.7539063
		c12.0644531,0,20.59375-5.8398438,20.59375-14.2158203c0-7.0693359-5.5332031-11.1425781-19.1337891-14.0625l-14.4462891-3.0732422
		c-20.2089844-4.2265625-30.1220703-14.7539063-30.1220703-31.6591797c0-20.9003906,16.828125-34.6552734,42.4169922-34.6552734
		c24.4355469,0,41.7246094,13.6777344,42.4160156,33.4257813h-21.8222656
		c-1.0761719-8.7597656-9.2216797-14.5996094-20.4404297-14.5996094c-11.6025391,0-19.2871094,5.3789063-19.2871094,13.8320313
		c0,6.8388672,5.3017578,10.7578125,18.2880859,13.5234375l13.3710938,2.84375
		c22.2832031,4.6865234,31.8886719,14.2919922,31.8886719,31.5048828c0,22.3603516-17.1357422,36.0380859-44.9521484,36.0380859
		c-26.4335938,0-43.5693359-12.9853516-44.4140625-33.65625H721.5107422z"/>
</g>
</svg>
