<?xml version="1.0" encoding="utf-8"?>
<!DOCTYPE svg PUBLIC "-//W3C//DTD SVG 1.1//EN" "http://www.w3.org/Graphics/SVG/1.1/DTD/svg11.dtd">
<svg version="1.1" id="Layer_1" xmlns="http://www.w3.org/2000/svg" viewBox="0 0 512 512">
<style type="text/css">
<![CDATA[
	.st0{fill:#FFFFFF;}
]]>
</style>
<g>
	<g>
		<path class="st0" d="M213.3789063,338.3798828c0,18.2402344-8.0117188,27.3564453-24.0361328,27.3564453
			c-15.2675781,0-22.8974609-8.78125-22.8974609-26.359375v-40.0566406h6.0517578v39.515625
			c0,7.1582031,1.4404297,12.5195313,4.3251953,16.0683594c2.8808594,3.5527344,7.3466797,5.328125,13.3828125,5.328125
			c11.4111328,0,17.1171875-6.9169922,17.1171875-20.7558594v-40.1542969h6.0537109L213.3789063,338.3798828
			L213.3789063,338.3798828z"/>
		<path class="st0" d="M271.1494141,364.6025391v-30.546875h-35.5996094v30.546875h-6.0517578v-65.2822266h6.0517578v29.2675781
			h35.5996094v-29.2675781h6.0507813v65.2822266H271.1494141L271.1494141,364.6025391z"/>
		<path class="st0" d="M294.140625,364.6025391v-65.2822266h17.1621094c11.1689453,0,19.6015625,2.6796875,25.3125,8.0371094
			c5.7050781,5.3496094,8.5576172,13.2685547,8.5576172,23.734375c0,5.0380859-0.7958984,9.6162109-2.3886719,13.7529297
			c-1.5878906,4.1240234-3.8925781,7.6572266-6.8984375,10.5830078c-3.0078125,2.9296875-6.6464844,5.1914063-10.9257813,6.7861328
			c-4.2802734,1.5927734-9.1025391,2.3857422-14.4726563,2.3857422L294.140625,364.6025391L294.140625,364.6025391z
			 M300.1953125,304.8740234v54.2236328h10.0146484c4.4921875,0,8.5078125-0.6113281,12.0429688-1.8203125
			c3.5332031-1.2148438,6.53125-2.9990234,8.9892578-5.3476563c2.4609375-2.3466797,4.3330078-5.2597656,5.6220703-8.7158203
			c1.2910156-3.4560547,1.9355469-7.4326172,1.9355469-11.9287109c0-17.6015625-9.3037109-26.4033203-27.9082031-26.4033203
			h-10.6972656L300.1953125,304.8740234L300.1953125,304.8740234z"/>
	</g>
</g>
<g>
	<path class="st0" d="M203.953125,285.3203125v-90.0708008h-31.9916992v-11.390625h76.6401367v11.390625H216.609375v90.0708008
		H203.953125z"/>
	<path class="st0" d="M291.28125,285.3203125L253.875,183.8588867h13.2890625l30.1640625,86.0629883H297.75l30.1640625-86.0629883
		h13.2890625l-37.40625,101.4614258H291.28125z"/>
</g>
</svg>
