<?xml version="1.0" encoding="utf-8"?>

<!DOCTYPE svg PUBLIC "-//W3C//DTD SVG 1.1//EN" "http://www.w3.org/Graphics/SVG/1.1/DTD/svg11.dtd">
<svg version="1.1" id="Layer_1" xmlns="http://www.w3.org/2000/svg" viewBox="0 180 612 612">
<style type="text/css">
<![CDATA[
	.st0{fill:#FFFFFF;}
]]>
</style>
<g>
	<path class="st0" d="M288.0742188,484.2939453c63.9658203-26.0703125,127.2695313-51.8701172,191.0683594-77.8701172
		c10.4980469,26.9033203,20.8710938,53.4882813,31.4003906,80.46875c-2.3652344,1.0722656-4.4785156,2.0957031-6.640625,3.0029297
		c-51.3066406,21.5126953-102.6308594,42.9853516-153.9003906,64.5898438
		c-2.9453125,1.2412109-4.5048828,1.1005859-6.6113281-1.5332031
		c-17.234375-21.5517578-34.6542969-42.9570313-52.0117188-64.4101563
		C290.3867188,487.3173828,289.4414063,486.0537109,288.0742188,484.2939453z"/>
	<path class="st0" d="M283.7705078,495.1132813c5.6875,7.0097656,10.6982422,13.1582031,15.6787109,19.3300781
		c13.4746094,16.6962891,27.0048828,33.3496094,40.3320313,50.1640625c2.0244141,2.5517578,3.6621094,2.15625,6.09375,1.1328125
		c40.3476563-16.9785156,80.7167969-33.8984375,121.0869141-50.8232422
		c1.4404297-0.6035156,2.9208984-1.1123047,4.7666016-1.8105469c0.0732422,1.6835938,0.1777344,2.9648438,0.1787109,4.2470703
		c0.0107422,17.4628906-0.046875,34.9267578,0.0615234,52.3896484c0.0175781,2.7529297-0.6894531,4.1894531-3.4238281,5.328125
		c-42.375,17.6445313-84.6757813,35.46875-127.0292969,53.1650391
		c-18.0410156,7.5390625-36.1640625,14.8828125-54.2558594,22.3017578
		c-1.0742188,0.4404297-2.1953125,0.7685547-3.4892578,1.2158203
		C283.7705078,599.6875,283.7705078,547.9580078,283.7705078,495.1132813z"/>
	<path class="st0" d="M274.0166016,492.2539063c0,51.96875,0,103.4628906,0,155.6972656
		c-6.828125-5.4257813-13.1474609-10.4423828-19.4619141-15.4667969
		c-33.0546875-26.3076172-66.0898438-52.6396484-99.2021484-78.875c-2.2099609-1.7509766-3.0908203-3.4941406-3.0693359-6.3222656
		c0.1328125-17.5947266,0.0664063-35.1914063,0.0664063-52.7890625c0-1.3017578,0-2.6035156,0-4.6650391
		c1.71875,1.2080078,2.8896484,1.9580078,3.9804688,2.8076172c11.453125,8.9345703,22.9433594,17.8232422,34.2949219,26.8847656
		c2.1689453,1.7324219,3.9257813,1.9257813,6.4804688,0.9755859c24.1855469-8.9951172,48.421875-17.8544922,72.6445313-26.7490234
		C271.0859375,493.2607422,272.4355469,492.8076172,274.0166016,492.2539063z"/>
	<path class="st0" d="M87.6464844,424.6640625c5.4199219-3.9091797,9.9355469-7.1767578,14.4609375-10.4296875
		c11.5683594-8.3193359,23.1542969-16.6162109,34.6992188-24.9697266c1.7167969-1.2421875,2.9804688-2.050293,5.1875-0.4233398
		c41.9101563,30.902832,83.8964844,61.706543,125.8613281,92.5356445c0.4179688,0.3085938,0.7744141,0.703125,1.6699219,1.5292969
		c-1.4453125,0.6445313-2.5390625,1.1914063-3.6757813,1.6298828
		c-22.0839844,8.5126953-44.1796875,16.9960938-66.2509766,25.5439453
		c-2.0087891,0.7783203-3.4892578,0.9433594-5.4111328-0.6015625
		c-34.7832031-27.9453125-69.6425781-55.7939453-104.4941406-83.6542969
		C89.28125,425.4941406,88.7675781,425.2919922,87.6464844,424.6640625z"/>
	<path class="st0" d="M371.2421875,415.8828125c-12.859375,4.7441406-25.0644531,9.2363281-37.2646484,13.7470703
		c-16.2158203,5.9951172-32.4072266,12.0634766-48.6767578,17.9160156
		c-1.5761719,0.5664063-4.1044922,0.4980469-5.3789063-0.4121094c-18.4248047-13.1679688-36.7109375-26.5292969-55.03125-39.8447266
		c-0.3222656-0.2333984-0.6523438-0.4560547-1.6621094-1.1621094c1.7421875-0.7509766,2.8359375-1.2929688,3.9765625-1.7050781
		c27.3984375-9.8818359,54.7910156-19.7802734,82.2304688-29.5415039c1.5-0.5327148,3.8691406-0.5507813,5.0654297,0.2875977
		c18.4287109,12.9296875,36.7314453,26.0390625,55.0576172,39.1162109
		C369.9726563,414.5800781,370.3066406,414.9873047,371.2421875,415.8828125z"/>
	<path class="st0" d="M324.1113281,341.8779297c9.2285156-3.0195313,17.6464844-5.7983398,26.0800781-8.527832
		c17.5751953-5.6894531,35.1445313-11.4042969,52.765625-16.9462891c1.6894531-0.5302734,4.078125-0.5512695,5.5644531,0.2548828
		c18.8242188,10.2163086,37.5449219,20.6254883,56.2851563,30.9985352c0.6591797,0.3637695,1.2480469,0.8554688,2.2539063,1.5556641
		c-1.2734375,0.6777344-2.1269531,1.2285156-3.0507813,1.6074219
		c-25.953125,10.6484375-51.9003906,21.3164063-77.9140625,31.8208008
		c-1.5292969,0.6176758-4.0820313,0.5756836-5.3515625-0.3129883
		c-18.2109375-12.7558594-36.2851563-25.7084961-54.3867188-38.6201172
		C325.828125,343.3305664,325.3457031,342.8876953,324.1113281,341.8779297z"/>
	<path class="st0" d="M160.9394531,332.7680664c12.7226563-4.2294922,25.4453125-8.4550781,38.1660156-12.690918
		c12.6181641-4.2006836,25.2119141-8.4790039,37.8759766-12.5336914c1.5341797-0.4916992,3.7802734-0.3774414,5.1318359,0.4169922
		c17.9042969,10.5268555,35.7109375,21.2246094,53.5361328,31.887207c0.4482422,0.2670898,0.8427734,0.6196289,1.8779297,1.3891602
		c-1.5107422,0.6767578-2.5849609,1.2338867-3.7109375,1.652832c-25.8046875,9.5996094-51.6015625,19.2163086-77.453125,28.6884766
		c-1.4716797,0.5390625-3.8574219,0.5209961-5.0214844-0.328125
		c-16.5722656-12.0932617-33.0078125-24.3764648-49.4853516-36.6025391
		c-0.4257813-0.3164063-0.9501953-0.5004883-1.4287109-0.7460938
		C160.5986328,333.5234375,160.7695313,333.1459961,160.9394531,332.7680664z"/>
	<path class="st0" d="M396.8984375,275.8413086c-14.6777344,5.2641602-28.5615234,10.2358398-42.4404297,15.2231445
		c-12.3945313,4.4550781-24.7587891,9.0024414-37.2080078,13.2993164c-1.6240234,0.5600586-4.0742188,0.5195313-5.4746094-0.3354492
		c-18.3017578-11.1782227-36.484375-22.5507813-54.6875-33.887207c-0.6425781-0.3999023-1.2070313-0.9272461-2.4667969-1.9106445
		c6.1894531-1.7768555,11.7460938-3.3779297,17.3066406-4.9658203
		c21.3613281-6.1015625,42.7177734-12.2270508,64.1054688-18.2338867c1.5097656-0.4243164,3.5683594-0.5180664,4.8671875,0.1757813
		c18.0917969,9.6513672,36.09375,19.465332,54.1123047,29.2495117
		C395.4423828,274.6889648,395.8095703,275.0361328,396.8984375,275.8413086z"/>
	<path class="st0" d="M385.2089844,432.6269531c0-12.34375-0.0878906-24.1875,0.1386719-36.0234375
		c0.0214844-1.1464844,1.7783203-2.7666016,3.0839844-3.3056641c21.0136719-8.6713867,42.0820313-17.2036133,63.140625-25.765625
		c7.8583984-3.1953125,15.7207031-6.3847656,24.34375-9.8862305c0,2.4570313,0,4.3676758,0,6.2773438
		c0,9.590332-0.0351563,19.1801758,0.0273438,28.7695313c0.0136719,2.0209961-0.2441406,3.402832-2.484375,4.3051758
		c-28.7265625,11.5800781-57.4072266,23.2685547-86.1025391,34.9238281
		C386.8828125,432.1152344,386.3828125,432.2451172,385.2089844,432.6269531z"/>
	<path class="st0" d="M414.0097656,277.5859375c37.0839844,21.2021484,73.5019531,42.0234375,110.3222656,63.0742188
		c-13.5273438,15.0283203-26.6601563,29.6201172-40.3730469,44.8564453
		c-0.1679688-1.7280273-0.3222656-2.5800781-0.3222656-3.4331055c0.0009766-10.5234375-0.0859375-21.0493164,0.1181641-31.5693359
		c0.0517578-2.6689453-0.8486328-3.9946289-3.0927734-5.2675781c-21.0634766-11.9482422-42.03125-24.0639648-63.109375-35.9873047
		c-2.6582031-1.503418-3.71875-3.1147461-3.6259766-6.2270508
		C414.171875,294.828125,414.0097656,286.6123047,414.0097656,277.5859375z"/>
	<path class="st0" d="M208.6542969,423.3398438c-12.2363281-8.5058594-23.5957031-16.3994141-34.9541016-24.2958984
		c-6.0166016-4.1831055-12.0673828-8.3203125-18.0126953-12.6015625c-1.0654297-0.7675781-2.4023438-2.1323242-2.4169922-3.2363281
		c-0.1650391-13.2915039-0.1083984-26.5859375-0.1083984-40.4414063c1.2753906,0.7001953,2.0878906,1.0478516,2.7929688,1.546875
		c16.5234375,11.7148438,33.0058594,23.4863281,49.5820313,35.1240234c2.3183594,1.6279297,3.2285156,3.3500977,3.1894531,6.2143555
		C208.5585938,397.8808594,208.6542969,410.1152344,208.6542969,423.3398438z"/>
	<path class="st0" d="M406.2949219,283.2924805c0,6.347168-0.1347656,11.9404297,0.0585938,17.5219727
		c0.0927734,2.7158203-1.8125,2.9287109-3.4921875,3.5195313c-25.3535156,8.9121094-50.7148438,17.8012695-76.0761719,26.6923828
		c-2.9863281,1.0458984-5.9785156,2.0751953-9.5761719,3.3222656c0-6.4453125-0.1503906-12.3896484,0.1542969-18.3095703
		c0.0488281-0.9658203,1.9804688-2.2197266,3.2753906-2.6787109c25.3300781-8.9707031,50.6933594-17.8457031,76.0507813-26.7358398
		C399.6757813,285.5771484,402.6699219,284.5498047,406.2949219,283.2924805z"/>
	<path class="st0" d="M126.5800781,322.9365234c37.0546875-12.7241211,73.7089844-25.3105469,110.8671875-38.0693359
		c0,4.0419922,0.2519531,7.5117188-0.1464844,10.9052734c-0.125,1.0639648-1.8398438,2.3706055-3.0917969,2.8081055
		c-18.2050781,6.3598633-36.4570313,12.5854492-54.6933594,18.8549805
		c-10.3144531,3.5454102-20.5878906,7.2080078-30.9492188,10.6015625c-2.5058594,0.8203125-3.2070313,2.0175781-3.1816406,4.5424805
		c0.1230469,12.3808594,0.0566406,24.7641602-0.7587891,37.3706055
		C138.6328125,354.3369141,132.6386719,338.7231445,126.5800781,322.9365234z"/>
	<path class="st0" d="M307.8730469,348.8549805c0,5.059082,0.2607422,9.3354492-0.15625,13.5463867
		c-0.1269531,1.296875-1.8798828,3-3.2636719,3.5224609c-22.3857422,8.4487305-44.8320313,16.7373047-67.2636719,25.0629883
		c-6.453125,2.3950195-12.9042969,4.7929688-20.0019531,7.4291992c0-5.1616211-0.1982422-9.7724609,0.1533203-14.3408203
		c0.0771484-1.0131836,1.9453125-2.2666016,3.2353516-2.7509766c22.4042969-8.4052734,44.84375-16.7080078,67.2773438-25.0332031
		C294.3066406,353.8959961,300.7578125,351.4975586,307.8730469,348.8549805z"/>
	<path class="st0" d="M308.6777344,335.9990234c-3.4882813-2.0664063-6.3242188-3.7119141-9.1269531-5.4145508
		c-17.0742188-10.3706055-34.1132813-20.7963867-51.2382813-31.081543c-2.3359375-1.402832-3.3105469-2.9272461-3.2070313-5.6933594
		c0.2167969-5.9306641,0.0664063-11.8759766,0.0664063-18.5625c3.4863281,2.0664063,6.3242188,3.7124023,9.1269531,5.4150391
		c17.0722656,10.3701172,34.1123047,20.7958984,51.2363281,31.0810547c2.3359375,1.402832,3.3105469,2.9257813,3.2089844,5.6933594
		C308.5253906,323.3671875,308.6777344,329.3125,308.6777344,335.9990234z"/>
	<path class="st0" d="M282.7910156,475.6679688c0-4.2177734-0.1191406-8.1806641,0.0898438-12.125
		c0.046875-0.8886719,1.0546875-2.1582031,1.921875-2.5126953c30.5371094-12.4755859,61.1113281-24.8623047,91.6826172-37.2519531
		c0.1005859-0.0410156,0.2529297,0.0498047,0.9736328,0.2158203c0,4.0234375,0.0996094,8.203125-0.0957031,12.3681641
		c-0.0351563,0.7158203-1.2128906,1.6660156-2.0644531,2.0126953
		c-30.1738281,12.3203125-60.3730469,24.5830078-90.5722656,36.8417969
		C284.2617188,475.4052734,283.7392578,475.4511719,282.7910156,475.6679688z"/>
	<path class="st0" d="M274.2695313,472.6738281c-1.6171875-1.0263672-2.6171875-1.5908203-3.5449219-2.2578125
		c-16.8574219-12.1494141-33.6660156-24.3671875-50.5976563-36.4140625
		c-2.7695313-1.9707031-4.2167969-3.9941406-3.8339844-7.5136719c0.3417969-3.1376953,0.0712891-6.3417969,0.0712891-10.0644531
		c1.3310547,0.7421875,2.2568359,1.1416016,3.0556641,1.7167969c17.2871094,12.4638672,34.5351563,24.9814453,51.8652344,37.3857422
		c2.1601563,1.5458984,3.2382813,3.1425781,3.0449219,5.8857422
		C274.0820313,464.9345703,274.2695313,468.4863281,274.2695313,472.6738281z"/>
	<path class="st0" d="M377.4931641,405.7441406c-11.6455078-7.9667969-22.4052734-15.3266602-33.1630859-22.6850586
		c-8.1376953-5.565918-16.2089844-11.2338867-24.4541016-16.6381836c-2.6357422-1.7280273-3.8837891-3.6191406-3.5419922-6.7963867
		c0.265625-2.472168,0.0527344-4.9970703,0.0527344-8.1542969c1.6337891,0.9692383,2.7597656,1.5561523,3.8007813,2.2680664
		c17.8183594,12.1806641,35.5800781,24.4467773,53.4863281,36.4970703c2.8808594,1.9379883,4.3125,3.9238281,3.875,7.4199219
		C377.2558594,399.9853516,377.4931641,402.3808594,377.4931641,405.7441406z"/>
</g>
<g>
	<path class="st0" d="M242.9121094,707.2822266v-0.28125l-14.9765625-25.03125h17.3671875l7.9804688,16.171875h0.28125
		l8.015625-16.171875h16.5234375l-15.7148438,25.1015625v0.28125l15.6445313,25.3476563h-16.59375l-8.71875-15.2929688h-0.3164063
		l-8.6835938,15.2929688h-15.75L242.9121094,707.2822266z"/>
	<path class="st0" d="M295.8925781,707.2822266v-0.28125l-14.9765625-25.03125h17.3671875l7.9804688,16.171875h0.28125
		l8.015625-16.171875h16.5234375l-15.7148438,25.1015625v0.28125l15.6445313,25.3476563h-16.59375l-8.71875-15.2929688h-0.3164063
		l-8.6835938,15.2929688h-15.75L295.8925781,707.2822266z"/>
	<path class="st0" d="M348.8730469,707.2822266v-0.28125l-14.9765625-25.03125h17.3671875l7.9804688,16.171875h0.28125
		l8.015625-16.171875h16.5234375l-15.7148438,25.1015625v0.28125l15.6445313,25.3476563h-16.59375l-8.71875-15.2929688h-0.3164063
		l-8.6835938,15.2929688h-15.75L348.8730469,707.2822266z"/>
</g>
</svg>
