<?xml version="1.0" encoding="utf-8"?>
<!DOCTYPE svg PUBLIC "-//W3C//DTD SVG 1.1//EN" "http://www.w3.org/Graphics/SVG/1.1/DTD/svg11.dtd">
<svg version="1.1" id="Layer_1" xmlns="http://www.w3.org/2000/svg" viewBox="0 90 612 612">
<style type="text/css">
<![CDATA[
	.st0{fill:#353C48;stroke:#353C48;stroke-width:2;stroke-miterlimit:10;}
	.st1{display:inline;fill:#FFFFFF;}
	.st2{fill:#FFFFFF;}
	.st3{fill:#3C4452;}
	.st4{display:none;}
]]>
</style>
<path class="st3" d="M0,90v612h612V90H0z M552.1445313,304.2338867
	c-3.7851563,10.890625-16.7207031,25.0795898-23.7734375,21.5380859
	c-7.0527344-3.5717773-3.7841797-30.5283203,1.4589844-40.5834961
	c10.046875-19.2578125,24.8066406-24.2202148,24.8066406-24.2202148S558.2841797,286.4580078,552.1445313,304.2338867z
	 M489.2470703,375.8774414c-8.3896484-20.2612305-3.6787109-36.8515625-3.6787109-36.8515625
	s20.6416016,10.90625,30.1269531,26.6987305c5.8066406,9.6669922,8.8916016,29.7529297,2.3251953,34.3583984
	C511.4550781,404.6884766,493.6259766,386.4794922,489.2470703,375.8774414z M491.7558594,455.8662109
	c-7.4931641,2.0976563-19.5615234-21.3867188-20.8994141-32.9990234
	c-2.5546875-22.1914063,6.3994141-36.3876953,6.3994141-36.3876953s16.703125,17.5410156,21.5068359,35.8251953
	C501.7109375,433.5224609,499.2177734,453.7382813,491.7558594,455.8662109z M491.9980469,327.4438477
	c-14.0585938-15.6860352-14.7275391-33.1201172-14.7275391-33.1201172s22.6923828,2.1357422,36.4189453,13.2011719
	c8.4052734,6.7788086,17.4335938,24.4179688,12.7060547,31.3188477
	C521.6230469,345.7519531,499.3710938,335.6748047,491.9980469,327.4438477z M517.8847656,228.2807617
	c6.8085938-20.9677734,20.5488281-28.8339844,20.5488281-28.8339844s7.6308594,24.3120117,4.3779297,43.0537109
	c-1.9755859,11.4833984-12.4638672,28.065918-19.9414063,26.0068359
	C515.3603516,266.4399414,514.296875,239.2705078,517.8847656,228.2807617z M476.3574219,160.3916016
	c0,0,19.3349609,16.2485352,28.0898438,35.1416016c5.3349609,11.574707,7.9042969,33.621582,1.6113281,37.0415039
	c-6.3232422,3.4125977-22.890625-19.934082-26.8740234-32.1699219
	C471.5859375,177.0043945,476.3574219,160.3916016,476.3574219,160.3916016z M505.5107422,253.5507813
	c9.3632813,4.9550781,21.0371094,20.496582,17.4501953,28.2407227c-3.5722656,7.7519531-27.0859375,2.3710938-35.6132813-4.2177734
	c-16.3398438-12.5854492-19.7451172-29.5864258-19.7451172-29.5864258S490.2509766,245.4716797,505.5107422,253.5507813z
	 M442.6142578,458.359375c1.0341797-21.4160156,11.7050781-33,11.7050781-33s13.0410156,19.8359375,14.6972656,38.0458984
	c1.0498047,11.15625-4.4228516,29.7001953-11.8095703,30.2021484
	C449.7890625,494.109375,442.0673828,469.5458984,442.6142578,458.359375z M408.7197266,489.1230469
	c5.1982422-19.3486328,17.3427734-27.2373047,17.3427734-27.2373047s8.1005859,21.5224609,6.0195313,38.6376953
	c-1.2617188,10.4716797-10.0175781,26.0517578-16.9326172,24.6230469
	C408.2333984,523.7021484,405.953125,499.2314453,408.7197266,489.1230469z M371.1455078,507.0283203
	c5.3203125-19.7597656,17.5712891-27.8300781,17.5712891-27.8300781s8.1464844,21.9638672,6.0185547,39.4423828
	c-1.2763672,10.7011719-10.1533203,26.6445313-17.1142578,25.2011719
	C370.5986328,542.3828125,368.3642578,517.4091797,371.1455078,507.0283203z M224.5600586,479.1982422
	c0,0,12.2661133,8.0703125,17.5629883,27.8300781c2.8046875,10.3808594,0.5625,35.3544922-6.4291992,36.8134766
	c-6.9838867,1.4433594-15.8457031-14.5-17.152832-25.2011719
	C216.4282227,501.1621094,224.5600586,479.1982422,224.5600586,479.1982422z M187.2299805,461.8857422
	c0,0,12.1445313,7.8886719,17.3422852,27.2373047c2.7436523,10.1083984,0.4863281,34.5791016-6.4443359,36.0234375
	c-6.9233398,1.4287109-15.6635742-14.1513672-16.9399414-24.6230469
	C179.128418,483.4082031,187.2299805,461.8857422,187.2299805,461.8857422z M170.6542969,458.359375
	c0.5625,11.1865234-7.1665039,35.75-14.5537109,35.2480469c-7.3867188-0.5019531-12.8745117-19.0458984-11.8330078-30.2021484
	c1.671875-18.2099609,14.7055664-38.0458984,14.7055664-38.0458984S169.6054688,436.9433594,170.6542969,458.359375z
	 M108.8520508,195.5332031c8.7250977-18.8930664,28.0820313-35.1416016,28.0820313-35.1416016
	s4.7646484,16.612793-2.8427734,40.0131836c-3.9746094,12.2358398-20.534668,35.5825195-26.8500977,32.1699219
	C100.940918,229.1547852,103.4941406,207.1079102,108.8520508,195.5332031z M107.7578125,253.5507813
	c15.2758789-8.0791016,37.9233398-5.5634766,37.9233398-5.5634766s-3.4121094,17.0009766-19.7441406,29.5864258
	c-8.5273438,6.5888672-32.0336914,11.9697266-35.6210938,4.2177734
	C86.7290039,274.0473633,98.4101563,258.5058594,107.7578125,253.5507813z M97.597168,365.7246094
	c9.4916992-15.7924805,30.1181641-26.6987305,30.1181641-26.6987305s4.6962891,16.590332-3.6782227,36.8515625
	c-4.3779297,10.6020508-22.1923828,28.8110352-28.7583008,24.2055664S91.7827148,375.3916016,97.597168,365.7246094z
	 M86.9116211,338.84375c-4.7578125-6.9008789,4.2636719-24.5400391,12.6762695-31.3188477
	c13.7407227-11.0654297,36.4262695-13.2011719,36.4262695-13.2011719s-0.6611328,17.434082-14.7285156,33.1201172
	C113.9438477,335.6748047,91.6464844,345.7519531,86.9116211,338.84375z M114.5141602,422.3046875
	c4.8105469-18.2841797,21.5224609-35.8251953,21.5224609-35.8251953s8.9453125,14.1962891,6.3916016,36.3876953
	c-1.3300781,11.6123047-13.4057617,35.0966797-20.8916016,32.9990234
	C114.0507813,453.7382813,111.5732422,433.5224609,114.5141602,422.3046875z M74.8583984,199.4467773
	c0,0,13.7324219,7.8662109,20.5644531,28.8339844c3.5800781,10.9897461,2.515625,38.1591797-5.0004883,40.2265625
	c-7.4936523,2.059082-17.9736328-14.5234375-19.956543-26.0068359
	C67.2280273,223.7587891,74.8583984,199.4467773,74.8583984,199.4467773z M58.6479492,260.9682617
	c0,0,14.7587891,4.9624023,24.7978516,24.2202148c5.2592773,10.0551758,8.5195313,37.0117188,1.4746094,40.5834961
	c-7.0527344,3.5415039-19.987793-10.6474609-23.7568359-21.5380859
	C54.9921875,286.4580078,58.6479492,260.9682617,58.6479492,260.9682617z M72.5473633,343.6088867
	c8.0185547,7.3720703,19.3037109,31.3569336,13.7939453,37.4746094c-5.5170898,6.1030273-22.0014648-2.112793-28.871582-10.8447266
	c-11.2172852-14.2495117-15.5869141-39.5874023-15.5869141-39.5874023S57.2416992,329.4726563,72.5473633,343.6088867z
	 M44.6713867,398.2900391c0,0,14.1132813-6.9926758,32.7329102,0.4033203
	c9.7348633,3.875,27.5341797,22.1074219,24.1601563,29.9960938c-3.375,7.8574219-21.3178711,6.4443359-30.3920898,0.8505859
	C56.3525391,420.4511719,44.6713867,398.2900391,44.6713867,398.2900391z M75.1621094,471.8554688
	c0,0,11.1337891-12.0371094,30.862793-12.28125c10.3286133-0.1513672,32.5424805,10.1074219,31.7524414,18.8183594
	c-0.7827148,8.6943359-18.0878906,14.3183594-28.2939453,12.5693359
	C92.809082,488.1806641,75.1621094,471.8554688,75.1621094,471.8554688z M112.2646484,532.3203125
	c0,0,6.0722656-16.0195313,24.121582-25.0644531c9.4624023-4.7275391,33.4399414-5.1972656,35.7348633,3.1611328
	c2.2802734,8.3603516-11.6655273,21.234375-21.6669922,24.1982422
	C134.159668,539.4492188,112.2646484,532.3203125,112.2646484,532.3203125z M191.25,563.5253906
	c-16.2944336,4.8193359-38.1816406-2.2949219-38.1816406-2.2949219s6.0722656-16.0205078,24.1367188-25.0634766
	c9.4467773-4.7275391,33.4091797-5.2148438,35.7119141,3.1455078C215.2045898,547.6728516,201.2514648,560.5625,191.25,563.5253906z
	 M242.2983398,581.5976563c-12.5859375,10.1835938-33.3486328,12.28125-33.3486328,12.28125
	s0.6308594-15.9287109,13.5429688-30.3535156c6.7412109-7.5390625,27.1391602-16.8867188,31.4863281-10.6240234
	C258.3183594,559.1943359,250.0117188,575.3662109,242.2983398,581.5976563z M275.440918,556.6855469
	c-7.4477539,1.5351563-17.0991211-16.9169922-18.6347656-29.2294922c-2.5004883-20.1240234,5.875-45.203125,5.875-45.203125
	s13.1855469,9.5146484,19.1206055,32.3144531C284.9257813,526.484375,282.8886719,555.1357422,275.440918,556.6855469z
	 M356.4941406,527.4560547c-1.5351563,12.3125-11.1875,30.7646484-18.6347656,29.2294922
	c-7.4492188-1.5498047-9.4853516-30.2011719-6.3847656-42.1181641
	c5.9433594-22.7998047,19.1210938-32.3144531,19.1210938-32.3144531S358.9863281,507.3320313,356.4941406,527.4560547z
	 M370.9941406,581.5976563c-7.7216797-6.2314453-16.0205078-22.4033203-11.6884766-28.6962891
	c4.3623047-6.2626953,24.7597656,3.0849609,31.4941406,10.6240234
	c12.9042969,14.4248047,13.5429688,30.3535156,13.5429688,30.3535156S383.5800781,591.78125,370.9941406,581.5976563z
	 M422.0341797,563.5253906C412.0322266,560.5625,398.0800781,547.6728516,400.375,539.3125s26.265625-7.8730469,35.734375-3.1455078
	c18.0566406,9.0429688,24.1074219,25.0634766,24.1074219,25.0634766S438.328125,568.3447266,422.0341797,563.5253906z
	 M462.8310547,534.6152344c-9.9707031-2.9638672-23.9248047-15.8378906-21.6757813-24.1982422
	c2.3105469-8.3583984,26.265625-7.8886719,35.75-3.1611328c18.0566406,9.0449219,24.1220703,25.0644531,24.1220703,25.0644531
	S479.1396484,539.4492188,462.8310547,534.6152344z M503.7939453,490.9619141
	c-10.1679688,1.7490234-27.4970703-3.875-28.2871094-12.5693359c-0.7900391-8.7109375,21.4160156-18.9697266,31.7675781-18.8183594
	c19.7285156,0.2441406,30.8554688,12.28125,30.8554688,12.28125S520.4824219,488.1806641,503.7939453,490.9619141z
	 M542.1113281,429.5400391c-9.0732422,5.59375-27.0234375,7.0068359-30.3837891-0.8505859
	c-3.359375-7.8886719,14.4248047-26.1210938,24.1533203-29.9960938c18.6347656-7.3959961,32.7246094-0.4033203,32.7246094-0.4033203
	S556.9472656,420.4511719,542.1113281,429.5400391z M555.7919922,370.2387695
	c-6.8554688,8.7319336-23.3164063,16.9477539-28.8496094,10.8447266
	c-5.5009766-6.1176758,5.7763672-30.1025391,13.8027344-37.4746094
	c15.3056641-14.1362305,30.6425781-12.9575195,30.6425781-12.9575195S567.0390625,355.9892578,555.7919922,370.2387695z"/>
<g id="Layer_2">
	<path class="st0" d="M358.3779297,628.3828125c-1.0634766,0-2.0830078-0.6230469-2.4619141-1.6416016
		c-14.1357422-36.2978516-43.3193359-55.2050781-59.4765625-59.0654297
		C111.7705078,523.5205078,86.7138672,399.7792969,83.4306641,362.9125977
		c-2.8344727-31.9345703-3.0703125-92.7641602,27.237793-141.4941406c0.7294922-1.2006836,2.3637695-1.5888672,3.6176758-0.8896484
		c1.2617188,0.7143555,1.6870117,2.2426758,0.9501953,3.4428711
		c-29.5483398,47.5219727-29.2900391,107.1884766-26.5234375,138.5151367
		c3.2148438,36.0463867,27.7617188,156.9897461,209.0415039,200.309082
		c17.2290039,4.1201172,48.2817383,24.0917969,63.1166992,62.2128906c0.4863281,1.3076172-0.1972656,2.7363281-1.5654297,3.2216797
		C359.0166016,628.3378906,358.6826172,628.3828125,358.3779297,628.3828125z"/>
	<path class="st0" d="M254.9140625,628.3828125c-0.3041992,0-0.6162109-0.0449219-0.9199219-0.1523438
		c-1.3676758-0.4853516-2.0898438-1.9140625-1.5732422-3.2216797c14.8271484-38.1210938,45.8876953-58.0927734,63.109375-62.2128906
		c181.2871094-43.3193359,205.8183594-164.2626953,209.0566406-200.309082
		c2.7509766-31.3266602,3.0244141-90.9931641-26.5234375-138.5151367c-0.7597656-1.2001953-0.3193359-2.7285156,0.9423828-3.4428711
		c1.2460938-0.6992188,2.8720703-0.3110352,3.6171875,0.8896484
		c30.3085938,48.7299805,30.0644531,109.5595703,27.2373047,141.4941406
		c-3.2822266,36.8666992-28.3613281,160.6079102-213.0078125,204.7631836
		c-16.1723633,3.8603516-45.3334961,22.7675781-59.4609375,59.0654297
		C257.0039063,627.7597656,255.9780273,628.3828125,254.9140625,628.3828125z"/>
</g>
<g class="st4">
	<path class="st1" d="M262.8720703,363.0415039h-75.6899414l-19.984375,55.2055664h-18.1103516l67.4462891-180.2314453h16.9863281
		l67.3217773,180.2314453H282.855957L262.8720703,363.0415039z M192.3027344,348.3032227h65.4482422l-31.9746094-87.9301758
		h-1.6235352L192.3027344,348.3032227z"/>
	<path class="st1" d="M350.3027344,418.2470703h-17.1113281V238.015625h64.5732422
		c35.0976563,0,57.5791016,20.6083984,57.5791016,52.7080078c0,25.4799805-14.4882813,44.5898438-38.59375,50.9594727
		l43.7148438,76.5639648h-19.984375l-41.4667969-73.815918c-0.8740234,0-1.7480469,0-2.6230469,0h-46.0878906V418.2470703z
		 M350.3027344,329.1933594h46.0878906c26.1044922,0,41.4667969-13.8642578,41.4667969-37.9697266
		c0-23.6064453-15.9863281-37.9702148-42.2158203-37.9702148h-45.3388672V329.1933594z"/>
</g>
<g>
	<path class="st2" d="M144.6318359,664.2792969h-16.1132813L124.6220703,675.5h-6.7382813l15.2636719-42.2753906h7.0605469
		L155.4716797,675.5h-6.9726563L144.6318359,664.2792969z M130.1884766,658.7714844h12.7734375l-6.1230469-17.8710938h-0.4980469
		L130.1884766,658.7714844z"/>
	<path class="st2" d="M189.1923828,675.5h-26.3671875v-42.2753906h6.5625v36.2402344h19.8046875V675.5z"/>
	<path class="st2" d="M214.0361328,633.2246094c8.2617188,0,13.9453125,5.7128906,13.9453125,14.0917969
		c0,8.2617188-5.859375,13.9453125-14.1503906,13.9453125h-9.7851563V675.5h-6.5625v-42.2753906H214.0361328z
		 M204.0458984,655.4902344h8.2617188c5.6542969,0,8.9648438-2.9296875,8.9648438-8.1738281
		c0-5.3613281-3.1933594-8.2910156-8.9648438-8.2910156h-8.2617188V655.4902344z"/>
	<path class="st2" d="M264.6904297,675.5v-18.5449219h-21.7089844V675.5h-6.5625v-42.2753906h6.5625v17.7539063h21.7089844
		v-17.7539063h6.5332031V675.5H264.6904297z"/>
	<path class="st2" d="M305.3251953,664.2792969h-16.1132813L285.3154297,675.5h-6.7382813l15.2636719-42.2753906h7.0605469
		L316.1650391,675.5h-6.9726563L305.3251953,664.2792969z M290.8818359,658.7714844h12.7734375l-6.1230469-17.8710938h-0.4980469
		L290.8818359,658.7714844z"/>
	<path class="st2" d="M330.0810547,675.5h-6.5625v-42.2753906h16.7285156c8.5253906,0,14.0039063,5.0683594,14.0039063,13.0078125
		c0,5.6835938-3.046875,10.3125-8.203125,12.0703125L355.5400391,675.5h-7.5878906l-8.6132813-16.1132813h-9.2578125V675.5z
		 M330.0810547,653.7910156h9.4335938c5.0683594,0,7.9980469-2.6953125,7.9980469-7.4121094
		c0-4.5996094-3.1054688-7.3828125-8.1738281-7.3828125h-9.2578125V653.7910156z"/>
	<path class="st2" d="M387.0927734,664.2792969h-16.1132813L367.0830078,675.5h-6.7382813l15.2636719-42.2753906h7.0605469
		L397.9326172,675.5h-6.9726563L387.0927734,664.2792969z M372.6494141,658.7714844h12.7734375l-6.1230469-17.8710938h-0.4980469
		L372.6494141,658.7714844z"/>
	<path class="st2" d="M411.1748047,675.5v-36.2988281h-13.3007813v-5.9765625h33.1347656v5.9765625h-13.2714844V675.5H411.1748047z"
		/>
	<path class="st2" d="M439.0361328,675.5v-42.2753906h6.5625V675.5H439.0361328z"/>
	<path class="st2" d="M493.8798828,654.3476563c0,13.59375-7.4414063,22.1777344-19.6875,22.1777344
		c-12.2753906,0-19.7460938-8.5546875-19.7460938-22.1777344c0-13.6523438,7.6171875-22.1484375,19.7460938-22.1484375
		C486.3798828,632.1992188,493.8798828,640.7246094,493.8798828,654.3476563z M461.1552734,654.3476563
		c0,9.7558594,4.921875,16.0546875,13.0371094,16.0546875c8.0273438,0,12.9785156-6.2988281,12.9785156-16.0546875
		c0-9.8144531-4.9511719-16.0253906-12.9785156-16.0253906
		C466.2236328,638.3222656,461.1552734,644.5332031,461.1552734,654.3476563z"/>
</g>
</svg>
