<?xml version="1.0" encoding="utf-8"?>
<!DOCTYPE svg PUBLIC "-//W3C//DTD SVG 1.1//EN" "http://www.w3.org/Graphics/SVG/1.1/DTD/svg11.dtd">
<svg version="1.1" id="Layer_1" xmlns="http://www.w3.org/2000/svg" viewBox="200 0 560 560">
<style type="text/css">
<![CDATA[
	.st0{fill:url(#SVGID_1_);}
	.st1{fill:#FFFFFF;}
]]>
</style>
<g>
	
		<linearGradient id="SVGID_1_" gradientUnits="userSpaceOnUse" x1="179.2431641" y1="537.1865234" x2="179.2431488" y2="25.1865234" gradientTransform="matrix(1.09375 0 0 -1.09375 283.953125 587.546875)">
		<stop  offset="0" style="stop-color:#FA76EC"/>
		<stop  offset="1" style="stop-color:#93568D"/>
	</linearGradient>
	<rect x="200" class="st0" width="560" height="560"/>
	<g>
		<polygon class="st1" points="446.1972656,358.7753906 469.9726563,378.1259766 475.9179688,334.9599609 446.9394531,349.84375 
			420.9345703,332.7265625 420.9345703,369.1943359 		"/>
		<polygon class="st1" points="481.1191406,348.3554688 479.6328125,358.7753906 540.5595703,340.9121094 541.3037109,331.2373047 
					"/>
		<path class="st1" d="M563.59375,148.1552734c17.8320313-59.5385742,11.1455078-77.4003906,12.6318359-118.3334961
			c-96.5927734,72.9345703-65.3857422,159.2666016-70.5869141,157.7783203
			C460.3154297,124.340332,415.7333984,70.0107422,348.1186523,41.7294922
			c0-6.6982422-11.1450195,97.4951172,130.7719727,147.3588867c-99.5654297,12.652832-92.1357422,75.1679688-92.1357422,75.1679688
			c2.2299805,32.7475586,59.4423828,46.8881836,59.4423828,46.8881836c-11.1455078,16.3720703-0.7431641,33.4892578,0,32
			c9.6591797-5.2089844,27.4912109-14.1396484,38.6367188-20.0927734l-2.9707031,17.1171875l59.4404297-19.3496094
			c7.4296875-33.4921875,23.7763672-93.7749023-11.1464844-119.078125
			C530.1572266,200.2524414,547.2480469,191.3212891,563.59375,148.1552734z M438.0244141,246.3950195
			c-7.4306641,0-13.375-5.9545898-13.375-13.3959961c0-7.4428711,5.9443359-14.1411133,13.375-14.1411133
			c7.4296875,0,14.1171875,6.6982422,14.1171875,14.1411133
			C452.1416016,240.4404297,445.4541016,246.3950195,438.0244141,246.3950195z"/>
	</g>
</g>
<g>
	<path class="st1" d="M303.7148438,474.734375c0-33.46875,13.2890625-53.0859375,36-53.0859375
		c22.5703125,0,35.859375,19.6875,35.859375,53.296875c0,33.6796875-13.078125,52.9453125-35.859375,52.9453125
		C316.8632813,527.890625,303.7148438,508.484375,303.7148438,474.734375z M362.8476563,474.734375
		c0-26.9296875-8.296875-41.9765625-23.1328125-41.9765625s-23.2734375,15.1875-23.2734375,41.9765625
		c0,27.140625,8.296875,42.1171875,23.2734375,42.1171875S362.8476563,501.9453125,362.8476563,474.734375z"/>
	<path class="st1" d="M432.7382813,424.0390625c30.09375,0,47.8828125,18.7734375,47.8828125,50.6953125
		c0,31.9921875-17.71875,50.765625-47.8828125,50.765625h-34.8046875V424.0390625H432.7382813z M410.5898438,514.109375h21.3046875
		c22.640625,0,35.7890625-14.484375,35.7890625-39.234375c0-24.8203125-13.2890625-39.4453125-35.7890625-39.4453125h-21.3046875
		V514.109375z"/>
	<path class="st1" d="M553.3242188,496.4609375h-40.359375L502.7695313,525.5h-13.2890625l37.40625-101.4609375h12.515625
		L576.8085938,525.5h-13.2890625L553.3242188,496.4609375z M516.6914063,485.703125h32.90625l-15.890625-45.28125h-1.125
		L516.6914063,485.703125z"/>
	<path class="st1" d="M612.0351563,525.5v-43.6640625l-36-57.796875h14.4140625l27.3515625,45.0703125h1.125l27.3515625-45.0703125
		h14.4140625l-36,57.796875V525.5H612.0351563z"/>
</g>
</svg>
