<?xml version="1.0" encoding="utf-8"?>
<!DOCTYPE svg PUBLIC "-//W3C//DTD SVG 1.1//EN" "http://www.w3.org/Graphics/SVG/1.1/DTD/svg11.dtd">
<svg version="1.1" id="" xmlns="http://www.w3.org/2000/svg" viewBox="400 0 560 560">
<style type="text/css">
<![CDATA[
	.st0{fill:url(#SVGID_1_);}
	.st1{fill:#FFFFFF;}
]]>
</style>
<linearGradient id="SVGID_1_" gradientUnits="userSpaceOnUse" x1="102.4858398" y1="46.6289063" x2="102.485817" y2="558.628418" gradientTransform="matrix(1.09375 0 0 1.09375 567.90625 -51)">
	<stop  offset="0" style="stop-color:#960505"/>
	<stop  offset="0.2937581" style="stop-color:#8D0A0A"/>
	<stop  offset="0.7805237" style="stop-color:#731919"/>
	<stop  offset="0.994382" style="stop-color:#662020"/>
</linearGradient>
<rect x="400" class="st0" width="560" height="560"/>
<g>
	<g>
		<path class="st1" d="M653.3867188,164.2856445v102.3061523h29.8388672v28.4150391h-29.8388672v20.9580078h-61.1025391v-23.796875
			H440.2456055c-25.5805664,0-14.2104492-25.578125-14.2104492-25.578125s139.2558594-100.8847656,143.515625-102.3061523
			L653.3867188,164.2856445L653.3867188,164.2856445z M592.9960938,197.6723633l-88.0976563,61.4555664h88.0976563V197.6723633z"/>
		<polygon class="st1" points="692.8173828,164.2856445 692.8173828,315.9697266 755.6953125,315.9697266 755.6953125,253.0893555 
			855.8710938,315.9697266 939,315.9697266 805.4287109,233.9072266 929.7666016,164.2856445 850.1884766,164.2856445 
			754.984375,220.0537109 754.984375,164.2856445 		"/>
	</g>
	<g>
		<path class="st1" d="M645.3300781,370.6806641c0,16.6904297-7.3310547,25.03125-21.9941406,25.03125
			c-13.9707031,0-20.9521484-8.0351563-20.9521484-24.1191406v-36.6533203h5.5380859v36.1582031
			c0,6.5498047,1.3173828,11.4560547,3.9570313,14.703125c2.6367188,3.2509766,6.7226563,4.875,12.2460938,4.875
			c10.4414063,0,15.6630859-6.3291016,15.6630859-18.9921875v-36.7421875h5.5390625L645.3300781,370.6806641
			L645.3300781,370.6806641z"/>
		<path class="st1" d="M698.1914063,394.6748047v-27.9511719h-32.5742188v27.9511719h-5.5380859v-59.7353516h5.5380859v26.78125
			h32.5742188v-26.78125h5.5371094v59.7353516H698.1914063L698.1914063,394.6748047z"/>
		<path class="st1" d="M719.2294922,394.6748047v-59.7353516h15.7041016c10.2197266,0,17.9355469,2.4521484,23.1611328,7.3544922
			c5.2207031,4.8945313,7.8310547,12.140625,7.8310547,21.7177734c0,4.609375-0.7285156,8.7988281-2.1855469,12.5839844
			c-1.453125,3.7734375-3.5625,7.0068359-6.3125,9.6835938c-2.7529297,2.6806641-6.0820313,4.7509766-9.9980469,6.2099609
			c-3.9160156,1.4570313-8.3291016,2.1826172-13.2421875,2.1826172L719.2294922,394.6748047L719.2294922,394.6748047z
			 M724.7695313,340.0214844v49.6162109h9.1640625c4.1103516,0,7.7851563-0.5595703,11.0195313-1.6660156
			c3.2324219-1.1113281,5.9765625-2.7441406,8.2255859-4.8925781c2.2519531-2.1474609,3.9648438-4.8134766,5.1445313-7.9755859
			c1.1806641-3.1621094,1.7705078-6.8007813,1.7705078-10.9150391c0-16.1064453-8.5126953-24.1601563-25.5371094-24.1601563
			h-9.7880859L724.7695313,340.0214844L724.7695313,340.0214844z"/>
	</g>
</g>
</svg>
