<?xml version="1.0" encoding="utf-8"?>
<!DOCTYPE svg PUBLIC "-//W3C//DTD SVG 1.1//EN" "http://www.w3.org/Graphics/SVG/1.1/DTD/svg11.dtd">
<svg version="1.1" id="Layer_1" xmlns="http://www.w3.org/2000/svg" viewBox="200 90 560 560">
<style type="text/css">
<![CDATA[
	.st0{fill:url(#SVGID_1_);}
	.st1{fill:#FFFFFF;}
]]>
</style>
<linearGradient id="SVGID_1_" gradientUnits="userSpaceOnUse" x1="29.6738281" y1="533.2890625" x2="29.6738071" y2="64.7924805" gradientTransform="matrix(1.1953125 0 0 -1.1953125 444.53125 727.4472656)">
	<stop  offset="0" style="stop-color:#0A9A15"/>
	<stop  offset="0.2892" style="stop-color:#0E9118"/>
	<stop  offset="0.7685" style="stop-color:#1A7720"/>
	<stop  offset="0.9944" style="stop-color:#206925"/>
</linearGradient>
<rect x="200" y="90" class="st0" width="560" height="560"/>
<path class="st1" d="M474.1572266,276.9833984c0,1.2060547-1.2070313,1.2060547-1.2070313,1.2060547h-1.2060547
	c-1.2050781,0-1.2050781-1.2060547-2.4121094-2.4125977c0,0-1.2050781-1.2055664-1.2050781-2.4121094
	s0-1.2055664,1.2050781-1.2055664l2.4121094,1.2055664C472.9501953,274.5712891,474.1572266,275.7768555,474.1572266,276.9833984
	 M452.4492188,264.9233398c0-6.0297852-2.4130859-9.6479492-6.0292969-9.6479492c0,0,0,1.2055664-1.2060547,1.2055664v2.4125977
	h3.6181641c0,2.4125977,1.2060547,3.6171875,1.2060547,6.0297852H452.4492188 M494.6572266,258.8935547
	c2.4130859,0,3.6181641,2.4125977,4.8242188,6.0297852h2.4121094c-1.2050781-1.2050781-1.2050781-2.4125977-1.2050781-3.6171875
	c0-1.2055664,0-2.4125977-1.2050781-3.6181641c-1.2060547-1.2055664-2.4130859-2.4125977-3.6181641-2.4125977
	c0,0-1.2050781,1.2055664-2.4121094,1.2055664C493.453125,257.6879883,494.6572266,257.6879883,494.6572266,258.8935547
	 M458.4804688,278.1894531c-1.2060547,0-1.2060547,0-1.2060547-1.2060547c0-1.206543,0-2.4125977,1.2060547-3.6181641
	c2.4101563,0,3.6162109-1.2060547,3.6162109-1.2060547c1.2050781,0,1.2050781,1.2060547,1.2050781,1.2060547
	c0,1.2055664-1.2050781,2.4116211-3.6152344,4.8242188H458.4804688 M445.2138672,276.9833984
	c-4.8232422-2.4125977-6.03125-6.0302734-6.03125-12.0600586c0-3.6171875,0-6.0297852,2.4130859-8.4423828
	c1.2050781-2.4125977,3.6181641-3.6176758,6.0302734-3.6176758c2.4101563,0,3.6171875,1.206543,6.0302734,3.6176758
	c1.2060547,3.6186523,2.4121094,7.2358398,2.4121094,10.8535156v1.206543v1.2060547h1.2060547v-1.2060547
	c1.2060547,0,1.2060547-2.4125977,1.2060547-7.2363281c0-3.6176758,0-7.2348633-2.4121094-10.8535156
	c-2.4130859-3.6181641-4.8251953-6.0302734-9.6494141-6.0302734c-3.6181641,0-7.2363281,2.4121094-8.4414063,6.0302734
	c-2.4130859,4.8237305-2.8945313,8.4423828-2.8945313,14.4707031c0,4.8251953,1.6884766,9.6489258,6.5126953,14.4726563
	C442.8027344,278.1894531,444.0068359,278.1894531,445.2138672,276.9833984 M595.9599609,447.0253906
	c1.2060547,0,1.2060547-0.4824219,1.2060547-1.5673828c0-2.6523438-1.2060547-5.7880859-4.8222656-9.2861328
	c-3.6181641-3.6171875-9.6503906-5.9082031-16.8837891-6.8730469c-1.2070313-0.1210938-2.4130859-0.1210938-2.4130859-0.1210938
	c-1.2060547-0.2402344-1.2060547-0.2402344-2.4121094-0.2402344c-1.2050781-0.1210938-3.6181641-0.3632813-4.8251953-0.6035156
	c3.6201172-11.2167969,4.8251953-21.1054688,4.8251953-29.7890625c0-12.0585938-2.4121094-20.5-7.2373047-27.7368164
	c-4.8212891-7.2353516-9.6464844-10.8535156-15.6767578-12.0595703c-1.2060547,1.2060547-1.2060547,1.2060547-1.2060547,2.4121094
	c6.03125,2.4125977,12.0615234,7.2363281,15.6777344,14.4711914c3.6171875,8.440918,4.8242188,15.6772461,4.8242188,24.1201172
	c0,6.7529297-1.2070313,16.7617188-6.03125,29.546875c-4.8212891,1.9296875-9.6464844,6.390625-13.2646484,13.3847656
	c0,1.0869141,0,1.6884766,1.2060547,1.6884766c0,0,1.2070313-1.0849609,2.4121094-3.1357422
	c2.4121094-2.0507813,3.6181641-4.1005859,6.0302734-6.1503906c3.6171875-2.0507813,6.0292969-3.1367188,9.6474609-3.1367188
	c6.0302734,0,12.0605469,0.8457031,15.6777344,2.5332031c4.8242188,1.5683594,7.2363281,3.2558594,8.4433594,5.1855469
	c1.2060547,1.8105469,2.4101563,3.4970703,3.6181641,5.0664063
	C594.7558594,446.3037109,595.9599609,447.0253906,595.9599609,447.0253906 M485.0097656,272.1591797
	c-1.2050781-1.2050781-1.2050781-3.6176758-1.2050781-6.0302734c0-4.8227539,0-7.2353516,2.4130859-10.8535156
	c2.4121094-2.4121094,4.8232422-3.6171875,7.2353516-3.6171875c3.6181641,0,6.03125,2.4121094,8.4423828,4.8227539
	c1.2050781,3.6186523,2.4121094,6.0297852,2.4121094,9.6479492c0,6.0302734-2.4121094,9.6479492-7.2363281,10.8544922
	c0,0,1.2060547,1.2060547,2.4130859,1.2060547c2.4111328,0,3.6171875,1.2060547,6.0302734,2.4125977
	c1.2050781-7.2358398,2.4130859-12.0605469,2.4130859-18.0898438c0-7.2348633-1.2080078-12.0600586-3.6201172-15.6782227
	c-3.6181641-3.6176758-7.2363281-4.8237305-12.0585938-4.8237305c-3.6181641,0-7.2373047,1.2060547-10.8554688,3.6181641
	c-2.4111328,3.6176758-3.6152344,6.0302734-3.6152344,9.6489258c0,6.0288086,1.2041016,10.8525391,3.6152344,15.6772461
	C482.5976563,270.9541016,483.8046875,272.1591797,485.0097656,272.1591797 M499.4814453,291.4550781
	c-15.6767578,10.8549805-27.7373047,15.6787109-37.3847656,15.6787109c-8.4414063,0-16.8828125-3.6176758-24.1191406-9.6484375
	c1.2050781,2.4121094,2.4130859,4.824707,3.6181641,6.0307617l7.2353516,7.2363281
	c4.8242188,4.8227539,10.8554688,7.2353516,16.8837891,7.2353516c8.4423828,0,18.0898438-4.8232422,30.1484375-13.265625
	l10.8554688-7.2353516c2.4130859-2.4125977,4.8222656-4.8242188,4.8222656-8.4423828c0-1.2055664,0-2.4125977-1.2050781-2.4125977
	c-1.2041016-2.4116211-7.2353516-6.0288086-19.2949219-9.6479492c-10.8554688-4.8232422-19.296875-7.2353516-24.1201172-7.2353516
	c-3.6191406,0-9.6474609,2.4121094-18.0898438,7.2353516c-7.2353516,4.8251953-12.0585938,9.6479492-12.0585938,14.4731445
	c0,0,1.2050781,1.2050781,2.4121094,3.6171875c7.2353516,6.0302734,14.4716797,9.6479492,21.7060547,9.6479492
	c9.6494141,0,21.7070313-4.824707,37.3847656-16.8842773V290.25
	C499.4814453,290.25,499.4814453,291.4550781,499.4814453,291.4550781 M527.21875,535.0625
	c4.8242188,9.0693359,13.2666016,13.6279297,22.9150391,13.6279297c2.4121094,0,4.8232422-0.3623047,7.2353516-1.0859375
	c2.4130859-0.4814453,4.8232422-1.3261719,6.0292969-2.2910156c1.2060547-0.8447266,2.4130859-1.6875,3.6181641-2.6533203
	c2.4130859-0.84375,2.4130859-1.4472656,3.6181641-2.0498047l20.5019531-17.7275391
	c4.8232422-3.8476563,9.6484375-7.2128906,15.6777344-10.1308594c4.8242188-2.8935547,9.6484375-4.8232422,12.0595703-5.9091797
	c3.6181641-0.9648438,6.0302734-2.4121094,8.4433594-4.3408203c1.2041016-1.8095703,2.4101563-4.1015625,2.4101563-6.9960938
	c0-3.4960938-2.4101563-6.1503906-4.8232422-8.0800781c-2.4121094-1.9296875-4.8232422-3.2558594-7.2353516-4.0996094
	c-2.4130859-0.8457031-4.8251953-2.7744141-8.4423828-6.0302734c-2.4121094-3.1367188-4.8232422-7.4785156-6.0302734-13.1455078
	l-1.2050781-6.9951172c-1.2060547-3.2558594-1.2060547-5.6669922-2.4130859-6.9941406c0-0.3623047,0-0.4833984-1.2050781-0.4833984
	c-1.2060547,0-3.6171875,1.0869141-4.8251953,3.1357422c-2.4111328,2.0507813-4.8222656,4.3417969-7.2353516,6.7548828
	c-1.2050781,2.4111328-4.8232422,4.5820313-7.2353516,6.6318359c-3.6171875,2.0507813-7.2363281,3.1357422-9.6474609,3.1357422
	c-9.6474609,0-14.4726563-2.6542969-18.0908203-7.8388672c-2.4121094-3.8583984-3.6181641-8.3212891-4.8242188-13.3867188
	c-2.4121094-2.0507813-3.6162109-3.1357422-6.0292969-3.1357422c-6.0302734,0-8.4423828,6.2705078-8.4423828,18.9326172v3.9804688
	v13.9912109v10.7314453v5.1865234v3.6171875c0,1.0859375-1.2060547,3.4980469-1.2060547,7.2373047
	c-1.2050781,3.7382813-1.2050781,7.9824219-1.2050781,12.78125l-2.4130859,13.3886719v0.2041016 M352.3535156,528.6484375
	c11.2148438,1.6396484,24.1191406,5.1484375,38.7119141,10.5039063c14.5927734,5.3066406,23.5166016,8.0810547,26.7744141,8.0810547
	c8.4404297,0,15.4365234-3.7392578,21.2236328-10.9628906c1.2060547-2.3417969,1.2060547-5.0908203,1.2060547-8.2490234
	c0-11.3974609-6.8740234-25.8095703-20.6220703-43.2958984l-8.2011719-10.9736328
	c-1.6884766-2.2919922-3.7382813-5.7900391-6.3916016-10.4921875c-2.5322266-4.7041016-4.8232422-8.3212891-6.6328125-10.8544922
	c-1.5683594-2.7734375-4.1005859-5.546875-7.3564453-8.3222656c-3.1357422-2.7724609-6.7529297-4.5810547-10.7333984-5.5458984
	c-5.0644531,0.9648438-8.5625,2.6523438-10.25,4.9453125c-1.6875,2.2900391-2.6542969,4.8232422-2.8945313,7.4755859
	c-0.3623047,2.5332031-1.0859375,4.2226563-2.2919922,5.0654297c-1.2060547,0.7236328-3.2548828,1.3271484-6.0302734,1.9296875
	c-0.6035156,0-1.6875,0-3.2558594,0.1220703h-3.2558594c-6.3925781,0-10.734375,0.7216797-13.0244141,1.9287109
	c-3.015625,3.4980469-4.5830078,7.4775391-4.5830078,11.6982422c0,1.9306641,0.4824219,5.1875,1.4472656,9.7695313
	c0.9648438,4.4628906,1.4472656,8.0800781,1.4472656,10.6123047c0,4.9453125-1.4472656,9.8896484-4.4619141,14.8339844
	c-3.015625,5.1855469-4.5830078,9.0439453-4.5830078,11.7939453c1.2060547,4.6796875,9.1640625,7.9716797,23.7578125,9.9013672
	 M392.5117188,418.9882813c0-8.3222656,2.1708984-17.4873047,6.6337891-28.3417969
	c4.3417969-10.8540039,8.6835938-18.0893555,12.9033203-22.9130859c-0.2412109-1.2060547-0.8447266-1.2060547-1.8095703-1.2060547
	l-1.2060547-1.206543c-3.4970703,3.6186523-7.7177734,12.0595703-12.7822266,24.1201172
	c-5.0644531,10.8540039-7.71875,20.862793-7.71875,28.2182617c0,5.4277344,1.3261719,10.1308594,3.7382813,14.2314453
	c2.6533203,3.9804688,9.0449219,9.7695313,19.1748047,17.125l12.7822266,8.3203125
	c13.6289063,11.8203125,20.8652344,20.0195313,20.8652344,24.84375c0,2.5322266-1.2060547,5.0654297-4.8242188,7.8398438
	c-2.4121094,2.8945313-5.6689453,4.3408203-8.4414063,4.3408203c-0.2412109,0-0.3632813,0.2421875-0.3632813,0.8447266
	c0,0.1220703,1.2060547,2.5332031,3.7392578,7.2363281c5.0644531,6.8730469,15.9179688,10.2509766,30.390625,10.2509766
	c26.53125,0,47.0332031-10.8544922,62.7109375-32.5615234c0-6.0292969,0-9.7675781-1.2070313-11.3369141v-4.4619141
	c0-7.8388672,1.2070313-13.7490234,3.6201172-17.6083984c2.4121094-3.8583984,4.8212891-5.6669922,8.4394531-5.6669922
	c2.4130859,0,4.8261719,0.84375,7.2382813,2.6523438c1.2050781-9.2851563,1.2050781-17.3671875,1.2050781-24.6015625
	c0-10.9736328,0-20.0185547-2.4121094-28.4609375c-1.2050781-7.2348633-3.6181641-13.2641602-6.03125-18.0893555
	c-2.4130859-3.6176758-4.8242188-7.2363281-7.2353516-10.8535156c-2.4130859-3.6166992-3.6181641-7.2353516-6.0302734-10.8535156
	c-1.2060547-4.8242188-2.4130859-8.4418945-2.4130859-14.472168c-3.6181641-6.0302734-6.03125-12.0600586-9.6484375-18.0908203
	c-2.4121094-6.0297852-4.8242188-12.059082-7.2363281-16.8828125l-10.8544922,8.4414063
	c-12.0585938,8.4414063-21.7060547,12.0595703-30.1484375,12.0595703c-7.234375,0-13.2646484-1.2055664-16.8828125-6.0297852
	l-7.2353516-6.0307617c0,3.6181641-1.2060547,8.4418945-3.6181641,13.2661133l-7.5966797,14.4716797
	c-3.3779297,8.4418945-5.1865234,13.265625-5.5478516,16.8837891c-0.4824219,2.4121094-0.84375,4.8237305-1.0859375,4.8237305
	l-9.0439453,18.0888672c-9.7695313,18.0898438-14.7128906,34.8535156-14.7128906,48.7226563
	c0,2.7734375,0.2412109,5.6679688,0.7236328,8.5625C395.1650391,430.9267578,392.5117188,425.7402344,392.5117188,418.9882813
	 M478.8603516,533.0722656c-15.6777344,0-27.7382813,2.1230469-36.1796875,6.3320313v-0.3623047
	c-6.0302734,7.2363281-12.7832031,10.9746094-22.1904297,10.9746094c-5.9091797,0-15.1953125-2.2919922-27.7373047-6.8740234
	c-12.6621094-4.3417969-23.8789063-7.6689453-33.6474609-9.8642578c-0.9648438-0.2773438-3.1347656-0.6875-6.6328125-1.2421875
	c-3.3769531-0.5419922-6.5117188-1.0976563-9.2861328-1.6523438c-2.5322266-0.5410156-5.4267578-1.3632813-8.5625-2.4716797
	c-3.0146484-0.953125-5.4277344-2.1953125-7.2353516-3.703125c-1.6650391-1.5185547-2.484375-3.2324219-2.484375-5.1494141
	c0-1.9296875,0.4091797-3.9921875,1.2294922-6.1875c0.7724609-1.3261719,1.6162109-2.6513672,2.4599609-3.8583984
	c0.84375-1.3271484,1.5673828-2.5332031,2.0498047-3.7382813c0.7246094-1.0859375,1.2060547-2.171875,1.6884766-3.3759766
	c0.4824219-1.0869141,0.9648438-2.1708984,1.2060547-3.4980469c0.2412109-1.2050781,0.4824219-2.4130859,0.4824219-3.6181641
	s-0.4824219-4.8232422-1.4472656-11.2138672c-0.9658203-6.2724609-1.4472656-10.2509766-1.4472656-11.9404297
	c0-5.3056641,1.2060547-9.5273438,3.859375-12.5419922c2.6533203-3.015625,5.1845703-4.5830078,7.8388672-4.5830078h13.8681641
	c1.0859375,0,2.7753906-0.6015625,5.3066406-2.0488281c0.8447266-1.9296875,1.5683594-3.4980469,2.0517578-4.9462891
	c0.6015625-1.4462891,0.84375-2.5322266,1.0839844-3.0126953c0.2412109-0.7246094,0.4824219-1.4482422,0.7236328-2.0517578
	c0.4824219-0.8447266,1.0849609-1.8095703,1.9296875-2.7724609c-0.9648438-1.2060547-1.4472656-2.7744141-1.4472656-4.7050781
	c0-1.3261719,0-2.53125,0.2412109-3.2548828c0-4.3408203,2.0507813-10.4931641,6.3916016-18.5732422l4.2207031-7.5957031
	c3.4980469-6.5136719,6.1513672-11.3374023,8.0810547-16.1601563c2.0498047-4.8242188,4.2207031-12.0605469,6.6328125-21.7080078
	c1.9306641-8.4414063,6.5126953-16.8842773,13.7480469-25.3266602l9.0458984-10.8530273
	c6.2705078-7.2368164,10.3701172-13.265625,12.6611328-18.090332c2.2919922-4.8242188,3.4980469-10.8535156,3.4980469-15.6782227
	c0-2.4121094-0.6035156-9.6479492-1.9306641-21.7070313c-1.2050781-12.0595703-1.8085938-24.1201172-1.8085938-34.9736328
	c0-8.4423828,0.7226563-14.4716797,2.2910156-20.5014648c1.5683594-6.0307617,4.3408203-12.0600586,8.4414063-16.8837891
	c3.6181641-4.8242188,8.4423828-9.6479492,15.6777344-12.0605469c7.2363281-2.4116211,15.6777344-3.6171875,25.3261719-3.6171875
	c3.6181641,0,7.2363281,0,10.8544922,1.2055664c3.6171875,0,8.4414063,1.2055664,14.4707031,3.6171875
	c4.8242188,2.4125977,9.6484375,4.8242188,13.265625,8.4428711c4.8242188,3.6176758,8.4423828,9.6474609,12.0595703,15.6777344
	c2.4130859,7.2358398,4.8222656,14.4707031,6.0302734,24.1196289c1.2050781,6.0302734,1.2050781,12.0595703,2.4130859,20.5014648
	c0,7.2363281,1.2050781,12.0600586,1.2050781,15.6777344c1.2060547,3.6176758,1.2060547,8.4418945,2.4130859,14.4711914
	c1.2050781,4.8242188,2.4130859,9.6479492,4.8232422,13.2661133c2.4130859,4.8232422,4.8242188,9.6469727,8.4423828,14.4711914
	c3.6181641,6.0297852,8.4414063,12.0595703,13.265625,19.2958984
	c10.8525391,12.0600586,19.2939453,25.3251953,24.1181641,38.5908203c6.0302734,12.059082,9.6484375,27.7382813,9.6484375,44.5
	c0,8.3222656-1.2070313,16.4023438-3.6181641,24.2402344c2.4111328,0,3.6181641,0.9638672,4.8242188,2.6533203
	c1.2050781,1.6884766,2.4121094,5.3066406,3.6171875,10.9746094l1.2060547,8.9238281
	c1.2050781,2.6533203,2.4121094,5.1875,6.0302734,7.3574219c2.4121094,2.1699219,4.8242188,3.9794922,8.4423828,5.4257813
	c2.4121094,1.2070313,6.0302734,2.8955078,8.4414063,5.0654297c2.4111328,2.4121094,3.6181641,4.9453125,3.6181641,7.5966797
	c0,4.1005859-1.2070313,7.1152344-3.6181641,9.2861328c-2.4130859,2.4130859-4.8232422,4.1005859-8.4414063,5.1875
	c-2.4130859,1.2041016-7.2353516,3.6162109-14.4726563,7.0166016c-6.0302734,3.5703125-12.0605469,7.8994141-18.0908203,13.0244141
	l-12.0585938,10.2626953c-4.8232422,4.7041016-9.6484375,8.0810547-13.265625,10.1308594
	c-3.6171875,2.171875-8.4414063,3.2558594-13.2646484,3.2558594l-8.4423828-0.9638672
	c-9.6484375-2.5322266-15.6777344-7.3564453-19.2958984-14.7138672
	c-19.2958984-2.3388672-34.9716797-3.4970703-44.6210938-3.4970703"/>
</svg>
