<?xml version="1.0" encoding="utf-8"?>
<!DOCTYPE svg PUBLIC "-//W3C//DTD SVG 1.1//EN" "http://www.w3.org/Graphics/SVG/1.1/DTD/svg11.dtd">
<svg version="1.1" id="Layer_1" xmlns="http://www.w3.org/2000/svg" viewBox="200 0 560 560">
<style type="text/css">
<![CDATA[
	.st0{fill:url(#SVGID_1_);}
	.st1{fill:#FFFFFF;}
]]>
</style>
<g>
	<linearGradient id="SVGID_1_" gradientUnits="userSpaceOnUse" x1="480" y1="0" x2="479.9999695" y2="560.0004883">
		<stop  offset="0" style="stop-color:#BC2AFF"/>
		<stop  offset="0.9943821" style="stop-color:#54004E"/>
	</linearGradient>
	<rect x="200" class="st0" width="560" height="560"/>
	<path class="st1" d="M475.7724609,237l165.9931641-26.9223633v225.0532227
		c0,18.6269531-13.8779297,33.5058594-35.5419922,38.9863281c-23.8037109,5.890625-46.7509766-4.0742188-51.3369141-22.3164063
		c-4.5644531-18.2792969,11.0253906-37.8652344,34.8085938-43.8144531
		c10.7402344-2.6503906,21.3378906-2.0996094,30.1826172,1.0175781V273.3964844l-121.6474609,22.2558594l-0.5703125,168.6640625
		c-0.1015625,15.9570313-14.5302734,31.6699219-35.2363281,36.7832031
		c-23.4980469,5.890625-48.1582031-5.296875-50.7861328-22.0292969c-4.5039063-18.0566406,10.8828125-37.4375,34.4619141-43.3476563
		c10.5976563-2.6503906,20.9707031-2.1191406,29.6728516,0.9375V237L475.7724609,237z M413.3701172,319.5371094
		l0.5908203-208.4648438c0,0,45.40625-2.425293,89.8134766,67.2124023c0,0,0.1220703-35.949707-34.0136719-62.2602539
		C403.0976563,69.4770508,403.28125,58.472168,403.28125,58.472168
		c-12.7167969,1.487793-14.0214844,11.1474609-14.0214844,11.1474609v219.5112305
		c-9.5371094-3.3417969-20.9501953-3.9335938-32.6474609-1.0195313
		c-25.8828125,6.3984375-42.7978516,27.7773438-37.8457031,47.6484375
		c2.9140625,18.3613281,29.9785156,30.6914063,55.8408203,24.1894531
		c22.7226563-5.6640625,38.5996094-22.8242188,38.7216797-40.4121094H413.3701172z M534.0996094,184.8266602
		c7.9072266-1.9770508,13.4296875-7.9482422,13.4707031-14.0620117h0.0214844l0.203125-72.5317383
		c0,0,15.7939453-0.8359375,31.2421875,23.3959961c0,0,0.0205078-12.5131836-11.8613281-21.6435547
		c-23.1914063-16.2016602-23.1103516-20.0332031-23.1103516-20.0332031
		c-4.421875,0.5097656-4.8916016,3.8725586-4.8916016,3.8725586v76.3833008
		c-3.3007813-1.1821289-7.2548828-1.3862305-11.3300781-0.3876953c-9.0292969,2.2216797-14.8779297,9.6806641-13.1660156,16.5893555
		C515.6962891,182.809082,525.1123047,187.0883789,534.0996094,184.8266602z M612.3583984,185.0097656
		c5.5019531-1.3652344,9.3339844-5.5429688,9.3740234-9.8022461L621.875,124.6860352c0,0,11.0058594-0.5913086,21.765625,16.2832031
		c0,0,0.0205078-8.7226563-8.2333984-15.0810547c-16.1611328-11.2905273-16.1201172-13.9599609-16.1201172-13.9599609
		c-3.0771484,0.3666992-3.4033203,2.7104492-3.4033203,2.7104492v53.2114258
		c-2.3027344-0.8149414-5.0751953-0.9575195-7.9072266-0.2446289c-6.2773438,1.5493164-10.3730469,6.7255859-9.1708984,11.5351563
		C599.4990234,183.6040039,606.0605469,186.5996094,612.3583984,185.0097656z"/>
</g>
</svg>
