<?xml version="1.0" encoding="utf-8"?>
<!DOCTYPE svg PUBLIC "-//W3C//DTD SVG 1.1//EN" "http://www.w3.org/Graphics/SVG/1.1/DTD/svg11.dtd">
<svg version="1.1" id="games" xmlns="http://www.w3.org/2000/svg" viewBox="200 0 560 560">
<style type="text/css">
<![CDATA[
	.st0{fill:url(#SVGID_1_);}
	.st1{fill:#FFFFFF;}
]]>
</style>
<linearGradient id="SVGID_1_" gradientUnits="userSpaceOnUse" x1="179.2431641" y1="537.1865234" x2="179.2431488" y2="25.1865234" gradientTransform="matrix(1.09375 0 0 -1.09375 283.953125 587.546875)">
	<stop  offset="0" style="stop-color:#F4B113"/>
	<stop  offset="0.1749831" style="stop-color:#EBAB15"/>
	<stop  offset="0.4659598" style="stop-color:#D19A19"/>
	<stop  offset="0.8347928" style="stop-color:#A88020"/>
	<stop  offset="0.994382" style="stop-color:#947323"/>
</linearGradient>
<rect x="200" class="st0" width="560" height="560"/>
<g>
	<path class="st1" d="M359.6401367,247.8833008v76.5092773h-50.0253906V102.2993164h78.3676758
		c55.9609375,0,83.9433594,23.5947266,83.9433594,70.7788086c0,22.3022461-8.0292969,40.3452148-24.0839844,54.1293945
		c-16.0556641,13.7836914-37.5068359,20.6757813-64.3505859,20.6757813H359.6401367z M359.6401367,140.7084961v69.2299805
		h19.6694336c26.6386719,0,39.9580078-11.6665039,39.9580078-35.0019531c0-22.8178711-13.3193359-34.2280273-39.9580078-34.2280273
		H359.6401367z"/>
	<path class="st1" d="M663.6621094,316.4931641c-16.2089844,7.8486328-37.3769531,11.7705078-63.4990234,11.7705078
		c-34.0732422,0-60.8652344-10.0126953-80.3798828-30.0458984c-19.5146484-20.0292969-29.2734375-46.71875-29.2734375-80.0708008
		c0-35.5175781,10.9697266-64.324707,32.9111328-86.4213867c21.9414063-22.09375,50.4130859-33.1435547,85.4150391-33.1435547
		c21.6826172,0,39.9580078,2.7373047,54.8261719,8.2084961v48.1669922
		c-14.8681641-8.8789063-31.8017578-13.3198242-50.7988281-13.3198242c-20.8564453,0-37.6875,6.5585938-50.4902344,19.6694336
		c-12.8027344,13.1137695-19.2050781,30.8740234-19.2050781,53.277832c0,21.4770508,6.0419922,38.5908203,18.1220703,51.3417969
		c12.0800781,12.7529297,28.3408203,19.1279297,48.7851563,19.1279297c19.5146484,0,37.3779297-4.7485352,53.5869141-14.2495117
		V316.4931641z"/>
</g>
<g>
	<path class="st1" d="M271.2851563,499.1015625c-30.1640625,0-48.65625-20.25-48.65625-53.4375
		c0-32.6953125,18.6328125-53.2265625,48.1640625-53.2265625c23.9765625,0,41.625,13.8515625,44.578125,34.9453125h-21.09375
		c-3.1640625-10.265625-11.671875-16.2421875-23.484375-16.2421875c-16.3828125,0-26.4375,13.0078125-26.4375,34.3125
		c0,21.7265625,10.546875,34.9453125,27.28125,34.9453125c13.921875,0,23.5546875-8.2265625,23.9765625-20.4609375
		l0.0703125-1.828125h-22.0078125v-15.9609375h42.609375v12.9375
		C316.2851563,482.2265625,298.9882813,499.1015625,271.2851563,499.1015625z"/>
	<path class="st1" d="M391.6601563,472.3125h-35.6484375L348.2070313,496.5h-21.3046875l35.2265625-101.4609375h24.9609375
		L422.3164063,496.5h-22.9921875L391.6601563,472.3125z M360.5820313,455.9296875h26.578125l-12.5859375-39.796875h-1.265625
		L360.5820313,455.9296875z"/>
	<path class="st1" d="M527.3632813,496.5v-67.8515625h-1.125l-25.8046875,62.015625h-14.1328125l-25.875-62.015625h-1.125V496.5
		h-19.6875V395.0390625h25.03125l28.0546875,68.203125h1.265625l28.125-68.203125h24.9609375V496.5H527.3632813z"/>
	<path class="st1" d="M638.8789063,496.5h-67.21875V395.0390625h67.21875v18.140625h-45.984375V436.875h43.3828125v16.8046875
		h-43.3828125v24.6796875h45.984375V496.5z"/>
	<path class="st1" d="M677.1992188,468.3046875c0.984375,8.2265625,9.28125,13.5,21.234375,13.5
		c11.0390625,0,18.84375-5.34375,18.84375-13.0078125c0-6.46875-5.0625-10.1953125-17.5078125-12.8671875l-13.21875-2.8125
		c-18.4921875-3.8671875-27.5625-13.5-27.5625-28.96875c0-19.125,15.3984375-31.7109375,38.8125-31.7109375
		c22.359375,0,38.1796875,12.515625,38.8125,30.5859375h-19.96875c-0.984375-8.015625-8.4375-13.359375-18.703125-13.359375
		c-10.6171875,0-17.6484375,4.921875-17.6484375,12.65625c0,6.2578125,4.8515625,9.84375,16.734375,12.375l12.234375,2.6015625
		c20.390625,4.2890625,29.1796875,13.078125,29.1796875,28.828125c0,20.4609375-15.6796875,32.9765625-41.1328125,32.9765625
		c-24.1875,0-39.8671875-11.8828125-40.640625-30.796875H677.1992188z"/>
</g>
</svg>
