<?xml version="1.0" encoding="utf-8"?>
<!DOCTYPE svg PUBLIC "-//W3C//DTD SVG 1.1//EN" "http://www.w3.org/Graphics/SVG/1.1/DTD/svg11.dtd">
<svg version="1.1" id="Layer_1" xmlns="http://www.w3.org/2000/svg" viewBox="200 0 560 560">
<style type="text/css">
<![CDATA[
	.st0{fill:url(#SVGID_1_);}
	.st1{fill:#FFFFFF;}
]]>
</style>
<linearGradient id="SVGID_1_" gradientUnits="userSpaceOnUse" x1="179.2431641" y1="537.1865234" x2="179.2431488" y2="25.1865234" gradientTransform="matrix(1.09375 0 0 -1.09375 283.953125 587.546875)">
	<stop  offset="0" style="stop-color:#F21E2A"/>
	<stop  offset="0.1778268" style="stop-color:#E91F2A"/>
	<stop  offset="0.4734032" style="stop-color:#CF232C"/>
	<stop  offset="0.8481088" style="stop-color:#A6292E"/>
	<stop  offset="0.994382" style="stop-color:#942C2F"/>
</linearGradient>
<rect x="200" class="st0" width="560" height="560"/>
<g id="XMLID_2_">
	<g>
		<path id="XMLID_12_" class="st1" d="M365.824707,499.2695313c-2.2055664-0.6074219-4.3847656-2.2958984-5.2373047-4.0537109
			c-1.0649414-2.2011719-0.9887695-5.3115234,0.1904297-7.6777344c0.7573242-1.5214844,1.8945313-2.8017578,8.9101563-10.0205078
			c3.0805664-3.1708984,6.5483398-6.7783203,7.7055664-8.0185547c1.1577148-1.2402344,3.9541016-4.0537109,6.215332-6.2529297
			l4.1098633-3.9990234l-2.909668-2.9501953c-1.6010742-1.6210938-3.2587891-3.3583984-3.6850586-3.859375
			c-0.4257813-0.5009766-3.1049805-3.2763672-5.9536133-6.1679688c-5.6083984-5.6972656-11.1049805-11.6445313-12.480957-13.5058594
			c-1.8828125-2.5478516-2.3291016-5.4169922-1.2036133-7.7324219c1.1503906-2.3662109,4.1240234-4.6015625,6.4858398-4.8769531
			c1.1298828-0.1328125,2.9223633,0.2626953,4.6367188,1.0205078c1.2539063,0.5546875,4.5605469,3.5146484,7.1625977,6.4121094
			c1.7001953,1.8935547,6.6176758,7.1123047,14.8920898,15.8076172l4.0400391,4.2441406l4.5361328-4.6289063
			c2.4951172-2.5458984,5.5859375-5.765625,6.8671875-7.15625c1.2832031-1.390625,4.8271484-5.0996094,7.8789063-8.2421875
			c5.0888672-5.2421875,5.6669922-5.7724609,7.0146484-6.4384766c4.1201172-2.0371094,8.9365234-0.4228516,10.9443359,3.6679688
			c0.5253906,1.0703125,0.5888672,1.4033203,0.5751953,3.0224609c-0.0175781,2.0771484-0.4628906,3.4804688-1.5546875,4.8925781
			c-1.5869141,2.0527344-4.6210938,5.3701172-9.0927734,9.9394531c-2.6484375,2.7070313-5.8525391,6.0761719-7.1201172,7.4833984
			c-1.2675781,1.4101563-3.7666016,4.0136719-5.5517578,5.7890625l-3.2490234,3.2265625l6.4160156,6.5449219
			c3.5273438,3.5996094,9.2900391,9.4736328,12.8046875,13.0546875c6.6933594,6.8183594,7.4228516,7.7236328,8.2763672,10.2529297
			c0.9316406,2.7587891,0.1933594,5.7236328-2.0273438,8.1533203c-1.9238281,2.1054688-5.0761719,2.8876953-8.0263672,1.9921875
			c-1.71875-0.5234375-2.7763672-1.2636719-4.6123047-3.2324219c-3.5019531-3.7529297-11.3994141-11.9462891-14.2685547-14.8017578
			c-1.7324219-1.7236328-3.6289063-3.7265625-4.2148438-4.4492188c-0.5859375-0.7236328-2.03125-2.2880859-3.2099609-3.4794922
			l-2.1455078-2.1640625l-1.4287109,1.3242188c-0.7871094,0.7275391-3.0224609,2.9941406-4.9697266,5.0371094
			s-5.5878906,5.8583984-8.090332,8.4785156s-5.8989258,6.1962891-7.5483398,7.9462891
			c-3.1860352,3.3847656-4.9355469,4.7685547-6.784668,5.3632813
			C368.8686523,499.6162109,367.1630859,499.6386719,365.824707,499.2695313z"/>
		<path id="XMLID_9_" class="st1" d="M576.3300781,480.3251953c-2.7773438-0.3310547-7.7001953-1.7060547-9.9326172-2.7734375
			c-8.8583984-4.2392578-14.7998047-11.7402344-16.7041016-21.0878906
			c-0.5214844-2.5537109-0.5664063-8.5683594-0.0839844-11.1328125c0.4287109-2.2724609,1.9912109-7.0429688,2.8457031-8.6835938
			c0.3808594-0.7304688,1.8203125-2.7480469,3.1992188-4.4814453c2.5947266-3.2617188,4.4580078-5.046875,7.078125-6.7792969
			c1.8115234-1.1972656,6.6357422-3.3398438,8.7226563-3.8720703c2.1601563-0.5517578,5.6953125-0.875,8.8828125-0.8105469
			c1.4453125,0.0292969,5.7470703,0.0361328,9.5566406,0.015625l6.9267578-0.0361328l0.0029297-9.4550781
			c0-5.5380859,0.0878906-10,0.2099609-10.7705078c1.0498047-6.5849609,8-9.1796875,12.8486328-4.7958984
			c1.1503906,1.0400391,2.1777344,2.796875,2.5136719,4.2978516c0.2539063,1.1259766,0.3417969,11.2382813,0.4287109,48.5507813
			l0.0556641,24.0839844l-0.5478516,1.1201172c-0.6357422,1.2988281-1.4501953,1.9384766-3.5576172,2.796875
			c-2.5419922,1.0341797-7.8935547,2.3925781-12.4599609,3.1630859l-4.4492188,0.7519531l-6.9775391,0.0439453
			C581.0507813,480.4941406,577.1992188,480.4287109,576.3300781,480.3251953z M593.1132813,464.7753906h3.5068359v-14.4736328
			v-14.4746094l-9.4560547,0.0751953c-10.6582031,0.0830078-10.4902344,0.0634766-13.703125,1.6669922
			c-2.2822266,1.1396484-3.6757813,2.2763672-5.0839844,4.1503906c-2.1855469,2.9052734-3.0029297,5.1650391-2.9960938,8.2910156
			c0.0058594,3.9560547,1.3544922,7.5595703,3.6875,9.8583984c2.7080078,2.6679688,4.2431641,3.5380859,7.9804688,4.5224609
			l2.2783203,0.5996094l5.1396484-0.1074219C587.2929688,464.8242188,591.1835938,464.7753906,593.1132813,464.7753906z"/>
		<path id="XMLID_8_" class="st1" d="M478.2949219,478.5195313c-0.6083984-0.7841797-1.4003906-1.8076172-1.7578125-2.2753906
			c-0.9199219-1.203125-5.1044922-6.9238281-6.9091797-9.4462891c-1.9326172-2.7041016-3.8388672-5.3251953-7.6455078-10.5166016
			c-1.6708984-2.2802734-4.0820313-5.6484375-5.3574219-7.484375c-2.8388672-4.0888672-5.4267578-7.6318359-7.2382813-9.9101563
			c-1.9150391-2.4101563-4.5341797-6.4316406-5.0957031-7.8261719c-0.3789063-0.9423828-0.4726563-1.5537109-0.4736328-3.0957031
			c-0.0009766-1.6835938,0.0683594-2.0703125,0.5664063-3.1347656c0.6982422-1.4931641,2.1572266-2.9072266,3.8632813-3.7470703
			c2.5283203-1.2451172,5.6660156-0.9414063,7.9013672,0.7626953c1.2773438,0.9755859,3.2167969,3.2851563,4.5957031,5.4746094
			c1.5585938,2.4746094,2.9882813,4.6074219,8.6992188,12.9824219c5.6542969,8.2929688,6.8359375,9.9921875,7.2880859,10.4853516
			c0.2714844,0.2958984,0.9316406,1.1298828,1.46875,1.8515625c0.5361328,0.7236328,1.0390625,1.3886719,1.1162109,1.4785156
			c0.1201172,0.1396484,1.6835938-1.8417969,2.3222656-2.9394531c0.1103516-0.1914063,1.1572266-1.6757813,2.3251953-3.2988281
			c2.859375-3.9707031,6.3251953-8.8525391,6.5732422-9.2578125c0.2089844-0.3408203,0.3232422-0.5087891,3.9765625-5.8261719
			c1.1923828-1.7363281,2.6621094-3.9804688,3.265625-4.9863281c1.5205078-2.5351563,3.9814453-5.5361328,5.1542969-6.2900391
			c2.1123047-1.3554688,4.4111328-1.6347656,6.9560547-0.8427734c2.0888672,0.6484375,4.0927734,2.4697266,4.8330078,4.390625
			c0.7685547,1.9960938,0.5625,4.6005859-0.5351563,6.765625c-0.9238281,1.8251953-5.4628906,8.2578125-10.2119141,14.4726563
			c-1.1748047,1.5380859-3.1240234,4.2509766-4.3339844,6.0302734c-1.2099609,1.7802734-2.671875,3.828125-3.2490234,4.5517578
			c-0.5791016,0.7226563-1.6787109,2.1972656-2.4433594,3.2753906c-2.3652344,3.3398438-14.4296875,19.7822266-14.515625,19.7822266
			C479.4160156,479.9443359,478.9042969,479.3027344,478.2949219,478.5195313z"/>
		<path id="XMLID_7_" class="st1" d="M528.9296875,479.7333984c-2.1552734-0.4257813-4.4228516-2.0273438-5.3916016-3.8076172
			c-1.1787109-2.1669922-1.1826172-2.2167969-1.1103516-22.2744141c0.0849609-24.0888672,0.1669922-27.2529297,0.7470703-28.7480469
			c0.5771484-1.4853516,1.9736328-2.7988281,4.0068359-3.7646484c1.2802734-0.6064453,1.8261719-0.7470703,3.1816406-0.8183594
			c1.4023438-0.0742188,1.8134766-0.0136719,2.8837891,0.4208984c2.75,1.1181641,3.9736328,2.4873047,4.7558594,5.3193359
			c0.4375,1.5849609,0.4433594,1.8164063,0.5693359,23.0410156c0.0703125,11.7900391,0.0546875,21.9960938-0.0322266,22.6787109
			c-0.2675781,2.0546875-1.0898438,4.34375-1.9033203,5.2939453
			C534.7099609,479.3261719,531.8544922,480.3115234,528.9296875,479.7333984z"/>
	</g>
	<g>
		<path id="XMLID_6_" class="st1" d="M337.9448242,365.0195313c-1-0.3164063-3.3115234-1.4707031-5.1357422-2.5683594
			c-7.9467773-4.7705078-10.2431641-15.4921875-6.9897461-32.6328125
			c1.715332-9.0361328,6.9213867-22.4257813,12.8579102-33.0693359c6.3188477-11.3261719,7.9726563-13.9472656,11.0849609-17.59375
			c1.7114258-2.0039063,4.394043-5.7509766,5.9624023-8.3310547c4.2939453-7.0688477,14.7226563-19.9311523,22.5625-27.8330078
			c5.8857422-5.9345703,7.7207031-7.3955078,11.6601563-9.2822266c7.8828125-3.7788086,14.8056641-5.8935547,20.5048828-6.2524414
			c4.6679688-0.2949219,5.7021484-0.1430664,10.9013672,1.6020508c8.2841797,2.7749023,14.5439453,5.8681641,22.5371094,11.1191406
			c7.9873047,5.2548828,12.1210938,9.4145508,14.9414063,15.0478516c3.9150391,7.8056641,4.6611328,14.0390625,2.5185547,20.9863281
			c-2.9160156,9.4482422-4.4345703,11.5380859-19.2666016,26.5234375
			c-14.4023438,14.5517578-28.3691406,26.7919922-36.7011719,32.1689453
			c-2.7167969,1.7539063-6.9013672,4.671875-9.2988281,6.4863281
			c-10.3134766,7.8027344-30.3789063,18.7919922-40.2397461,22.0390625
			C350.2407227,365.2753906,341.2792969,366.0703125,337.9448242,365.0195313z"/>
		<path id="XMLID_5_" class="st1" d="M606.4414063,364.3994141c-4.1914063-1.1298828-8.5751953-3.0117188-22.4521484-9.6171875
			c-5.1953125-2.4775391-22.2294922-12.9951172-30.0566406-18.5595703c-2.3242188-1.6533203-5.7294922-4.4052734-7.5625-6.1142578
			c-1.8369141-1.7089844-4.9775391-4.3554688-6.9765625-5.8808594c-2.0039063-1.5253906-4.4609375-3.6503906-5.4599609-4.7167969
			c-1.0048828-1.0703125-4.5507813-4.1972656-7.8916016-6.953125
			c-11.1513672-9.2070313-25.6650391-25.2958984-28.7666016-31.8837891
			c-1.4228516-3.0224609-1.5722656-4.03125-1.5507813-10.6191406c0.0253906-11.4262695,2.2089844-16.2177734,11.3857422-24.9550781
			c3.9179688-3.7299805,6.6738281-5.6650391,12.5830078-8.8505859c8.390625-4.5180664,11.0400391-5.5820313,17.2685547-6.9150391
			c9.1396484-1.9545898,20.6064453-0.6918945,28.5185547,3.140625c4.8583984,2.3520508,14.8642578,11.1894531,24.0078125,21.199707
			c6.7753906,7.4169922,22.1484375,27.8569336,26.2451172,34.8891602
			c5.28125,9.0615234,12.8818359,25.0966797,15.1376953,31.9189453c2.9609375,8.9619141,3.6699219,13.1679688,3.7294922,22.0800781
			c0.0517578,7.3896484,0,7.6972656-1.9824219,11.9267578c-1.1191406,2.3867188-2.8964844,5.171875-3.9472656,6.1884766
			C623.9755859,365.2285156,615.0332031,366.7236328,606.4414063,364.3994141z"/>
		<path id="XMLID_4_" class="st1" d="M402.8691406,195.0991211c-5.2724609-1.0727539-14.9384766-6.3125-21.3134766-11.5507813
			c-4.3662109-3.5888672-13.5073242-14.2080078-20.7939453-24.1542969
			c-2.5380859-3.4628906-6.6606445-9.0620117-9.1645508-12.4433594c-2.503418-3.3818359-5.0795898-7.3725586-5.7226563-8.8720703
			c-0.6474609-1.4995117-2.7451172-5.5947266-4.6635742-9.0981445c-4.1679688-7.6049805-12.1425781-27.5292969-14.015625-35.0083008
			c-1.9355469-7.7397461-1.9291992-18.0961914,0.0170898-22.3300781c2.5356445-5.5200195,6.6967773-8.5537109,13.7294922-10.0063477
			c4.7060547-0.9741211,7.3740234-0.5532227,17.5893555,2.7685547c9.6796875,3.1445313,16.2504883,6.2763672,22.7978516,10.862793
			c2.5039063,1.7539063,6.5986328,4.3432617,9.1005859,5.7529297c2.5039063,1.409668,6.3251953,3.9946289,8.4960938,5.746582
			c2.1679688,1.7495117,5.0351563,3.8706055,6.3720703,4.7124023c1.3330078,0.84375,4.3769531,3.1401367,6.7607422,5.1079102
			c2.3886719,1.965332,6.6210938,5.2099609,9.40625,7.2119141c2.9433594,2.1123047,10.9863281,9.5317383,19.1875,17.6943359
			c13.0097656,12.9453125,14.2832031,14.4023438,16.1738281,18.5083008
			c3.0185547,6.5390625,4.1777344,11.1083984,4.2402344,16.6499023c0.0507813,4.7529297-0.0556641,5.1289063-3.09375,11.2255859
			c-3.6953125,7.4213867-5.6601563,9.5981445-14.4599609,16.0087891c-9.9414063,7.2460938-14.9257813,9.6044922-23.6132813,11.1875
			C415.7949219,195.8168945,406.4746094,195.8339844,402.8691406,195.0991211z"/>
		<path id="XMLID_3_" class="st1" d="M539.9570313,195.1308594c-11.2148438-1.5893555-24.7373047-8.6879883-33.5302734-17.6088867
			c-7.6689453-7.7758789-10.1943359-14.1289063-9.6513672-24.2695313
			c0.4384766-8.184082,1.8027344-10.9267578,10.7197266-21.5395508c7.2548828-8.6435547,13.5869141-14.699707,23.7080078-22.6806641
			c5.1699219-4.0820313,11.5869141-9.2666016,14.2568359-11.5249023
			c6.8574219-5.8017578,19.1582031-14.9448242,24.8789063-18.4931641c2.6660156-1.6577148,6.7626953-4.300293,9.1005859-5.8725586
			c2.3320313-1.5722656,6.5703125-3.6958008,9.4033203-4.7167969c2.8369141-1.0209961,7.703125-2.8457031,10.8173828-4.0522461
			c7.375-2.8608398,13.7197266-3.8046875,19.5126953-2.9077148c5.921875,0.9145508,8.5361328,2.7988281,11.0869141,7.9682617
			c1.7949219,3.6401367,1.9873047,4.5883789,2.1748047,10.6748047c0.2099609,6.5776367-0.6103516,15.9042969-1.8154297,20.659668
			c-0.3339844,1.3349609-2.1191406,5.4301758-3.9736328,9.1000977c-1.8496094,3.6699219-4.2548828,8.8588867-5.3447266,11.5292969
			c-1.0810547,2.6704102-3.4394531,7.3676758-5.234375,10.4418945c-1.7900391,3.0742188-4.2119141,7.2822266-5.3789063,9.3564453
			c-2.375,4.2148438-8.8349609,13.5053711-11.9707031,17.2138672c-12.3183594,14.5712891-24.5966797,27.09375-30.1123047,30.7041016
			c-6.0712891,3.9775391-12.5224609,6.1054688-19.2011719,6.3383789
			C546.2333984,195.5605469,541.9824219,195.4194336,539.9570313,195.1308594z"/>
	</g>
</g>
</svg>
