<?xml version="1.0" encoding="utf-8"?>
<!DOCTYPE svg PUBLIC "-//W3C//DTD SVG 1.1//EN" "http://www.w3.org/Graphics/SVG/1.1/DTD/svg11.dtd">
<svg version="1.1" id="Layer_1" xmlns="http://www.w3.org/2000/svg" viewBox="200 180 612 612">
<style type="text/css">
<![CDATA[
	.st0{fill:url(#SVGID_1_);}
	.st1{fill:#FFFFFF;}
]]>
</style>
<linearGradient id="SVGID_1_" gradientUnits="userSpaceOnUse" x1="157.5361328" y1="537.9511719" x2="157.5361176" y2="69.8364258" gradientTransform="matrix(1.307373 0 0 -1.307373 300.041626 883.3011475)">
	<stop  offset="0" style="stop-color:#047FF1"/>
	<stop  offset="0.1764294" style="stop-color:#077BE8"/>
	<stop  offset="0.4696989" style="stop-color:#0E72CE"/>
	<stop  offset="0.841405" style="stop-color:#1A62A5"/>
	<stop  offset="0.994382" style="stop-color:#205B92"/>
</linearGradient>
<rect x="200" y="180" class="st0" width="612" height="612"/>
<g>
	<path class="st1" d="M491.6572266,436.0800781c51.1728516-20.8554688,101.8154297-41.4960938,152.8544922-62.2949219
		c8.3984375,21.5214844,16.6972656,42.7900391,25.1210938,64.375c-1.8925781,0.8574219-3.5839844,1.6757813-5.3125,2.4023438
		c-41.0458984,17.2089844-82.1054688,34.3876953-123.1210938,51.671875
		c-2.3554688,0.9921875-3.6035156,0.8798828-5.2890625-1.2265625
		c-13.7871094-17.2421875-27.7226563-34.3662109-41.609375-51.5292969
		C493.5078125,438.5,492.7509766,437.4882813,491.6572266,436.0800781z"/>
	<path class="st1" d="M488.2148438,444.7363281c4.5488281,5.6074219,8.5585938,10.5263672,12.5429688,15.4638672
		c10.7792969,13.3564453,21.6035156,26.6796875,32.265625,40.1318359c1.6191406,2.0410156,2.9296875,1.7246094,4.875,0.90625
		c32.2773438-13.5839844,64.5722656-27.1191406,96.8691406-40.6591797c1.1523438-0.4833984,2.3359375-0.8896484,3.8125-1.4482422
		c0.0585938,1.3466797,0.1425781,2.3710938,0.1435547,3.3974609c0.0087891,13.9697266-0.0380859,27.9414063,0.0498047,41.9111328
		c0.0136719,2.203125-0.5527344,3.3515625-2.7402344,4.2636719c-33.8994141,14.1152344-67.7402344,28.375-101.6230469,42.53125
		c-14.4326172,6.03125-28.9316406,11.90625-43.4042969,17.8417969c-0.859375,0.3515625-1.7558594,0.6152344-2.7910156,0.9726563
		C488.2148438,528.3955078,488.2148438,487.0117188,488.2148438,444.7363281z"/>
	<path class="st1" d="M480.4111328,442.4492188c0,41.5742188,0,82.7695313,0,124.5566406
		c-5.4619141-4.3398438-10.5185547-8.3535156-15.5693359-12.3730469
		c-26.4433594-21.0458984-52.8720703-42.1113281-79.3613281-63.0996094
		c-1.7685547-1.4003906-2.4726563-2.7949219-2.4560547-5.0585938c0.1064453-14.0751953,0.0537109-28.1523438,0.0537109-42.2304688
		c0-1.0410156,0-2.0830078,0-3.7324219c1.375,0.9667969,2.3105469,1.5664063,3.1835938,2.2460938
		c9.1621094,7.1484375,18.3554688,14.2587891,27.4355469,21.5078125c1.7363281,1.3867188,3.140625,1.5410156,5.1855469,0.78125
		c19.3476563-7.1972656,38.7363281-14.2841797,58.1152344-21.4003906
		C478.0664063,443.2539063,479.1464844,442.8916016,480.4111328,442.4492188z"/>
	<path class="st1" d="M331.3144531,388.3769531c4.3359375-3.1269531,7.9492188-5.7421875,11.5693359-8.34375
		c9.2548828-6.65625,18.5234375-13.2929688,27.7587891-19.9765625c1.3740234-0.9931641,2.3847656-1.6396484,4.1503906-0.3378906
		c33.5283203,24.7226563,67.1171875,49.3652344,100.6894531,74.0283203c0.3339844,0.2470703,0.6191406,0.5625,1.3359375,1.2236328
		c-1.15625,0.515625-2.03125,0.953125-2.9414063,1.3037109c-17.6660156,6.8095703-35.34375,13.5966797-53,20.4345703
		c-1.6074219,0.6230469-2.7910156,0.7558594-4.3291016-0.4804688
		c-27.8271484-22.3564453-55.7138672-44.6347656-83.5947266-66.9238281
		C332.6230469,389.0410156,332.2119141,388.8789063,331.3144531,388.3769531z"/>
	<path class="st1" d="M558.1914063,381.3515625c-10.2871094,3.7949219-20.0507813,7.3886719-29.8115234,10.9980469
		C515.4072266,397.1455078,502.4541016,402,489.4384766,406.6816406c-1.2607422,0.453125-3.2841797,0.3984375-4.3037109-0.3291016
		c-14.7392578-10.5341797-29.3681641-21.2236328-44.0244141-31.8759766
		c-0.2578125-0.1865234-0.5224609-0.3652344-1.3291016-0.9296875c1.3925781-0.6005859,2.2675781-1.0341797,3.1806641-1.3632813
		c21.9189453-7.90625,43.8330078-15.824707,65.7841797-23.6337891c1.2001953-0.4262695,3.0957031-0.4404297,4.0527344,0.2299805
		c14.7421875,10.3432617,29.3847656,20.831543,44.0458984,31.2924805
		C557.1757813,380.3095703,557.4433594,380.6347656,558.1914063,381.3515625z"/>
	<path class="st1" d="M520.4863281,322.1479492c7.3828125-2.4155273,14.1171875-4.6386719,20.8652344-6.8222656
		c14.0595703-4.5517578,28.1152344-9.1235352,42.2119141-13.5571289c1.3515625-0.4243164,3.2626953-0.440918,4.4521484,0.2041016
		c15.0585938,8.1728516,30.0351563,16.5,45.0273438,24.7988281c0.5273438,0.2910156,0.9980469,0.684082,1.8027344,1.2441406
		c-1.0175781,0.5424805-1.7011719,0.9829102-2.4394531,1.2861328c-20.7636719,8.5185547-41.5214844,17.0532227-62.3320313,25.456543
		c-1.2226563,0.4941406-3.265625,0.4604492-4.28125-0.2504883c-14.5683594-10.2045898-29.0273438-20.5664063-43.5097656-30.8959961
		C521.8603516,323.3100586,521.4746094,322.9555664,520.4863281,322.1479492z"/>
	<path class="st1" d="M389.9492188,314.8598633c10.1777344-3.3833008,20.3564453-6.7641602,30.5332031-10.152832
		c10.09375-3.3603516,20.1699219-6.7832031,30.3007813-10.0268555c1.2265625-0.3930664,3.0234375-0.3017578,4.1054688,0.3334961
		c14.3232422,8.421875,28.5683594,16.9799805,42.828125,25.5097656c0.359375,0.2138672,0.6748047,0.4960938,1.5029297,1.1113281
		c-1.2080078,0.5415039-2.0673828,0.9873047-2.96875,1.3222656c-20.6435547,7.6796875-41.28125,15.3730469-61.9619141,22.9511719
		c-1.1777344,0.4311523-3.0859375,0.4165039-4.0175781-0.2626953c-13.2578125-9.6748047-26.40625-19.5009766-39.5878906-29.2822266
		c-0.3417969-0.2529297-0.7607422-0.4003906-1.1435547-0.5966797
		C389.6767578,315.4643555,389.8134766,315.1621094,389.9492188,314.8598633z"/>
	<path class="st1" d="M578.7167969,269.3183594c-11.7421875,4.2114258-22.8496094,8.1889648-33.953125,12.1787109
		c-9.9150391,3.5639648-19.8066406,7.2021484-29.765625,10.6396484c-1.2988281,0.4477539-3.2597656,0.4155273-4.3798828-0.2685547
		c-14.6416016-8.9423828-29.1875-18.0405273-43.75-27.1098633c-0.5146484-0.3198242-0.9658203-0.7416992-1.9736328-1.5283203
		c4.9511719-1.4213867,9.3964844-2.7026367,13.8457031-3.9726563c17.0888672-4.8813477,34.1738281-9.7817383,51.2841797-14.5874023
		c1.2080078-0.3393555,2.8544922-0.4140625,3.8935547,0.140625c14.4736328,7.7211914,28.875,15.5722656,43.2900391,23.3999023
		C577.5517578,268.3964844,577.8457031,268.6743164,578.7167969,269.3183594z"/>
	<path class="st1" d="M569.3652344,394.7470703c0-9.875-0.0703125-19.3505859,0.1113281-28.8193359
		c0.0166016-0.9160156,1.421875-2.2128906,2.4667969-2.6445313c16.8105469-6.9365234,33.6660156-13.762207,50.5117188-20.6118164
		c6.2871094-2.5561523,12.5771484-5.1079102,19.4755859-7.9091797c0,1.9658203,0,3.4941406,0,5.0219727
		c0,7.6723633-0.0283203,15.3442383,0.0224609,23.015625c0.0097656,1.6162109-0.1953125,2.7216797-1.9882813,3.4443359
		c-22.9804688,9.2636719-45.9257813,18.6152344-68.8818359,27.9394531
		C570.7041016,394.3378906,570.3046875,394.4414063,569.3652344,394.7470703z"/>
	<path class="st1" d="M592.40625,270.7143555c29.6660156,16.9614258,58.8007813,33.6186523,88.2578125,50.4594727
		c-10.8222656,12.0224609-21.328125,23.6958008-32.2988281,35.8847656
		c-0.1347656-1.3823242-0.2578125-2.0639648-0.2578125-2.7460938c0-8.4189453-0.0683594-16.8398438,0.09375-25.2558594
		c0.0419922-2.1347656-0.6777344-3.1953125-2.4736328-4.2138672c-16.8505859-9.5585938-33.625-19.2509766-50.4873047-28.7900391
		c-2.1269531-1.2026367-2.9746094-2.4916992-2.9003906-4.9814453
		C592.5351563,284.5078125,592.40625,277.9355469,592.40625,270.7143555z"/>
	<path class="st1" d="M428.1210938,387.3173828c-9.7890625-6.8046875-18.8769531-13.1201172-27.9628906-19.4365234
		c-4.8134766-3.3457031-9.6542969-6.65625-14.4101563-10.0820313c-0.8525391-0.6132813-1.921875-1.7050781-1.9335938-2.5883789
		c-0.1328125-10.6333008-0.0869141-21.269043-0.0869141-32.3530273c1.0205078,0.5600586,1.6708984,0.8378906,2.234375,1.2373047
		c13.21875,9.3720703,26.4052734,18.7890625,39.6650391,28.0991211c1.8554688,1.3022461,2.5839844,2.6801758,2.5527344,4.972168
		C428.0449219,366.9501953,428.1210938,376.7382813,428.1210938,387.3173828z"/>
	<path class="st1" d="M586.234375,275.2792969c0,5.078125-0.1083984,9.5527344,0.046875,14.0175781
		c0.0742188,2.1728516-1.4511719,2.3432617-2.7949219,2.815918c-20.2822266,7.1293945-40.5712891,14.2407227-60.8603516,21.3540039
		c-2.3896484,0.8364258-4.7822266,1.6601563-7.6611328,2.6577148c0-5.15625-0.1201172-9.9116211,0.1230469-14.6479492
		c0.0390625-0.7724609,1.5849609-1.7753906,2.6210938-2.1425781c20.2636719-7.1767578,40.5546875-14.2768555,60.8398438-21.3886719
		C580.9384766,277.1074219,583.3339844,276.2851563,586.234375,275.2792969z"/>
	<path class="st1" d="M362.4619141,306.9946289c29.6435547-10.1791992,58.9677734-20.2485352,88.6943359-30.4555664
		c0,3.2338867,0.2011719,6.0097656-0.1171875,8.7246094c-0.1005859,0.8510742-1.4726563,1.8964844-2.4746094,2.2460938
		c-14.5634766,5.0878906-29.1650391,10.0683594-43.7539063,15.0839844
		c-8.2519531,2.8364258-16.4707031,5.7666016-24.7597656,8.4814453c-2.0039063,0.65625-2.5654297,1.6142578-2.5449219,3.6337891
		c0.0976563,9.9047852,0.0449219,19.8115234-0.6074219,29.8964844
		C372.1035156,332.1152344,367.3085938,319.6240234,362.4619141,306.9946289z"/>
	<path class="st1" d="M507.4960938,327.7294922c0,4.0473633,0.2089844,7.4682617-0.125,10.8369141
		c-0.1015625,1.0375977-1.5039063,2.4003906-2.6113281,2.8183594
		c-17.9082031,6.7587891-35.8652344,13.3896484-53.8105469,20.0507813
		c-5.1621094,1.9160156-10.3232422,3.8339844-16.0019531,5.9433594c0-4.1298828-0.1582031-7.8183594,0.1230469-11.4731445
		c0.0625-0.8105469,1.5566406-1.8134766,2.5878906-2.2006836c17.9238281-6.7246094,35.875-13.3666992,53.8222656-20.0268555
		C496.6425781,331.762207,501.8046875,329.84375,507.4960938,327.7294922z"/>
	<path class="st1" d="M508.140625,317.4448242c-2.7910156-1.6533203-5.0605469-2.9697266-7.3027344-4.331543
		c-13.6582031-8.296875-27.2900391-16.637207-40.9902344-24.8652344c-1.8691406-1.1225586-2.6484375-2.3417969-2.5654297-4.5546875
		c0.1728516-4.7446289,0.0537109-9.5009766,0.0537109-14.8500977c2.7890625,1.652832,5.0585938,2.9697266,7.3007813,4.3320313
		c13.6582031,8.2958984,27.2900391,16.6367188,40.9892578,24.8647461c1.8681641,1.1220703,2.6484375,2.3408203,2.5673828,4.5546875
		C508.0175781,307.3393555,508.140625,312.0957031,508.140625,317.4448242z"/>
	<path class="st1" d="M487.4306641,429.1796875c0-3.3740234-0.0947266-6.5449219,0.0712891-9.6992188
		c0.0380859-0.7109375,0.84375-1.7265625,1.5380859-2.0107422c24.4296875-9.9804688,48.8896484-19.8896484,73.3466797-29.8017578
		c0.0800781-0.0332031,0.2011719,0.0400391,0.7783203,0.1728516c0,3.21875,0.0791016,6.5625-0.0771484,9.8945313
		c-0.0273438,0.5732422-0.9697266,1.3330078-1.6503906,1.6103516
		c-24.1396484,9.8554688-48.2988281,19.6660156-72.4589844,29.4726563
		C488.6074219,428.9697266,488.1894531,429.0058594,487.4306641,429.1796875z"/>
	<path class="st1" d="M480.6132813,426.7851563c-1.2929688-0.8222656-2.09375-1.2734375-2.8359375-1.8066406
		c-13.4863281-9.7197266-26.9326172-19.4941406-40.4785156-29.1308594
		c-2.2148438-1.5771484-3.3730469-3.1953125-3.0664063-6.0117188c0.2734375-2.5097656,0.0566406-5.0732422,0.0566406-8.0507813
		c1.0644531,0.59375,1.8056641,0.9121094,2.4453125,1.3730469c13.8291016,9.9707031,27.6269531,19.984375,41.4921875,29.9082031
		c1.7275391,1.2363281,2.5898438,2.5136719,2.4355469,4.7089844
		C480.4628906,420.59375,480.6132813,423.4345703,480.6132813,426.7851563z"/>
	<path class="st1" d="M563.1923828,373.2402344c-9.3164063-6.3730469-17.9248047-12.2607422-26.5302734-18.1474609
		c-6.5097656-4.4526367-12.9667969-8.9873047-19.5634766-13.3105469c-2.1083984-1.3823242-3.1064453-2.8955078-2.8330078-5.4370117
		c0.2119141-1.9780273,0.0410156-3.9975586,0.0410156-6.5234375c1.3076172,0.7753906,2.2089844,1.2446289,3.0410156,1.8144531
		c14.2548828,9.7446289,28.4648438,19.5571289,42.7890625,29.1977539c2.3046875,1.5507813,3.4501953,3.1386719,3.0996094,5.9355469
		C563.0019531,368.6337891,563.1923828,370.5507813,563.1923828,373.2402344z"/>
</g>
<g>
	<path class="st1" d="M299.0625,745.6132813c0.9707031,6.6308594,9.0566406,10.9980469,18.2734375,10.9980469
		c10.2695313,0,16.5761719-4.125,16.5761719-9.7851563c0-5.4179688-4.2851563-7.7617188-16.8183594-10.0253906l-15.4433594-2.75
		c-21.4277344-3.71875-33.0722656-16.0097656-33.0722656-34.2851563c0-23.609375,20.2148438-38.4882813,48.03125-38.4882813
		c31.0488281,0,48.4335938,14.2304688,48.5957031,36.8710938h-31.2929688c-0.2421875-7.2773438-7.4375-11.5625-16.65625-11.5625
		c-8.9746094,0-14.6347656,3.7207031-14.6347656,9.5410156c0,5.5800781,4.7695313,8.4902344,15.8476563,10.4316406l16.0097656,2.75
		c22.640625,3.9609375,33.234375,14.7148438,33.234375,33.6367188C367.7128906,766.7988281,347.7402344,782,316.6894531,782
		c-31.2929688,0-49.9707031-13.0996094-50.0507813-36.3867188H299.0625z"/>
	<path class="st1" d="M430.5390625,663.2988281c35.4179688,0,56.1972656,20.1347656,56.1972656,57.4902344
		c0,37.3574219-20.8613281,59.1894531-56.1972656,59.1894531h-49.8886719V663.2988281H430.5390625z M414.9335938,752.7285156
		H425.6875c17.1425781,0,26.1191406-10.4296875,26.1191406-31.9394531c0-19.6484375-9.703125-30.2402344-26.1191406-30.2402344
		h-10.7539063V752.7285156z"/>
	<path class="st1" d="M557.8925781,779.9785156v-89.4296875h-30.7265625v-27.25h95.7382813v27.25h-30.7265625v89.4296875
		H557.8925781z"/>
	<path class="st1" d="M664.3847656,779.9785156L628.96875,663.2988281h39.4589844l18.6796875,84.1738281h0.6464844
		l18.6777344-84.1738281h37.8417969l-35.4160156,116.6796875H664.3847656z"/>
</g>
</svg>
