<?xml version="1.0" encoding="utf-8"?>
<!DOCTYPE svg PUBLIC "-//W3C//DTD SVG 1.1//EN" "http://www.w3.org/Graphics/SVG/1.1/DTD/svg11.dtd">
<svg version="1.1" id="games" xmlns="http://www.w3.org/2000/svg" viewBox="200 0 560 560">
<style type="text/css">
<![CDATA[
	.st0{fill:url(#SVGID_1_);}
	.st1{fill:#FFFFFF;}
]]>
</style>
<linearGradient id="SVGID_1_" gradientUnits="userSpaceOnUse" x1="229.2426758" y1="210.8144531" x2="229.2426605" y2="722.8149414" gradientTransform="matrix(1.09375 0 0 1.09375 229.265625 -230.578125)">
	<stop  offset="0" style="stop-color:#F4B113"/>
	<stop  offset="0.1749831" style="stop-color:#EBAB15"/>
	<stop  offset="0.4659598" style="stop-color:#D19A19"/>
	<stop  offset="0.8347928" style="stop-color:#A88020"/>
	<stop  offset="0.994382" style="stop-color:#947323"/>
</linearGradient>
<rect x="200" class="st0" width="560" height="560"/>
<g>
	<path class="st1" d="M480.0048828,324.296875h-44.1396484l-45.5341797-81.465332
		c-1.3427734-2.4780273-2.8408203-5.9868164-4.4912109-10.53125h-0.6196289
		c-0.9291992,2.2719727-2.4780273,5.7836914-4.6459961,10.53125l-46.9277344,81.465332h-44.449707l72.7919922-111.6660156
		l-66.9067383-110.4272461h45.0693359l40.112793,74.9604492c2.5795898,4.9560547,4.902832,9.9121094,6.9692383,14.8681641h0.4648438
		c2.9936523-6.5048828,5.5756836-11.6665039,7.7441406-15.487793l41.6611328-74.3408203h41.5078125l-68.4560547,110.1171875
		L480.0048828,324.296875z"/>
	<path class="st1" d="M510.3603516,324.296875V102.2036133h70.4697266c21.4736328,0,38.4863281,4.699707,51.0322266,14.09375
		c12.5439453,9.3969727,18.8164063,21.6323242,18.8164063,36.7060547c0,12.5981445-3.5615234,23.5410156-10.6855469,32.8334961
		c-7.1240234,9.2929688-16.9853516,15.9018555-29.5830078,19.8242188v0.6196289
		c15.28125,1.7573242,27.4912109,7.4101563,36.6298828,16.9589844c9.1367188,9.5517578,13.7060547,21.96875,13.7060547,37.2480469
		c0,18.9990234-7.4873047,34.3823242-22.4580078,46.152832s-33.8652344,17.65625-56.6845703,17.65625H510.3603516z
		 M547.0673828,131.7851563v63.1894531h23.8505859c12.8007813,0,22.8447266-3.0200195,30.1230469-9.0600586
		c7.2802734-6.0400391,10.9179688-14.5825195,10.9179688-25.6323242c0-18.9960938-12.6992188-28.4970703-38.0996094-28.4970703
		H547.0673828z M547.0673828,224.5561523v70.3139648h31.4384766c13.7314453,0,24.3398438-3.1748047,31.828125-9.5253906
		c7.4853516-6.3491211,11.2275391-15.0996094,11.2275391-26.2509766c0-23.0234375-15.9511719-34.5375977-47.8554688-34.5375977
		H547.0673828z"/>
</g>
<g>
	<path class="st1" d="M274.3984375,489.03125c-29.390625,0-47.671875-20.390625-47.671875-53.296875
		c0-32.484375,18.4921875-53.2265625,47.390625-53.2265625c23.4140625,0,40.5703125,13.359375,43.8046875,34.1015625h-18.0703125
		c-3.65625-11.53125-12.7265625-17.9296875-25.734375-17.9296875c-17.71875,0-28.828125,14.1328125-28.828125,36.9140625
		c0,23.0625,11.3203125,37.265625,29.390625,37.265625c15.46875,0,26.015625-9.421875,26.296875-23.4140625l0.0703125-2.109375
		h-24.3984375v-14.203125h42.1171875v12.7265625C318.765625,472.2265625,301.46875,489.03125,274.3984375,489.03125z"/>
	<path class="st1" d="M394.3515625,460.5546875H357.015625L348.296875,486.5h-18.3515625l36-101.4609375h20.390625L422.40625,486.5
		h-19.4765625L394.3515625,460.5546875z M361.234375,446.2109375h28.8984375L376.3515625,404.375H375.15625L361.234375,446.2109375z
		"/>
	<path class="st1" d="M527.734375,486.5v-71.3671875H526.75L498.6953125,482.5625h-12.9375l-28.0546875-67.4296875h-0.984375V486.5
		h-16.875V385.0390625h21.234375L491.59375,458.9375h1.265625L523.375,385.0390625h21.234375V486.5H527.734375z"/>
	<path class="st1" d="M635.3125,486.5h-65.671875V385.0390625H635.3125V400.71875h-47.53125v26.9296875h44.9296875v14.765625
		H587.78125v28.40625h47.53125V486.5z"/>
	<path class="st1" d="M670.890625,458.9375c1.125,9.0703125,10.125,14.90625,22.9921875,14.90625
		c11.953125,0,20.6015625-6.1171875,20.6015625-14.625c0-7.3125-5.5546875-11.6015625-18.5625-14.625l-13.1484375-3.0234375
		c-18.421875-4.1484375-27.0703125-13.2890625-27.0703125-28.40625c0-18.421875,15.046875-30.65625,37.7578125-30.65625
		c21.3046875,0,36.703125,12.234375,37.546875,29.671875H713.640625C712.375,403.25,704.5,397.625,693.390625,397.625
		c-11.671875,0-19.40625,5.625-19.40625,14.2734375c0,6.8203125,5.1328125,10.828125,17.71875,13.7109375L703.375,428.28125
		c20.6015625,4.640625,29.25,13.21875,29.25,28.6875c0,19.7578125-15.2578125,32.0625-39.8671875,32.0625
		c-23.2734375,0-38.671875-11.671875-39.5859375-30.09375H670.890625z"/>
</g>
</svg>
