<?xml version="1.0" encoding="utf-8"?>
<!DOCTYPE svg PUBLIC "-//W3C//DTD SVG 1.1//EN" "http://www.w3.org/Graphics/SVG/1.1/DTD/svg11.dtd">
<svg version="1.1" id="Layer_1" xmlns="http://www.w3.org/2000/svg" viewBox="0 180 612 612">
<style type="text/css">
<![CDATA[
	.st0{fill:#F48FB1;}
	.st1{fill:url(#SVGID_1_);}
	.st2{fill:#FFFFFF;}
	.st3{fill:#FFFFFF;stroke:#FFFFFF;stroke-width:0.75;}
]]>
</style>
<linearGradient id="SVGID_1_" gradientUnits="userSpaceOnUse" x1="305.9995117" y1="269" x2="305.9994812" y2="881.0004883" gradientTransform="matrix(1 0 0 1 0 -89)">
	<stop  offset="0" style="stop-color:#F48FB1"/>
	<stop  offset="1" style="stop-color:#B36982"/>
</linearGradient>
<rect y="180" class="st1" width="612" height="612"/>
<g>
	<path class="st2" d="M242.9121094,707.2822266v-0.28125l-14.9765625-25.03125h17.3671875l7.9804688,16.171875h0.28125
		l8.015625-16.171875h16.5234375l-15.7148438,25.1015625v0.28125l15.6445313,25.3476563h-16.59375l-8.71875-15.2929688h-0.3164063
		l-8.6835938,15.2929688h-15.75L242.9121094,707.2822266z"/>
	<path class="st2" d="M295.8925781,707.2822266v-0.28125l-14.9765625-25.03125h17.3671875l7.9804688,16.171875h0.28125
		l8.015625-16.171875h16.5234375l-15.7148438,25.1015625v0.28125l15.6445313,25.3476563h-16.59375l-8.71875-15.2929688h-0.3164063
		l-8.6835938,15.2929688h-15.75L295.8925781,707.2822266z"/>
	<path class="st2" d="M348.8730469,707.2822266v-0.28125l-14.9765625-25.03125h17.3671875l7.9804688,16.171875h0.28125
		l8.015625-16.171875h16.5234375l-15.7148438,25.1015625v0.28125l15.6445313,25.3476563h-16.59375l-8.71875-15.2929688h-0.3164063
		l-8.6835938,15.2929688h-15.75L348.8730469,707.2822266z"/>
</g>
<g id="playboy">
	<polygon class="st3" points="287.6079102,629.5908203 316.2675781,652.9150391 323.4316406,600.8847656 288.503418,618.8261719 
		257.1567383,598.1933594 257.1567383,642.1503906 	"/>
	<polygon class="st2" points="287.6079102,629.5908203 316.2675781,652.9150391 323.4316406,600.8847656 288.503418,618.8261719 
		257.1567383,598.1933594 257.1567383,642.1503906 	"/>
	<polygon class="st2" points="329.6992188,617.0322266 327.9091797,629.5908203 401.3496094,608.0605469 402.2441406,596.3984375 	
		"/>
	<polygon class="st3" points="329.6992188,617.0322266 327.9091797,629.5908203 401.3496094,608.0605469 402.2441406,596.3984375 	
		"/>
	<path class="st2" d="M287.6079102,610.7519531c-0.8959961,1.7939453-13.4350586-18.8378906,0-38.5742188
		c0,0-68.9619141-17.0429688-71.6484375-56.5146484c0,0-8.9560547-75.3544922,111.0541992-90.6054688
		c-171.0600586-60.1035156-157.6254883-185.6933594-157.6254883-177.6191406
		c81.4995117,34.0878906,135.2358398,99.574707,189.8676758,175.8251953
		c6.2695313,1.7939453-31.3466797-102.2661133,85.0820313-190.1787109
		c-1.7910156,49.3388672,6.2695313,70.8681641-15.2246094,142.6337891
		c-19.703125,52.03125-40.3027344,62.7949219-40.3027344,64.5898438c42.09375,30.5,22.390625,103.1640625,13.4335938,143.53125
		l-71.6484375,23.3242188l3.5839844-20.6328125C320.7441406,593.7070313,299.2504883,604.4726563,287.6079102,610.7519531
		L287.6079102,610.7519531z"/>
	<path class="st0" d="M277.7558594,460.9414063c8.9560547,0,17.0161133,8.0732422,17.0161133,17.0439453
		c0,8.9697266-8.0600586,16.1474609-17.0161133,16.1474609s-16.1210938-7.1777344-16.1210938-16.1474609
		C261.6347656,469.0146484,268.7998047,460.9414063,277.7558594,460.9414063L277.7558594,460.9414063z"/>
</g>
</svg>
