<?xml version="1.0" encoding="utf-8"?>
<!DOCTYPE svg PUBLIC "-//W3C//DTD SVG 1.1//EN" "http://www.w3.org/Graphics/SVG/1.1/DTD/svg11.dtd">
<svg version="1.1" id="" xmlns="http://www.w3.org/2000/svg" viewBox="0 0 512 512">
<g id="">
	
		<linearGradient id="SVGID_1_" gradientUnits="userSpaceOnUse" x1="221.9995" y1="213" x2="221.9995" y2="725.0005" gradientTransform="matrix(1 0 0 1 34 -213)">
		<stop  offset="0" style="stop-color:#0A9A15"/>
		<stop  offset="0.2892" style="stop-color:#0E9118"/>
		<stop  offset="0.7685" style="stop-color:#1A7720"/>
		<stop  offset="0.9944" style="stop-color:#206925"/>
	</linearGradient>
	<rect fill="url(#SVGID_1_)" width="512" height="512"/>
	<g>
		<path id="" fill="#FFFFFF" d="M86.863,229.171v-45.89c0-4.203,3.453-7.641,7.683-7.641h81.091l-35.305,61.182H94.546
			C90.316,236.823,86.863,233.392,86.863,229.171z M144.627,323.139l-25.879,17.534c-3.482,2.366-5.945,0.867-5.462-3.311
			l3.453-29.997c0.48-4.179,3.869-5.887,7.534-3.798l20.028,11.44C147.959,317.106,148.109,320.78,144.627,323.139z M150.842,306.23
			l-20.028-11.445c-3.662-2.092-4.952-6.782-2.822-10.429l92.741-160.762c2.103-3.653,6.846-4.934,10.505-2.814l20.028,11.415
			c3.664,2.119,4.92,6.813,2.822,10.453L161.349,303.42C159.248,307.068,154.501,308.319,150.842,306.23z M221.422,236.823
			l35.305-61.182h20.329l28.669,61.182H221.422z M336.41,255.081c-8.017-4.003-47.947-95.726-58.18-119.658
			c-10.24-23.932-41.165-87.636-31.161-92.592c7.114-3.555,32.662,46.608,51.815,76.724
			c19.124,30.117,59.115,107.768,64.037,116.611c4.896,8.865-4.711,16.256-10.054,18.469
			C347.521,256.847,344.424,259.053,336.41,255.081z M362.65,297.24l-12.064-18.975c-2.496-3.947-1.2-8.821,2.846-10.901
			l11.501-5.889c4.056-2.063,9.13-0.39,11.287,3.739l9.518,18.227c2.165,4.121,0.69,9.411-3.213,11.741l-8.225,4.896
			C370.396,302.438,365.145,301.152,362.65,297.24z M407.054,347.012c-2.521-8.039-21.767-8.571-30.383-20.678
			c-8.646-12.064-1.501-18.28,1.5-21.15C413.12,285.587,407.054,347.012,407.054,347.012z M425.037,229.171
			c0,4.22-3.451,7.651-7.683,7.651h-40.591c-0.447-2.359-1.175-4.719-2.4-6.932c-1.058-1.882-3.728-6.961-7.449-14.038
			c-5.373-10.216-13.088-24.826-21.349-40.212h71.784c4.232,0,7.685,3.438,7.685,7.641v45.89H425.037L425.037,229.171z"/>
	</g>
</g>
<g>
	<path fill="none" d="M391.729,497.433c0.324,0.191,0.876,0.408,1.403,0.408c0.756,0,1.115-0.372,1.115-0.864
		c0-0.504-0.3-0.779-1.067-1.067c-1.056-0.384-1.547-0.947-1.547-1.643c0-0.936,0.768-1.703,2.003-1.703
		c0.588,0,1.104,0.155,1.415,0.359l-0.252,0.756c-0.228-0.132-0.647-0.336-1.188-0.336c-0.623,0-0.959,0.36-0.959,0.792
		c0,0.491,0.336,0.707,1.091,0.995c0.996,0.372,1.523,0.876,1.523,1.751c0,1.031-0.804,1.751-2.158,1.751
		c-0.636,0-1.224-0.168-1.632-0.407L391.729,497.433z"/>
	<path fill="none" d="M400.583,497.612h-0.023c-0.313,0.563-0.96,1.02-1.896,1.02c-1.354,0-2.458-1.163-2.458-2.938
		c0-2.171,1.403-3.13,2.626-3.13c0.899,0,1.499,0.443,1.787,1.007h0.024l0.036-0.875h1.007c-0.036,0.479-0.048,0.983-0.048,1.595
		v6.585h-1.056V497.612z M400.583,495.046c0-0.156-0.012-0.312-0.048-0.443c-0.168-0.648-0.72-1.2-1.511-1.2
		c-1.092,0-1.751,0.924-1.751,2.231c0,1.163,0.552,2.158,1.715,2.158c0.684,0,1.271-0.419,1.511-1.151
		c0.048-0.144,0.084-0.348,0.084-0.503V495.046z"/>
	<path fill="none" d="M404.437,495.357h0.024c0.144-0.203,0.336-0.468,0.504-0.659l1.715-2.003h1.259l-2.242,2.387l2.555,3.418
		h-1.283l-1.991-2.795l-0.54,0.612v2.183h-1.055v-8.516h1.055V495.357z"/>
	<path fill="none" d="M409.609,492.695l1.259,3.43c0.144,0.384,0.288,0.84,0.384,1.188h0.024c0.107-0.348,0.228-0.791,0.371-1.211
		l1.151-3.406h1.115l-1.583,4.138c-0.755,1.991-1.271,3.011-1.99,3.646c-0.528,0.444-1.032,0.624-1.296,0.672l-0.264-0.888
		c0.264-0.071,0.611-0.239,0.924-0.516c0.288-0.228,0.636-0.636,0.888-1.175c0.048-0.108,0.084-0.181,0.084-0.252
		c0-0.061-0.024-0.145-0.084-0.264l-2.135-5.361H409.609z"/>
</g>
<g>
	<path fill="#FFFFFF" d="M173.617,493.5l-11.109-29.813h-43.242L108.438,493.5H98.031l38.391-100.828h9.422l38.18,100.828H173.617z
		 M142.891,410.32c-0.329-0.89-0.668-1.922-1.02-3.094c-0.352-1.171-0.645-2.507-0.879-4.008h-0.281
		c-0.281,1.501-0.598,2.837-0.949,4.008c-0.352,1.172-0.692,2.204-1.02,3.094L122.43,455.18h36.914L142.891,410.32z"/>
	<path fill="#FFFFFF" d="M209.266,454.266V493.5h-9.352V392.672h26.016c5.296,0,9.984,0.657,14.063,1.969
		c4.078,1.313,7.523,3.211,10.336,5.695c2.813,2.485,4.945,5.531,6.398,9.141c1.452,3.61,2.18,7.734,2.18,12.375
		c0,4.688-0.82,9.012-2.461,12.973c-1.642,3.962-3.997,7.383-7.066,10.266c-3.071,2.883-6.81,5.133-11.215,6.75
		c-4.407,1.617-9.399,2.426-14.977,2.426H209.266z M209.266,401.25v44.438h13.359c8.671,0,15.258-2.015,19.758-6.047
		c4.5-4.031,6.75-9.727,6.75-17.086c0-14.203-8.297-21.305-24.891-21.305H209.266z"/>
	<path fill="#FFFFFF" d="M288.719,454.266V493.5h-9.352V392.672h26.016c5.297,0,9.984,0.657,14.063,1.969
		c4.078,1.313,7.523,3.211,10.336,5.695c2.813,2.485,4.945,5.531,6.398,9.141c1.452,3.61,2.18,7.734,2.18,12.375
		c0,4.688-0.82,9.012-2.461,12.973c-1.642,3.962-3.997,7.383-7.066,10.266c-3.07,2.883-6.81,5.133-11.215,6.75
		c-4.406,1.617-9.398,2.426-14.977,2.426H288.719z M288.719,401.25v44.438h13.359c8.672,0,15.258-2.015,19.758-6.047
		c4.5-4.031,6.75-9.727,6.75-17.086c0-14.203-8.297-21.305-24.891-21.305H288.719z"/>
	<path fill="#FFFFFF" d="M354.883,478.734c1.688,1.266,3.551,2.402,5.59,3.41c2.039,1.009,4.124,1.853,6.258,2.531
		c2.133,0.68,4.277,1.195,6.434,1.547c2.155,0.352,4.219,0.527,6.188,0.527c7.64,0,13.359-1.477,17.156-4.43
		s5.695-7.195,5.695-12.727c0-2.672-0.446-5.003-1.336-6.996c-0.891-1.992-2.274-3.855-4.148-5.59
		c-1.875-1.733-4.243-3.456-7.102-5.168c-2.859-1.711-6.234-3.645-10.125-5.801c-4.313-2.344-8.005-4.559-11.074-6.645
		c-3.07-2.085-5.579-4.219-7.523-6.398c-1.945-2.18-3.375-4.535-4.289-7.066s-1.371-5.414-1.371-8.648
		c0-4.078,0.867-7.734,2.602-10.969c1.733-3.234,4.078-5.987,7.031-8.262c2.953-2.273,6.409-4.019,10.371-5.238
		c3.961-1.219,8.191-1.828,12.691-1.828c7.921,0,14.555,1.102,19.898,3.305v10.336c-5.953-3.421-12.938-5.133-20.953-5.133
		c-3,0-5.825,0.363-8.473,1.09c-2.648,0.728-4.969,1.793-6.961,3.199c-1.993,1.406-3.563,3.153-4.711,5.238
		c-1.149,2.086-1.723,4.512-1.723,7.277c0,2.626,0.387,4.887,1.16,6.785s2.015,3.691,3.727,5.379
		c1.711,1.688,3.961,3.364,6.75,5.027c2.788,1.664,6.198,3.575,10.23,5.73c4.219,2.25,7.898,4.441,11.039,6.574
		c3.14,2.134,5.754,4.359,7.84,6.68c2.085,2.32,3.645,4.781,4.676,7.383c1.03,2.602,1.547,5.496,1.547,8.684
		c0,4.406-0.82,8.286-2.461,11.637c-1.642,3.352-3.938,6.129-6.891,8.332c-2.953,2.204-6.469,3.867-10.547,4.992
		s-8.555,1.688-13.43,1.688c-1.594,0-3.492-0.13-5.695-0.387c-2.204-0.258-4.43-0.633-6.68-1.125s-4.395-1.078-6.434-1.758
		c-2.039-0.679-3.691-1.417-4.957-2.215V478.734z"/>
</g>
</svg>
