<?xml version="1.0" encoding="utf-8"?>
<!DOCTYPE svg PUBLIC "-//W3C//DTD SVG 1.1//EN" "http://www.w3.org/Graphics/SVG/1.1/DTD/svg11.dtd">
<svg version="1.1" id="Layer_1" xmlns="http://www.w3.org/2000/svg" viewBox="0 180 612 612">
<style type="text/css">
<![CDATA[
	.st0{display:none;fill:#FFFFFF;}
	.st1{fill:url(#SVGID_1_);}
	.st2{fill:#FFFFFF;}
]]>
</style>
<linearGradient id="SVGID_1_" gradientUnits="userSpaceOnUse" x1="305.9995117" y1="180" x2="305.9994812" y2="792.0004883">
	<stop  offset="0" style="stop-color:#108983"/>
	<stop  offset="1" style="stop-color:#094643"/>
</linearGradient>
<rect y="180" class="st1" width="612" height="612"/>
<g>
	<path class="st2" d="M459.3183594,229.4873047h-306.637207c-18.5668945,0-33.7583008,15.1914063-33.7583008,33.7583008v444.4838867
		c0,18.5664063,15.1914063,33.7578125,33.7583008,33.7578125h306.637207c18.5673828,0,33.7587891-15.1914063,33.7587891-33.7578125
		V263.2456055C493.0771484,244.6787109,477.8857422,229.4873047,459.3183594,229.4873047z M322.8808594,716.1708984h-33.7587891
		c-4.6611328,0-8.4394531-3.7783203-8.4394531-8.4394531s3.7783203-8.4394531,8.4394531-8.4394531h33.7587891
		c4.6621094,0,8.4394531,3.7783203,8.4394531,8.4394531S327.5429688,716.1708984,322.8808594,716.1708984z M459.3300781,673.9707031
		H152.6699219l0.0224609-410.7475586l306.6376953,0.0224609V673.9707031z"/>
	<g>
		<path class="st2" d="M418.5410156,311.6728516H310.2207031c-2.3310547,0-4.2207031-3.7792969-4.2207031-8.4394531
			c0-4.6611328,1.8896484-8.4394531,4.2207031-8.4394531h108.3203125c2.3320313,0,4.2207031,3.7783203,4.2207031,8.4394531
			C422.7617188,307.8935547,420.8730469,311.6728516,418.5410156,311.6728516z"/>
		<path class="st2" d="M418.5419922,351.7626953H310.234375c-2.3300781,0-4.2197266-3.7792969-4.2197266-8.4394531
			c0-4.6611328,1.8896484-8.4394531,4.2197266-8.4394531h108.3076172c2.3310547,0,4.2197266,3.7783203,4.2197266,8.4394531
			C422.7617188,347.9833984,420.8730469,351.7626953,418.5419922,351.7626953z"/>
		<path class="st2" d="M306.0146484,391.8544922H197.7070313c-4.6611328,0-8.4394531-3.7792969-8.4394531-8.4394531
			c0-4.6621094,3.7783203-8.4404297,8.4394531-8.4404297h108.3076172c4.6621094,0,8.4394531,3.7783203,8.4394531,8.4404297
			C314.4541016,388.0751953,310.6767578,391.8544922,306.0146484,391.8544922z"/>
		<path class="st0" d="M414.3222656,431.9453125H197.7070313c-4.6611328,0-8.4394531-3.7783203-8.4394531-8.4394531
			s3.7783203-8.4404297,8.4394531-8.4404297h216.6152344c4.6621094,0,8.4394531,3.7792969,8.4394531,8.4404297
			S418.984375,431.9453125,414.3222656,431.9453125z"/>
		<path class="st0" d="M309.9296875,472.0361328h-116.137207c-2.4990234,0-4.5249023-3.7783203-4.5249023-8.4394531
			c0-4.6601563,2.0258789-8.4394531,4.5249023-8.4394531h116.137207c2.4990234,0,4.5244141,3.7792969,4.5244141,8.4394531
			C314.4541016,468.2578125,312.4287109,472.0361328,309.9296875,472.0361328z"/>
		<path class="st0" d="M414.3222656,512.1279297H197.7070313c-4.6611328,0-8.4394531-3.7792969-8.4394531-8.4394531
			c0-4.6611328,3.7783203-8.4394531,8.4394531-8.4394531h216.6152344c4.6621094,0,8.4394531,3.7783203,8.4394531,8.4394531
			C422.7617188,508.3486328,418.984375,512.1279297,414.3222656,512.1279297z"/>
		<path class="st0" d="M358.0585938,552.2197266H195.597168c-3.4956055,0-6.3295898-3.7792969-6.3295898-8.4404297
			s2.8339844-8.4394531,6.3295898-8.4394531h162.4614258c3.4960938,0,6.3300781,3.7783203,6.3300781,8.4394531
			S361.5546875,552.2197266,358.0585938,552.2197266z"/>
		<path class="st0" d="M414.3222656,592.3105469H197.7070313c-4.6611328,0-8.4394531-3.7783203-8.4394531-8.4404297
			c0-4.6601563,3.7783203-8.4394531,8.4394531-8.4394531h216.6152344c4.6621094,0,8.4394531,3.7792969,8.4394531,8.4394531
			C422.7617188,588.5322266,418.984375,592.3105469,414.3222656,592.3105469z"/>
		<path class="st0" d="M306.0146484,632.4013672H197.7070313c-4.6611328,0-8.4394531-3.7783203-8.4394531-8.4394531
			c0-4.6601563,3.7783203-8.4394531,8.4394531-8.4394531h108.3076172c4.6621094,0,8.4394531,3.7792969,8.4394531,8.4394531
			C314.4541016,628.6230469,310.6767578,632.4013672,306.0146484,632.4013672z"/>
	</g>
</g>
<g>
	<path class="st2" d="M247.0336914,337.2099609H222.277832l-5.3710938,17.0898438h-15.1367188l24.4628906-70.4589844h17.3339844
		l24.5117188,70.4589844h-15.6738281L247.0336914,337.2099609z M225.4516602,326.1748047h18.4082031l-9.0332031-28.8574219
		h-0.3417969L225.4516602,326.1748047z"/>
</g>
<g>
	<polygon class="st2" points="173.6103516,493.0830078 173.6103516,571.0703125 227.2041016,571.0703125 294.0478516,623.2871094 
		294.0478516,440.8701172 227.2080078,493.0830078 	"/>
	<path class="st2" d="M374.7431641,407.2314453l-15.7158203,24.734375
		c28.6025391,12.3173828,50.2880859,53.1660156,50.2880859,100.1113281c0,46.5449219-21.3154297,87.0908203-49.5576172,99.7861328
		l15.3759766,24.8515625c36.9443359-18.8535156,63.2568359-67.5361328,63.2568359-124.6376953
		C438.390625,474.7705078,411.8945313,425.9345703,374.7431641,407.2314453z"/>
	<path class="st2" d="M344.1757813,455.3339844l-15.3828125,24.2099609
		c12.6708984,11.3066406,21.2587891,30.8251953,21.2587891,52.5332031c0,21.0703125-8.0800781,40.0966797-20.1494141,51.5400391
		l15.1679688,24.5087891c20.4980469-16.2041016,34.0605469-44.2021484,34.0605469-76.0488281
		C379.1308594,499.7685547,365.1738281,471.421875,344.1757813,455.3339844z"/>
</g>
<g>
</g>
</svg>
