<?xml version="1.0" encoding="utf-8"?>
<!DOCTYPE svg PUBLIC "-//W3C//DTD SVG 1.1//EN" "http://www.w3.org/Graphics/SVG/1.1/DTD/svg11.dtd">
<svg version="1.1" id="" xmlns="http://www.w3.org/2000/svg" viewBox="200 0 560 560">
<style type="text/css">
<![CDATA[
	.st0{fill:url(#SVGID_1_);}
	.st1{fill:#FFFFFF;}
]]>
</style>
<g id="">
	
		<linearGradient id="SVGID_1_" gradientUnits="userSpaceOnUse" x1="179.2431641" y1="537.1865234" x2="179.2431488" y2="25.1865234" gradientTransform="matrix(1.09375 0 0 -1.09375 283.953125 587.546875)">
		<stop  offset="0" style="stop-color:#960505"/>
		<stop  offset="0.2937581" style="stop-color:#8D0A0A"/>
		<stop  offset="0.7805237" style="stop-color:#731919"/>
		<stop  offset="0.994382" style="stop-color:#662020"/>
	</linearGradient>
	<rect x="200" class="st0" width="560" height="560"/>
	<path class="st1" d="M439.1894531,391.9648438h-50.3339844l18.8955078-89.828125H316.527832l-19.050293,89.828125H246.987793
		l47.237793-222.0927734h50.4897461l-19.0498047,88.5893555h91.3774414l19.0488281-88.5893555h50.3359375L439.1894531,391.9648438z"
		/>
	<path class="st1" d="M713.9414063,259.7006836c0,11.6689453-1.1875,23.0532227-3.5615234,34.1508789
		c-2.3769531,11.0996094-5.9628906,21.5546875-10.7646484,31.3613281
		c-4.7998047,9.8115234-10.8671875,18.7939453-18.1972656,26.9492188
		c-7.3330078,8.1582031-15.9794922,15.1777344-25.9414063,21.0625
		c-9.9658203,5.8857422-21.2958984,10.4804688-33.9960938,13.7841797
		c-12.7001953,3.3056641-26.7939453,4.9560547-42.28125,4.9560547h-89.828125l47.2373047-222.0927734h78.0576172
		c16.3134766,0,30.6386719,2.2216797,42.9785156,6.659668c12.3369141,4.4404297,22.6894531,10.6088867,31.0527344,18.5078125
		c8.3632813,7.8984375,14.6591797,17.3461914,18.8945313,28.3422852
		C711.8251953,234.3779297,713.9414063,246.4853516,713.9414063,259.7006836z M660.9736328,263.5722656
		c0-8.2592773-1.1611328-15.6665039-3.4853516-22.2246094c-2.3212891-6.5556641-5.8847656-12.1044922-10.6845703-16.6494141
		c-4.8027344-4.5419922-10.8681641-8.0268555-18.1992188-10.4541016
		c-7.3320313-2.4248047-16.0058594-3.6396484-26.0185547-3.6396484h-24.3164063l-29.890625,140.7832031h30.5107422
		c12.5957031,0,23.9521484-2.0908203,34.0722656-6.2734375c10.1181641-4.1806641,18.7402344-10.1171875,25.8642578-17.8095703
		c7.125-7.6904297,12.5966797-16.9326172,16.4169922-27.7246094
		C659.0625,288.7929688,660.9736328,276.7905273,660.9736328,263.5722656z"/>
</g>
</svg>
