<?xml version="1.0" encoding="utf-8"?>
<!DOCTYPE svg PUBLIC "-//W3C//DTD SVG 1.1//EN" "http://www.w3.org/Graphics/SVG/1.1/DTD/svg11.dtd">
<svg version="1.1" id="" xmlns="http://www.w3.org/2000/svg" viewBox="200 0 512 512">
<style type="text/css">
<![CDATA[
	.st0{display:none;fill:#FFFFFF;}
	.st1{display:inline;fill:#FFFFFF;}
	.st2{fill:url(#SVGID_1_);}
	.st3{fill:#FFFFFF;}
	.st4{display:none;}
]]>
</style>
<g id="hd_tv">
	
		<linearGradient id="SVGID_1_" gradientUnits="userSpaceOnUse" x1="157.300293" y1="537.1865234" x2="157.3002777" y2="69.0722656" gradientTransform="matrix(1.09375 0 0 -1.09375 283.953125 587.546875)">
		<stop  offset="0" style="stop-color:#0C4C9B"/>
		<stop  offset="0.2766562" style="stop-color:#104A92"/>
		<stop  offset="0.7351259" style="stop-color:#1A4678"/>
		<stop  offset="0.994382" style="stop-color:#214367"/>
	</linearGradient>
	<rect x="200" class="st2" width="512" height="512"/>
	<g id="Layer_3">
		<g>
			<path class="st3" d="M423.3466797,384.5878906h-46.0209961l17.2753906-82.1289063h-83.4033203l-17.4169922,82.1289063
				h-46.1621094L290.8071289,181.53125h46.1621094l-17.4169922,80.9960938h83.5449219l17.4169922-80.9960938h46.0205078
				L423.3466797,384.5878906z"/>
			<path class="st3" d="M674.546875,263.6601563c0,10.6689453-1.0859375,21.0761719-3.2558594,31.2226563
				c-2.1738281,10.1494141-5.4511719,19.7070313-9.8417969,28.6748047
				c-4.3886719,8.9697266-9.9355469,17.1826172-16.6386719,24.6386719
				c-6.703125,7.4580078-14.609375,13.8769531-23.7167969,19.2578125
				c-9.1113281,5.3808594-19.4707031,9.5830078-31.0820313,12.6025391c-11.6113281,3.0224609-24.4980469,4.53125-38.6582031,4.53125
				h-82.128418L512.4140625,181.53125H583.78125c14.9140625,0,28.0117188,2.03125,39.2949219,6.0888672
				c11.2792969,4.0600586,20.7441406,9.699707,28.390625,16.9213867s13.4023438,15.859375,17.2753906,25.9130859
				C672.6113281,240.5083008,674.546875,251.5776367,674.546875,263.6601563z M626.1191406,267.2001953
				c0-7.5512695-1.0605469-14.3237305-3.1855469-20.3198242c-2.1230469-5.9936523-5.3808594-11.0668945-9.7695313-15.222168
				c-4.390625-4.152832-9.9375-7.3388672-16.6386719-9.5581055c-6.7050781-2.2167969-14.6347656-3.3276367-23.7890625-3.3276367
				h-22.2324219l-27.328125,128.7158203h27.8945313c11.5175781,0,21.9003906-1.9121094,31.1523438-5.734375
				c9.2519531-3.8242188,17.1347656-9.2509766,23.6484375-16.2851563c6.5136719-7.03125,11.515625-15.4804688,15.0097656-25.3457031
				C624.3710938,290.2597656,626.1191406,279.2851563,626.1191406,267.2001953z"/>
		</g>
		<g class="st4">
			<path class="st1" d="M458.4091797,267.2089844h-43.3984375L388.3706055,393h-34.9125977l26.5332031-125.7910156h-43.9355469
				l6.1230469-28.2519531h122.3535156L458.4091797,267.2089844z"/>
			<path class="st1" d="M532.2080078,393h-38.2421875l-19.765625-154.0429688h35.5566406l10.4199219,106.5625
				c0.2148438,2.5078125,0.3388672,5.0673828,0.3759766,7.6806641c0.0351563,2.6152344-0.1611328,5.0322266-0.5908203,7.2509766
				h0.859375c0.6445313-2.0761719,1.4853516-4.4042969,2.5244141-6.9824219
				c1.0371094-2.578125,2.3095703-5.3710938,3.8134766-8.3789063l53.4960938-106.1328125h38.2421875L532.2080078,393z"/>
		</g>
		<g>
			<g>
				<polygon class="st0" points="393.097168,253 388.4936523,253 384.3706055,272 349.4580078,272 353.5654297,253 309.5522461,253 
					326.9692383,172 280.8071289,172 237.6186523,375 283.7807617,375 301.1977539,292 384.6010742,292 367.3256836,375 
					413.3466797,375 456.534668,172 410.5141602,172 				"/>
				<polygon class="st3" points="411.0107422,146 454.4091797,146 460.5322266,118 338.1787109,118 332.0556641,146 
					375.9912109,146 353.5654297,253 388.4936523,253 				"/>
			</g>
			<g>
				<path class="st0" d="M516.5527344,231.9746094C516.5878906,234.5898438,516.3916016,237,515.9619141,239h0.859375
					c0.6445313-2,1.4853516-4.1787109,2.5244141-6.7568359c1.0371094-2.578125,2.3095703-5.0244141,3.8134766-8.0322266
					L549.6513672,172h-38.6572266l5.1826172,52.640625C516.3916016,227.1484375,516.515625,229.3613281,516.5527344,231.9746094z"/>
				<path class="st0" d="M658.7421875,220.4550781c-3.8730469-10.0546875-9.6289063-18.6914063-17.2753906-25.9140625
					c-7.6464844-7.2207031-17.1113281-12.8613281-28.390625-16.9208984c-8.4863281-3.0517578-18-4.9555664-28.5400391-5.7128906
					L563.78125,208.7890625c8.7089844,0.0820313,16.2988281,1.1796875,22.7441406,3.3105469
					c6.7011719,2.2197266,12.2480469,5.40625,16.6386719,9.5585938c4.3886719,4.1552734,7.6464844,9.2285156,9.7695313,15.2226563
					c2.125,5.9960938,3.1855469,12.7675781,3.1855469,20.3193359c0,12.0849609-1.7480469,23.0595703-5.2382813,32.9228516
					c-3.4941406,9.8652344-8.4960938,18.3144531-15.0097656,25.3457031
					c-6.5136719,7.0341797-14.3964844,12.2167969-23.6484375,16.0410156C562.9707031,335.3320313,552.5878906,337,541.0703125,337
					h-27.8945313l13.9042969-65h-37.1142578l-3.3564453-25.9550781L459.2250977,375h82.128418
					c14.1601563,0,27.046875-1.7148438,38.6582031-4.7373047c11.6113281-3.0195313,21.9707031-7.3251953,31.0820313-12.7060547
					c9.1074219-5.3808594,17.0136719-11.8505859,23.7167969-19.3085938c6.703125-7.4560547,12.25-15.6953125,16.6386719-24.6650391
					c4.390625-8.9677734,7.6679688-18.5380859,9.8417969-28.6875c2.1699219-10.1464844,3.2558594-20.5595703,3.2558594-31.2285156
					C664.546875,241.5849609,662.6113281,230.5078125,658.7421875,220.4550781z"/>
				<path class="st3" d="M584.5361328,172.1630859L614.8974609,118h-38.2421875l-27.0039063,54H573.78125
					C577.4785156,172,581.0625,171.9135742,584.5361328,172.1630859z"/>
				<path class="st0" d="M540.5039063,209l-13.4238281,63h1.1279297l35.5732422-63.0976563
					C563.4306641,208.8984375,563.0908203,209,562.7363281,209H540.5039063z"/>
				<polygon class="st3" points="510.9941406,172 505.7568359,118 470.2001953,118 486.609375,246.0947266 502.4140625,172 				"/>
			</g>
		</g>
	</g>
</g>
</svg>
