<?xml version="1.0" encoding="utf-8"?>
<!DOCTYPE svg PUBLIC "-//W3C//DTD SVG 1.1//EN" "http://www.w3.org/Graphics/SVG/1.1/DTD/svg11.dtd">
<svg version="1.1" id="Layer_1" xmlns="http://www.w3.org/2000/svg" viewBox="200 90 560 560">
<style type="text/css">
<![CDATA[
	.st0{display:inline;fill:#FFFFFF;}
	.st1{fill:url(#SVGID_1_);}
	.st2{fill:#FFFFFF;}
	.st3{display:none;}
]]>
</style>
<linearGradient id="SVGID_1_" gradientUnits="userSpaceOnUse" x1="29.6738281" y1="533.2890625" x2="29.6738071" y2="64.7924805" gradientTransform="matrix(1.1953125 0 0 -1.1953125 444.53125 727.4472656)">
	<stop  offset="0" style="stop-color:#0A9A15"/>
	<stop  offset="0.2892" style="stop-color:#0E9118"/>
	<stop  offset="0.7685" style="stop-color:#1A7720"/>
	<stop  offset="0.9944" style="stop-color:#206925"/>
</linearGradient>
<rect x="200" y="90" class="st1" width="560" height="560"/>
<path class="st2" d="M579.65625,380.8349609c0.5107422,54.9814453,48.2333984,73.2773438,48.7617188,73.5107422
	c-0.4042969,1.2900391-7.625,26.0742188-25.1425781,51.6738281c-15.1416016,22.1318359-30.8583984,44.1826172-55.6162109,44.6396484
	c-24.3261719,0.4472656-32.1484375-14.4257813-59.9609375-14.4257813c-27.8037109,0-36.4960938,13.96875-59.5224609,14.8730469
	c-23.8974609,0.90625-42.0966797-23.9326172-57.3652344-45.9833984
	c-31.1992188-45.1044922-55.0419922-127.4584961-23.0273438-183.0488281
	c15.9052734-27.6054688,44.3271484-45.0878906,75.1757813-45.5366211
	c23.4667969-0.4467773,45.6171875,15.7875977,59.9619141,15.7875977c14.3378906,0,41.2529297-19.5244141,69.5488281-16.65625
	c11.8466797,0.4931641,45.0976563,4.7841797,66.4501953,36.0375977
	C617.2001953,312.7734375,579.2441406,334.8701172,579.65625,380.8349609 M533.9375,245.828125
	c12.6875-15.3583984,21.2265625-36.7368164,18.8964844-58.0092773
	c-18.2880859,0.7348633-40.4013672,12.1870117-53.5195313,27.5351563
	c-11.7548828,13.5927734-22.0507813,35.347168-19.2724609,56.1987305
	C500.4257813,273.1293945,521.25,261.1938477,533.9375,245.828125"/>
<g class="st3">
	<path class="st0" d="M441.0244141,680.1425781v-84.6787109h-0.9228516l-34.9628906,83.9101563h-11.6796875l-34.9628906-83.9101563
		h-0.921875v84.6787109h-12.9091797V569.2607422h16.0595703l37.9599609,91.7490234h1.2294922l37.9599609-91.7490234h16.0595703
		v110.8818359H441.0244141z"/>
	<path class="st0" d="M543.1464844,648.4072266h-44.1074219l-11.1416016,31.7353516h-14.5234375l40.8798828-110.8818359h13.6777344
		l40.8798828,110.8818359h-14.5234375L543.1464844,648.4072266z M503.1123047,636.6503906h35.9619141l-17.3662109-49.4853516
		h-1.2294922L503.1123047,636.6503906z"/>
	<path class="st0" d="M578.5703125,624.7402344c0-35.8085938,18.7490234-58.0927734,48.8710938-58.0927734
		c23.3603516,0,41.5712891,14.6767578,44.8759766,36.0390625h-14.0625
		c-3.6884766-14.2919922-15.5214844-23.2832031-30.8134766-23.2832031c-21.2851563,0-34.6552734,17.5205078-34.6552734,45.3369141
		S606.15625,670,627.5185547,670c15.4453125,0,27.2021484-7.9150391,30.7363281-20.7470703h14.0625
		c-3.6884766,20.3623047-21.2089844,33.5029297-44.7988281,33.5029297
		C597.3964844,682.7558594,578.5703125,660.4716797,578.5703125,624.7402344z"/>
</g>
</svg>
