<?xml version="1.0" encoding="utf-8"?>
<!DOCTYPE svg PUBLIC "-//W3C//DTD SVG 1.1//EN" "http://www.w3.org/Graphics/SVG/1.1/DTD/svg11.dtd">
<svg version="1.1" id="music" xmlns="http://www.w3.org/2000/svg" viewBox="0 0 612 612">
<style type="text/css">
<![CDATA[
	.st0{fill:url(#SVGID_1_);}
	.st1{fill-rule:evenodd;clip-rule:evenodd;fill:#FFFFFF;}
]]>
</style>
<linearGradient id="SVGID_1_" gradientUnits="userSpaceOnUse" x1="-232.0732422" y1="821.5839844" x2="-232.0732574" y2="309.5834961" gradientTransform="matrix(1.1953125 0 0 -1.1953125 583.4003906 982.0488281)">
	<stop  offset="0" style="stop-color:#A423DF"/>
	<stop  offset="1" style="stop-color:#6D2C88"/>
</linearGradient>
<rect class="st0" width="612" height="612"/>
<g>
	<path class="st1" d="M54.472168,477.8886719V132.2910156h188.7128906l34.199707,34.1992188l32.8320313-34.1992188h163.6542969
		l30.6757813,30.671875v34.6328125l14.2539063-12.5273438c6.9121094-5.2578125,12.9589844-7.8496094,18.1445313-7.8496094
		c6.9101563,0,12.4570313,2.8808594,16.7050781,8.5683594s6.3339844,13.7519531,6.3339844,24.2636719
		c-0.6484375,4.8964844-2.375,9.0722656-5.1132813,12.4550781c-2.8046875,3.4570313-6.8359375,7.4179688-12.2363281,12.0253906
		c-5.4023438,4.6074219-9.1464844,8.2792969-11.2324219,10.9433594
		c-3.6738281,4.7519531-8.3515625,10.4414063-14.0429688,16.9921875
		c-5.6152344,6.4804688-10.078125,11.8085938-13.2460938,15.9140625v172.296875l-28.8730469,27.2109375H310.2167969v-120.09375
		l-34.1992188,31.1015625L244.4799805,366.4375v82.9394531l-30.1679688,28.5117188H54.472168L54.472168,477.8886719z
		 M214.3120117,345.3378906V464.5l19.4414063-19.0078125v-86.3261719L214.3120117,345.3378906L214.3120117,345.3378906z
		 M475.2402344,323.6699219v143.0625l19.4414063-19.5117188V293.859375L475.2402344,323.6699219L475.2402344,323.6699219z
		 M475.2402344,146.1152344v90.7207031l19.8730469-28.5117188v-42.265625L475.2402344,146.1152344L475.2402344,146.1152344z
		 M379.8398438,270.0996094l-3.5273438,6.4804688c-2.015625,3.5273438-3.0234375,7.4863281-3.0234375,11.6621094
		c0,4.7519531,1.078125,9.6484375,3.3125,14.6894531c2.2304688,5.0410156,5.9765625,11.9492188,11.3046875,20.7382813
		c5.3984375,8.7070313,9.4296875,15.6914063,12.1679688,20.9472656c2.734375,5.2558594,4.6074219,10.5117188,5.6152344,15.7675781
		c3.5273438,27.9375,11.015625,41.90625,22.4648438,41.90625c0.8652344,0,2.4472656-0.2871094,4.7519531-0.8613281
		c2.375,0,4.2480469-0.796875,5.6171875-2.3085938c1.3671875-1.5117188,2.4453125-3.5273438,3.1660156-6.046875
		s1.2246094-5.2558594,1.5839844-8.2792969c0.2890625-3.0234375,0.5742188-6.1171875,0.8652344-9.2871094
		c0.9355469-5.3261719,2.7324219-10.3710938,5.4707031-15.1933594c2.8085938-4.8925781,4.5371094-8.8535156,5.328125-12.0234375
		c6.9101563-13.8984375,12.3105469-24.046875,16.1289063-30.5273438
		c3.8164063-6.5507813,9.7890625-15.9121094,18.0722656-28.2246094c2.5195313-5.0410156,4.6777344-8.8574219,6.4785156-11.3769531
		c1.8710938-2.5195313,4.75-6.2617188,8.7109375-11.1601563c3.9609375-4.9667969,7.4160156-9.5039063,10.2265625-13.7519531
		c2.9492188-4.4628906,8.1347656-10.1503906,15.6230469-16.9902344
		c7.4882813-6.7695313,12.9609375-12.8164063,16.4160156-17.9277344c3.4570313-5.1855469,5.1835938-11.953125,5.1835938-20.3046875
		c0-3.0957031-1.3671875-6.2636719-4.0332031-9.4316406c-2.6621094-3.2402344-6.2636719-4.8242188-10.7246094-4.8242188
		c-6.6992188,1.3671875-14.90625,7.4863281-24.5546875,18.4296875
		c-9.6484375,11.0175781-18.5039063,22.4648438-26.5664063,34.5605469
		c-7.9921875,12.0253906-16.1308594,24.7695313-24.4101563,38.0898438
		c-1.8710938,3.1660156-3.8867188,8.4960938-6.1210938,15.984375c-2.3007813,7.4863281-4.3164063,12.9589844-6.046875,16.4160156
		c-1.5839844,1.5820313-3.6699219,5.109375-6.2617188,10.5820313c-2.59375,5.4726563-5.1875,9.5800781-7.8496094,12.3867188
		s-6.6230469,4.2480469-11.8066406,4.2480469c-3.8164063-3.890625-6.6972656-9.4335938-8.640625-16.6347656
		c-2.0175781-7.2011719-4.3203125-17.0625-6.9140625-29.6640625c-2.6621094-12.5273438-4.6777344-18.9355469-6.1191406-19.2949219
		c-3.5976563-2.8808594-7.4882813-4.3203125-11.5898438-4.3203125
		C386.1054688,264.5546875,382.6503906,266.4277344,379.8398438,270.0996094L379.8398438,270.0996094z M291.2089844,270.0996094
		c-3.1660156,3.5273438-6.1191406,6.40625-8.8554688,8.7128906c-2.7363281,2.2304688-6.9121094,5.0390625-12.5996094,8.421875
		c-5.6875,3.4570313-9,5.4726563-10.0800781,6.1933594c-4.0332031,4.03125-6.0493164,8.9277344-6.0493164,14.6855469
		c0,4.1777344,1.5839844,7.0546875,4.7524414,8.6425781c1.1542969,0.5742188,2.8808594,0.7910156,5.1855469,0.7910156
		c5.4726563,0,11.8066406-3.5273438,19.0078125-10.7285156c5.3984375-5.6875,10.5117188-11.015625,15.4082031-15.9101563
		c4.8222656-4.96875,9.8613281-9.0722656,15.0488281-12.3847656c5.2539063-3.3847656,11.0859375-5.6152344,17.4960938-6.6953125
		c0,0.2148438,1.0078125,3.9589844,3.0234375,11.2304688c2.015625,7.3457031,3.0234375,13.1035156,3.0234375,17.3535156
		c0,9.5761719,0.2148438,19.2207031,0.6464844,28.8007813c0.4335938,9.5039063,0.6464844,15.4804688,0.6464844,17.7832031
		c0,7.125-1.0078125,17.9296875-2.9492188,32.3964844c-1.2246094,6.5566406-1.8007813,11.015625-1.8007813,13.3945313
		c0,4.96875,1.4414063,11.8828125,4.3203125,20.7363281c0.5039063,1.7988281,1.0078125,4.7519531,1.4375,8.8535156
		c0.4335938,4.1074219,1.0820313,7.1308594,1.9453125,9c0.7929688,1.875,2.4492188,2.8828125,4.8261719,2.8828125
		c1.7988281,0.8613281,3.3847656,1.3652344,4.7519531,1.3652344c4.390625,0,7.9179688-3.3105469,10.4375-9.8613281
		c2.5195313-6.4804688,3.8183594-14.6191406,3.8183594-24.3339844c-2.5917969-10.3007813-3.9609375-20.5957031-3.9609375-30.6738281
		v-15.9140625c1.2246094-18.0703125,1.7988281-29.7363281,1.7988281-35.0625c0-4.3183594-0.1445313-7.2011719-0.4296875-8.6425781
		c-0.3613281-3.1640625-1.5117188-8.3496094-3.3144531-15.5488281c-1.8730469-7.2714844-2.7324219-12.7441406-2.7324219-16.3457031
		c0-5.4707031,1.6542969-10.9433594,5.109375-16.4882813c8.7109375-17.7109375,29.5917969-30.2382813,62.7109375-37.5117188
		c6.265625-3.1679688,9.4316406-7.0566406,9.4316406-11.7363281c0-5.7597656-5.5429688-8.6386719-16.7753906-8.6386719
		c-5.4726563,0-10.3671875,0.9355469-14.6132813,2.8066406c-4.3203125,1.8730469-9.578125,4.7539063-15.6972656,8.7148438
		c-6.1933594,4.03125-11.4492188,6.9824219-15.7675781,9.0703125c-4.2480469,2.0878906-8.9296875,3.3105469-14.0429688,3.671875
		c-4.2460938,0.2167969-8.0625,0.359375-11.3007813,0.5761719c-3.3144531,0.1445313-6.1953125,0.8632813-8.7148438,2.015625
		s-5.1113281,3.3847656-7.7734375,6.6972656c-2.7382813,3.3105469-5.5429688,7.9199219-8.4960938,13.9667969
		c-0.3613281,1.5839844-4.609375,4.1035156-12.5273438,7.4882813
		C299.6328125,263.3300781,294.1601563,266.7871094,291.2089844,270.0996094L291.2089844,270.0996094z"/>
</g>
</svg>
