<?xml version="1.0" encoding="utf-8"?>
<!DOCTYPE svg PUBLIC "-//W3C//DTD SVG 1.1//EN" "http://www.w3.org/Graphics/SVG/1.1/DTD/svg11.dtd">
<svg version="1.1" id="Layer_1" xmlns="http://www.w3.org/2000/svg" viewBox="200 0 512 512">
<style type="text/css">
<![CDATA[
	.st0{display:none;fill:#FFFFFF;}
	.st1{fill:url(#SVGID_1_);}
	.st2{fill:#FFFFFF;}
]]>
</style>
<g id="">
	
		<linearGradient id="SVGID_1_" gradientUnits="userSpaceOnUse" x1="157.300293" y1="537.1865234" x2="157.3002777" y2="69.0722656" gradientTransform="matrix(1.09375 0 0 -1.09375 283.953125 587.546875)">
		<stop  offset="0" style="stop-color:#047FF1"/>
		<stop  offset="0.1764294" style="stop-color:#077BE8"/>
		<stop  offset="0.4696989" style="stop-color:#0E72CE"/>
		<stop  offset="0.841405" style="stop-color:#1A62A5"/>
		<stop  offset="0.994382" style="stop-color:#205B92"/>
	</linearGradient>
	<rect x="200" class="st1" width="512" height="512"/>
	<g id="">
		<g>
			<g>
				<path class="st2" d="M420.690918,228.5429688c-2.9267578-1.7919922-6.1586914-3.5625-9.6987305-5.3110352
					c-3.5405273-1.7446289-7.3173828-3.2783203-11.3286133-4.6015625c-4.0136719-1.3198242-8.237793-2.4072266-12.6733398-3.2563477
					c-4.4384766-0.8491211-9.0625-1.2739258-13.8769531-1.2739258c-5.3808594,0-9.9121094,0.7319336-13.59375,2.1943359
					c-3.6816406,1.465332-6.6088867,3.2822266-8.7792969,5.4521484c-2.1728516,2.1723633-3.7304688,4.5097656-4.6728516,7.0092773
					c-0.9453125,2.5019531-1.4160156,4.8378906-1.4160156,7.0087891c0,3.1152344,0.4956055,5.9716797,1.4868164,8.5673828
					c0.9912109,2.5976563,2.5488281,5.0976563,4.6728516,7.5039063c2.1235352,2.4082031,4.9072266,4.8632813,8.3544922,7.3632813
					c3.4448242,2.5029297,7.6220703,5.2636719,12.5317383,8.2841797c6.418457,3.9648438,12.1069336,7.9541016,17.0634766,11.9658203
					c4.9550781,4.0136719,9.1796875,8.3076172,12.6733398,12.8847656c3.4907227,4.5800781,6.1347656,9.5585938,7.9291992,14.9394531
					c1.7919922,5.3808594,2.6904297,11.4238281,2.6904297,18.125c0,3.8720703-0.4492188,8.1201172-1.3447266,12.7441406
					c-0.8994141,4.6269531-2.4321289,9.2753906-4.6025391,13.9472656
					c-2.1723633,4.6738281-5.1679688,9.1826172-8.9921875,13.5234375c-3.8232422,4.34375-8.6152344,8.1660156-14.3720703,11.4697266
					c-5.7592773,3.3056641-12.6733398,5.9716797-20.7451172,8.0009766
					c-8.0708008,2.0283203-17.4873047,3.0439453-28.2490234,3.0439453c-6.0424805,0-11.9189453-0.4023438-17.6293945-1.2041016
					c-5.7128906-0.8027344-11.1401367-1.8886719-16.2841797-3.2558594
					c-5.1464844-1.3681641-9.9365234-2.9033203-14.3725586-4.6025391
					c-4.4384766-1.6992188-8.3544922-3.4443359-11.7529297-5.2392578l7.7880859-40.2148438
					c3.4912109,2.5488281,7.2924805,4.9560547,11.3989258,7.2216797s8.4008789,4.2480469,12.8857422,5.9472656
					c4.4824219,1.6992188,9.1333008,3.0224609,13.9477539,3.9648438c4.8144531,0.9443359,9.675293,1.4160156,14.5849609,1.4160156
					c5.3808594,0,9.9584961-0.5888672,13.7353516-1.7705078c3.7744141-1.1787109,6.8432617-2.8066406,9.2041016-4.8847656
					c2.3583984-2.0751953,4.0576172-4.4824219,5.0976563-7.2216797c1.0375977-2.7373047,1.5576172-5.6640625,1.5576172-8.7792969
					s-0.4956055-5.9228516-1.4868164-8.4248047c-0.9912109-2.5-2.6196289-4.9082031-4.8852539-7.2226563
					c-2.265625-2.3115234-5.2636719-4.71875-8.9916992-7.2207031c-3.7299805-2.5-8.2836914-5.3105469-13.6645508-8.4257813
					c-5.7592773-3.2080078-10.9985352-6.6777344-15.7177734-10.4082031
					c-4.7216797-3.7275391-8.7792969-7.8808594-12.1777344-12.4609375
					c-3.3984375-4.5771484-6.0424805-9.6748047-7.9296875-15.2929688
					c-1.8896484-5.6152344-2.8320313-11.8691406-2.8320313-18.7617188c0-7.8339844,1.4624023-15.5273438,4.3896484-23.0810547
					c2.9248047-7.5517578,7.5048828-14.3017578,13.7353516-20.2490234s14.1821289-10.7373047,23.8598633-14.3730469
					c9.675293-3.6323242,21.2158203-5.4511719,34.621582-5.4511719c5.5688477,0,10.949707,0.3076172,16.1420898,0.9204102
					c5.1914063,0.6152344,10.1464844,1.4404297,14.8686523,2.4780273c4.71875,1.0400391,9.1557617,2.21875,13.3110352,3.5400391
					c4.152832,1.3232422,7.9291992,2.6904297,11.3276367,4.1064453L420.690918,228.5429688z"/>
				<path class="st2" d="M637.625,263.6601563c0,10.6689453-1.0859375,21.0761719-3.2558594,31.2226563
					c-2.1738281,10.1494141-5.4511719,19.7070313-9.8417969,28.6748047
					c-4.3886719,8.9697266-9.9355469,17.1826172-16.6386719,24.6386719
					c-6.703125,7.4580078-14.609375,13.8769531-23.7167969,19.2578125
					c-9.1113281,5.3808594-19.4707031,9.5830078-31.0820313,12.6025391
					c-11.6113281,3.0224609-24.4980469,4.53125-38.6582031,4.53125h-82.1289063L475.4921875,181.53125h71.3671875
					c14.9140625,0,28.0117188,2.03125,39.2949219,6.0888672c11.2792969,4.0595703,20.7441406,9.7001953,28.390625,16.9208984
					c7.6464844,7.2231445,13.4023438,15.8588867,17.2753906,25.9140625
					C635.6894531,240.5078125,637.625,251.578125,637.625,263.6601563z M589.1972656,267.2001953
					c0-7.5517578-1.0605469-14.3232422-3.1855469-20.3193359c-2.1230469-5.9941406-5.3808594-11.0673828-9.7695313-15.2226563
					c-4.390625-4.1523438-9.9375-7.3383789-16.6386719-9.5581055c-6.7050781-2.2172852-14.6347656-3.3276367-23.7890625-3.3276367
					h-22.2324219l-27.328125,128.7158203h27.8945313c11.5175781,0,21.9003906-1.9121094,31.1523438-5.734375
					c9.2519531-3.8242188,17.1347656-9.2509766,23.6484375-16.2851563
					c6.5136719-7.03125,11.515625-15.4804688,15.0097656-25.3457031
					C587.4492188,290.2597656,589.1972656,279.2851563,589.1972656,267.2001953z"/>
			</g>
			<g>
				<path class="st0" d="M338.2084961,173.5839844c-9.6777344,3.6357422-17.6293945,8.4257813-23.8598633,14.3730469
					s-10.8105469,12.6972656-13.7353516,20.2490234c-2.9272461,7.5537109-4.3896484,15.2470703-4.3896484,23.0810547
					c0,6.8925781,0.9423828,13.1464844,2.8320313,18.7617188c1.887207,5.6181641,4.53125,10.7158203,7.9296875,15.2929688
					c3.3984375,4.5800781,7.4560547,8.7333984,12.1777344,12.4609375
					c4.7192383,3.7304688,9.9584961,7.2001953,15.7177734,10.4082031c5.3808594,3.1152344,9.9345703,5.9257813,13.6645508,8.4257813
					c3.7280273,2.5019531,6.7260742,4.9091797,8.9916992,7.2207031c2.265625,2.3144531,3.894043,4.7226563,4.8852539,7.2226563
					c0.9912109,2.5019531,1.4868164,5.3095703,1.4868164,8.4248047s-0.5200195,6.0419922-1.5576172,8.7792969
					c-1.0400391,2.7392578-2.7392578,5.1464844-5.0976563,7.2216797c-2.3608398,2.078125-5.4296875,3.7060547-9.2041016,4.8847656
					c-3.7768555,1.1816406-8.3544922,1.7705078-13.7353516,1.7705078c-4.909668,0-9.7705078-0.4716797-14.5849609-1.4160156
					c-4.8144531-0.9423828-9.465332-2.265625-13.9477539-3.9648438c-4.4848633-1.6992188-8.7792969-3.6816406-12.8857422-5.9472656
					s-7.9077148-4.6728516-11.3989258-7.2216797l-7.7880859,40.2148438
					c3.3984375,1.7949219,7.3144531,3.5400391,11.7529297,5.2392578c4.4360352,1.6992188,9.2260742,3.234375,14.3725586,4.6025391
					c5.144043,1.3671875,10.5712891,2.453125,16.2841797,3.2558594c5.7104492,0.8017578,11.5869141,1.2041016,17.6293945,1.2041016
					c10.7617188,0,20.1782227-1.015625,28.2490234-3.0439453c8.0717773-2.0292969,14.9858398-4.6953125,20.7451172-8.0009766
					c5.7568359-3.3037109,10.5488281-7.1259766,14.3720703-11.4697266
					c3.8242188-4.3408203,6.8198242-8.8496094,8.9921875-13.5234375c2.1704102-4.671875,3.703125-9.3203125,4.6025391-13.9472656
					c0.8955078-4.6240234,1.3447266-8.8720703,1.3447266-12.7441406c0-6.7011719-0.8984375-12.7441406-2.6904297-18.125
					c-1.7944336-5.3808594-4.4384766-10.359375-7.9291992-14.9394531
					c-3.4936523-4.5771484-7.7182617-8.8710938-12.6733398-12.8847656
					c-4.956543-4.0117188-10.6450195-8.0009766-17.0634766-11.9658203c-4.909668-3.0205078-9.0869141-5.78125-12.5317383-8.2841797
					c-3.4472656-2.5-6.230957-4.9550781-8.3544922-7.3632813c-2.1240234-2.40625-3.6816406-4.90625-4.6728516-7.5039063
					c-0.9912109-2.5957031-1.4868164-5.4521484-1.4868164-8.5673828c0-2.1708984,0.4707031-4.5068359,1.4160156-7.0087891
					c0.9423828-2.4995117,2.5-4.8369141,4.6728516-7.0092773c2.1704102-2.1699219,5.0976563-3.9868164,8.7792969-5.4521484
					c0.5742188-0.2280273,1.1767578-0.4321289,1.7924805-0.6245117l7.8959961-37.4746094
					C357.3413086,168.4980469,346.9970703,170.284668,338.2084961,173.5839844z"/>
				<path class="st0" d="M403.8408203,171.53125c-0.1098633-0.0239258-0.2231445-0.0449219-0.3330078-0.0688477
					l-7.6220703,36.0219727c1.2773438,0.3623047,2.5410156,0.7392578,3.777832,1.1459961
					c4.0112305,1.3232422,7.7880859,2.8569336,11.3286133,4.6015625c3.5400391,1.7485352,6.7719727,3.519043,9.6987305,5.3110352
					l7.7885742-39.3652344c-3.3984375-1.4160156-7.1748047-2.7832031-11.3276367-4.1064453
					C412.996582,173.75,408.5595703,172.5712891,403.8408203,171.53125z"/>
				<path class="st0" d="M631.8203125,220.4550781c-3.8730469-10.0551758-9.6289063-18.690918-17.2753906-25.9140625
					c-7.6464844-7.2207031-17.1113281-12.8613281-28.390625-16.9208984
					c-2.8583984-1.0283203-5.8359375-1.9238281-8.9277344-2.6914063l-20.4482422,36.328125
					c0.9628906,0.2617188,1.9082031,0.5400391,2.8251953,0.8432617c6.7011719,2.2197266,12.2480469,5.4057617,16.6386719,9.5581055
					c4.3886719,4.1552734,7.6464844,9.2285156,9.7695313,15.2226563c2.125,5.9960938,3.1855469,12.7675781,3.1855469,20.3193359
					c0,12.0849609-1.7480469,23.0595703-5.2382813,32.9228516c-3.4941406,9.8652344-8.4960938,18.3144531-15.0097656,25.3457031
					c-6.5136719,7.0341797-14.3964844,12.4609375-23.6484375,16.2851563
					c-9.2519531,3.8222656-19.6347656,5.734375-31.1523438,5.734375h-27.8945313L508.6503906,232h-22.5341797l-7.7617188-60.46875
					h-2.8623047l-43.1894531,203.0566406h82.1289063c14.1601563,0,27.046875-1.5087891,38.6582031-4.53125
					c11.6113281-3.0195313,21.9707031-7.2216797,31.0820313-12.6025391
					c9.1074219-5.3808594,17.0136719-11.7998047,23.7167969-19.2578125c6.703125-7.4560547,12.25-15.6689453,16.6386719-24.6386719
					c4.390625-8.9677734,7.6679688-18.5253906,9.8417969-28.6748047
					c2.1699219-10.1464844,3.2558594-20.5537109,3.2558594-31.2226563
					C637.625,241.578125,635.6894531,230.5078125,631.8203125,220.4550781z"/>
				<polygon class="st0" points="525.8505859,208.7724609 544.6259766,171.53125 511.9765625,171.53125 515.6230469,208.7724609 
									"/>
				<path class="st0" d="M373.1132813,204.1000977c-4.5415039,0-8.4702148,0.527832-11.8012695,1.5698242l-4.7944336,22.7558594
					c3.3085938-0.2583008,6.7392578-0.3452148,10.3125-0.3452148c5.5688477,0,10.949707,0.3334961,16.1420898,0.9467773
					c2.7788086,0.3291016,5.4833984,0.6318359,8.1269531,1.081543l4.7866211-22.6245117
					c-2.8662109-0.8134766-5.8266602-1.5229492-8.8955078-2.1103516
					C382.5517578,204.5249023,377.9277344,204.1000977,373.1132813,204.1000977z"/>
				<path class="st2" d="M388.972168,169.0532227c5.0708008,0.6010742,9.9125977,1.4057617,14.5356445,2.4091797L411.0107422,136
					h43.3984375l6.1230469-28H338.1787109l-6.1230469,28h43.9355469l-6.7832031,32.1953125
					c1.1972656-0.0307617,2.3930664-0.0625,3.6220703-0.0625
					C378.3989258,168.1328125,383.7797852,168.4404297,388.972168,169.0532227z"/>
				<polygon class="st2" points="505.7568359,108 470.2001953,108 478.3544922,171.53125 511.9765625,171.53125 				"/>
				<path class="st2" d="M577.2265625,174.9287109L614.8974609,108h-38.2421875l-32.0292969,63.53125h2.2333984
					C557.9951172,171.53125,568.1152344,172.6660156,577.2265625,174.9287109z"/>
				<path class="st0" d="M525.8505859,208.7724609l-2.6914063,5.3388672
					c-1.5039063,3.0078125-2.7763672,5.5644531-3.8134766,8.1425781C518.3066406,224.8320313,517.4658203,227,516.8212891,229
					h-0.859375c0.4296875-2,0.6259766-4.4101563,0.5908203-7.0253906c-0.0371094-2.6132813-0.1611328-5.0385742-0.3759766-7.5463867
					l-0.5537109-5.6557617h-2.0410156L508.6503906,232h32.2089844c1.4199219,0,2.8076172,0.0532227,4.1953125,0.0864258
					l11.7236328-20.8295898c-6.0771484-1.6523438-13.0615234-2.484375-20.9638672-2.484375H525.8505859z"/>
			</g>
		</g>
	</g>
</g>
</svg>
